<svg width="37" height="41" viewBox="0 0 37 41" fill="none" xmlns="http://www.w3.org/2000/svg">
<path d="M3.12374 0.0771484H24.8191L36.3185 11.532V38.3789C36.3185 39.7896 35.1746 40.9323 33.7651 40.9323H3.12374C1.7142 40.9323 0.570312 39.7896 0.570312 38.3789V2.63057C0.570312 1.21984 1.71433 0.0771484 3.12374 0.0771484Z" fill="#005678"/>
<path d="M36.2816 11.5675H27.3815C25.972 11.5675 24.8281 10.4236 24.8281 9.0141V0.102539L36.2816 11.5675Z" fill="#002331"/>
<path d="M13.6522 23.7881H10.8397V26.6934H9.37484V19.584H14.0037V20.7705H10.8397V22.6064H13.6522V23.7881ZM16.411 26.6934H14.9461V19.584H16.411V26.6934ZM19.2381 25.5166H22.3485V26.6934H17.7733V19.584H19.2381V25.5166ZM27.4705 23.6123H24.658V25.5166H27.9588V26.6934H23.1932V19.584H27.9491V20.7705H24.658V22.4648H27.4705V23.6123Z" fill="white"/>
</svg>
