<svg width="37" height="42" viewBox="0 0 37 42" fill="none" xmlns="http://www.w3.org/2000/svg">
<path d="M3.05574 0.192383H24.7708L36.2807 11.6576V38.5289C36.2807 39.941 35.1358 41.0847 33.7249 41.0847H3.05574C1.64492 41.0847 0.5 39.941 0.5 38.5289V2.74813C0.5 1.33611 1.64505 0.192383 3.05574 0.192383Z" fill="#FFA800"/>
<path d="M36.2451 11.6932H27.337C25.9262 11.6932 24.7812 10.5482 24.7812 9.13742V0.217773L36.2451 11.6932Z" fill="#D18A00"/>
<path d="M12.8754 25.6475H16.4594V26.8242H11.0444V25.9648L14.56 20.9014H11.0492V19.7148H16.3813V20.5547L12.8754 25.6475ZM18.9447 26.8242H17.4799V19.7148H18.9447V26.8242ZM21.7719 24.3193V26.8242H20.307V19.7148H23.0805C23.6143 19.7148 24.0831 19.8125 24.4867 20.0078C24.8936 20.2031 25.2061 20.4814 25.4242 20.8428C25.6423 21.2008 25.7514 21.6094 25.7514 22.0684C25.7514 22.765 25.5121 23.3151 25.0336 23.7188C24.5584 24.1191 23.8992 24.3193 23.0561 24.3193H21.7719ZM21.7719 23.1328H23.0805C23.4679 23.1328 23.7625 23.0417 23.9643 22.8594C24.1694 22.6771 24.2719 22.4167 24.2719 22.0781C24.2719 21.7298 24.1694 21.4482 23.9643 21.2334C23.7592 21.0186 23.476 20.9079 23.1147 20.9014H21.7719V23.1328Z" fill="white"/>
</svg>
