<svg width="37" height="42" viewBox="0 0 37 42" fill="none" xmlns="http://www.w3.org/2000/svg">
<path d="M3.05845 0.256836H24.7964L36.3185 11.7342V38.6339C36.3185 40.0474 35.1724 41.1924 33.7601 41.1924H3.05845C1.64613 41.1924 0.5 40.0474 0.5 38.6339V2.81528C0.5 1.40178 1.64626 0.256836 3.05845 0.256836Z" fill="#E2574C"/>
<path d="M36.2807 11.7698H27.3631C25.9508 11.7698 24.8047 10.6236 24.8047 9.21131V0.282227L36.2807 11.7698Z" fill="#B53629"/>
<path d="M11.2716 24.4023V26.9072H9.80676V19.7979H12.5802C13.114 19.7979 13.5828 19.8955 13.9864 20.0908C14.3933 20.2861 14.7058 20.5645 14.9239 20.9258C15.142 21.2839 15.2511 21.6924 15.2511 22.1514C15.2511 22.848 15.0118 23.3981 14.5333 23.8018C14.0581 24.2021 13.3989 24.4023 12.5558 24.4023H11.2716ZM11.2716 23.2158H12.5802C12.9676 23.2158 13.2622 23.1247 13.464 22.9424C13.6691 22.7601 13.7716 22.4997 13.7716 22.1611C13.7716 21.8128 13.6691 21.5312 13.464 21.3164C13.2589 21.1016 12.9757 20.9909 12.6144 20.9844H11.2716V23.2158ZM16.2618 26.9072V19.7979H18.4493C19.0743 19.7979 19.6326 19.9395 20.1241 20.2227C20.6189 20.5026 21.0047 20.903 21.2814 21.4238C21.5581 21.9414 21.6964 22.5306 21.6964 23.1914V23.5186C21.6964 24.1794 21.5597 24.7669 21.2862 25.2812C21.0161 25.7956 20.6336 26.1943 20.1388 26.4775C19.644 26.7607 19.0857 26.904 18.464 26.9072H16.2618ZM17.7267 20.9844V25.7305H18.4347C19.0076 25.7305 19.4454 25.5433 19.7482 25.1689C20.0509 24.7946 20.2055 24.2591 20.212 23.5625V23.1865C20.212 22.4639 20.0623 21.917 19.7628 21.5459C19.4633 21.1715 19.0255 20.9844 18.4493 20.9844H17.7267ZM27.0431 24.002H24.2306V26.9072H22.7657V19.7979H27.3946V20.9844H24.2306V22.8203H27.0431V24.002Z" fill="white"/>
</svg>
