<svg width="193" height="36" viewBox="0 0 193 36" fill="none" xmlns="http://www.w3.org/2000/svg">
<g clip-path="url(#clip0)">
<path d="M66.238 0H62.8438V17.9453H66.238V0Z" fill="white"/>
<path d="M91.3338 0H87.9624V12.1512L77.8841 0H75.0898V17.9453H78.458V5.7941L88.5395 17.9453H91.3338V0Z" fill="white"/>
<path d="M100.156 17.9453H103.554V11.0735H112.38V8.25523H103.554V2.79571H113.502V0H100.156V17.9453Z" fill="white"/>
<path d="M124.101 0H120.707V17.9453H124.101V0Z" fill="white"/>
<path d="M149.197 0H145.829V12.1512L135.747 0H132.953V17.9453H136.325V5.7941L146.403 17.9453H149.197V0Z" fill="white"/>
<path d="M161.418 10.2016H170.244V7.46059H161.418V2.79571H171.365V0H158.023V17.9453H171.734V15.1496H161.418V10.2016Z" fill="white"/>
<path d="M177.084 0V2.81823H183.142V17.9453H186.539V2.81823H192.598V0H177.084Z" fill="white"/>
<path d="M73.6609 31.9848L73.2762 33.7125H73.1555L72.6893 32.0363L71.9459 30.3602L70.5341 27.0562H69.3375L67.3029 31.9527L66.8334 33.7285H66.6802L66.3606 31.9848L64.4793 27.0562H62.7969L66.1422 35.9516H66.9508L69.3212 30.3409V30.3602L69.8266 28.7323L70.2635 30.3409V30.3248L72.7382 35.9516H73.5762L76.791 27.0562H75.3108L73.6609 31.9848Z" fill="white"/>
<path d="M82.8455 23.9871C82.6981 23.9836 82.5515 24.0103 82.4151 24.0657C82.2787 24.1211 82.1554 24.2039 82.0532 24.3088C81.9586 24.3978 81.8831 24.5046 81.831 24.6228C81.7789 24.741 81.7514 24.8684 81.75 24.9973C81.7503 25.124 81.7775 25.2493 81.8297 25.3651C81.8819 25.4809 81.958 25.5846 82.0532 25.6697C82.1592 25.7675 82.2838 25.8434 82.4199 25.8931C82.5559 25.9428 82.7006 25.9653 82.8455 25.9592C83.1419 25.9693 83.4306 25.8655 83.6509 25.6697C83.751 25.5874 83.832 25.4847 83.8883 25.3686C83.9445 25.2526 83.9748 25.1259 83.9769 24.9973C83.9738 24.8666 83.9432 24.7379 83.8871 24.6194C83.8309 24.5008 83.7505 24.3951 83.6509 24.3088C83.5453 24.2048 83.4196 24.1227 83.2813 24.0674C83.1429 24.0121 82.9948 23.9848 82.8455 23.9871Z" fill="white"/>
<path d="M83.6191 27.0562H82.0703V35.7682H83.6191V27.0562Z" fill="white"/>
<path d="M94.0464 26.857C93.5899 26.8402 93.1394 26.9651 92.7585 27.2141C92.3895 27.4815 92.0827 27.8238 91.8586 28.2178H91.7086L91.4054 27.0564H90.3164V35.7685H91.8652V29.8875C91.9321 29.4547 92.1487 29.058 92.4781 28.7647C92.8667 28.4396 93.3686 28.2768 93.8769 28.3111C94.047 28.3126 94.2164 28.332 94.3823 28.369C94.5616 28.4044 94.7475 28.4462 94.9366 28.4945L95.2398 27.0339C95.0271 26.9677 94.8089 26.9203 94.5877 26.8924C94.4081 26.8703 94.2274 26.8585 94.0464 26.857Z" fill="white"/>
<path d="M106.406 27.481C106.059 27.2198 105.656 27.0385 105.229 26.9501C104.801 26.8559 104.363 26.8084 103.925 26.8086C102.545 26.8086 101.482 27.2043 100.736 27.9957C99.9926 28.7839 99.6177 29.926 99.6177 31.422C99.61 32.0613 99.6957 32.6984 99.872 33.3137C100.021 33.8446 100.284 34.3374 100.645 34.7582C101.009 35.1664 101.467 35.482 101.982 35.6783C102.597 35.9056 103.251 36.0148 103.908 36C104.551 36.0065 105.192 35.9198 105.809 35.7426C106.333 35.6039 106.827 35.3752 107.27 35.067L106.683 33.9056C106.399 34.1583 106.066 34.3529 105.705 34.4783C105.275 34.6396 104.819 34.7214 104.358 34.7196C103.228 34.7196 102.426 34.4601 101.952 33.941C101.478 33.422 101.232 32.6531 101.212 31.6343H107.521C107.555 31.4082 107.576 31.1806 107.586 30.9523C107.586 30.7207 107.586 30.5148 107.586 30.3378C107.611 29.7295 107.499 29.1233 107.26 28.5619C107.071 28.1374 106.777 27.766 106.406 27.481ZM101.261 30.5244C101.339 29.6397 101.607 29.0156 102.07 28.6488C102.608 28.2592 103.268 28.0659 103.935 28.1019C104.53 28.0651 105.116 28.2616 105.565 28.6488C105.953 29.0156 106.132 29.6397 106.113 30.5244H101.261Z" fill="white"/>
<path d="M116.726 34.6747C116.553 34.6969 116.379 34.7076 116.205 34.7069C116.074 34.713 115.944 34.6908 115.824 34.6419C115.703 34.5929 115.595 34.5185 115.507 34.4238C115.303 34.1444 115.21 33.801 115.246 33.4586V24.1514H113.697V34.028C113.697 34.7358 113.877 35.242 114.235 35.5465C114.646 35.8661 115.161 36.0273 115.683 36.0002C115.817 36.0002 115.967 36.0002 116.136 35.9776C116.306 35.9551 116.462 35.9358 116.642 35.9036C116.821 35.8715 116.968 35.8329 117.127 35.7943C117.265 35.7619 117.4 35.72 117.532 35.6688L117.329 34.5428C117.132 34.5996 116.93 34.6437 116.726 34.6747Z" fill="white"/>
<path d="M128.846 27.481C128.498 27.2205 128.096 27.0393 127.669 26.9501C127.241 26.8563 126.804 26.8088 126.365 26.8086C124.987 26.8086 123.925 27.2043 123.18 27.9957C122.433 28.7839 122.061 29.926 122.061 31.422C122.053 32.0612 122.137 32.6983 122.312 33.3137C122.464 33.8436 122.727 34.3359 123.085 34.7582C123.449 35.1664 123.908 35.482 124.422 35.6783C125.037 35.9056 125.691 36.0148 126.349 36C126.992 36.0067 127.632 35.92 128.25 35.7426C128.771 35.6028 129.263 35.3742 129.704 35.067L129.117 33.8928C128.832 34.1454 128.5 34.34 128.139 34.4654C127.709 34.627 127.252 34.7088 126.792 34.7067C125.662 34.7067 124.86 34.4472 124.386 33.9282C123.912 33.4091 123.665 32.6402 123.646 31.6215H129.955C129.987 31.3995 130.01 31.1711 130.023 30.9394C130.036 30.7078 130.023 30.5019 130.023 30.3249C130.048 29.7166 129.936 29.1104 129.697 28.5491C129.506 28.1301 129.214 27.7635 128.846 27.481ZM123.698 30.5244C123.776 29.6408 124.046 29.0156 124.507 28.6488C125.046 28.2602 125.705 28.067 126.372 28.1019C126.967 28.0651 127.553 28.2616 128.002 28.6488C128.391 29.0156 128.573 29.6408 128.55 30.5244H123.698Z" fill="white"/>
<path d="M141.005 31.3642C140.72 31.1633 140.408 31.002 140.079 30.8849C139.753 30.7691 139.407 30.6661 139.071 30.5632C138.823 30.4956 138.589 30.4281 138.364 30.3541C138.16 30.2918 137.963 30.2087 137.777 30.1063C137.622 30.026 137.485 29.9167 137.372 29.7846C137.268 29.6487 137.214 29.4819 137.219 29.3117C137.198 29.1302 137.224 28.9463 137.294 28.7774C137.365 28.6085 137.478 28.4602 137.623 28.3466C137.999 28.1436 138.425 28.051 138.853 28.0795C139.323 28.0751 139.791 28.1457 140.238 28.2886C140.609 28.4064 140.972 28.5471 141.324 28.7101L141.693 27.4232C141.283 27.262 140.862 27.1288 140.434 27.0243C139.851 26.8786 139.251 26.8115 138.651 26.8248C137.865 26.7802 137.089 27.0078 136.456 27.4683C135.935 27.8865 135.674 28.5299 135.674 29.3986C135.653 29.75 135.725 30.1007 135.883 30.4165C136.041 30.7322 136.279 31.0022 136.574 31.2002C136.846 31.3876 137.147 31.5329 137.464 31.6313C137.79 31.7374 138.116 31.834 138.442 31.9208C138.699 31.998 138.947 32.0752 139.182 32.1525C139.399 32.2221 139.608 32.3149 139.805 32.4291C139.974 32.5233 140.119 32.6529 140.232 32.8088C140.343 32.9731 140.399 33.1678 140.392 33.3653C140.412 33.5714 140.375 33.779 140.284 33.9656C140.193 34.1522 140.052 34.3107 139.876 34.4238C139.457 34.6313 138.992 34.7309 138.523 34.7133C138.013 34.7119 137.506 34.6282 137.024 34.4656C136.607 34.3314 136.203 34.1646 135.814 33.9669L135.377 35.2956C135.803 35.5083 136.251 35.6745 136.714 35.7911C137.326 35.9449 137.957 36.0174 138.589 36.0066C139.71 36.0066 140.551 35.7503 141.112 35.2377C141.39 34.9832 141.608 34.6728 141.754 34.3275C141.899 33.9822 141.967 33.6102 141.953 33.2366C141.973 32.8718 141.897 32.5081 141.732 32.1811C141.567 31.854 141.318 31.5748 141.011 31.3707L141.005 31.3642Z" fill="white"/>
<path d="M152.761 31.3641C152.476 31.1632 152.165 31.0019 151.835 30.8848C151.509 30.769 151.163 30.666 150.824 30.5631C150.58 30.4955 150.342 30.4279 150.12 30.3539C149.916 30.291 149.718 30.208 149.53 30.1062C149.376 30.025 149.239 29.9159 149.126 29.7845C149.023 29.6483 148.97 29.4815 148.976 29.3116C148.953 29.13 148.979 28.9458 149.05 28.7767C149.121 28.6077 149.234 28.4595 149.38 28.3464C149.754 28.1436 150.18 28.0509 150.606 28.0794C151.077 28.0747 151.546 28.1453 151.995 28.2885C152.366 28.4062 152.728 28.547 153.081 28.71L153.449 27.4231C153.038 27.2615 152.617 27.1282 152.187 27.0242C151.605 26.8783 151.005 26.8112 150.404 26.8247C149.619 26.7807 148.843 27.0082 148.209 27.4682C147.688 27.8864 147.427 28.5298 147.427 29.3984C147.412 29.7799 147.5 30.1584 147.681 30.4955C147.844 30.7746 148.066 31.0151 148.333 31.2001C148.607 31.3874 148.909 31.5328 149.227 31.6312C149.553 31.7373 149.879 31.8338 150.205 31.9207C150.462 31.9979 150.707 32.0751 150.945 32.1523C151.161 32.2219 151.369 32.3147 151.565 32.429C151.734 32.524 151.88 32.6534 151.995 32.8086C152.106 32.973 152.162 33.1677 152.155 33.3652C152.173 33.5738 152.132 33.7832 152.036 33.9702C151.941 34.1571 151.794 34.3141 151.613 34.4237C151.195 34.6318 150.729 34.7315 150.26 34.7132C149.751 34.712 149.245 34.6284 148.764 34.4655C148.348 34.3313 147.943 34.1645 147.554 33.9668L147.117 35.2955C147.543 35.5088 147.991 35.6749 148.454 35.7909C149.066 35.9448 149.697 36.0173 150.329 36.0065C151.45 36.0065 152.292 35.7502 152.852 35.2376C153.13 34.9831 153.349 34.6727 153.494 34.3274C153.639 33.9821 153.707 33.6101 153.694 33.2365C153.713 32.8717 153.637 32.508 153.472 32.1809C153.307 31.8539 153.058 31.5747 152.751 31.3706L152.761 31.3641Z" fill="white"/>
<path d="M35.4122 14.2039L35.3307 14.0881L23.1298 2.04951C21.8243 0.765463 20.0562 0.0444336 18.2129 0.0444336C16.3696 0.0444336 14.6015 0.765463 13.2961 2.04951L2.03749 13.1616C1.39155 13.7985 0.879142 14.5548 0.529542 15.3873C0.179941 16.2197 0 17.112 0 18.013C0 18.9141 0.179941 19.8064 0.529542 20.6388C0.879142 21.4712 1.39155 22.2276 2.03749 22.8645L13.2961 33.9734C14.6007 35.259 16.3691 35.9811 18.2129 35.9811C20.0568 35.9811 21.8252 35.259 23.1298 33.9734L25.2589 31.8726L22.9537 29.598L13.3678 20.1396C12.8617 19.5335 12.5849 18.7726 12.5849 17.9873C12.5849 17.202 12.8617 16.4411 13.3678 15.835L22.9276 6.40232L32.8103 16.1503C33.1722 16.706 33.3646 17.3525 33.3646 18.013C33.3646 18.6735 33.1722 19.3201 32.8103 19.8758L27.6554 24.9589L29.9606 27.2334L35.3307 21.938L35.4122 21.8189C36.202 20.7022 36.6255 19.3732 36.6255 18.0114C36.6255 16.6497 36.202 15.3207 35.4122 14.2039ZM11.0104 13.612L10.9224 13.7053C9.89789 14.9064 9.33255 16.4239 9.32475 17.9937C9.32893 19.5604 9.89489 21.075 10.9224 22.2693L20.6388 31.8661C19.9337 32.4728 19.0216 32.7929 18.0866 32.7619C17.1516 32.7308 16.2634 32.3509 15.6013 31.6988L4.34268 20.59C3.99999 20.2521 3.72814 19.8509 3.54267 19.4092C3.3572 18.9676 3.26173 18.4943 3.26173 18.0163C3.26173 17.5382 3.3572 17.0649 3.54267 16.6233C3.72814 16.1817 3.99999 15.7804 4.34268 15.4425L15.6013 4.32404C16.26 3.67722 17.1414 3.29886 18.07 3.26429C18.9987 3.22971 19.9064 3.54145 20.6127 4.13744L11.0104 13.612Z" fill="white"/>
<path d="M53.2733 13.1582L42.0115 2.04616C40.7055 0.75819 38.9346 0.034668 37.0881 0.034668C35.2416 0.034668 33.4707 0.75819 32.1647 2.04616L30.0682 4.18236L30.8931 4.97378L41.9463 15.8767C42.4521 16.4836 42.7286 17.2449 42.7286 18.0306C42.7286 18.8163 42.4521 19.5777 41.9463 20.1845L32.3831 29.6204L22.4972 19.8724C22.1354 19.3168 21.943 18.6702 21.943 18.0097C21.943 17.3492 22.1354 16.7026 22.4972 16.147L27.6554 11.0606L25.3502 8.78611L19.9801 14.0848L19.8986 14.2006C19.1089 15.318 18.6855 16.6475 18.6855 18.0097C18.6855 19.3719 19.1089 20.7014 19.8986 21.8188L19.9801 21.9346L32.181 33.97C33.4851 35.2554 35.2529 35.9775 37.0962 35.9775C38.9395 35.9775 40.7074 35.2554 42.0115 33.97L53.2733 22.8612C54.5763 21.5739 55.3081 19.829 55.3081 18.0097C55.3081 16.1904 54.5763 14.4455 53.2733 13.1582ZM50.9681 20.5899L39.7063 31.6955C39.0489 32.3432 38.1682 32.7225 37.2399 32.7577C36.3115 32.7929 35.4039 32.4814 34.6981 31.8853L44.3004 22.4108L44.3884 22.3175C45.4195 21.1227 45.9858 19.6047 45.9858 18.0354C45.9858 16.4662 45.4195 14.9482 44.3884 13.7534L34.672 4.15662C35.3765 3.55047 36.2877 3.23037 37.2219 3.26081C38.1561 3.29126 39.0439 3.67 39.7063 4.32069L50.9681 15.4424C51.6586 16.1257 52.0464 17.0512 52.0464 18.0161C52.0464 18.981 51.6586 19.9066 50.9681 20.5899Z" fill="white"/>
</g>
<defs>
<clipPath id="clip0">
<rect width="193" height="36" fill="white"/>
</clipPath>
</defs>
</svg>
