<svg width="172" height="32" viewBox="0 0 172 32" fill="none" xmlns="http://www.w3.org/2000/svg">
<g clip-path="url(#clip0)">
<path d="M59.0288 0H56.0039V15.9514H59.0288V0Z" fill="#005677"/>
<path d="M81.3944 0H78.3899V10.8011L69.4082 0H66.918V15.9514H69.9196V5.15031L78.9042 15.9514H81.3944V0Z" fill="#005677"/>
<path d="M89.2578 15.9514H92.2856V9.84307H100.151V7.33798H92.2856V2.48508H101.151V0H89.2578V15.9514Z" fill="#005677"/>
<path d="M110.599 0H107.574V15.9514H110.599V0Z" fill="#005677"/>
<path d="M132.965 0H129.963V10.8011L120.979 0H118.488V15.9514H121.493V5.15031L130.475 15.9514H132.965V0Z" fill="#005677"/>
<path d="M143.853 9.0681H151.719V6.63163H143.853V2.48508H152.718V0H140.828V15.9514H153.047V13.4663H143.853V9.0681Z" fill="#005677"/>
<path d="M157.816 0V2.50509H163.215V15.9514H166.243V2.50509H171.642V0H157.816Z" fill="#005677"/>
<path d="M65.6468 28.4311L65.3039 29.9668H65.1964L64.7809 28.4769L64.1184 26.987L62.8602 24.05H61.7938L59.9806 28.4025L59.5622 29.9811H59.4256L59.1408 28.4311L57.4642 24.05H55.9648L58.9461 31.9571H59.6668L61.7792 26.9698V26.987L62.2296 25.5399L62.619 26.9698V26.9555L64.8245 31.9571H65.5712L68.4363 24.05H67.1171L65.6468 28.4311Z" fill="#005677"/>
<path d="M73.8318 21.3219C73.7004 21.3187 73.5697 21.3425 73.4482 21.3918C73.3266 21.441 73.2168 21.5146 73.1257 21.6079C73.0414 21.6869 72.9741 21.7818 72.9277 21.8869C72.8812 21.9921 72.8567 22.1052 72.8555 22.2198C72.8558 22.3325 72.88 22.4438 72.9265 22.5468C72.973 22.6497 73.0409 22.7419 73.1257 22.8175C73.2201 22.9044 73.3312 22.9719 73.4524 23.0161C73.5737 23.0603 73.7026 23.0803 73.8318 23.0749C74.0959 23.0838 74.3532 22.9916 74.5495 22.8175C74.6388 22.7443 74.7109 22.653 74.7611 22.5499C74.8112 22.4468 74.8382 22.3342 74.8401 22.2198C74.8373 22.1036 74.81 21.9892 74.76 21.8839C74.71 21.7785 74.6383 21.6846 74.5495 21.6079C74.4554 21.5154 74.3434 21.4424 74.2201 21.3933C74.0968 21.3441 73.9648 21.3199 73.8318 21.3219Z" fill="#005677"/>
<path d="M74.5209 24.05H73.1406V31.7941H74.5209V24.05Z" fill="#005677"/>
<path d="M83.8125 23.8728C83.4056 23.8578 83.0041 23.9689 82.6647 24.1902C82.3358 24.4279 82.0623 24.7321 81.8627 25.0824H81.729L81.4588 24.0501H80.4883V31.7941H81.8685V26.5666C81.9282 26.1819 82.1212 25.8293 82.4148 25.5686C82.7611 25.2795 83.2083 25.1349 83.6614 25.1653C83.8129 25.1666 83.9639 25.1839 84.1117 25.2168C84.2716 25.2483 84.4372 25.2854 84.6057 25.3283L84.876 24.03C84.6864 23.9712 84.4919 23.9291 84.2948 23.9042C84.1348 23.8846 83.9737 23.8741 83.8125 23.8728Z" fill="#005677"/>
<path d="M94.8275 24.4275C94.5179 24.1954 94.1595 24.0342 93.7786 23.9557C93.397 23.8719 93.0072 23.8297 92.6163 23.8298C91.3862 23.8298 90.4389 24.1816 89.7744 24.8851C89.1119 25.5857 88.7778 26.6009 88.7778 27.9306C88.771 28.4989 88.8473 29.0652 89.0044 29.6121C89.137 30.0841 89.372 30.5221 89.6931 30.8962C90.0176 31.259 90.4263 31.5396 90.8844 31.714C91.4331 31.9161 92.016 32.0132 92.6017 32C93.1747 32.0058 93.7455 31.9287 94.2958 31.7712C94.7622 31.6479 95.2029 31.4446 95.5976 31.1707L95.0745 30.1383C94.8209 30.3629 94.5246 30.5359 94.2028 30.6474C93.8195 30.7907 93.4127 30.8634 93.0027 30.8618C91.9954 30.8618 91.2806 30.6312 90.8583 30.1698C90.436 29.7084 90.2161 29.025 90.1987 28.1194H95.8213C95.8511 27.9184 95.8705 27.7161 95.8794 27.5131C95.8794 27.3072 95.8794 27.1242 95.8794 26.9669C95.901 26.4262 95.8018 25.8873 95.5888 25.3884C95.4198 25.011 95.1582 24.6808 94.8275 24.4275ZM90.2423 27.1328C90.312 26.3464 90.5503 25.7916 90.9629 25.4656C91.4431 25.1193 92.0305 24.9475 92.625 24.9794C93.1554 24.9467 93.6776 25.1214 94.0778 25.4656C94.4236 25.7916 94.5835 26.3464 94.566 27.1328H90.2423Z" fill="#005677"/>
<path d="M104.024 30.8218C103.87 30.8415 103.714 30.8511 103.559 30.8504C103.443 30.8558 103.327 30.8361 103.219 30.7926C103.112 30.7491 103.016 30.6829 102.937 30.5987C102.755 30.3504 102.673 30.0452 102.704 29.7408V21.4677H101.324V30.247C101.324 30.8761 101.484 31.3261 101.804 31.5968C102.17 31.8808 102.628 32.0241 103.094 32C103.213 32 103.347 32 103.498 31.98C103.649 31.96 103.788 31.9428 103.948 31.9142C104.108 31.8856 104.239 31.8513 104.381 31.817C104.504 31.7882 104.624 31.751 104.741 31.7054L104.561 30.7046C104.385 30.7551 104.205 30.7942 104.024 30.8218Z" fill="#005677"/>
<path d="M114.825 24.4275C114.515 24.196 114.156 24.0349 113.776 23.9557C113.394 23.8722 113.004 23.83 112.613 23.8298C111.385 23.8298 110.439 24.1816 109.775 24.8851C109.109 25.5857 108.778 26.6009 108.778 27.9306C108.77 28.4988 108.846 29.0651 109.002 29.6121C109.137 30.0832 109.371 30.5208 109.69 30.8962C110.015 31.259 110.424 31.5396 110.882 31.714C111.43 31.9161 112.013 32.0132 112.599 32C113.172 32.006 113.743 31.9289 114.293 31.7712C114.757 31.6469 115.196 31.4437 115.589 31.1707L115.066 30.1269C114.812 30.3514 114.516 30.5244 114.194 30.6359C113.811 30.7795 113.404 30.8522 112.994 30.8504C111.987 30.8504 111.272 30.6197 110.85 30.1583C110.427 29.697 110.208 29.0135 110.19 28.1079H115.813C115.842 27.9106 115.862 27.7076 115.874 27.5017C115.885 27.2958 115.874 27.1128 115.874 26.9555C115.895 26.4147 115.796 25.8759 115.583 25.3769C115.412 25.0045 115.152 24.6786 114.825 24.4275ZM110.237 27.1328C110.306 26.3473 110.547 25.7916 110.957 25.4656C111.438 25.1201 112.025 24.9484 112.619 24.9794C113.15 24.9467 113.672 25.1214 114.072 25.4656C114.419 25.7916 114.582 26.3473 114.56 27.1328H110.237Z" fill="#005677"/>
<path d="M125.66 27.8792C125.406 27.7005 125.128 27.5572 124.835 27.4531C124.544 27.3501 124.236 27.2586 123.937 27.1671C123.716 27.1071 123.507 27.047 123.306 26.9812C123.125 26.9258 122.949 26.8521 122.783 26.761C122.645 26.6896 122.523 26.5925 122.423 26.4751C122.33 26.3543 122.282 26.206 122.286 26.0547C122.267 25.8933 122.29 25.7299 122.353 25.5798C122.416 25.4296 122.517 25.2978 122.647 25.1968C122.981 25.0164 123.361 24.934 123.742 24.9594C124.161 24.9555 124.578 25.0183 124.977 25.1453C125.307 25.2499 125.63 25.3751 125.945 25.5199L126.273 24.376C125.908 24.2328 125.533 24.1143 125.151 24.0214C124.632 23.8919 124.097 23.8323 123.562 23.8441C122.862 23.8045 122.17 24.0068 121.606 24.4161C121.141 24.7878 120.909 25.3598 120.909 26.1319C120.891 26.4443 120.955 26.756 121.095 27.0367C121.236 27.3174 121.448 27.5574 121.711 27.7333C121.954 27.8999 122.222 28.0291 122.504 28.1165C122.795 28.2109 123.085 28.2967 123.376 28.3739C123.605 28.4425 123.826 28.5112 124.036 28.5798C124.229 28.6417 124.415 28.7242 124.591 28.8257C124.741 28.9094 124.871 29.0246 124.971 29.1632C125.07 29.3092 125.12 29.4824 125.114 29.6579C125.132 29.841 125.099 30.0256 125.018 30.1915C124.937 30.3573 124.811 30.4982 124.654 30.5987C124.281 30.7832 123.866 30.8717 123.449 30.8561C122.994 30.8548 122.542 30.7805 122.112 30.6359C121.741 30.5166 121.381 30.3684 121.034 30.1927L120.645 31.3737C121.024 31.5628 121.424 31.7105 121.836 31.8141C122.382 31.9509 122.944 32.0153 123.507 32.0057C124.506 32.0057 125.256 31.7779 125.756 31.3222C126.003 31.096 126.198 30.8201 126.327 30.5132C126.457 30.2063 126.517 29.8756 126.505 29.5435C126.523 29.2192 126.455 28.8959 126.308 28.6052C126.161 28.3145 125.939 28.0663 125.666 27.8849L125.66 27.8792Z" fill="#005677"/>
<path d="M136.139 27.8792C135.885 27.7005 135.608 27.5572 135.314 27.4531C135.023 27.3501 134.715 27.2586 134.413 27.1671C134.195 27.1071 133.983 27.047 133.786 26.9812C133.603 26.9253 133.427 26.8515 133.26 26.761C133.122 26.6889 133 26.5918 132.899 26.4751C132.807 26.354 132.76 26.2057 132.766 26.0547C132.746 25.8933 132.769 25.7295 132.832 25.5793C132.895 25.429 132.996 25.2973 133.126 25.1968C133.46 25.0165 133.839 24.9341 134.219 24.9594C134.639 24.9553 135.057 25.018 135.456 25.1453C135.787 25.2499 136.11 25.3751 136.424 25.5199L136.752 24.376C136.386 24.2324 136.011 24.1139 135.628 24.0214C135.109 23.8918 134.574 23.8321 134.038 23.8441C133.339 23.805 132.647 24.0072 132.083 24.4161C131.618 24.7878 131.385 25.3598 131.385 26.1319C131.372 26.4709 131.45 26.8074 131.612 27.1071C131.757 27.3551 131.955 27.5689 132.193 27.7333C132.437 27.8999 132.706 28.0291 132.989 28.1165C133.28 28.2109 133.571 28.2967 133.861 28.3739C134.091 28.4425 134.309 28.5112 134.521 28.5798C134.713 28.6417 134.898 28.7241 135.073 28.8257C135.224 28.9102 135.354 29.0252 135.456 29.1632C135.556 29.3092 135.605 29.4824 135.599 29.6579C135.615 29.8433 135.578 30.0295 135.493 30.1956C135.408 30.3618 135.278 30.5013 135.116 30.5987C134.743 30.7838 134.328 30.8724 133.911 30.8561C133.457 30.8551 133.006 30.7807 132.577 30.6359C132.206 30.5166 131.846 30.3684 131.499 30.1927L131.109 31.3737C131.489 31.5633 131.888 31.711 132.301 31.8141C132.847 31.9509 133.408 32.0153 133.972 32.0057C134.971 32.0057 135.721 31.7779 136.221 31.3223C136.468 31.096 136.663 30.8201 136.792 30.5132C136.921 30.2063 136.982 29.8756 136.97 29.5435C136.988 29.2192 136.92 28.8959 136.773 28.6052C136.625 28.3145 136.404 28.0663 136.131 27.8849L136.139 27.8792Z" fill="#005677"/>
<path d="M31.559 12.6256L31.4864 12.5226L20.6131 1.82162C19.4497 0.680252 17.8739 0.0393372 16.2312 0.0393372C14.5885 0.0393372 13.0128 0.680252 11.8493 1.82162L1.81579 11.699C1.24014 12.2652 0.783485 12.9375 0.471923 13.6774C0.160362 14.4174 0 15.2105 0 16.0114C0 16.8124 0.160362 17.6055 0.471923 18.3454C0.783485 19.0854 1.24014 19.7577 1.81579 20.3239L11.8493 30.1984C13.012 31.3412 14.588 31.983 16.2312 31.983C17.8744 31.983 19.4504 31.3412 20.6131 30.1984L22.5105 28.331L20.4562 26.3092L11.9133 17.9017C11.4622 17.363 11.2155 16.6866 11.2155 15.9886C11.2155 15.2905 11.4622 14.6142 11.9133 14.0754L20.4329 5.69079L29.2403 14.3557C29.5628 14.8496 29.7342 15.4243 29.7342 16.0114C29.7342 16.5985 29.5628 17.1733 29.2403 17.6672L24.6463 22.1855L26.7006 24.2073L31.4864 19.5003L31.559 19.3945C32.2629 18.4018 32.6404 17.2205 32.6404 16.01C32.6404 14.7995 32.2629 13.6182 31.559 12.6256ZM9.81242 12.0994L9.73396 12.1823C8.82092 13.25 8.31709 14.5988 8.31014 15.9943C8.31386 17.3868 8.81825 18.7332 9.73396 19.7948L18.3931 28.3253C17.7647 28.8645 16.9519 29.1491 16.1186 29.1215C15.2854 29.0939 14.4938 28.7562 13.9037 28.1766L3.87016 18.3021C3.56476 18.0017 3.32249 17.6451 3.1572 17.2525C2.99191 16.86 2.90683 16.4392 2.90683 16.0143C2.90683 15.5894 2.99191 15.1686 3.1572 14.7761C3.32249 14.3835 3.56476 14.0269 3.87016 13.7265L13.9037 3.84343C14.4907 3.26848 15.2762 2.93216 16.1038 2.90143C16.9314 2.87069 17.7405 3.14779 18.3698 3.67757L9.81242 12.0994Z" fill="#EC671A"/>
<path d="M47.4767 11.6961L37.4402 1.81876C36.2763 0.673892 34.6981 0.0307617 33.0525 0.0307617C31.407 0.0307617 29.8287 0.673892 28.6648 1.81876L26.7965 3.7176L27.5316 4.42108L37.3821 14.1126C37.8329 14.652 38.0793 15.3287 38.0793 16.0272C38.0793 16.7256 37.8329 17.4023 37.3821 17.9417L28.8595 26.3292L20.0493 17.6643C19.7268 17.1704 19.5553 16.5957 19.5553 16.0086C19.5553 15.4215 19.7268 14.8467 20.0493 14.3528L24.6462 9.83163L22.5918 7.80982L17.8061 12.5197L17.7334 12.6227C17.0297 13.6159 16.6523 14.7977 16.6523 16.0086C16.6523 17.2194 17.0297 18.4012 17.7334 19.3945L17.8061 19.4974L28.6794 30.1955C29.8415 31.3381 31.4171 31.9799 33.0598 31.9799C34.7025 31.9799 36.278 31.3381 37.4402 30.1955L47.4767 20.321C48.6378 19.1768 49.2901 17.6257 49.2901 16.0086C49.2901 14.3914 48.6378 12.8404 47.4767 11.6961ZM45.4223 18.302L35.3858 28.1737C34.8 28.7495 34.0151 29.0866 33.1878 29.1179C32.3605 29.1492 31.5516 28.8723 30.9226 28.3424L39.48 19.9206L39.5585 19.8377C40.4774 18.7757 40.9821 17.4263 40.9821 16.0314C40.9821 14.6365 40.4774 13.2872 39.5585 12.2252L30.8994 3.69472C31.5272 3.15592 32.3392 2.87138 33.1718 2.89845C34.0043 2.92551 34.7955 3.26217 35.3858 3.84056L45.4223 13.7265C46.0377 14.3339 46.3832 15.1566 46.3832 16.0143C46.3832 16.872 46.0377 17.6947 45.4223 18.302Z" fill="#00A4CE"/>
</g>
<defs>
<clipPath id="clip0">
<rect width="172" height="32" fill="white"/>
</clipPath>
</defs>
</svg>
