<svg width="491" height="376" viewBox="0 0 491 376" fill="none" xmlns="http://www.w3.org/2000/svg">
<path d="M266.39 361.988C265.593 361.85 264.929 361.268 264.719 360.441L255.686 324.38C255.399 323.256 256.09 322.133 257.215 321.848C258.338 321.577 259.467 322.253 259.753 323.376L268.787 359.437C269.073 360.561 268.383 361.684 267.257 361.969C266.963 362.031 266.665 362.036 266.39 361.988Z" fill="#005677"/>
<path d="M310.973 328.619C310.657 328.564 310.339 328.438 310.065 328.221L284.517 308.844C283.59 308.146 283.422 306.832 284.118 305.921C284.816 304.997 286.134 304.83 287.047 305.526L312.595 324.903C313.522 325.601 313.69 326.915 312.994 327.826C312.515 328.463 311.716 328.748 310.973 328.619Z" fill="#005677"/>
<path d="M218.181 360.445C218.153 360.44 218.126 360.435 218.085 360.428C216.953 360.175 216.24 359.063 216.49 357.948L223.669 325.222C223.922 324.094 225.036 323.383 226.154 323.634C227.285 323.886 227.998 324.999 227.748 326.114L220.569 358.839C220.337 359.929 219.28 360.635 218.181 360.445Z" fill="#005677"/>
<path d="M175.61 342.323C175.225 342.256 174.859 342.08 174.554 341.801C173.699 341.017 173.643 339.708 174.414 338.853L195.79 315.526C196.576 314.674 197.888 314.619 198.745 315.389C199.6 316.173 199.656 317.482 198.885 318.337L177.508 341.664C177.014 342.228 176.283 342.44 175.61 342.323Z" fill="#005677"/>
<path d="M255.667 64.0129C255.626 64.0023 255.586 63.9917 255.532 63.9776C254.429 63.6172 253.846 62.4288 254.203 61.3424L266.505 24.1375C266.865 23.0376 268.042 22.4536 269.144 22.814C270.247 23.1744 270.83 24.3628 270.473 25.4492L258.171 62.6541C257.839 63.7036 256.733 64.2919 255.667 64.0129Z" fill="#005677"/>
<path d="M225.218 64.5341C224.625 64.3787 224.111 63.971 223.837 63.3669L209.256 30.9235C208.783 29.8647 209.249 28.6344 210.31 28.1638C211.37 27.6932 212.604 28.1598 213.076 29.2186L227.657 61.662C228.13 62.7208 227.664 63.9511 226.603 64.4217C226.148 64.619 225.664 64.6506 225.218 64.5341Z" fill="#005677"/>
<path d="M289.15 81.9805C288.665 81.8533 288.225 81.5512 287.925 81.0987C287.299 80.1293 287.566 78.8326 288.537 78.209L314.763 61.1914C315.734 60.5679 317.033 60.836 317.659 61.8054C318.285 62.7748 318.018 64.0716 317.047 64.6951L290.821 81.7127C290.303 82.0376 289.704 82.1252 289.15 81.9805Z" fill="#005677"/>
<path d="M195.626 80.0947C195.396 80.0347 195.164 79.9307 194.956 79.7899L167.516 60.6692C166.566 60.0033 166.343 58.7077 166.995 57.7564C167.662 56.8086 168.96 56.5872 169.914 57.2397L197.353 76.3604C198.303 77.0263 198.527 78.3219 197.874 79.2732C197.349 80.0133 196.449 80.3101 195.626 80.0947Z" fill="#005677"/>
<path d="M490.368 118.082C486.518 117.465 482.954 116.324 478.805 114.367C477.176 113.604 475.754 112.562 474.676 111.362C473.406 109.942 472.668 108.363 472.462 106.659C472.003 102.778 474.131 99.7463 476.379 96.529C481.99 88.5155 483.008 81.6497 479.49 75.5269C476.777 70.8104 471.452 67.2283 464.869 65.6893C458.652 64.2365 451.591 64.1967 444.989 65.5831C438.858 66.87 432.894 69.1122 427.13 71.288C426.571 71.5003 426.013 71.7059 425.454 71.9182C423.493 72.6546 421.505 73.4904 419.576 74.2931C415.747 75.8984 411.784 77.5568 407.708 78.5983L407.223 76.6944C411.159 75.6928 415.055 74.0609 418.818 72.4821C420.76 71.6661 422.768 70.8303 424.763 70.0807C425.321 69.8684 425.88 69.6628 426.438 69.4505C432.276 67.2548 438.313 64.9795 444.59 63.6594C451.471 62.2132 458.839 62.2597 465.328 63.7721C472.442 65.4372 478.227 69.3643 481.212 74.5451C483.36 78.2799 484.005 82.3529 483.121 86.6581C482.402 90.1607 480.734 93.7561 478.008 97.65C475.8 100.801 474.065 103.282 474.43 106.42C474.716 108.874 476.671 111.176 479.65 112.576C483.626 114.446 487.03 115.541 490.68 116.125L490.368 118.082Z" fill="#005677"/>
<path d="M489.803 123.011C485.501 122.215 480.142 121.226 475.734 118.951C473.32 117.704 471.458 116.218 470.056 114.413C468.46 112.364 467.496 109.903 467.19 107.103C466.904 104.456 467.323 101.896 468.473 99.2622C469.457 97.0068 470.8 95.0698 472.097 93.1924C473.36 91.3682 474.55 89.6434 475.282 87.8457C476.824 84.038 476.897 80.2569 475.474 77.4707C474.105 74.7908 471.452 73.0793 469.464 72.1174C457.256 66.2068 443.672 70.0941 431.997 74.678C426.871 76.688 421.684 78.8107 416.664 80.8605C414.284 81.8357 411.831 82.8373 409.404 83.8191L408.652 81.975C411.073 80.9932 413.526 79.9915 415.906 79.0164C420.933 76.9599 426.126 74.8372 431.265 72.8206C438.978 69.7956 444.922 68.1372 450.534 67.4606C454.045 67.036 457.403 67.0228 460.514 67.4274C463.978 67.8719 467.283 68.847 470.328 70.3263C472.589 71.4209 475.627 73.3911 477.243 76.5686C478.932 79.8721 478.885 84.2569 477.123 88.5953C476.312 90.5987 475.056 92.4097 473.732 94.3268C471.332 97.7962 468.613 101.737 469.171 106.898C469.67 111.481 472.117 114.845 476.651 117.193C480.794 119.336 485.986 120.297 490.162 121.067L489.803 123.011Z" fill="#005677"/>
<path d="M407.118 86.9958L399.445 89.5763L397.504 83.825L405.177 81.2445C406.773 80.7072 408.495 81.5629 409.033 83.155C409.572 84.7338 408.714 86.4585 407.118 86.9958Z" fill="#C7DDEB"/>
<path d="M399.663 89.6091L387.941 93.7882L389.019 101.729L398.001 98.2659C400.242 97.4036 401.711 94.0934 401.273 90.8827C401.146 89.9275 400.408 89.3437 399.663 89.6091Z" fill="#C7DDEB"/>
<path d="M382.258 97.5447L384.1 102.998C384.558 104.364 386.074 105.087 387.477 104.616L387.524 104.603C388.927 104.132 389.691 102.639 389.232 101.279L387.404 95.873" fill="#C7DDEB"/>
<path d="M386.333 103.196L361.825 111.588C360.462 112.046 359.072 111.575 358.726 110.54L357.589 107.17C357.237 106.135 358.061 104.921 359.424 104.463L382.337 96.7617" fill="#C7DDEB"/>
<path d="M369.044 93.2481L356.441 97.4844L357.212 99.7665L369.815 95.5302L369.044 93.2481Z" fill="#FF5406"/>
<path d="M389.992 101.199L389.201 98.8641L397.838 95.9586C399.347 95.4544 400.158 93.8159 399.653 92.3101L393.975 75.4872C393.729 74.7575 393.21 74.1671 392.518 73.8288C391.827 73.4839 391.042 73.4308 390.311 73.6829L381.674 76.5884L380.883 74.2534L389.52 71.3478C390.876 70.8901 392.326 70.9896 393.609 71.6264C394.892 72.2633 395.85 73.3578 396.308 74.7111L401.987 91.534C402.931 94.3267 401.421 97.3649 398.622 98.3069L389.992 101.199Z" fill="#005677"/>
<path d="M398.717 88.6435L395.473 79.0314L404.056 76.1458C406.716 75.2502 409.602 76.6831 410.499 79.3299C411.397 81.9834 409.961 84.8623 407.308 85.7579L406.975 84.7761L407.308 85.7579L398.717 88.6435ZM398.099 80.3316L400.021 86.0166L406.636 83.7943C408.205 83.2636 409.056 81.5588 408.525 79.9933C407.993 78.4277 406.284 77.5786 404.715 78.1093L398.099 80.3316Z" fill="#005677"/>
<path d="M360.096 113.007L349.91 82.8377L374.797 74.4727L375.529 76.6286L352.796 84.2705L361.526 110.128L384.259 102.486L384.99 104.642L360.096 113.007Z" fill="#005677"/>
<path d="M356.694 100.782L354.652 94.7321L368.788 89.9824L370.829 96.0323L356.694 100.782ZM356.694 95.747L357.704 98.7454L368.781 95.024L367.771 92.0256L356.694 95.747Z" fill="#005677"/>
<path d="M341.712 95.9249C340.622 95.9249 339.598 95.235 339.232 94.1471L339.139 93.8751C338.913 93.2184 338.966 92.5086 339.272 91.885C339.585 91.2614 340.116 90.7971 340.781 90.5715L352.769 86.5449L354.531 91.7523L342.543 95.7789C342.271 95.8851 341.991 95.9249 341.712 95.9249ZM351.692 88.7274L341.34 92.21C341.114 92.283 340.934 92.4422 340.828 92.6545C340.722 92.8668 340.708 93.1056 340.781 93.3311L340.874 93.6031C341.034 94.0675 341.539 94.3195 342.005 94.1603L352.357 90.6777L351.692 88.7274Z" fill="#005677"/>
<path d="M347.205 112.196C346.115 112.196 345.091 111.506 344.725 110.419L344.632 110.147C344.174 108.787 344.912 107.301 346.275 106.843L358.263 102.816L360.025 108.024L348.037 112.05C347.764 112.15 347.485 112.196 347.205 112.196ZM357.186 104.992L346.833 108.475C346.368 108.634 346.115 109.138 346.275 109.603L346.368 109.875C346.441 110.1 346.6 110.279 346.813 110.385C347.026 110.492 347.265 110.505 347.491 110.432L357.844 106.949L357.186 104.992Z" fill="#005677"/>
<path d="M356.971 85.9207C356.731 85.9207 356.512 85.7682 356.432 85.536C356.332 85.2375 356.492 84.919 356.791 84.8129L367.556 81.1976C367.855 81.0981 368.174 81.2573 368.28 81.5558C368.387 81.8543 368.221 82.1727 367.921 82.2789L357.157 85.8942C357.097 85.9075 357.037 85.9207 356.971 85.9207Z" fill="#005677"/>
<path d="M386.625 105.689C385.109 105.689 383.693 104.734 383.188 103.228L374.278 76.8458C373.966 75.9304 374.039 74.9486 374.464 74.0862C374.896 73.2238 375.635 72.5737 376.552 72.2686L376.599 72.2553C377.516 71.9502 378.5 72.0165 379.365 72.4411C380.229 72.8723 380.881 73.6086 381.186 74.524L390.096 100.906C390.734 102.797 389.71 104.853 387.815 105.49L387.769 105.503C387.397 105.629 387.004 105.689 386.625 105.689ZM377.756 73.9336C377.569 73.9336 377.383 73.9668 377.197 74.0265L377.15 74.0398C376.712 74.1857 376.353 74.4975 376.146 74.9154C375.94 75.3333 375.907 75.8043 376.053 76.2421L384.963 102.624C385.269 103.533 386.26 104.024 387.17 103.719L387.217 103.705C388.128 103.4 388.62 102.412 388.314 101.503L379.404 75.1211C379.258 74.6832 378.946 74.325 378.527 74.1194C378.287 74 378.021 73.9336 377.756 73.9336Z" fill="#005677"/>
<path d="M369.915 81.6051C369.676 81.6051 369.45 81.4526 369.37 81.2071C369.277 80.9086 369.437 80.5902 369.736 80.4907L371.398 79.96C371.697 79.8671 372.016 80.0263 372.116 80.3249C372.209 80.6234 372.05 80.9418 371.751 81.0413L370.088 81.572C370.028 81.5919 369.975 81.6051 369.915 81.6051Z" fill="#005677"/>
<path d="M389.778 79.3738C390.09 79.2677 390.436 79.4335 390.542 79.7519L393.853 89.4702C393.96 89.782 393.794 90.1269 393.474 90.233C393.162 90.3392 392.816 90.1733 392.71 89.8549L389.399 80.1367C389.292 79.8183 389.465 79.4799 389.778 79.3738Z" fill="#005677"/>
<path d="M386.926 80.3367C387.239 80.2306 387.584 80.3964 387.691 80.7148L391.002 90.4331C391.108 90.7449 390.942 91.0898 390.623 91.196C390.31 91.3021 389.965 91.1363 389.858 90.8178L386.547 81.0996C386.441 80.7878 386.614 80.4428 386.926 80.3367Z" fill="#005677"/>
<path d="M78.5956 162.14C75.3012 162.14 72.2095 161.697 69.3712 160.819C67.4896 160.237 65.7664 159.283 64.3789 158.056C62.8394 156.697 61.775 155.035 61.2999 153.253C60.5903 150.579 61.1098 147.488 62.8901 143.79C63.1878 143.171 63.4983 142.539 63.796 141.932C65.7854 137.88 67.8507 133.696 68.1168 129.183C68.2562 126.907 67.8317 124.841 66.856 123.026C65.7917 121.054 64.1065 119.379 61.7054 117.894C46.3736 108.451 30.3767 116.706 16.2614 123.994C14.4685 124.916 12.8213 125.858 11.2311 126.775C7.94299 128.652 4.83864 130.428 1.36683 131.496C0.866329 131.648 0.334153 131.37 0.182103 130.871C0.0300533 130.371 0.308812 129.84 0.80931 129.689C4.07839 128.684 6.95467 127.04 10.2871 125.138C11.8963 124.215 13.5625 123.267 15.3934 122.319C22.7299 118.532 30.3134 114.613 38.258 112.78C47.438 110.663 55.4333 111.807 62.7063 116.288C65.4052 117.951 67.3122 119.86 68.5349 122.135C69.6816 124.259 70.1821 126.674 70.0238 129.303C69.726 134.202 67.5846 138.557 65.5066 142.779C65.2088 143.386 64.8984 144.012 64.607 144.625C63.0358 147.899 62.5543 150.566 63.1435 152.785C64.0241 156.103 67.2298 158.183 69.9414 159.023C76.3338 161.008 84.6522 160.553 92.1914 157.81C92.6856 157.633 93.2304 157.886 93.4078 158.379C93.5852 158.872 93.3318 159.415 92.8376 159.592C89.1377 160.939 85.1337 161.792 81.2755 162.057C80.3695 162.108 79.4762 162.14 78.5956 162.14Z" fill="#005677"/>
<path d="M77.6354 166.728C75.0949 166.728 72.5544 166.494 70.0582 166.02C66.466 165.344 63.1463 163.656 60.7072 161.273C57.9766 158.606 56.5258 155.269 56.5131 151.628C56.5004 147.696 57.9322 143.935 59.3324 140.775C59.6935 139.96 60.099 139.131 60.5234 138.259C62.31 134.599 64.16 130.82 63.2097 127.21C62.5824 124.834 60.6248 122.672 57.8499 121.275C44.7672 114.702 30.8483 121.888 18.5703 128.234L18.0381 128.506C12.4439 131.395 7.16019 134.125 1.95248 135.826C1.45198 135.99 0.919806 135.718 0.755085 135.219C0.590364 134.72 0.862787 134.189 1.36329 134.024C6.42529 132.368 11.6393 129.676 17.1702 126.825L17.7023 126.553C23.7083 123.45 30.5189 119.935 37.4498 118.102C45.5212 115.966 52.4775 116.452 58.7115 119.588C61.9742 121.225 64.2867 123.829 65.0533 126.73C66.1873 131.022 64.0903 135.307 62.2403 139.094C61.8222 139.947 61.4294 140.756 61.0809 141.546C59.7632 144.523 58.4137 148.05 58.4264 151.628C58.4454 158.688 64.6605 163.068 70.4193 164.162C78.2119 165.635 86.448 164.674 93.6133 161.45C94.0948 161.235 94.6523 161.45 94.8677 161.924C95.0831 162.405 94.8677 162.961 94.3926 163.176C89.1595 165.527 83.4006 166.728 77.6354 166.728Z" fill="#005677"/>
<path d="M103.621 159.675L104.926 163.43C105.591 165.333 107.6 166.363 109.424 165.731L117.597 162.899L116.045 158.664C116.045 158.658 107.505 163.891 103.621 159.675Z" fill="#C7DDEB"/>
<path d="M116.242 157.854L116.952 159.991C118.174 163.669 122.014 165.616 125.524 164.339L143.073 157.949L140.234 149.391L116.242 157.854Z" fill="#C7DDEB"/>
<path d="M96.205 158.466L101.495 156.633L103.719 163.023L98.4288 164.856C96.6992 165.457 94.8112 164.547 94.2094 162.821L94.1587 162.676C93.5632 160.95 94.4755 159.066 96.205 158.466Z" fill="#C7DDEB"/>
<path d="M122.184 165.798C121.183 165.798 120.182 165.57 119.251 165.122C117.629 164.338 116.412 162.973 115.823 161.279L110.197 145.129C108.981 141.627 110.837 137.79 114.347 136.577L130.122 131.109L140.17 159.951L124.395 165.419C123.679 165.672 122.931 165.798 122.184 165.798ZM128.811 133.827L115.056 138.593C112.662 139.421 111.395 142.044 112.225 144.434L117.85 160.583C118.256 161.74 119.086 162.669 120.188 163.206C121.291 163.737 122.539 163.813 123.698 163.409L137.452 158.643L128.811 133.827Z" fill="#005677"/>
<path d="M108.322 166.989C107.619 166.989 106.909 166.819 106.257 166.484C105.161 165.921 104.331 164.967 103.919 163.785L99.3259 150.606C98.4706 148.153 99.706 145.486 102.082 144.658L110.254 141.826L110.958 143.842L102.785 146.674C101.524 147.11 100.878 148.558 101.347 149.904L105.94 163.083C106.168 163.74 106.631 164.278 107.232 164.587C107.822 164.891 108.474 164.935 109.076 164.726L117.249 161.895L117.952 163.911L109.779 166.743C109.298 166.907 108.81 166.989 108.322 166.989Z" fill="#005677"/>
<path d="M140.88 161.495C140.405 161.495 139.936 161.387 139.499 161.179C138.733 160.812 138.162 160.168 137.884 159.365L128.697 133.001C128.419 132.198 128.469 131.338 128.837 130.58C129.204 129.815 129.85 129.246 130.655 128.968L131.232 128.772C132.885 128.197 134.703 129.075 135.28 130.725L144.466 157.089C144.745 157.892 144.694 158.752 144.327 159.51C143.959 160.269 143.313 160.844 142.509 161.122L141.932 161.318C141.584 161.438 141.229 161.495 140.88 161.495ZM131.821 130.472L131.244 130.668C130.535 130.915 130.161 131.692 130.408 132.4L139.594 158.764C139.715 159.106 139.962 159.384 140.285 159.542C140.614 159.7 140.982 159.719 141.324 159.605L141.9 159.409C142.242 159.289 142.521 159.042 142.68 158.72C142.838 158.391 142.857 158.025 142.743 157.683L133.557 131.319C133.436 130.978 133.189 130.7 132.866 130.542C132.537 130.378 132.169 130.352 131.821 130.472Z" fill="#005677"/>
<path d="M107.917 149.138C108.214 149.037 108.544 149.195 108.645 149.492L111.864 158.727C111.965 159.024 111.807 159.352 111.509 159.453C111.211 159.555 110.882 159.397 110.78 159.1L107.562 149.865C107.461 149.568 107.619 149.239 107.917 149.138Z" fill="#005677"/>
<path d="M105.206 150.081C105.503 149.98 105.833 150.138 105.934 150.435L109.153 159.67C109.254 159.967 109.096 160.296 108.798 160.397C108.5 160.498 108.171 160.34 108.069 160.043L104.851 150.808C104.75 150.511 104.908 150.182 105.206 150.081Z" fill="#005677"/>
<path d="M96.5193 163.613C94.6123 163.613 92.8257 162.425 92.1669 160.529L92.1098 160.365C91.2799 157.975 92.547 155.352 94.9481 154.524L101.771 152.16L104.85 160.997L98.0271 163.361C97.5266 163.531 97.0198 163.613 96.5193 163.613ZM95.2142 155.276L95.4803 156.035C93.9218 156.578 93.0918 158.285 93.6303 159.84L93.6874 160.004C94.1182 161.237 95.2776 162.014 96.5193 162.014C96.8424 162.014 97.1782 161.964 97.5013 161.85L102.804 160.011L100.777 154.195L95.474 156.035L95.2142 155.276Z" fill="#005677"/>
<path d="M114.88 143.638C114.595 143.638 114.335 143.442 114.265 143.151C113.873 141.514 115.222 140.357 115.995 139.972L116.033 139.953L116.071 139.94L127.158 136.148C127.488 136.034 127.849 136.211 127.963 136.54C128.077 136.868 127.899 137.229 127.57 137.342L116.527 141.116C116.325 141.23 115.26 141.868 115.495 142.854C115.577 143.196 115.368 143.537 115.026 143.619C114.975 143.632 114.931 143.638 114.88 143.638Z" fill="#005677"/>
</svg>
