<svg width="1443" height="600" viewBox="0 0 1443 600" fill="none" xmlns="http://www.w3.org/2000/svg">
<path d="M1441.63 348.847C1429.12 346.844 1417.55 343.138 1404.07 336.782C1398.78 334.304 1394.16 330.922 1390.66 327.022C1386.54 322.411 1384.14 317.284 1383.47 311.747C1381.98 299.143 1388.89 289.297 1396.19 278.847C1414.42 252.821 1417.72 230.521 1406.3 210.635C1397.49 195.317 1380.19 183.682 1358.81 178.684C1338.62 173.965 1315.69 173.836 1294.24 178.339C1274.33 182.519 1254.96 189.801 1236.24 196.868C1234.42 197.557 1232.61 198.225 1230.8 198.915C1224.42 201.306 1217.97 204.021 1211.71 206.628C1199.27 211.842 1186.4 217.228 1173.16 220.611L1171.58 214.427C1184.37 211.174 1197.02 205.874 1209.24 200.746C1215.55 198.096 1222.07 195.381 1228.55 192.947C1230.36 192.257 1232.18 191.589 1233.99 190.9C1252.95 183.768 1272.56 176.378 1292.95 172.091C1315.3 167.394 1339.22 167.545 1360.3 172.457C1383.41 177.865 1402.19 190.62 1411.89 207.446C1418.87 219.576 1420.96 232.805 1418.09 246.788C1415.76 258.164 1410.34 269.841 1401.48 282.488C1394.31 292.722 1388.68 300.78 1389.86 310.971C1390.79 318.943 1397.14 326.419 1406.82 330.965C1419.73 337.041 1430.79 340.596 1442.64 342.492L1441.63 348.847Z" fill="#005677"/>
<path d="M1439.79 364.855C1425.82 362.27 1408.41 359.059 1394.09 351.669C1386.26 347.619 1380.21 342.793 1375.65 336.932C1370.47 330.275 1367.34 322.282 1366.34 313.19C1365.42 304.593 1366.78 296.277 1370.51 287.723C1373.71 280.398 1378.07 274.107 1382.28 268.009C1386.38 262.085 1390.25 256.483 1392.63 250.644C1397.64 238.277 1397.87 225.996 1393.25 216.947C1388.8 208.243 1380.19 202.684 1373.73 199.56C1334.08 180.364 1289.96 192.989 1252.04 207.877C1235.39 214.405 1218.55 221.299 1202.24 227.957C1194.51 231.124 1186.55 234.377 1178.66 237.566L1176.22 231.577C1184.08 228.388 1192.05 225.135 1199.78 221.967C1216.11 215.288 1232.97 208.394 1249.67 201.844C1274.72 192.02 1294.02 186.633 1312.25 184.436C1323.65 183.057 1334.56 183.014 1344.66 184.328C1355.91 185.771 1366.65 188.939 1376.54 193.743C1383.88 197.298 1393.75 203.697 1399 214.017C1404.48 224.747 1404.33 238.988 1398.61 253.079C1395.97 259.585 1391.89 265.467 1387.59 271.694C1379.8 282.962 1370.97 295.76 1372.78 312.522C1374.4 327.41 1382.35 338.333 1397.07 345.96C1410.53 352.919 1427.39 356.043 1440.96 358.542L1439.79 364.855Z" fill="#005677"/>
<path d="M1171.24 247.887L1146.32 256.268L1140.01 237.588L1164.93 229.207C1170.12 227.462 1175.71 230.241 1177.46 235.412C1179.21 240.54 1176.42 246.141 1171.24 247.887Z" fill="#C7DDEB"/>
<path d="M1147.03 256.374L1108.96 269.948L1112.46 295.737L1141.63 284.491C1148.91 281.69 1153.68 270.939 1152.25 260.511C1151.84 257.409 1149.45 255.513 1147.03 256.374Z" fill="#C7DDEB"/>
<path d="M1090.5 282.142L1096.48 299.852C1097.97 304.291 1102.89 306.639 1107.45 305.11L1107.6 305.066C1112.16 303.537 1114.64 298.689 1113.15 294.272L1107.21 276.713" fill="#C7DDEB"/>
<path d="M1103.73 300.5L1024.13 327.755C1019.7 329.242 1015.19 327.712 1014.07 324.351L1010.37 313.406C1009.23 310.045 1011.91 306.102 1016.33 304.615L1090.75 279.602" fill="#C7DDEB"/>
<path d="M1047.57 268.19L1006.64 281.949L1009.14 289.361L1050.07 275.602L1047.57 268.19Z" fill="#FF5406"/>
<path d="M1115.61 294.014L1113.04 286.43L1141.09 276.994C1145.99 275.356 1148.63 270.034 1146.99 265.144L1128.54 210.505C1127.74 208.135 1126.06 206.218 1123.81 205.119C1121.57 203.999 1119.02 203.826 1116.65 204.645L1088.59 214.082L1086.02 206.498L1114.08 197.061C1118.48 195.574 1123.19 195.898 1127.36 197.966C1131.52 200.034 1134.63 203.589 1136.12 207.984L1154.57 262.623C1157.63 271.693 1152.73 281.561 1143.64 284.621L1115.61 294.014Z" fill="#005677"/>
<path d="M1143.94 253.229L1133.41 222.01L1161.29 212.638C1169.92 209.73 1179.3 214.383 1182.21 222.98C1185.13 231.598 1180.46 240.949 1171.85 243.857L1170.77 240.668L1171.85 243.857L1143.94 253.229ZM1141.94 226.233L1148.18 244.697L1169.66 237.48C1174.76 235.756 1177.52 230.219 1175.8 225.134C1174.07 220.05 1168.52 217.292 1163.42 219.016L1141.94 226.233Z" fill="#005677"/>
<path d="M1018.52 332.365L985.434 234.377L1066.26 207.209L1068.64 214.211L994.806 239.031L1023.16 323.014L1096.99 298.194L1099.37 305.197L1018.52 332.365Z" fill="#005677"/>
<path d="M1007.47 292.658L1000.84 273.008L1046.75 257.582L1053.38 277.231L1007.47 292.658ZM1007.47 276.305L1010.75 286.043L1046.73 273.956L1043.44 264.218L1007.47 276.305Z" fill="#005677"/>
<path d="M958.809 276.885C955.267 276.885 951.942 274.644 950.754 271.111L950.452 270.227C949.717 268.094 949.89 265.789 950.884 263.764C951.899 261.739 953.626 260.23 955.786 259.498L994.721 246.42L1000.44 263.333L961.508 276.411C960.623 276.756 959.716 276.885 958.809 276.885ZM991.223 253.508L957.6 264.82C956.865 265.057 956.282 265.574 955.937 266.263C955.591 266.952 955.548 267.728 955.786 268.461L956.088 269.344C956.606 270.852 958.247 271.671 959.759 271.154L993.383 259.843L991.223 253.508Z" fill="#005677"/>
<path d="M976.647 329.736C973.106 329.736 969.78 327.496 968.592 323.962L968.29 323.079C966.8 318.662 969.197 313.836 973.624 312.349L1012.56 299.271L1018.28 316.184L979.347 329.262C978.461 329.586 977.554 329.736 976.647 329.736ZM1009.06 306.338L975.438 317.649C973.926 318.167 973.106 319.804 973.624 321.312L973.926 322.196C974.164 322.928 974.682 323.51 975.373 323.855C976.064 324.199 976.842 324.242 977.576 324.005L1011.2 312.694L1009.06 306.338Z" fill="#005677"/>
<path d="M1008.37 244.395C1007.6 244.395 1006.88 243.9 1006.62 243.146C1006.3 242.176 1006.82 241.142 1007.79 240.797L1042.75 229.055C1043.72 228.732 1044.76 229.249 1045.11 230.219C1045.45 231.188 1044.91 232.222 1043.94 232.567L1008.98 244.309C1008.78 244.352 1008.59 244.395 1008.37 244.395Z" fill="#005677"/>
<path d="M1104.68 308.6C1099.76 308.6 1095.16 305.497 1093.51 300.606L1064.58 214.921C1063.56 211.948 1063.8 208.759 1065.18 205.959C1066.59 203.158 1068.98 201.046 1071.96 200.055L1072.11 200.012C1075.09 199.021 1078.29 199.236 1081.1 200.615C1083.9 202.016 1086.02 204.407 1087.01 207.38L1115.95 293.066C1118.02 299.206 1114.7 305.885 1108.54 307.953L1108.39 307.996C1107.18 308.406 1105.91 308.6 1104.68 308.6ZM1075.87 205.463C1075.27 205.463 1074.66 205.571 1074.06 205.765L1073.91 205.808C1072.48 206.282 1071.31 207.294 1070.65 208.652C1069.98 210.009 1069.87 211.539 1070.34 212.961L1099.28 298.646C1100.27 301.598 1103.49 303.192 1106.45 302.201L1106.6 302.158C1109.56 301.167 1111.16 297.956 1110.16 295.005L1081.23 209.32C1080.75 207.898 1079.74 206.734 1078.38 206.066C1077.6 205.678 1076.74 205.463 1075.87 205.463Z" fill="#005677"/>
<path d="M1050.42 230.37C1049.64 230.37 1048.9 229.875 1048.64 229.078C1048.34 228.108 1048.86 227.074 1049.83 226.751L1055.23 225.027C1056.2 224.726 1057.24 225.243 1057.56 226.212C1057.87 227.182 1057.35 228.216 1056.38 228.539L1050.98 230.263C1050.78 230.327 1050.61 230.37 1050.42 230.37Z" fill="#005677"/>
<path d="M1114.92 223.131C1115.94 222.787 1117.06 223.325 1117.41 224.359L1128.16 255.923C1128.51 256.936 1127.97 258.056 1126.93 258.401C1125.91 258.745 1124.79 258.207 1124.45 257.173L1113.69 225.609C1113.35 224.575 1113.91 223.476 1114.92 223.131Z" fill="#005677"/>
<path d="M1105.65 226.254C1106.67 225.91 1107.79 226.448 1108.14 227.482L1118.89 259.046C1119.24 260.059 1118.7 261.179 1117.66 261.524C1116.64 261.869 1115.52 261.33 1115.18 260.296L1104.42 228.732C1104.08 227.719 1104.64 226.599 1105.65 226.254Z" fill="#005677"/>
<path d="M782.389 571.656C780.737 571.369 779.362 570.165 778.927 568.451L760.212 493.74C759.618 491.413 761.048 489.086 763.38 488.496C765.707 487.934 768.045 489.335 768.638 491.662L787.353 566.372C787.947 568.699 786.517 571.026 784.185 571.616C783.576 571.745 782.958 571.755 782.389 571.656Z" fill="#005677"/>
<path d="M874.756 502.526C874.101 502.412 873.442 502.152 872.875 501.702L819.945 461.556C818.025 460.111 817.676 457.388 819.118 455.502C820.565 453.587 823.294 453.241 825.185 454.681L878.116 494.827C880.035 496.272 880.384 498.996 878.942 500.882C877.951 502.202 876.294 502.793 874.756 502.526Z" fill="#005677"/>
<path d="M682.505 568.461C682.448 568.451 682.391 568.441 682.306 568.427C679.962 567.903 678.485 565.598 679.003 563.288L693.876 495.489C694.399 493.15 696.708 491.678 699.023 492.197C701.367 492.721 702.844 495.025 702.326 497.335L687.453 565.135C686.973 567.393 684.783 568.856 682.505 568.461Z" fill="#005677"/>
<path d="M594.31 530.916C593.513 530.777 592.755 530.412 592.122 529.833C590.35 528.209 590.234 525.497 591.832 523.726L636.12 475.399C637.746 473.632 640.465 473.519 642.241 475.114C644.012 476.739 644.128 479.451 642.53 481.222L598.243 529.549C597.219 530.718 595.705 531.158 594.31 530.916Z" fill="#005677"/>
<path d="M262.843 421.154C251.812 421.154 241.46 419.673 231.956 416.731C225.655 414.784 219.885 411.588 215.239 407.482C210.084 402.931 206.52 397.365 204.929 391.396C202.553 382.444 204.293 372.094 210.254 359.712C211.251 357.638 212.291 355.522 213.288 353.49C219.949 339.923 226.865 325.912 227.756 310.8C228.222 303.181 226.801 296.26 223.534 290.186C219.97 283.582 214.327 277.973 206.287 273C154.95 241.379 101.385 269.021 54.1202 293.424C48.1167 296.514 42.6011 299.668 37.2765 302.736C26.2665 309.022 15.8717 314.97 4.2465 318.547C2.57061 319.055 0.788645 318.123 0.279513 316.451C-0.229619 314.779 0.70379 313.001 2.37968 312.493C13.326 309.128 22.9571 303.625 34.1156 297.255C39.5039 294.165 45.0831 290.99 51.2139 287.815C75.7796 275.137 101.173 262.015 127.775 255.877C158.514 248.787 185.285 252.618 209.639 267.624C218.676 273.19 225.061 279.582 229.156 287.201C232.995 294.313 234.671 302.398 234.141 311.202C233.144 327.605 225.974 342.188 219.015 356.326C218.018 358.358 216.979 360.453 216.003 362.506C210.742 373.47 209.13 382.401 211.103 389.83C214.051 400.942 224.786 407.905 233.865 410.72C255.27 417.366 283.124 415.842 308.368 406.656C310.023 406.064 311.847 406.91 312.441 408.561C313.035 410.212 312.187 412.032 310.532 412.625C298.143 417.133 284.736 419.99 271.817 420.879C268.783 421.048 265.792 421.154 262.843 421.154Z" fill="#005677"/>
<path d="M259.622 436.52C251.115 436.52 242.609 435.737 234.25 434.149C222.222 431.885 211.106 426.234 202.939 418.255C193.796 409.323 188.938 398.148 188.895 385.957C188.853 372.792 193.647 360.199 198.335 349.617C199.545 346.886 200.902 344.114 202.324 341.193C208.306 328.939 214.5 316.282 211.318 304.197C209.218 296.239 202.663 289 193.371 284.323C149.565 262.311 102.958 286.376 61.8455 307.625L60.0635 308.536C41.3317 318.208 23.6393 327.351 6.20157 333.045C4.52568 333.595 2.74372 332.685 2.19216 331.013C1.6406 329.341 2.55279 327.563 4.22868 327.013C21.1785 321.467 38.6375 312.451 57.1572 302.906L58.9392 301.996C79.0499 291.604 101.855 279.836 125.063 273.698C152.089 266.544 175.382 268.174 196.256 278.672C207.182 284.154 214.925 292.874 217.491 302.588C221.289 316.959 214.267 331.309 208.072 343.987C206.672 346.844 205.357 349.553 204.19 352.199C199.778 362.167 195.259 373.977 195.302 385.957C195.365 409.598 216.176 424.265 235.46 427.927C261.553 432.858 289.131 429.641 313.123 418.847C314.736 418.128 316.602 418.847 317.324 420.434C318.045 422.043 317.324 423.906 315.733 424.625C298.21 432.498 278.927 436.52 259.622 436.52Z" fill="#005677"/>
<path d="M346.641 412.9L351.011 425.472C353.238 431.843 359.963 435.293 366.073 433.176L393.438 423.694L388.241 409.514C388.241 409.493 359.645 427.017 346.641 412.9Z" fill="#C7DDEB"/>
<path d="M388.898 406.805L391.274 413.958C395.369 426.276 408.224 432.795 419.977 428.52L478.739 407.122L469.235 378.465L388.898 406.805Z" fill="#C7DDEB"/>
<path d="M321.798 408.857L339.511 402.719L346.958 424.117L329.244 430.255C323.453 432.265 317.131 429.217 315.115 423.439L314.946 422.953C312.952 417.174 316.006 410.867 321.798 408.857Z" fill="#C7DDEB"/>
<path d="M408.792 433.409C405.44 433.409 402.088 432.647 398.97 431.144C393.539 428.52 389.466 423.948 387.493 418.276L368.655 364.2C364.582 352.474 370.798 339.627 382.55 335.564L435.373 317.256L469.018 413.831L416.195 432.139C413.798 432.986 411.295 433.409 408.792 433.409ZM430.981 326.357L384.926 342.315C376.907 345.088 372.665 353.871 375.444 361.871L394.282 415.948C395.639 419.821 398.418 422.932 402.109 424.731C405.801 426.509 409.98 426.763 413.862 425.409L459.917 409.45L430.981 326.357Z" fill="#005677"/>
<path d="M362.383 437.388C360.028 437.388 357.653 436.817 355.468 435.695C351.798 433.811 349.019 430.615 347.64 426.658L332.26 382.529C329.396 374.317 333.532 365.385 341.488 362.613L368.853 353.131L371.208 359.882L343.842 369.364C339.621 370.825 337.457 375.671 339.027 380.18L354.407 424.308C355.171 426.509 356.719 428.308 358.734 429.346C360.707 430.361 362.892 430.51 364.908 429.811L392.274 420.329L394.628 427.081L367.262 436.563C365.65 437.113 364.017 437.388 362.383 437.388Z" fill="#005677"/>
<path d="M471.401 418.995C469.81 418.995 468.241 418.635 466.777 417.937C464.21 416.709 462.301 414.551 461.367 411.863L430.607 323.584C429.674 320.896 429.844 318.018 431.074 315.478C432.304 312.917 434.468 311.012 437.162 310.081L439.093 309.425C444.63 307.499 450.718 310.44 452.648 315.965L483.408 404.243C484.342 406.931 484.172 409.81 482.942 412.349C481.711 414.889 479.547 416.815 476.853 417.747L474.923 418.403C473.756 418.805 472.568 418.995 471.401 418.995ZM441.066 315.118L439.135 315.774C436.759 316.599 435.508 319.203 436.335 321.573L467.095 409.852C467.498 410.995 468.325 411.926 469.407 412.455C470.51 412.984 471.741 413.048 472.886 412.667L474.817 412.011C475.962 411.609 476.896 410.783 477.426 409.704C477.956 408.603 478.02 407.376 477.638 406.233L446.878 317.954C446.475 316.811 445.648 315.88 444.566 315.351C443.463 314.8 442.232 314.716 441.066 315.118Z" fill="#005677"/>
<path d="M361.025 377.618C362.022 377.279 363.125 377.808 363.465 378.803L374.241 409.725C374.581 410.72 374.05 411.82 373.053 412.159C372.056 412.498 370.953 411.968 370.614 410.974L359.837 380.052C359.498 379.057 360.028 377.957 361.025 377.618Z" fill="#005677"/>
<path d="M351.943 380.772C352.94 380.434 354.043 380.963 354.382 381.957L365.159 412.88C365.498 413.874 364.968 414.975 363.971 415.314C362.974 415.652 361.871 415.123 361.532 414.128L350.755 383.206C350.415 382.211 350.946 381.111 351.943 380.772Z" fill="#005677"/>
<path d="M322.859 426.085C316.473 426.085 310.491 422.106 308.285 415.757L308.094 415.206C305.315 407.206 309.558 398.423 317.598 395.65L340.445 387.734L350.755 417.323L327.908 425.238C326.232 425.81 324.535 426.085 322.859 426.085ZM318.489 398.169L319.38 400.708C314.161 402.529 311.382 408.243 313.185 413.45L313.376 414C314.819 418.127 318.701 420.73 322.859 420.73C323.941 420.73 325.065 420.561 326.147 420.18L343.903 414.021L337.115 394.549L319.359 400.708L318.489 398.169Z" fill="#005677"/>
<path d="M384.332 359.204C383.377 359.204 382.507 358.548 382.274 357.574C380.959 352.092 385.477 348.219 388.065 346.928L388.193 346.865L388.32 346.822L425.444 334.123C426.547 333.742 427.757 334.335 428.139 335.436C428.52 336.536 427.926 337.743 426.823 338.124L389.847 350.759C389.169 351.14 385.605 353.278 386.39 356.579C386.665 357.722 385.965 358.865 384.82 359.14C384.65 359.183 384.502 359.204 384.332 359.204Z" fill="#005677"/>
<path d="M760.174 132.984C760.09 132.962 760.006 132.94 759.894 132.911C757.61 132.165 756.402 129.703 757.14 127.452L782.628 50.3717C783.374 48.0931 785.812 46.8831 788.096 47.6298C790.38 48.3765 791.587 50.8385 790.849 53.0892L765.361 130.169C764.673 132.344 762.382 133.562 760.174 132.984Z" fill="#005677"/>
<path d="M697.092 134.063C695.862 133.741 694.798 132.896 694.229 131.645L664.022 64.4293C663.042 62.2357 664.008 59.6868 666.205 58.7119C668.402 57.737 670.957 58.7036 671.936 60.8972L702.144 128.113C703.123 130.306 702.158 132.855 699.961 133.83C699.017 134.239 698.015 134.304 697.092 134.063Z" fill="#005677"/>
<path d="M829.54 170.211C828.534 169.948 827.622 169.322 827.001 168.384C825.705 166.376 826.258 163.69 828.269 162.398L882.604 127.141C884.615 125.849 887.307 126.405 888.604 128.413C889.901 130.422 889.347 133.108 887.336 134.4L833.001 169.657C831.929 170.33 830.687 170.511 829.54 170.211Z" fill="#005677"/>
<path d="M635.783 166.302C635.307 166.177 634.826 165.962 634.395 165.67L577.547 126.057C575.577 124.677 575.115 121.993 576.467 120.022C577.847 118.058 580.536 117.6 582.513 118.951L639.361 158.565C641.33 159.945 641.793 162.629 640.44 164.6C639.352 166.133 637.488 166.748 635.783 166.302Z" fill="#005677"/>
</svg>
