<svg width="421" height="301" viewBox="0 0 421 301" fill="none" xmlns="http://www.w3.org/2000/svg">
<rect width="421" height="301" fill="#C4C4C4"/>
<path d="M255.457 133.192L254.981 132.521L183.753 62.8291C176.132 55.3957 165.81 51.2217 155.049 51.2217C144.288 51.2217 133.966 55.3957 126.344 62.8291L60.6174 127.157C56.8465 130.845 53.855 135.223 51.8141 140.042C49.7731 144.861 48.7227 150.026 48.7227 155.243C48.7227 160.459 49.7731 165.624 51.8141 170.443C53.855 175.262 56.8465 179.641 60.6174 183.328L126.344 247.638C133.961 255.08 144.285 259.261 155.049 259.261C165.813 259.261 176.137 255.08 183.753 247.638L196.183 235.476L182.725 222.309L126.763 167.553C123.808 164.045 122.192 159.64 122.192 155.094C122.192 150.548 123.808 146.143 126.763 142.634L182.573 88.0278L240.267 144.459C242.38 147.676 243.503 151.419 243.503 155.243C243.503 159.066 242.38 162.81 240.267 166.026L210.173 195.453L223.631 208.62L254.981 177.964L255.457 177.275C260.068 170.81 262.54 163.117 262.54 155.233C262.54 147.35 260.068 139.656 255.457 133.192ZM113.001 129.765L112.487 130.305C106.506 137.258 103.206 146.043 103.16 155.131C103.184 164.2 106.488 172.969 112.487 179.883L169.211 235.439C165.094 238.951 159.77 240.804 154.311 240.624C148.853 240.445 143.668 238.245 139.802 234.47L74.075 170.161C72.0744 168.205 70.4874 165.882 69.4046 163.325C68.3218 160.769 67.7645 158.029 67.7645 155.261C67.7645 152.494 68.3218 149.754 69.4046 147.197C70.4874 144.641 72.0744 142.318 74.075 140.362L139.802 75.9965C143.647 72.252 148.793 70.0617 154.214 69.8616C159.636 69.6614 164.935 71.466 169.058 74.9163L113.001 129.765Z" fill="#F8F8F8"/>
<path d="M359.301 127.182L293.55 62.8643C285.925 55.4095 275.586 51.2217 264.805 51.2217C254.024 51.2217 243.685 55.4095 236.06 62.8643L223.82 75.2287L228.636 79.8095L293.169 142.916C296.122 146.429 297.737 150.835 297.737 155.383C297.737 159.931 296.122 164.338 293.169 167.85L237.336 222.466L179.618 166.044C177.505 162.828 176.381 159.085 176.381 155.262C176.381 151.439 177.505 147.697 179.618 144.481L209.733 115.041L196.274 101.876L164.922 132.544L164.446 133.215C159.835 139.682 157.363 147.377 157.363 155.262C157.363 163.147 159.835 170.842 164.446 177.31L164.922 177.98L236.155 247.641C243.769 255.081 254.091 259.261 264.853 259.261C275.614 259.261 285.936 255.081 293.55 247.641L359.301 183.343C366.908 175.892 371.181 165.792 371.181 155.262C371.181 144.732 366.908 134.632 359.301 127.182ZM345.842 170.196L280.091 234.476C276.253 238.225 271.111 240.421 265.691 240.625C260.271 240.828 254.972 239.025 250.851 235.575L306.913 180.736L307.427 180.196C313.447 173.28 316.753 164.494 316.753 155.411C316.753 146.328 313.447 137.542 307.427 130.626L250.699 75.0798C254.812 71.5714 260.132 69.7186 265.586 69.8948C271.041 70.071 276.224 72.2632 280.091 76.0294L345.842 140.403C349.874 144.357 352.138 149.714 352.138 155.299C352.138 160.884 349.874 166.241 345.842 170.196Z" fill="#F8F8F8"/>
</svg>
