<svg width="420" height="301" viewBox="0 0 420 301" fill="none" xmlns="http://www.w3.org/2000/svg">
<rect width="420" height="301" fill="#005677"/>
<path d="M255.504 134.367L255.028 133.697L183.8 64.0049C176.179 56.5715 165.857 52.3975 155.096 52.3975C144.335 52.3975 134.012 56.5715 126.391 64.0049L60.6643 128.333C56.8933 132.021 53.9019 136.399 51.861 141.218C49.82 146.037 48.7695 151.202 48.7695 156.419C48.7695 161.635 49.82 166.8 51.861 171.619C53.9019 176.438 56.8933 180.817 60.6643 184.504L126.391 248.814C134.007 256.256 144.331 260.436 155.096 260.436C165.86 260.436 176.184 256.256 183.8 248.814L196.23 236.652L182.772 223.485L126.81 168.729C123.855 165.221 122.239 160.816 122.239 156.27C122.239 151.723 123.855 147.319 126.81 143.81L182.62 89.2036L240.314 145.635C242.427 148.852 243.55 152.595 243.55 156.419C243.55 160.242 242.427 163.985 240.314 167.202L210.22 196.628L223.678 209.796L255.028 179.14L255.504 178.451C260.115 171.986 262.587 164.293 262.587 156.409C262.587 148.526 260.115 140.832 255.504 134.367ZM113.048 130.941L112.534 131.481C106.553 138.434 103.252 147.219 103.207 156.307C103.231 165.376 106.535 174.144 112.534 181.058L169.257 236.615C165.141 240.127 159.816 241.98 154.358 241.8C148.9 241.62 143.714 239.421 139.849 235.646L74.1218 171.337C72.1213 169.38 70.5342 167.058 69.4514 164.501C68.3687 161.945 67.8114 159.205 67.8114 156.437C67.8114 153.67 68.3687 150.93 69.4514 148.373C70.5342 145.817 72.1213 143.494 74.1218 141.538L139.849 77.1723C143.694 73.4278 148.84 71.2375 154.261 71.0373C159.683 70.8372 164.982 72.6418 169.105 76.0921L113.048 130.941Z" fill="#F8F8F8"/>
<path d="M359.348 128.357L293.597 64.0401C285.972 56.5852 275.632 52.3975 264.852 52.3975C254.071 52.3975 243.732 56.5852 236.107 64.0401L223.867 76.4045L228.683 80.9853L293.216 144.092C296.169 147.605 297.784 152.011 297.784 156.559C297.784 161.107 296.169 165.513 293.216 169.026L237.383 223.641L179.664 167.22C177.552 164.003 176.428 160.261 176.428 156.438C176.428 152.615 177.552 148.873 179.664 145.656L209.78 116.216L196.321 103.051L164.968 133.72L164.493 134.391C159.882 140.858 157.41 148.553 157.41 156.438C157.41 164.323 159.882 172.018 164.493 178.485L164.968 179.156L236.202 248.817C243.816 256.257 254.138 260.436 264.899 260.436C275.661 260.436 285.983 256.257 293.597 248.817L359.348 184.519C366.955 177.068 371.228 166.968 371.228 156.438C371.228 145.908 366.955 135.808 359.348 128.357ZM345.889 171.372L280.138 235.652C276.3 239.401 271.158 241.597 265.738 241.8C260.318 242.004 255.019 240.201 250.898 236.751L306.96 181.912L307.474 181.372C313.494 174.456 316.8 165.67 316.8 156.587C316.8 147.504 313.494 138.718 307.474 131.802L250.746 76.2555C254.859 72.7471 260.179 70.8943 265.633 71.0706C271.087 71.2468 276.271 73.439 280.138 77.2052L345.889 141.578C349.921 145.533 352.185 150.89 352.185 156.475C352.185 162.06 349.921 167.417 345.889 171.372Z" fill="#F8F8F8"/>
</svg>
