<svg version="1.1" xmlns="http://www.w3.org/2000/svg" xmlns:xlink="http://www.w3.org/1999/xlink">

    <symbol viewBox="0 0 24 27" id="file-icon">
        <path fill-rule="evenodd" clip-rule="evenodd" d="M4 0C1.79086 0 0 1.81325 0 4.05V22.95C0 25.1868 1.79086 27 4 27H20C22.2091 27 24 25.1868 24 22.95V9.45C24 4.23091 19.8213 0 14.6667 0H4ZM4 2.7H13.3333V9.45H21.3333V22.95C21.3333 23.6956 20.7364 24.3 20 24.3H4C3.26362 24.3 2.66667 23.6956 2.66667 22.95V4.05C2.66667 3.30442 3.26362 2.7 4 2.7ZM16 2.83502C18.1484 3.27659 19.9217 4.76422 20.7786 6.75H16V2.83502Z" />
    </symbol>

    <symbol viewBox="0 0 15 15" id="link-file">
        <path d="M15 0.999999C15 0.447715 14.5523 -5.74472e-07 14 -8.27353e-07L5 -2.65626e-08C4.44772 -3.63737e-07 4 0.447715 4 1C4 1.55228 4.44772 2 5 2L13 2L13 10C13 10.5523 13.4477 11 14 11C14.5523 11 15 10.5523 15 10L15 0.999999ZM1.70711 14.7071L14.7071 1.70711L13.2929 0.292893L0.292893 13.2929L1.70711 14.7071Z" />
    </symbol>

    <symbol viewBox="0 0 28 15" id="btn-send">
        <path d="M27.2071 8.20711C27.5976 7.81658 27.5976 7.18342 27.2071 6.79289L20.8431 0.428932C20.4526 0.0384078 19.8195 0.0384078 19.4289 0.428932C19.0384 0.819457 19.0384 1.45262 19.4289 1.84315L25.0858 7.5L19.4289 13.1569C19.0384 13.5474 19.0384 14.1805 19.4289 14.5711C19.8195 14.9616 20.4526 14.9616 20.8431 14.5711L27.2071 8.20711ZM0.5 8.5H26.5V6.5H0.5V8.5Z" />
    </symbol>

    <symbol viewBox="0 0 8 5" id="nav-arrow">
        <path d="M0.800001 0.500085L0 0.500049L3.99999 4.5L8 0.500066L7.2 0.500102H4.00001L0.800001 0.500085Z" />
    </symbol>

    <symbol viewBox="0 0 22 22" id="header-feedback">
        <path d="M10.9987 20.1667C16.0613 20.1667 20.1654 16.0626 20.1654 11C20.1654 5.93738 16.0613 1.83333 10.9987 1.83333C5.93609 1.83333 1.83203 5.93738 1.83203 11C1.83203 16.0626 5.93609 20.1667 10.9987 20.1667Z" stroke-width="2" stroke-linecap="round" stroke-linejoin="round" />
        <path d="M8.33203 8.25C8.54754 7.63737 8.97292 7.12077 9.53282 6.79171C10.0927 6.46265 10.751 6.34236 11.3911 6.45216C12.0312 6.56195 12.6118 6.89473 13.03 7.39157C13.4483 7.88841 13.6772 8.51723 13.6762 9.16667C13.6762 11 10.9262 11.9167 10.9262 11.9167" stroke-width="2" stroke-linecap="round" stroke-linejoin="round" />
        <path d="M11 15.5833H11.01" stroke-width="2" stroke-linecap="round" stroke-linejoin="round" />
    </symbol>

    <symbol viewBox="0 0 22 22" id="header-callback">
        <path d="M20.1683 15.51V18.26C20.1693 18.5153 20.117 18.768 20.0147 19.0019C19.9125 19.2358 19.7625 19.4458 19.5743 19.6184C19.3862 19.791 19.1641 19.9224 18.9223 20.0041C18.6805 20.0859 18.4242 20.1163 18.1699 20.0933C15.3492 19.7868 12.6397 18.823 10.2591 17.2792C8.04428 15.8718 6.1665 13.994 4.75911 11.7792C3.20992 9.38776 2.24583 6.66507 1.94494 3.83166C1.92203 3.57817 1.95216 3.32269 2.0334 3.08148C2.11464 2.84027 2.24521 2.61862 2.41681 2.43064C2.5884 2.24267 2.79726 2.09248 3.03008 1.98964C3.2629 1.8868 3.51459 1.83357 3.76911 1.83333H6.51911C6.96397 1.82895 7.39525 1.98648 7.73256 2.27656C8.06986 2.56665 8.29018 2.96948 8.35244 3.40999C8.46851 4.29005 8.68377 5.15416 8.99411 5.98583C9.11744 6.31392 9.14413 6.6705 9.07102 7.0133C8.99791 7.3561 8.82807 7.67076 8.58161 7.91999L7.41744 9.08416C8.72237 11.3791 10.6225 13.2792 12.9174 14.5842L14.0816 13.42C14.3308 13.1735 14.6455 13.0037 14.9883 12.9306C15.3311 12.8575 15.6877 12.8842 16.0158 13.0075C16.8474 13.3178 17.7115 13.5331 18.5916 13.6492C19.0369 13.712 19.4436 13.9363 19.7343 14.2794C20.025 14.6225 20.1794 15.0604 20.1683 15.51Z" stroke-width="2" stroke-linecap="round" stroke-linejoin="round" />
    </symbol>

    <symbol viewBox="0 0 22 22" id="header-search">
        <path d="M10.0833 17.4167C14.1334 17.4167 17.4167 14.1334 17.4167 10.0833C17.4167 6.03325 14.1334 2.75 10.0833 2.75C6.03325 2.75 2.75 6.03325 2.75 10.0833C2.75 14.1334 6.03325 17.4167 10.0833 17.4167Z" stroke-width="2" stroke-linecap="round" stroke-linejoin="round" />
        <path d="M19.2492 19.25L15.2617 15.2625" stroke-width="2" stroke-linecap="round" stroke-linejoin="round" />
    </symbol>

    <symbol viewBox="0 0 15 14" id="header-search-close">
        <path d="M14.6562 1.41L13.2463 0L7.65625 5.59L2.06625 0L0.65625 1.41L6.24625 7L0.65625 12.59L2.06625 14L7.65625 8.41L13.2463 14L14.6562 12.59L9.06625 7L14.6562 1.41Z" />
    </symbol>

    <symbol viewBox="0 0 32 32" id="footer-social-fb">
        <path d="M32 16C32 7.16253 24.8375 0 16 0C7.16253 0 0 7.16253 0 16C0 23.9875 5.85 30.6063 13.5 31.8063V20.625H9.43747V16H13.5V12.475C13.5 8.4656 15.8875 6.25 19.5437 6.25C21.2937 6.25 23.125 6.5625 23.125 6.5625V10.5H21.1063C19.1187 10.5 18.5 11.7344 18.5 13V16H22.9375L22.2281 20.625H18.5V31.8063C26.15 30.6063 32 23.9875 32 16Z" fill="#1877F2" />
        <path d="M22.2282 20.625L22.9375 16H18.5V13C18.5 11.7344 19.1188 10.5 21.1063 10.5H23.125V6.5625C23.125 6.5625 21.2938 6.25 19.5438 6.25C15.8876 6.25 13.5 8.4656 13.5 12.475V16H9.4375V20.625H13.5V31.8063C14.3156 31.9344 15.15 32 16 32C16.85 32 17.6844 31.9344 18.5 31.8063V20.625H22.2282Z" fill="white" />
    </symbol>

    <symbol viewBox="0 0 32 32" id="footer-social-instagram">
        <path d="M0 16C0 7.16344 7.16344 0 16 0C24.8366 0 32 7.16344 32 16C32 24.8366 24.8366 32 16 32C7.16344 32 0 24.8366 0 16Z" fill="white" />
        <mask id="mask0" style="mask-type:alpha" maskUnits="userSpaceOnUse" x="0" y="0" width="32" height="32">
            <path fill-rule="evenodd" clip-rule="evenodd" d="M0 16C0 7.16344 7.16344 0 16 0C24.8366 0 32 7.16344 32 16C32 24.8366 24.8366 32 16 32C7.16344 32 0 24.8366 0 16Z" fill="white" />
        </mask>
        <g mask="url(#mask0)">
            <path fill-rule="evenodd" clip-rule="evenodd" d="M16.0009 7.4668C13.6834 7.4668 13.3925 7.47693 12.4823 7.51835C11.5739 7.55995 10.9538 7.70378 10.4112 7.9148C9.84993 8.13276 9.37384 8.42432 8.89952 8.89881C8.42485 9.37313 8.13329 9.84922 7.91462 10.4103C7.70307 10.9531 7.55906 11.5733 7.51818 12.4814C7.47746 13.3917 7.4668 13.6827 7.4668 16.0002C7.4668 18.3178 7.47711 18.6077 7.51835 19.5179C7.56013 20.4264 7.70395 21.0465 7.9148 21.5891C8.13294 22.1503 8.4245 22.6264 8.89899 23.1007C9.37313 23.5754 9.84922 23.8677 10.4101 24.0856C10.9531 24.2967 11.5733 24.4405 12.4816 24.4821C13.3918 24.5235 13.6825 24.5336 15.9999 24.5336C18.3176 24.5336 18.6075 24.5235 19.5178 24.4821C20.4262 24.4405 21.047 24.2967 21.59 24.0856C22.151 23.8677 22.6264 23.5754 23.1006 23.1007C23.5752 22.6264 23.8668 22.1503 24.0855 21.5893C24.2952 21.0465 24.4392 20.4262 24.4819 19.5181C24.5228 18.6079 24.5335 18.3178 24.5335 16.0002C24.5335 13.6827 24.5228 13.3918 24.4819 12.4816C24.4392 11.5732 24.2952 10.9531 24.0855 10.4105C23.8668 9.84922 23.5752 9.37313 23.1006 8.89881C22.6259 8.42414 22.1512 8.13258 21.5894 7.9148C21.0454 7.70378 20.425 7.55995 19.5165 7.51835C18.6063 7.47693 18.3165 7.4668 15.9983 7.4668H16.0009ZM15.7165 9.0045H15.7166L16.001 9.00458C18.2794 9.00458 18.5495 9.01276 19.4492 9.05365C20.2812 9.0917 20.7328 9.23072 21.0336 9.34752C21.4318 9.50219 21.7157 9.68708 22.0142 9.98575C22.3129 10.2844 22.4978 10.5689 22.6528 10.9671C22.7696 11.2675 22.9088 11.7191 22.9467 12.5511C22.9876 13.4507 22.9965 13.7209 22.9965 15.9983C22.9965 18.2756 22.9876 18.5458 22.9467 19.4454C22.9086 20.2774 22.7696 20.729 22.6528 21.0294C22.4981 21.4276 22.3129 21.7112 22.0142 22.0097C21.7156 22.3084 21.432 22.4933 21.0336 22.6479C20.7331 22.7653 20.2812 22.9039 19.4492 22.942C18.5497 22.9829 18.2794 22.9917 16.001 22.9917C13.7224 22.9917 13.4524 22.9829 12.5528 22.942C11.7208 22.9036 11.2692 22.7645 10.9682 22.6477C10.57 22.4931 10.2856 22.3082 9.9869 22.0095C9.68823 21.7108 9.50334 21.4271 9.34832 21.0287C9.23152 20.7283 9.09231 20.2767 9.05445 19.4447C9.01356 18.5451 9.00538 18.2749 9.00538 15.9961C9.00538 13.7173 9.01356 13.4485 9.05445 12.549C9.09249 11.717 9.23152 11.2654 9.34832 10.9646C9.50299 10.5664 9.68823 10.2819 9.9869 9.98326C10.2856 9.68459 10.57 9.4997 10.9682 9.34468C11.269 9.22734 11.7208 9.08867 12.5528 9.05045C13.34 9.01489 13.6451 9.00423 15.2355 9.00245V9.00458C15.3841 9.00435 15.544 9.00442 15.7165 9.0045ZM19.5321 11.4451C19.5321 10.8796 19.9908 10.4215 20.5561 10.4215V10.4211C21.1214 10.4211 21.5801 10.8798 21.5801 11.4451C21.5801 12.0105 21.1214 12.4692 20.5561 12.4692C19.9908 12.4692 19.5321 12.0105 19.5321 11.4451ZM16.0009 11.618C13.5808 11.6181 11.6188 13.5802 11.6188 16.0002C11.6188 18.4204 13.5809 20.3816 16.001 20.3816C18.4212 20.3816 20.3826 18.4204 20.3826 16.0002C20.3826 13.5801 18.421 11.618 16.0009 11.618ZM18.8454 16.0002C18.8454 14.4292 17.5718 13.1558 16.0009 13.1558C14.4299 13.1558 13.1565 14.4292 13.1565 16.0002C13.1565 17.5711 14.4299 18.8447 16.0009 18.8447C17.5718 18.8447 18.8454 17.5711 18.8454 16.0002Z" fill="black" />
        </g>
    </symbol>

    <symbol viewBox="0 0 32 32" id="footer-social-linkedin">
        <path d="M0 16C0 7.16344 7.16344 0 16 0C24.8366 0 32 7.16344 32 16C32 24.8366 24.8366 32 16 32C7.16344 32 0 24.8366 0 16Z" fill="#0077B5" />
        <path fill-rule="evenodd" clip-rule="evenodd" d="M11.546 9.8818C11.546 10.9279 10.7586 11.7649 9.49426 11.7649H9.47108C8.25377 11.7649 7.4668 10.9279 7.4668 9.8818C7.4668 8.8136 8.27774 8 9.51815 8C10.7586 8 11.5224 8.8136 11.546 9.8818ZM11.3071 13.2519V24.1463H7.68116V13.2519H11.3071ZM24.3834 24.1464L24.3836 17.8998C24.3836 14.5535 22.5948 12.9961 20.2088 12.9961C18.2836 12.9961 17.4217 14.0535 16.9405 14.7953V13.2522H13.3141C13.3619 14.2745 13.3141 24.1467 13.3141 24.1467H16.9405V18.0623C16.9405 17.7367 16.964 17.4119 17.0599 17.1788C17.3219 16.5283 17.9186 15.8548 18.9203 15.8548C20.2329 15.8548 20.7576 16.8538 20.7576 18.3178V24.1464H24.3834Z" fill="white" />
    </symbol>

    <symbol viewBox="0 0 32 32" id="footer-social-twitter">
        <path d="M0 16C0 7.16344 7.16344 0 16 0C24.8366 0 32 7.16344 32 16C32 24.8366 24.8366 32 16 32C7.16344 32 0 24.8366 0 16Z" fill="#55ACEE" />
        <path d="M15.5208 13.0051L15.5544 13.5587L14.9948 13.4909C12.9579 13.2311 11.1784 12.3498 9.66756 10.8696L8.92891 10.1352L8.73865 10.6776C8.33575 11.8865 8.59316 13.1633 9.43253 14.022C9.8802 14.4965 9.77948 14.5643 9.00725 14.2819C8.73865 14.1915 8.50363 14.1237 8.48124 14.1576C8.4029 14.2367 8.6715 15.2648 8.88414 15.6716C9.17513 16.2365 9.76828 16.7902 10.4174 17.1178L10.9658 17.3777L10.3167 17.389C9.68994 17.389 9.66756 17.4003 9.73471 17.6376C9.95854 18.372 10.8427 19.1516 11.8276 19.4905L12.5214 19.7278L11.9171 20.0894C11.0218 20.6091 9.96973 20.9029 8.91772 20.9255C8.41409 20.9368 8 20.982 8 21.0159C8 21.1289 9.36538 21.7616 10.16 22.0102C12.5438 22.7446 15.3753 22.4282 17.5017 21.1741C19.0126 20.2815 20.5235 18.5076 21.2286 16.7902C21.6091 15.875 21.9896 14.2028 21.9896 13.4006C21.9896 12.8808 22.0232 12.813 22.6499 12.1916C23.0192 11.83 23.3662 11.4346 23.4333 11.3216C23.5452 11.1069 23.534 11.1069 22.9633 11.299C22.012 11.638 21.8777 11.5928 22.3477 11.0843C22.6947 10.7228 23.1088 10.0674 23.1088 9.87536C23.1088 9.84146 22.9409 9.89796 22.7506 9.99964C22.5492 10.1126 22.1015 10.2821 21.7658 10.3838L21.1614 10.5759L20.613 10.203C20.3108 9.99964 19.8856 9.77367 19.6617 9.70588C19.0909 9.5477 18.218 9.57029 17.7032 9.75107C16.3042 10.2595 15.4201 11.5702 15.5208 13.0051Z" fill="white" />
    </symbol>

    <symbol viewBox="0 0 32 32" id="footer-social-youtube">
        <path d="M0 16C0 7.16344 7.16344 0 16 0C24.8366 0 32 7.16344 32 16C32 24.8366 24.8366 32 16 32C7.16344 32 0 24.8366 0 16Z" fill="#FF0000" />
        <path d="M24.1768 12.0488C23.9805 11.2948 23.4022 10.701 22.6679 10.4995C21.337 10.1333 16.0001 10.1333 16.0001 10.1333C16.0001 10.1333 10.6632 10.1333 9.3323 10.4995C8.59795 10.701 8.01962 11.2948 7.82335 12.0488C7.4668 13.4153 7.4668 16.2666 7.4668 16.2666C7.4668 16.2666 7.4668 19.1178 7.82335 20.4845C8.01962 21.2385 8.59795 21.8322 9.3323 22.0338C10.6632 22.4 16.0001 22.4 16.0001 22.4C16.0001 22.4 21.337 22.4 22.6679 22.0338C23.4022 21.8322 23.9805 21.2385 24.1768 20.4845C24.5335 19.1178 24.5335 16.2666 24.5335 16.2666C24.5335 16.2666 24.5335 13.4153 24.1768 12.0488Z" fill="white" />
        <path d="M14.4004 19.2V13.8667L18.6671 16.5335L14.4004 19.2Z" fill="#FF0000" />
    </symbol>

    <symbol viewBox="0 0 18 12" id="footer-btn">
        <path d="M17.495 6.49497C17.7683 6.22161 17.7683 5.77839 17.495 5.50503L13.0402 1.05025C12.7668 0.776886 12.3236 0.776886 12.0503 1.05025C11.7769 1.32362 11.7769 1.76684 12.0503 2.0402L16.01 6L12.0503 9.9598C11.7769 10.2332 11.7769 10.6764 12.0503 10.9497C12.3236 11.2231 12.7668 11.2231 13.0402 10.9497L17.495 6.49497ZM0 6.7H17V5.3H0V6.7Z" />
    </symbol>

    <symbol viewBox="0 0 25 24" id="icon-doc">
        <path d="M14.5 2H6.5C5.96957 2 5.46086 2.21071 5.08579 2.58579C4.71071 2.96086 4.5 3.46957 4.5 4V20C4.5 20.5304 4.71071 21.0391 5.08579 21.4142C5.46086 21.7893 5.96957 22 6.5 22H18.5C19.0304 22 19.5391 21.7893 19.9142 21.4142C20.2893 21.0391 20.5 20.5304 20.5 20V8L14.5 2Z" stroke="white" stroke-width="2" stroke-linecap="round" stroke-linejoin="round" />
        <path d="M14.5 2V8H20.5" stroke="white" stroke-width="2" stroke-linecap="round" stroke-linejoin="round" />
        <path d="M16.5 13H8.5" stroke="white" stroke-width="2" stroke-linecap="round" stroke-linejoin="round" />
        <path d="M16.5 17H8.5" stroke="white" stroke-width="2" stroke-linecap="round" stroke-linejoin="round" />
        <path d="M10.5 9H9.5H8.5" stroke="white" stroke-width="2" stroke-linecap="round" stroke-linejoin="round" />
    </symbol>

    <symbol viewBox="0 0 279 180" id="main-news-bg">
        <path d="M178.871 70.9223L178.459 70.3422L116.831 10.043C110.237 3.6115 101.306 0 91.9957 0C82.685 0 73.7541 3.6115 67.16 10.043L10.2916 65.7013C7.02889 68.8917 4.44065 72.6799 2.67478 76.8495C0.908904 81.019 0 85.4881 0 90.0014C0 94.5147 0.908904 98.9838 2.67478 103.153C4.44065 107.323 7.02889 111.111 10.2916 114.302L67.16 169.944C73.7498 176.383 82.6824 180 91.9957 180C101.309 180 110.242 176.383 116.831 169.944L127.586 159.421L115.942 148.028L67.5224 100.653C64.9658 97.6172 63.5677 93.806 63.5677 89.8725C63.5677 85.9389 64.9658 82.1278 67.5224 79.0921L115.81 31.8455L165.729 80.6713C167.557 83.4545 168.528 86.6931 168.528 90.0014C168.528 93.3097 167.557 96.5483 165.729 99.3315L139.691 124.792L151.335 136.185L178.459 109.661L178.871 109.064C182.861 103.471 185 96.8143 185 89.9933C185 83.1724 182.861 76.5158 178.871 70.9223ZM55.6151 67.9573L55.1704 68.4246C49.9954 74.4407 47.1399 82.0415 47.1004 89.9047C47.1215 97.7517 49.9803 105.338 55.1704 111.32L104.249 159.389C100.687 162.428 96.0803 164.031 91.3576 163.875C86.6349 163.72 82.1484 161.817 78.8038 158.551L21.9354 102.909C20.2044 101.216 18.8313 99.2067 17.8945 96.9947C16.9576 94.7828 16.4754 92.4119 16.4754 90.0175C16.4754 87.6232 16.9576 85.2523 17.8945 83.0403C18.8313 80.8284 20.2044 78.8187 21.9354 77.1262L78.8038 21.4357C82.131 18.1959 86.583 16.3008 91.2738 16.1276C95.9645 15.9544 100.55 17.5159 104.117 20.5011L55.6151 67.9573Z" />
        <path d="M268.721 65.7222L211.832 10.0735C205.234 3.62337 196.289 0 186.961 0C177.633 0 168.688 3.62337 162.09 10.0735L151.5 20.7714L155.667 24.7348L211.502 79.3363C214.057 82.3754 215.454 86.1881 215.454 90.1229C215.454 94.0577 214.057 97.8704 211.502 100.909L163.194 148.164L113.255 99.3467C111.427 96.564 110.455 93.3259 110.455 90.0182C110.455 86.7104 111.427 83.4724 113.255 80.6897L139.311 55.2176L127.667 43.8268L100.54 70.3623L100.128 70.9423C96.1388 76.5382 94 83.1961 94 90.0182C94 96.8402 96.1388 103.498 100.128 109.094L100.54 109.674L162.173 169.947C168.76 176.384 177.691 180 187.002 180C196.314 180 205.244 176.384 211.832 169.947L268.721 114.314C275.303 107.868 279 99.1291 279 90.0182C279 80.9072 275.303 72.1688 268.721 65.7222ZM257.076 102.94L200.187 158.556C196.866 161.8 192.417 163.699 187.728 163.876C183.038 164.052 178.453 162.492 174.888 159.507L223.394 112.059L223.839 111.591C229.047 105.608 231.908 98.0059 231.908 90.1471C231.908 82.2883 229.047 74.6862 223.839 68.7028L174.756 20.6425C178.315 17.607 182.918 16.0039 187.637 16.1564C192.356 16.3089 196.841 18.2056 200.187 21.4642L257.076 77.1613C260.565 80.5831 262.523 85.2182 262.523 90.0504C262.523 94.8826 260.565 99.5177 257.076 102.94Z" />
    </symbol>

    <symbol viewBox="0 0 17 17" id="main-news-arrow">
        <path d="M16.5 2C16.5 1.17157 15.8284 0.5 15 0.5L1.5 0.499999C0.671573 0.499999 5.74219e-07 1.17157 5.74219e-07 2C9.11394e-07 2.82843 0.671574 3.5 1.5 3.5H13.5V15.5C13.5 16.3284 14.1716 17 15 17C15.8284 17 16.5 16.3284 16.5 15.5L16.5 2ZM3.06066 16.0607L16.0607 3.06066L13.9393 0.93934L0.93934 13.9393L3.06066 16.0607Z" />
    </symbol>

    <symbol viewBox="0 0 20 20" id="slider-prev">
        <path d="M12.5 5L7.5 10L12.5 15" stroke-width="2" stroke-linecap="round" stroke-linejoin="round" />
    </symbol>

    <symbol viewBox="0 0 20 20" id="slider-next">
        <path d="M7.5 15L12.5 10L7.5 5" stroke-width="2" stroke-linecap="round" stroke-linejoin="round" />
    </symbol>

    <symbol viewBox="0 0 24 24" id="main-case-place">
        <path d="M21 10C21 17 12 23 12 23C12 23 3 17 3 10C3 7.61305 3.94821 5.32387 5.63604 3.63604C7.32387 1.94821 9.61305 1 12 1C14.3869 1 16.6761 1.94821 18.364 3.63604C20.0518 5.32387 21 7.61305 21 10Z" stroke-width="2" stroke-linecap="round" stroke-linejoin="round" />
        <path d="M12 13C13.6569 13 15 11.6569 15 10C15 8.34315 13.6569 7 12 7C10.3431 7 9 8.34315 9 10C9 11.6569 10.3431 13 12 13Z" stroke-width="2" stroke-linecap="round" stroke-linejoin="round" />
    </symbol>

    <symbol viewBox="0 0 43 43" id="solution-icon-1">
        <path d="M2.74572 5.55084L2.08008 7.3706L13.1844 16.7377L24.2871 7.3706L23.6214 5.55084H2.74572ZM5.56997 7.61484H20.7972L13.1844 14.0373L5.56997 7.61484Z" />
        <path d="M14.2239 6.58228H12.1582V36.1663H14.2239V6.58228Z" />
        <path d="M20.4603 28.6019H18.3945V36.1665H20.4603V28.6019Z" />
        <path d="M26.5054 25.1979H24.4414V36.1664H26.5054V25.1979Z" />
        <path d="M33.0132 19.8728H30.9492V36.1664H33.0132V19.8728Z" />
        <path d="M39.6302 15.3875H37.5645V36.1668H39.6302V15.3875Z" />
    </symbol>

    <symbol viewBox="0 0 43 43" id="solution-icon-2">
        <path d="M21.5146 32.4613C20.3984 32.4613 19.4918 33.3697 19.4918 34.4841C19.4918 35.6003 20.3984 36.5087 21.5146 36.5087C22.6308 36.5087 23.5374 35.6003 23.5374 34.4841C23.5374 33.3697 22.6308 32.4613 21.5146 32.4613ZM21.5146 38.6569C19.2141 38.6569 17.3418 36.7846 17.3418 34.4841C17.3418 32.1836 19.2141 30.3131 21.5146 30.3131C23.8169 30.3131 25.6892 32.1836 25.6892 34.4841C25.6892 36.7846 23.8169 38.6569 21.5146 38.6569Z" />
        <path d="M13.8921 28.3674L12.2617 26.9682C14.616 24.2269 18.0004 22.6574 21.5479 22.6574H21.5748C25.1259 22.6646 28.3813 24.1965 30.7446 26.9717L29.1088 28.3639C27.1594 26.0777 24.4827 24.8146 21.5712 24.8074H21.5479C18.6275 24.8074 15.8379 26.1046 13.8921 28.3674Z" />
        <path d="M8.2437 22.065L6.61328 20.6639C10.4116 16.2439 15.8708 13.7104 21.5934 13.7104H21.6364C27.3572 13.723 32.6068 16.1937 36.4177 20.6675L34.7819 22.0614C31.3849 18.0732 26.714 15.8712 21.631 15.8622H21.5934C16.4961 15.8622 11.6335 18.1197 8.2437 22.065Z" />
        <path d="M2.25932 15.4877L0.628906 14.0867C5.96449 7.87674 13.6561 4.33641 21.6738 4.34358C29.6879 4.3597 37.0445 7.8212 42.3855 14.0902L40.7479 15.4842C35.8208 9.70245 29.0447 6.50791 21.6684 6.49358H21.6165C14.2259 6.49358 7.17386 9.76874 2.25932 15.4877Z" />
    </symbol>

    <symbol viewBox="0 0 43 43" id="solution-icon-3">
        <path d="M2.70898 9.67395V39.2889H40.3116V18.5715L38.8582 17.7734L31.4553 22.4914V18.5715L30.0157 17.7648L22.2533 22.5275V18.5715L20.8223 17.7597L12.7813 22.5516V9.67395H2.70898ZM4.60098 11.5642H10.8893V25.8316L12.3186 25.0284L20.3631 20.2365V25.8316L21.8027 25.0215L29.5651 20.2606V25.8316L31.0185 25.0146L38.4213 20.2967V37.3969H4.60098V11.5642Z" />
        <path d="M8.07611 7.03186L6.44727 6.06866C7.63235 4.06486 9.81159 1.62074 15.0266 3.54542C17.8801 4.62042 19.564 4.17322 20.6665 2.05762L22.3435 2.9331C20.7852 5.92246 18.102 6.72398 14.3661 5.31874C10.3689 3.84814 9.02383 5.42882 8.07611 7.03186Z" />
        <path d="M14.9478 28.7305H16.8398V33.4932H14.9478V28.7305Z" />
        <path d="M24.6471 28.7305H26.5391V33.4932H24.6471V28.7305Z" />
        <path d="M33.1725 28.7305H35.0645V33.4932H33.1725V28.7305Z" />
    </symbol>

    <symbol viewBox="0 0 43 43" id="solution-icon-4">
        <path d="M11.6456 2.92664L10.7121 2.57727L6.15234 13.8952L7.18614 14.3145L23.4742 20.4921L24.1335 20.7197L26.6992 18.3332L33.151 20.5065L33.9913 20.4402L41.8961 16.314L41.7796 14.3557L11.6456 2.92664ZM8.96705 12.6894L11.8749 5.31315L38.7768 15.5167L33.4036 18.3206L26.7834 16.0918L26.0757 15.8392L23.6175 18.2472L8.96705 12.6894Z" />
        <path d="M30.6005 26.5746L10.2078 18.8256L9.17578 18.4333L10.713 14.4952L12.7215 15.2656L11.9779 17.1988L30.3873 24.1935L32.5051 19.0747L34.492 19.8971L31.5 26.9437L30.6005 26.5746Z" />
        <path d="M31.9008 25.163C31.7879 25.163 31.6733 25.1612 31.5586 25.1576L31.6213 23.0094C33.1872 23.0434 34.2998 22.7263 34.9233 22.0311C35.6185 21.2535 35.8353 19.8972 35.5666 17.9981L37.6951 17.6971C38.057 20.252 37.6628 22.1924 36.5251 23.4645C35.5164 24.5932 33.9612 25.163 31.9008 25.163Z" />
        <path d="M1.10586 25.5706H3.25586V39.4399H1.10586V25.5706Z" />
        <path d="M5.68353 31.4312H19.9883V33.5794H5.68353V31.4312Z" />
        <path d="M18.9086 21.4344H21.0586V35.4864H18.9086V21.4344Z" />
        <path d="M15.6945 10.4732L22.9277 13.322L22.1405 15.3208L14.9073 12.4719L15.6945 10.4732Z" />
        <path d="M2.33094 36.5519L2.03711 34.4216C3.60303 34.2048 4.14411 33.2105 4.12619 32.3487C4.10828 31.4528 3.46865 30.4889 2.08011 30.3545L2.28794 28.2135C4.97723 28.4751 6.24036 30.5194 6.27619 32.3057C6.31382 34.1439 5.10623 36.1685 2.33094 36.5519Z" />
    </symbol>

    <symbol viewBox="0 0 43 43" id="solution-icon-5">
        <path d="M4.62924 5.09663C3.41091 14.6068 5.95328 21.2163 12.5878 25.8102L13.4371 25.5253L6.75057 5.09663H4.62924ZM12.7509 27.833L11.8926 27.7201C4.16161 22.5834 1.18566 14.8129 2.79637 3.96788L3.77103 3.12579H8.18032L8.40248 3.80484L15.9543 26.7185L14.9904 27.084L12.7509 27.833Z" />
        <path d="M11.8669 17.4357L11.1932 15.5831L19.0479 12.7307L20.0709 12.9475C21.5329 14.3629 23.0934 14.9864 24.1487 14.5941C25.1001 14.2357 25.7093 12.9762 25.8634 11.0465L26.5119 10.1973L38.4391 5.89907L37.5647 3.33161L10.5052 13.2646L9.82617 11.4156L37.8317 1.13501L38.6433 0.821472L40.908 7.09412L40.0175 7.42558L27.7607 11.8438C27.3576 14.8628 25.9744 16.0113 24.8457 16.4377C23.1759 17.0684 21.085 16.4502 19.1607 14.7858L11.8669 17.4357Z" />
        <path d="M35.642 41.8647H20.3663L19.3809 40.8793V14.4969H21.3517V39.8939H34.266L25.3955 13.8268L27.2606 13.1908L36.5755 40.5622L35.642 41.8647Z" />
        <path d="M28.9562 41.7215L19.8635 36.1638L20.376 34.3381H30.8787L19.774 25.7416L20.376 23.9768H27.5731L19.7363 17.2562L21.0174 15.7602L30.8769 24.2151L30.2355 25.9476H23.2587L34.3635 34.5441L33.7615 36.3089H23.8787L29.9829 40.0392L28.9562 41.7215Z" />
        <path d="M4.99987 20.2192H6.9707V40.8808H4.99987V20.2192Z" />
        <path d="M3.36477 39.8952H39.6836V41.866H3.36477V39.8952Z" />
    </symbol>

    <symbol viewBox="0 0 34 34" id="documentation-title">
        <circle cx="17" cy="17" r="16.5" transform="rotate(90 17 17)" fill="white" stroke="#EBEBEB" />
        <path d="M12 14.5L17 19.5L22 14.5" stroke="#005678" stroke-width="2" stroke-linecap="round" stroke-linejoin="round" />
    </symbol>

    <symbol viewBox="0 0 14 15" id="window-photo-close">
        <path d="M14 1.45102L12.59 0.0410156L7 5.63102L1.41 0.0410156L0 1.45102L5.59 7.04102L0 12.631L1.41 14.041L7 8.45102L12.59 14.041L14 12.631L8.41 7.04102L14 1.45102Z" />
    </symbol>

    <symbol viewBox="0 0 15 15" id="window-photo-download">
        <path d="M13.0273 9.66406V12.2891H2.52734V9.66406H0.777344V12.2891C0.777344 13.2516 1.56484 14.0391 2.52734 14.0391H13.0273C13.9898 14.0391 14.7773 13.2516 14.7773 12.2891V9.66406H13.0273ZM12.1523 6.16406L10.9186 4.93031L8.65234 7.18781V0.0390625H6.90234V7.18781L4.63609 4.93031L3.40234 6.16406L7.77734 10.5391L12.1523 6.16406Z" />
    </symbol>

    <symbol viewBox="0 0 13 15" id="window-photo-share">
        <path d="M10.6672 9.93464C10.133 9.93464 9.65512 10.1455 9.28966 10.4758L4.27861 7.55914C4.31376 7.3975 4.34187 7.23585 4.34187 7.06717C4.34187 6.8985 4.31376 6.73685 4.27861 6.57521L9.23343 3.68665C9.61295 4.03806 10.1119 4.25593 10.6672 4.25593C11.8338 4.25593 12.7756 3.31416 12.7756 2.1475C12.7756 0.98083 11.8338 0.0390625 10.6672 0.0390625C9.5005 0.0390625 8.55873 0.98083 8.55873 2.1475C8.55873 2.31617 8.58685 2.47782 8.62199 2.63946L3.66717 5.52802C3.28765 5.17661 2.78865 4.95874 2.23343 4.95874C1.06677 4.95874 0.125 5.90051 0.125 7.06717C0.125 8.23384 1.06677 9.17561 2.23343 9.17561C2.78865 9.17561 3.28765 8.95774 3.66717 8.60633L8.67118 11.53C8.63604 11.6776 8.61496 11.8322 8.61496 11.9869C8.61496 13.1184 9.53564 14.0391 10.6672 14.0391C11.7987 14.0391 12.7194 13.1184 12.7194 11.9869C12.7194 10.8553 11.7987 9.93464 10.6672 9.93464ZM10.6672 1.44468C11.0537 1.44468 11.37 1.76095 11.37 2.1475C11.37 2.53404 11.0537 2.85031 10.6672 2.85031C10.2806 2.85031 9.96436 2.53404 9.96436 2.1475C9.96436 1.76095 10.2806 1.44468 10.6672 1.44468ZM2.23343 7.76999C1.84689 7.76999 1.53062 7.45372 1.53062 7.06717C1.53062 6.68063 1.84689 6.36436 2.23343 6.36436C2.61998 6.36436 2.93624 6.68063 2.93624 7.06717C2.93624 7.45372 2.61998 7.76999 2.23343 7.76999ZM10.6672 12.7037C10.2806 12.7037 9.96436 12.3875 9.96436 12.0009C9.96436 11.6144 10.2806 11.2981 10.6672 11.2981C11.0537 11.2981 11.37 11.6144 11.37 12.0009C11.37 12.3875 11.0537 12.7037 10.6672 12.7037Z" />
    </symbol>

    <symbol viewBox="0 0 21 14" id="window-photo-prev">
        <path d="M7.77344 14L9.18344 12.59L4.60344 8L20.7734 8L20.7734 6L4.60344 6L9.19344 1.41L7.77344 -1.1365e-06L0.773438 7L7.77344 14Z" />
    </symbol>

    <symbol viewBox="0 0 21 14" id="window-photo-next">
        <path d="M13.7773 0L12.3673 1.41L16.9473 6H0.777344V8H16.9473L12.3573 12.59L13.7773 14L20.7773 7L13.7773 0Z" />
    </symbol>

    <symbol viewBox="0 0 29 29" id="window-photo-share-link">
        <path d="M12.667 14.6667C12.9533 15.0495 13.3186 15.3662 13.738 15.5954C14.1575 15.8245 14.6213 15.9608 15.0981 15.9949C15.5749 16.0291 16.0534 15.9603 16.5012 15.7932C16.9491 15.6262 17.3557 15.3648 17.6937 15.0267L19.6937 13.0267C20.3009 12.3981 20.6368 11.556 20.6292 10.6821C20.6216 9.80806 20.2711 8.97202 19.6531 8.354C19.035 7.73597 18.199 7.38541 17.325 7.37781C16.451 7.37022 15.609 7.7062 14.9803 8.31339L13.8337 9.45339" stroke-width="2" stroke-linecap="round" stroke-linejoin="round" />
        <path d="M15.3335 13.3333C15.0472 12.9506 14.6819 12.6339 14.2624 12.4047C13.843 12.1755 13.3791 12.0392 12.9024 12.0051C12.4256 11.971 11.9471 12.0397 11.4992 12.2068C11.0514 12.3739 10.6447 12.6353 10.3068 12.9733L8.3068 14.9733C7.69961 15.602 7.36363 16.444 7.37122 17.318C7.37881 18.192 7.72938 19.028 8.3474 19.646C8.96543 20.2641 9.80147 20.6146 10.6755 20.6222C11.5495 20.6298 12.3915 20.2938 13.0201 19.6867L14.1601 18.5467" stroke-width="2" stroke-linecap="round" stroke-linejoin="round" />
    </symbol>

    <symbol viewBox="0 0 29 29" id="window-photo-share-fb">
        <path d="M29 14.4998C29 6.49077 22.509 -0.000244141 14.5 -0.000244141C6.49102 -0.000244141 0 6.49077 0 14.4998C0 21.7384 5.30156 27.7367 12.2344 28.8242V18.6912H8.55273V14.4998H12.2344V11.3052C12.2344 7.67173 14.398 5.66382 17.7115 5.66382C19.2975 5.66382 20.957 5.94702 20.957 5.94702V9.51538H19.1275C17.3264 9.51538 16.7656 10.634 16.7656 11.781V14.4998H20.7871L20.1442 18.6912H16.7656V28.8242C23.6984 27.7367 29 21.7384 29 14.4998Z" />
    </symbol>

    <symbol viewBox="0 0 48 48" id="window-photo-share-telegram">
        <path d="M23.0561 28.9639C22.4027 29.5843 21.7599 30.1995 21.1171 30.8146C20.894 31.0284 20.6443 31.1483 20.3202 31.1326C20.1024 31.1222 19.9802 31.0284 19.9112 30.825C19.4224 29.3341 18.923 27.8431 18.4343 26.3469C18.3865 26.2009 18.3174 26.1332 18.1687 26.0862C17.0159 25.7422 15.8577 25.3877 14.7102 25.028C14.5349 24.9706 14.3543 24.9028 14.2002 24.7986C13.9612 24.6422 13.9293 24.3867 14.1418 24.1991C14.3384 24.027 14.5721 23.8811 14.8165 23.7872C16.2296 23.2398 17.648 22.7081 19.0665 22.1711C22.663 20.8105 26.2596 19.4446 29.8561 18.084C30.5414 17.8233 31.0674 18.1882 30.993 18.9181C30.9452 19.3821 30.823 19.8408 30.7274 20.2996C29.9464 23.9176 29.1655 27.5407 28.3792 31.1587C28.1933 32.0189 27.5771 32.243 26.8599 31.7217C25.6539 30.8511 24.448 29.9753 23.2421 29.0995C23.1836 29.0526 23.1252 29.0108 23.0561 28.9639ZM20.3468 30.0639C20.3627 30.0587 20.3733 30.0587 20.3893 30.0535C20.3946 30.017 20.4052 29.9857 20.4105 29.9544C20.4902 29.136 20.5699 28.3123 20.639 27.4938C20.6549 27.3113 20.7187 27.181 20.8568 27.0559C21.9671 26.081 23.0774 25.0957 24.1824 24.1157C25.4096 23.0313 26.6368 21.947 27.8586 20.8574C27.933 20.7896 27.9649 20.6749 28.018 20.5811C27.9011 20.5707 27.7789 20.5238 27.6727 20.5498C27.5292 20.5863 27.3964 20.6697 27.2689 20.7479C24.5649 22.4214 21.8555 24.0948 19.1515 25.7682C18.9974 25.8621 18.9708 25.9403 19.0293 26.1071C19.2312 26.6701 19.4118 27.2384 19.5977 27.8066C19.8474 28.5573 20.0971 29.3132 20.3468 30.0639Z" />
    </symbol>

</svg>