<svg version="1.1" xmlns="http://www.w3.org/2000/svg" xmlns:xlink="http://www.w3.org/1999/xlink">

    <symbol viewBox="0 0 24 27" id="file-icon">
        <path fill-rule="evenodd" clip-rule="evenodd" d="M4 0C1.79086 0 0 1.81325 0 4.05V22.95C0 25.1868 1.79086 27 4 27H20C22.2091 27 24 25.1868 24 22.95V9.45C24 4.23091 19.8213 0 14.6667 0H4ZM4 2.7H13.3333V9.45H21.3333V22.95C21.3333 23.6956 20.7364 24.3 20 24.3H4C3.26362 24.3 2.66667 23.6956 2.66667 22.95V4.05C2.66667 3.30442 3.26362 2.7 4 2.7ZM16 2.83502C18.1484 3.27659 19.9217 4.76422 20.7786 6.75H16V2.83502Z" />
    </symbol>

    <symbol viewBox="0 0 15 15" id="link-file">
        <path d="M15 0.999999C15 0.447715 14.5523 -5.74472e-07 14 -8.27353e-07L5 -2.65626e-08C4.44772 -3.63737e-07 4 0.447715 4 1C4 1.55228 4.44772 2 5 2L13 2L13 10C13 10.5523 13.4477 11 14 11C14.5523 11 15 10.5523 15 10L15 0.999999ZM1.70711 14.7071L14.7071 1.70711L13.2929 0.292893L0.292893 13.2929L1.70711 14.7071Z" />
    </symbol>

    <symbol viewBox="0 0 28 15" id="btn-send">
        <path d="M27.2071 8.20711C27.5976 7.81658 27.5976 7.18342 27.2071 6.79289L20.8431 0.428932C20.4526 0.0384078 19.8195 0.0384078 19.4289 0.428932C19.0384 0.819457 19.0384 1.45262 19.4289 1.84315L25.0858 7.5L19.4289 13.1569C19.0384 13.5474 19.0384 14.1805 19.4289 14.5711C19.8195 14.9616 20.4526 14.9616 20.8431 14.5711L27.2071 8.20711ZM0.5 8.5H26.5V6.5H0.5V8.5Z" />
    </symbol>

    <symbol viewBox="0 0 8 5" id="nav-arrow">
        <path d="M0.800001 0.500085L0 0.500049L3.99999 4.5L8 0.500066L7.2 0.500102H4.00001L0.800001 0.500085Z" />
    </symbol>

    <symbol viewBox="0 0 22 22" id="header-feedback">
        <path d="M10.9987 20.1667C16.0613 20.1667 20.1654 16.0626 20.1654 11C20.1654 5.93738 16.0613 1.83333 10.9987 1.83333C5.93609 1.83333 1.83203 5.93738 1.83203 11C1.83203 16.0626 5.93609 20.1667 10.9987 20.1667Z" stroke-width="2" stroke-linecap="round" stroke-linejoin="round" />
        <path d="M8.33203 8.25C8.54754 7.63737 8.97292 7.12077 9.53282 6.79171C10.0927 6.46265 10.751 6.34236 11.3911 6.45216C12.0312 6.56195 12.6118 6.89473 13.03 7.39157C13.4483 7.88841 13.6772 8.51723 13.6762 9.16667C13.6762 11 10.9262 11.9167 10.9262 11.9167" stroke-width="2" stroke-linecap="round" stroke-linejoin="round" />
        <path d="M11 15.5833H11.01" stroke-width="2" stroke-linecap="round" stroke-linejoin="round" />
    </symbol>

    <symbol viewBox="0 0 22 22" id="header-callback">
        <path d="M20.1683 15.51V18.26C20.1693 18.5153 20.117 18.768 20.0147 19.0019C19.9125 19.2358 19.7625 19.4458 19.5743 19.6184C19.3862 19.791 19.1641 19.9224 18.9223 20.0041C18.6805 20.0859 18.4242 20.1163 18.1699 20.0933C15.3492 19.7868 12.6397 18.823 10.2591 17.2792C8.04428 15.8718 6.1665 13.994 4.75911 11.7792C3.20992 9.38776 2.24583 6.66507 1.94494 3.83166C1.92203 3.57817 1.95216 3.32269 2.0334 3.08148C2.11464 2.84027 2.24521 2.61862 2.41681 2.43064C2.5884 2.24267 2.79726 2.09248 3.03008 1.98964C3.2629 1.8868 3.51459 1.83357 3.76911 1.83333H6.51911C6.96397 1.82895 7.39525 1.98648 7.73256 2.27656C8.06986 2.56665 8.29018 2.96948 8.35244 3.40999C8.46851 4.29005 8.68377 5.15416 8.99411 5.98583C9.11744 6.31392 9.14413 6.6705 9.07102 7.0133C8.99791 7.3561 8.82807 7.67076 8.58161 7.91999L7.41744 9.08416C8.72237 11.3791 10.6225 13.2792 12.9174 14.5842L14.0816 13.42C14.3308 13.1735 14.6455 13.0037 14.9883 12.9306C15.3311 12.8575 15.6877 12.8842 16.0158 13.0075C16.8474 13.3178 17.7115 13.5331 18.5916 13.6492C19.0369 13.712 19.4436 13.9363 19.7343 14.2794C20.025 14.6225 20.1794 15.0604 20.1683 15.51Z" stroke-width="2" stroke-linecap="round" stroke-linejoin="round" />
    </symbol>

    <symbol viewBox="0 0 22 22" id="header-search">
        <path d="M10.0833 17.4167C14.1334 17.4167 17.4167 14.1334 17.4167 10.0833C17.4167 6.03325 14.1334 2.75 10.0833 2.75C6.03325 2.75 2.75 6.03325 2.75 10.0833C2.75 14.1334 6.03325 17.4167 10.0833 17.4167Z" stroke-width="2" stroke-linecap="round" stroke-linejoin="round" />
        <path d="M19.2492 19.25L15.2617 15.2625" stroke-width="2" stroke-linecap="round" stroke-linejoin="round" />
    </symbol>

    <symbol viewBox="0 0 15 14" id="header-search-close">
        <path d="M14.6562 1.41L13.2463 0L7.65625 5.59L2.06625 0L0.65625 1.41L6.24625 7L0.65625 12.59L2.06625 14L7.65625 8.41L13.2463 14L14.6562 12.59L9.06625 7L14.6562 1.41Z" />
    </symbol>

    <symbol viewBox="0 0 32 32" id="footer-social-fb">
        <path d="M32 16C32 7.16253 24.8375 0 16 0C7.16253 0 0 7.16253 0 16C0 23.9875 5.85 30.6063 13.5 31.8063V20.625H9.43747V16H13.5V12.475C13.5 8.4656 15.8875 6.25 19.5437 6.25C21.2937 6.25 23.125 6.5625 23.125 6.5625V10.5H21.1063C19.1187 10.5 18.5 11.7344 18.5 13V16H22.9375L22.2281 20.625H18.5V31.8063C26.15 30.6063 32 23.9875 32 16Z" fill="#1877F2" />
        <path d="M22.2282 20.625L22.9375 16H18.5V13C18.5 11.7344 19.1188 10.5 21.1063 10.5H23.125V6.5625C23.125 6.5625 21.2938 6.25 19.5438 6.25C15.8876 6.25 13.5 8.4656 13.5 12.475V16H9.4375V20.625H13.5V31.8063C14.3156 31.9344 15.15 32 16 32C16.85 32 17.6844 31.9344 18.5 31.8063V20.625H22.2282Z" fill="white" />
    </symbol>

    <symbol viewBox="0 0 32 32" id="footer-social-instagram">
        <path d="M0 16C0 7.16344 7.16344 0 16 0C24.8366 0 32 7.16344 32 16C32 24.8366 24.8366 32 16 32C7.16344 32 0 24.8366 0 16Z" fill="white" />
        <mask id="mask0" style="mask-type:alpha" maskUnits="userSpaceOnUse" x="0" y="0" width="32" height="32">
            <path fill-rule="evenodd" clip-rule="evenodd" d="M0 16C0 7.16344 7.16344 0 16 0C24.8366 0 32 7.16344 32 16C32 24.8366 24.8366 32 16 32C7.16344 32 0 24.8366 0 16Z" fill="white" />
        </mask>
        <g mask="url(#mask0)">
            <path fill-rule="evenodd" clip-rule="evenodd" d="M16.0009 7.4668C13.6834 7.4668 13.3925 7.47693 12.4823 7.51835C11.5739 7.55995 10.9538 7.70378 10.4112 7.9148C9.84993 8.13276 9.37384 8.42432 8.89952 8.89881C8.42485 9.37313 8.13329 9.84922 7.91462 10.4103C7.70307 10.9531 7.55906 11.5733 7.51818 12.4814C7.47746 13.3917 7.4668 13.6827 7.4668 16.0002C7.4668 18.3178 7.47711 18.6077 7.51835 19.5179C7.56013 20.4264 7.70395 21.0465 7.9148 21.5891C8.13294 22.1503 8.4245 22.6264 8.89899 23.1007C9.37313 23.5754 9.84922 23.8677 10.4101 24.0856C10.9531 24.2967 11.5733 24.4405 12.4816 24.4821C13.3918 24.5235 13.6825 24.5336 15.9999 24.5336C18.3176 24.5336 18.6075 24.5235 19.5178 24.4821C20.4262 24.4405 21.047 24.2967 21.59 24.0856C22.151 23.8677 22.6264 23.5754 23.1006 23.1007C23.5752 22.6264 23.8668 22.1503 24.0855 21.5893C24.2952 21.0465 24.4392 20.4262 24.4819 19.5181C24.5228 18.6079 24.5335 18.3178 24.5335 16.0002C24.5335 13.6827 24.5228 13.3918 24.4819 12.4816C24.4392 11.5732 24.2952 10.9531 24.0855 10.4105C23.8668 9.84922 23.5752 9.37313 23.1006 8.89881C22.6259 8.42414 22.1512 8.13258 21.5894 7.9148C21.0454 7.70378 20.425 7.55995 19.5165 7.51835C18.6063 7.47693 18.3165 7.4668 15.9983 7.4668H16.0009ZM15.7165 9.0045H15.7166L16.001 9.00458C18.2794 9.00458 18.5495 9.01276 19.4492 9.05365C20.2812 9.0917 20.7328 9.23072 21.0336 9.34752C21.4318 9.50219 21.7157 9.68708 22.0142 9.98575C22.3129 10.2844 22.4978 10.5689 22.6528 10.9671C22.7696 11.2675 22.9088 11.7191 22.9467 12.5511C22.9876 13.4507 22.9965 13.7209 22.9965 15.9983C22.9965 18.2756 22.9876 18.5458 22.9467 19.4454C22.9086 20.2774 22.7696 20.729 22.6528 21.0294C22.4981 21.4276 22.3129 21.7112 22.0142 22.0097C21.7156 22.3084 21.432 22.4933 21.0336 22.6479C20.7331 22.7653 20.2812 22.9039 19.4492 22.942C18.5497 22.9829 18.2794 22.9917 16.001 22.9917C13.7224 22.9917 13.4524 22.9829 12.5528 22.942C11.7208 22.9036 11.2692 22.7645 10.9682 22.6477C10.57 22.4931 10.2856 22.3082 9.9869 22.0095C9.68823 21.7108 9.50334 21.4271 9.34832 21.0287C9.23152 20.7283 9.09231 20.2767 9.05445 19.4447C9.01356 18.5451 9.00538 18.2749 9.00538 15.9961C9.00538 13.7173 9.01356 13.4485 9.05445 12.549C9.09249 11.717 9.23152 11.2654 9.34832 10.9646C9.50299 10.5664 9.68823 10.2819 9.9869 9.98326C10.2856 9.68459 10.57 9.4997 10.9682 9.34468C11.269 9.22734 11.7208 9.08867 12.5528 9.05045C13.34 9.01489 13.6451 9.00423 15.2355 9.00245V9.00458C15.3841 9.00435 15.544 9.00442 15.7165 9.0045ZM19.5321 11.4451C19.5321 10.8796 19.9908 10.4215 20.5561 10.4215V10.4211C21.1214 10.4211 21.5801 10.8798 21.5801 11.4451C21.5801 12.0105 21.1214 12.4692 20.5561 12.4692C19.9908 12.4692 19.5321 12.0105 19.5321 11.4451ZM16.0009 11.618C13.5808 11.6181 11.6188 13.5802 11.6188 16.0002C11.6188 18.4204 13.5809 20.3816 16.001 20.3816C18.4212 20.3816 20.3826 18.4204 20.3826 16.0002C20.3826 13.5801 18.421 11.618 16.0009 11.618ZM18.8454 16.0002C18.8454 14.4292 17.5718 13.1558 16.0009 13.1558C14.4299 13.1558 13.1565 14.4292 13.1565 16.0002C13.1565 17.5711 14.4299 18.8447 16.0009 18.8447C17.5718 18.8447 18.8454 17.5711 18.8454 16.0002Z" fill="black" />
        </g>
    </symbol>

    <symbol viewBox="0 0 32 32" id="footer-social-instagram-nav">
        <path d="M0 16C0 7.16344 7.16344 0 16 0C24.8366 0 32 7.16344 32 16C32 24.8366 24.8366 32 16 32C7.16344 32 0 24.8366 0 16Z" fill="#EFEFEF" />
        <mask id="mask0" style="mask-type:alpha" maskUnits="userSpaceOnUse" x="0" y="0" width="32" height="32">
            <path fill-rule="evenodd" clip-rule="evenodd" d="M0 16C0 7.16344 7.16344 0 16 0C24.8366 0 32 7.16344 32 16C32 24.8366 24.8366 32 16 32C7.16344 32 0 24.8366 0 16Z" fill="#EFEFEF" />
        </mask>
        <g mask="url(#mask0)">
            <path fill-rule="evenodd" clip-rule="evenodd" d="M16.0009 7.4668C13.6834 7.4668 13.3925 7.47693 12.4823 7.51835C11.5739 7.55995 10.9538 7.70378 10.4112 7.9148C9.84993 8.13276 9.37384 8.42432 8.89952 8.89881C8.42485 9.37313 8.13329 9.84922 7.91462 10.4103C7.70307 10.9531 7.55906 11.5733 7.51818 12.4814C7.47746 13.3917 7.4668 13.6827 7.4668 16.0002C7.4668 18.3178 7.47711 18.6077 7.51835 19.5179C7.56013 20.4264 7.70395 21.0465 7.9148 21.5891C8.13294 22.1503 8.4245 22.6264 8.89899 23.1007C9.37313 23.5754 9.84922 23.8677 10.4101 24.0856C10.9531 24.2967 11.5733 24.4405 12.4816 24.4821C13.3918 24.5235 13.6825 24.5336 15.9999 24.5336C18.3176 24.5336 18.6075 24.5235 19.5178 24.4821C20.4262 24.4405 21.047 24.2967 21.59 24.0856C22.151 23.8677 22.6264 23.5754 23.1006 23.1007C23.5752 22.6264 23.8668 22.1503 24.0855 21.5893C24.2952 21.0465 24.4392 20.4262 24.4819 19.5181C24.5228 18.6079 24.5335 18.3178 24.5335 16.0002C24.5335 13.6827 24.5228 13.3918 24.4819 12.4816C24.4392 11.5732 24.2952 10.9531 24.0855 10.4105C23.8668 9.84922 23.5752 9.37313 23.1006 8.89881C22.6259 8.42414 22.1512 8.13258 21.5894 7.9148C21.0454 7.70378 20.425 7.55995 19.5165 7.51835C18.6063 7.47693 18.3165 7.4668 15.9983 7.4668H16.0009ZM15.7165 9.0045H15.7166L16.001 9.00458C18.2794 9.00458 18.5495 9.01276 19.4492 9.05365C20.2812 9.0917 20.7328 9.23072 21.0336 9.34752C21.4318 9.50219 21.7157 9.68708 22.0142 9.98575C22.3129 10.2844 22.4978 10.5689 22.6528 10.9671C22.7696 11.2675 22.9088 11.7191 22.9467 12.5511C22.9876 13.4507 22.9965 13.7209 22.9965 15.9983C22.9965 18.2756 22.9876 18.5458 22.9467 19.4454C22.9086 20.2774 22.7696 20.729 22.6528 21.0294C22.4981 21.4276 22.3129 21.7112 22.0142 22.0097C21.7156 22.3084 21.432 22.4933 21.0336 22.6479C20.7331 22.7653 20.2812 22.9039 19.4492 22.942C18.5497 22.9829 18.2794 22.9917 16.001 22.9917C13.7224 22.9917 13.4524 22.9829 12.5528 22.942C11.7208 22.9036 11.2692 22.7645 10.9682 22.6477C10.57 22.4931 10.2856 22.3082 9.9869 22.0095C9.68823 21.7108 9.50334 21.4271 9.34832 21.0287C9.23152 20.7283 9.09231 20.2767 9.05445 19.4447C9.01356 18.5451 9.00538 18.2749 9.00538 15.9961C9.00538 13.7173 9.01356 13.4485 9.05445 12.549C9.09249 11.717 9.23152 11.2654 9.34832 10.9646C9.50299 10.5664 9.68823 10.2819 9.9869 9.98326C10.2856 9.68459 10.57 9.4997 10.9682 9.34468C11.269 9.22734 11.7208 9.08867 12.5528 9.05045C13.34 9.01489 13.6451 9.00423 15.2355 9.00245V9.00458C15.3841 9.00435 15.544 9.00442 15.7165 9.0045ZM19.5321 11.4451C19.5321 10.8796 19.9908 10.4215 20.5561 10.4215V10.4211C21.1214 10.4211 21.5801 10.8798 21.5801 11.4451C21.5801 12.0105 21.1214 12.4692 20.5561 12.4692C19.9908 12.4692 19.5321 12.0105 19.5321 11.4451ZM16.0009 11.618C13.5808 11.6181 11.6188 13.5802 11.6188 16.0002C11.6188 18.4204 13.5809 20.3816 16.001 20.3816C18.4212 20.3816 20.3826 18.4204 20.3826 16.0002C20.3826 13.5801 18.421 11.618 16.0009 11.618ZM18.8454 16.0002C18.8454 14.4292 17.5718 13.1558 16.0009 13.1558C14.4299 13.1558 13.1565 14.4292 13.1565 16.0002C13.1565 17.5711 14.4299 18.8447 16.0009 18.8447C17.5718 18.8447 18.8454 17.5711 18.8454 16.0002Z" fill="black" />
        </g>
    </symbol>

    <symbol viewBox="0 0 32 32" id="footer-social-linkedin">
        <path d="M0 16C0 7.16344 7.16344 0 16 0C24.8366 0 32 7.16344 32 16C32 24.8366 24.8366 32 16 32C7.16344 32 0 24.8366 0 16Z" fill="#0077B5" />
        <path fill-rule="evenodd" clip-rule="evenodd" d="M11.546 9.8818C11.546 10.9279 10.7586 11.7649 9.49426 11.7649H9.47108C8.25377 11.7649 7.4668 10.9279 7.4668 9.8818C7.4668 8.8136 8.27774 8 9.51815 8C10.7586 8 11.5224 8.8136 11.546 9.8818ZM11.3071 13.2519V24.1463H7.68116V13.2519H11.3071ZM24.3834 24.1464L24.3836 17.8998C24.3836 14.5535 22.5948 12.9961 20.2088 12.9961C18.2836 12.9961 17.4217 14.0535 16.9405 14.7953V13.2522H13.3141C13.3619 14.2745 13.3141 24.1467 13.3141 24.1467H16.9405V18.0623C16.9405 17.7367 16.964 17.4119 17.0599 17.1788C17.3219 16.5283 17.9186 15.8548 18.9203 15.8548C20.2329 15.8548 20.7576 16.8538 20.7576 18.3178V24.1464H24.3834Z" fill="white" />
    </symbol>

    <symbol viewBox="0 0 32 32" id="footer-social-twitter">
        <path d="M0 16C0 7.16344 7.16344 0 16 0C24.8366 0 32 7.16344 32 16C32 24.8366 24.8366 32 16 32C7.16344 32 0 24.8366 0 16Z" fill="#55ACEE" />
        <path d="M15.5208 13.0051L15.5544 13.5587L14.9948 13.4909C12.9579 13.2311 11.1784 12.3498 9.66756 10.8696L8.92891 10.1352L8.73865 10.6776C8.33575 11.8865 8.59316 13.1633 9.43253 14.022C9.8802 14.4965 9.77948 14.5643 9.00725 14.2819C8.73865 14.1915 8.50363 14.1237 8.48124 14.1576C8.4029 14.2367 8.6715 15.2648 8.88414 15.6716C9.17513 16.2365 9.76828 16.7902 10.4174 17.1178L10.9658 17.3777L10.3167 17.389C9.68994 17.389 9.66756 17.4003 9.73471 17.6376C9.95854 18.372 10.8427 19.1516 11.8276 19.4905L12.5214 19.7278L11.9171 20.0894C11.0218 20.6091 9.96973 20.9029 8.91772 20.9255C8.41409 20.9368 8 20.982 8 21.0159C8 21.1289 9.36538 21.7616 10.16 22.0102C12.5438 22.7446 15.3753 22.4282 17.5017 21.1741C19.0126 20.2815 20.5235 18.5076 21.2286 16.7902C21.6091 15.875 21.9896 14.2028 21.9896 13.4006C21.9896 12.8808 22.0232 12.813 22.6499 12.1916C23.0192 11.83 23.3662 11.4346 23.4333 11.3216C23.5452 11.1069 23.534 11.1069 22.9633 11.299C22.012 11.638 21.8777 11.5928 22.3477 11.0843C22.6947 10.7228 23.1088 10.0674 23.1088 9.87536C23.1088 9.84146 22.9409 9.89796 22.7506 9.99964C22.5492 10.1126 22.1015 10.2821 21.7658 10.3838L21.1614 10.5759L20.613 10.203C20.3108 9.99964 19.8856 9.77367 19.6617 9.70588C19.0909 9.5477 18.218 9.57029 17.7032 9.75107C16.3042 10.2595 15.4201 11.5702 15.5208 13.0051Z" fill="white" />
    </symbol>

    <symbol viewBox="0 0 32 32" id="footer-social-youtube">
        <path d="M0 16C0 7.16344 7.16344 0 16 0C24.8366 0 32 7.16344 32 16C32 24.8366 24.8366 32 16 32C7.16344 32 0 24.8366 0 16Z" fill="#FF0000" />
        <path d="M24.1768 12.0488C23.9805 11.2948 23.4022 10.701 22.6679 10.4995C21.337 10.1333 16.0001 10.1333 16.0001 10.1333C16.0001 10.1333 10.6632 10.1333 9.3323 10.4995C8.59795 10.701 8.01962 11.2948 7.82335 12.0488C7.4668 13.4153 7.4668 16.2666 7.4668 16.2666C7.4668 16.2666 7.4668 19.1178 7.82335 20.4845C8.01962 21.2385 8.59795 21.8322 9.3323 22.0338C10.6632 22.4 16.0001 22.4 16.0001 22.4C16.0001 22.4 21.337 22.4 22.6679 22.0338C23.4022 21.8322 23.9805 21.2385 24.1768 20.4845C24.5335 19.1178 24.5335 16.2666 24.5335 16.2666C24.5335 16.2666 24.5335 13.4153 24.1768 12.0488Z" fill="white" />
        <path d="M14.4004 19.2V13.8667L18.6671 16.5335L14.4004 19.2Z" fill="#FF0000" />
    </symbol>

    <symbol viewBox="0 0 18 12" id="footer-btn">
        <path d="M17.495 6.49497C17.7683 6.22161 17.7683 5.77839 17.495 5.50503L13.0402 1.05025C12.7668 0.776886 12.3236 0.776886 12.0503 1.05025C11.7769 1.32362 11.7769 1.76684 12.0503 2.0402L16.01 6L12.0503 9.9598C11.7769 10.2332 11.7769 10.6764 12.0503 10.9497C12.3236 11.2231 12.7668 11.2231 13.0402 10.9497L17.495 6.49497ZM0 6.7H17V5.3H0V6.7Z" />
    </symbol>

    <symbol viewBox="0 0 25 24" id="icon-doc">
        <path d="M14.5 2H6.5C5.96957 2 5.46086 2.21071 5.08579 2.58579C4.71071 2.96086 4.5 3.46957 4.5 4V20C4.5 20.5304 4.71071 21.0391 5.08579 21.4142C5.46086 21.7893 5.96957 22 6.5 22H18.5C19.0304 22 19.5391 21.7893 19.9142 21.4142C20.2893 21.0391 20.5 20.5304 20.5 20V8L14.5 2Z" stroke="white" stroke-width="2" stroke-linecap="round" stroke-linejoin="round" />
        <path d="M14.5 2V8H20.5" stroke="white" stroke-width="2" stroke-linecap="round" stroke-linejoin="round" />
        <path d="M16.5 13H8.5" stroke="white" stroke-width="2" stroke-linecap="round" stroke-linejoin="round" />
        <path d="M16.5 17H8.5" stroke="white" stroke-width="2" stroke-linecap="round" stroke-linejoin="round" />
        <path d="M10.5 9H9.5H8.5" stroke="white" stroke-width="2" stroke-linecap="round" stroke-linejoin="round" />
    </symbol>

    <symbol viewBox="0 0 279 180" id="main-news-bg">
        <path d="M178.871 70.9223L178.459 70.3422L116.831 10.043C110.237 3.6115 101.306 0 91.9957 0C82.685 0 73.7541 3.6115 67.16 10.043L10.2916 65.7013C7.02889 68.8917 4.44065 72.6799 2.67478 76.8495C0.908904 81.019 0 85.4881 0 90.0014C0 94.5147 0.908904 98.9838 2.67478 103.153C4.44065 107.323 7.02889 111.111 10.2916 114.302L67.16 169.944C73.7498 176.383 82.6824 180 91.9957 180C101.309 180 110.242 176.383 116.831 169.944L127.586 159.421L115.942 148.028L67.5224 100.653C64.9658 97.6172 63.5677 93.806 63.5677 89.8725C63.5677 85.9389 64.9658 82.1278 67.5224 79.0921L115.81 31.8455L165.729 80.6713C167.557 83.4545 168.528 86.6931 168.528 90.0014C168.528 93.3097 167.557 96.5483 165.729 99.3315L139.691 124.792L151.335 136.185L178.459 109.661L178.871 109.064C182.861 103.471 185 96.8143 185 89.9933C185 83.1724 182.861 76.5158 178.871 70.9223ZM55.6151 67.9573L55.1704 68.4246C49.9954 74.4407 47.1399 82.0415 47.1004 89.9047C47.1215 97.7517 49.9803 105.338 55.1704 111.32L104.249 159.389C100.687 162.428 96.0803 164.031 91.3576 163.875C86.6349 163.72 82.1484 161.817 78.8038 158.551L21.9354 102.909C20.2044 101.216 18.8313 99.2067 17.8945 96.9947C16.9576 94.7828 16.4754 92.4119 16.4754 90.0175C16.4754 87.6232 16.9576 85.2523 17.8945 83.0403C18.8313 80.8284 20.2044 78.8187 21.9354 77.1262L78.8038 21.4357C82.131 18.1959 86.583 16.3008 91.2738 16.1276C95.9645 15.9544 100.55 17.5159 104.117 20.5011L55.6151 67.9573Z" />
        <path d="M268.721 65.7222L211.832 10.0735C205.234 3.62337 196.289 0 186.961 0C177.633 0 168.688 3.62337 162.09 10.0735L151.5 20.7714L155.667 24.7348L211.502 79.3363C214.057 82.3754 215.454 86.1881 215.454 90.1229C215.454 94.0577 214.057 97.8704 211.502 100.909L163.194 148.164L113.255 99.3467C111.427 96.564 110.455 93.3259 110.455 90.0182C110.455 86.7104 111.427 83.4724 113.255 80.6897L139.311 55.2176L127.667 43.8268L100.54 70.3623L100.128 70.9423C96.1388 76.5382 94 83.1961 94 90.0182C94 96.8402 96.1388 103.498 100.128 109.094L100.54 109.674L162.173 169.947C168.76 176.384 177.691 180 187.002 180C196.314 180 205.244 176.384 211.832 169.947L268.721 114.314C275.303 107.868 279 99.1291 279 90.0182C279 80.9072 275.303 72.1688 268.721 65.7222ZM257.076 102.94L200.187 158.556C196.866 161.8 192.417 163.699 187.728 163.876C183.038 164.052 178.453 162.492 174.888 159.507L223.394 112.059L223.839 111.591C229.047 105.608 231.908 98.0059 231.908 90.1471C231.908 82.2883 229.047 74.6862 223.839 68.7028L174.756 20.6425C178.315 17.607 182.918 16.0039 187.637 16.1564C192.356 16.3089 196.841 18.2056 200.187 21.4642L257.076 77.1613C260.565 80.5831 262.523 85.2182 262.523 90.0504C262.523 94.8826 260.565 99.5177 257.076 102.94Z" />
    </symbol>

    <symbol viewBox="0 0 17 17" id="main-news-arrow">
        <path d="M16.5 2C16.5 1.17157 15.8284 0.5 15 0.5L1.5 0.499999C0.671573 0.499999 5.74219e-07 1.17157 5.74219e-07 2C9.11394e-07 2.82843 0.671574 3.5 1.5 3.5H13.5V15.5C13.5 16.3284 14.1716 17 15 17C15.8284 17 16.5 16.3284 16.5 15.5L16.5 2ZM3.06066 16.0607L16.0607 3.06066L13.9393 0.93934L0.93934 13.9393L3.06066 16.0607Z" />
    </symbol>

    <symbol viewBox="0 0 20 20" id="slider-prev">
        <path d="M12.5 5L7.5 10L12.5 15" stroke-width="2" stroke-linecap="round" stroke-linejoin="round" />
    </symbol>

    <symbol viewBox="0 0 20 20" id="slider-next">
        <path d="M7.5 15L12.5 10L7.5 5" stroke-width="2" stroke-linecap="round" stroke-linejoin="round" />
    </symbol>

    <symbol viewBox="0 0 24 24" id="main-case-place">
        <path d="M21 10C21 17 12 23 12 23C12 23 3 17 3 10C3 7.61305 3.94821 5.32387 5.63604 3.63604C7.32387 1.94821 9.61305 1 12 1C14.3869 1 16.6761 1.94821 18.364 3.63604C20.0518 5.32387 21 7.61305 21 10Z" stroke-width="2" stroke-linecap="round" stroke-linejoin="round" />
        <path d="M12 13C13.6569 13 15 11.6569 15 10C15 8.34315 13.6569 7 12 7C10.3431 7 9 8.34315 9 10C9 11.6569 10.3431 13 12 13Z" stroke-width="2" stroke-linecap="round" stroke-linejoin="round" />
    </symbol>

    <symbol viewBox="0 0 43 43" id="solution-icon-1">
        <path d="M2.74572 5.55084L2.08008 7.3706L13.1844 16.7377L24.2871 7.3706L23.6214 5.55084H2.74572ZM5.56997 7.61484H20.7972L13.1844 14.0373L5.56997 7.61484Z" />
        <path d="M14.2239 6.58228H12.1582V36.1663H14.2239V6.58228Z" />
        <path d="M20.4603 28.6019H18.3945V36.1665H20.4603V28.6019Z" />
        <path d="M26.5054 25.1979H24.4414V36.1664H26.5054V25.1979Z" />
        <path d="M33.0132 19.8728H30.9492V36.1664H33.0132V19.8728Z" />
        <path d="M39.6302 15.3875H37.5645V36.1668H39.6302V15.3875Z" />
    </symbol>

    <symbol viewBox="0 0 43 43" id="solution-icon-2">
        <path d="M21.5146 32.4613C20.3984 32.4613 19.4918 33.3697 19.4918 34.4841C19.4918 35.6003 20.3984 36.5087 21.5146 36.5087C22.6308 36.5087 23.5374 35.6003 23.5374 34.4841C23.5374 33.3697 22.6308 32.4613 21.5146 32.4613ZM21.5146 38.6569C19.2141 38.6569 17.3418 36.7846 17.3418 34.4841C17.3418 32.1836 19.2141 30.3131 21.5146 30.3131C23.8169 30.3131 25.6892 32.1836 25.6892 34.4841C25.6892 36.7846 23.8169 38.6569 21.5146 38.6569Z" />
        <path d="M13.8921 28.3674L12.2617 26.9682C14.616 24.2269 18.0004 22.6574 21.5479 22.6574H21.5748C25.1259 22.6646 28.3813 24.1965 30.7446 26.9717L29.1088 28.3639C27.1594 26.0777 24.4827 24.8146 21.5712 24.8074H21.5479C18.6275 24.8074 15.8379 26.1046 13.8921 28.3674Z" />
        <path d="M8.2437 22.065L6.61328 20.6639C10.4116 16.2439 15.8708 13.7104 21.5934 13.7104H21.6364C27.3572 13.723 32.6068 16.1937 36.4177 20.6675L34.7819 22.0614C31.3849 18.0732 26.714 15.8712 21.631 15.8622H21.5934C16.4961 15.8622 11.6335 18.1197 8.2437 22.065Z" />
        <path d="M2.25932 15.4877L0.628906 14.0867C5.96449 7.87674 13.6561 4.33641 21.6738 4.34358C29.6879 4.3597 37.0445 7.8212 42.3855 14.0902L40.7479 15.4842C35.8208 9.70245 29.0447 6.50791 21.6684 6.49358H21.6165C14.2259 6.49358 7.17386 9.76874 2.25932 15.4877Z" />
    </symbol>

    <symbol viewBox="0 0 43 43" id="solution-icon-3">
        <path d="M2.70898 9.67395V39.2889H40.3116V18.5715L38.8582 17.7734L31.4553 22.4914V18.5715L30.0157 17.7648L22.2533 22.5275V18.5715L20.8223 17.7597L12.7813 22.5516V9.67395H2.70898ZM4.60098 11.5642H10.8893V25.8316L12.3186 25.0284L20.3631 20.2365V25.8316L21.8027 25.0215L29.5651 20.2606V25.8316L31.0185 25.0146L38.4213 20.2967V37.3969H4.60098V11.5642Z" />
        <path d="M8.07611 7.03186L6.44727 6.06866C7.63235 4.06486 9.81159 1.62074 15.0266 3.54542C17.8801 4.62042 19.564 4.17322 20.6665 2.05762L22.3435 2.9331C20.7852 5.92246 18.102 6.72398 14.3661 5.31874C10.3689 3.84814 9.02383 5.42882 8.07611 7.03186Z" />
        <path d="M14.9478 28.7305H16.8398V33.4932H14.9478V28.7305Z" />
        <path d="M24.6471 28.7305H26.5391V33.4932H24.6471V28.7305Z" />
        <path d="M33.1725 28.7305H35.0645V33.4932H33.1725V28.7305Z" />
    </symbol>

    <symbol viewBox="0 0 43 43" id="solution-icon-4">
        <path d="M11.6456 2.92664L10.7121 2.57727L6.15234 13.8952L7.18614 14.3145L23.4742 20.4921L24.1335 20.7197L26.6992 18.3332L33.151 20.5065L33.9913 20.4402L41.8961 16.314L41.7796 14.3557L11.6456 2.92664ZM8.96705 12.6894L11.8749 5.31315L38.7768 15.5167L33.4036 18.3206L26.7834 16.0918L26.0757 15.8392L23.6175 18.2472L8.96705 12.6894Z" />
        <path d="M30.6005 26.5746L10.2078 18.8256L9.17578 18.4333L10.713 14.4952L12.7215 15.2656L11.9779 17.1988L30.3873 24.1935L32.5051 19.0747L34.492 19.8971L31.5 26.9437L30.6005 26.5746Z" />
        <path d="M31.9008 25.163C31.7879 25.163 31.6733 25.1612 31.5586 25.1576L31.6213 23.0094C33.1872 23.0434 34.2998 22.7263 34.9233 22.0311C35.6185 21.2535 35.8353 19.8972 35.5666 17.9981L37.6951 17.6971C38.057 20.252 37.6628 22.1924 36.5251 23.4645C35.5164 24.5932 33.9612 25.163 31.9008 25.163Z" />
        <path d="M1.10586 25.5706H3.25586V39.4399H1.10586V25.5706Z" />
        <path d="M5.68353 31.4312H19.9883V33.5794H5.68353V31.4312Z" />
        <path d="M18.9086 21.4344H21.0586V35.4864H18.9086V21.4344Z" />
        <path d="M15.6945 10.4732L22.9277 13.322L22.1405 15.3208L14.9073 12.4719L15.6945 10.4732Z" />
        <path d="M2.33094 36.5519L2.03711 34.4216C3.60303 34.2048 4.14411 33.2105 4.12619 32.3487C4.10828 31.4528 3.46865 30.4889 2.08011 30.3545L2.28794 28.2135C4.97723 28.4751 6.24036 30.5194 6.27619 32.3057C6.31382 34.1439 5.10623 36.1685 2.33094 36.5519Z" />
    </symbol>

    <symbol viewBox="0 0 43 43" id="solution-icon-5">
        <path d="M4.62924 5.09663C3.41091 14.6068 5.95328 21.2163 12.5878 25.8102L13.4371 25.5253L6.75057 5.09663H4.62924ZM12.7509 27.833L11.8926 27.7201C4.16161 22.5834 1.18566 14.8129 2.79637 3.96788L3.77103 3.12579H8.18032L8.40248 3.80484L15.9543 26.7185L14.9904 27.084L12.7509 27.833Z" />
        <path d="M11.8669 17.4357L11.1932 15.5831L19.0479 12.7307L20.0709 12.9475C21.5329 14.3629 23.0934 14.9864 24.1487 14.5941C25.1001 14.2357 25.7093 12.9762 25.8634 11.0465L26.5119 10.1973L38.4391 5.89907L37.5647 3.33161L10.5052 13.2646L9.82617 11.4156L37.8317 1.13501L38.6433 0.821472L40.908 7.09412L40.0175 7.42558L27.7607 11.8438C27.3576 14.8628 25.9744 16.0113 24.8457 16.4377C23.1759 17.0684 21.085 16.4502 19.1607 14.7858L11.8669 17.4357Z" />
        <path d="M35.642 41.8647H20.3663L19.3809 40.8793V14.4969H21.3517V39.8939H34.266L25.3955 13.8268L27.2606 13.1908L36.5755 40.5622L35.642 41.8647Z" />
        <path d="M28.9562 41.7215L19.8635 36.1638L20.376 34.3381H30.8787L19.774 25.7416L20.376 23.9768H27.5731L19.7363 17.2562L21.0174 15.7602L30.8769 24.2151L30.2355 25.9476H23.2587L34.3635 34.5441L33.7615 36.3089H23.8787L29.9829 40.0392L28.9562 41.7215Z" />
        <path d="M4.99987 20.2192H6.9707V40.8808H4.99987V20.2192Z" />
        <path d="M3.36477 39.8952H39.6836V41.866H3.36477V39.8952Z" />
    </symbol>

    <symbol viewBox="0 0 42 42" id="solution-icon-6">
        <path d="M10.8828 19.0468V24.4887C10.8828 24.9896 11.288 25.3957 11.7898 25.3957H19.0458C19.5471 25.3957 19.9528 24.9896 19.9528 24.4887V19.0468C19.9528 18.5463 19.5471 18.1398 19.0458 18.1398H11.7898C11.288 18.1398 10.8828 18.5463 10.8828 19.0468ZM12.6968 19.9538H18.1388V23.5817H12.6968V19.9538Z" />
        <path d="M41.7219 17.2328C41.7219 11.7319 37.2459 7.2559 31.7451 7.2559C29.3758 7.2559 27.134 8.11329 25.3754 9.56987C25.1592 4.2577 20.7833 0 15.4193 0C9.91849 0 5.44245 4.47604 5.44245 9.97686C5.44245 11.3267 5.7343 12.6637 6.26131 13.898L0.363236 18.3213C-0.0375564 18.6216 -0.119486 19.1902 0.181662 19.591C0.481924 19.9909 1.04968 20.0737 1.45091 19.7726L3.62848 18.1397V39.9074H0.907517C0.405751 39.9074 0.000529971 40.314 0.000529971 40.8144C0.000529971 41.3153 0.405751 41.7214 0.907517 41.7214H40.815C41.3163 41.7214 41.7219 41.3153 41.7219 40.8144V37.1865C41.7219 34.6861 39.6874 32.6515 37.187 32.6515H32.6521V27.1636C37.7291 26.7039 41.7219 22.428 41.7219 17.2328ZM15.4193 1.81397C19.9206 1.81397 23.5822 5.47647 23.5822 9.97686C23.5822 10.6017 23.5051 11.2231 23.3643 11.8289C23.1956 12.0893 23.0406 12.3595 22.8953 12.6372L15.9636 7.43747C15.6416 7.19523 15.1979 7.19523 14.8759 7.43747L7.75421 12.7789C7.42693 11.8861 7.25643 10.9494 7.25643 9.97686C7.25643 5.47647 10.918 1.81397 15.4193 1.81397ZM18.1403 39.9074H12.6984V30.8376H18.1403V39.9074ZM25.3962 39.9074H19.9543V29.9306C19.9543 29.4301 19.5486 29.0236 19.0473 29.0236H11.7914C11.2896 29.0236 10.8844 29.4301 10.8844 29.9306V39.9074H5.44245V16.7793L15.4193 9.29662L25.3962 16.7793V39.9074ZM37.187 34.4655C38.687 34.4655 39.908 35.6865 39.908 37.1865V39.9074H27.2101V34.4655H37.187ZM27.2101 32.6515V26.1197C28.3381 26.6981 29.5626 27.052 30.8381 27.1662V32.6515H27.2101ZM31.7451 25.3956C30.1096 25.3956 28.5534 24.916 27.2101 24.0152V18.1397L29.3868 19.7726C29.5502 19.8948 29.7407 19.9537 29.9302 19.9537C30.2066 19.9537 30.478 19.8288 30.6565 19.591C30.9577 19.1902 30.8762 18.6216 30.4754 18.3213L24.5769 13.8971C24.7505 13.4914 24.898 13.0782 25.0171 12.6527C26.5162 10.4631 29.0215 9.06987 31.7451 9.06987C36.2464 9.06987 39.908 12.7324 39.908 17.2328C39.908 21.7336 36.2464 25.3956 31.7451 25.3956Z" />
    </symbol>

    <symbol viewBox="0 0 67 67" id="solution-icon-7">
        <path d="M56.4477 9H47.1726L45.5326 28.7621L32.8599 22.0956V28.1085L21.43 22.0956V28.1085L10 22.0956V57.7344H58.7344V36.555L56.4477 9ZM49.9472 12.0145H53.673L55.4979 34.0047L48.4308 30.2869L49.9472 12.0145ZM13.0145 42.4583H35.8954V47.686H13.0145V42.4583ZM49.6909 54.7199H44.9389V42.4583H49.6909V54.7199ZM55.7199 54.7199H52.7054V39.4438H41.9244V54.7199H13.0145V50.7005H38.9099V39.4438H13.0145V27.0876L24.4445 33.1005V27.0876L35.8744 33.1005V27.0876L55.7199 37.5276V54.7199Z" />
    </symbol>

    <symbol viewBox="0 0 67 67" id="solution-icon-8">
        <path d="M1.96653 28.4979L11.692 33.1827V40.9815C11.692 41.6373 12.0677 42.2353 12.6586 42.52L31.2642 51.4824C31.4954 51.5936 31.7487 51.6514 32.0053 51.6514H35.1318C35.3885 51.6514 35.6417 51.5936 35.8731 51.4824L54.4273 42.5446C54.7869 42.3711 55.0745 42.0774 55.2401 41.7141C55.2635 41.6629 55.2857 41.6111 55.308 41.5592C55.3986 41.3472 55.4453 41.1189 55.4453 40.8884V33.1826L58.0981 31.9047V42.4801C57.5241 42.8627 57.0816 43.4361 56.8673 44.1343L55.3578 49.0526C55.1719 49.6592 55.177 50.2991 55.3727 50.9026L56.7725 55.2165C57.1716 56.447 58.3087 57.3004 59.6015 57.3402C59.6102 57.3404 59.6186 57.3406 59.6272 57.3407L59.6699 57.3414C59.6787 57.3415 59.6876 57.3415 59.6966 57.3415C60.9677 57.3415 62.0901 56.5773 62.556 55.3944L64.1745 51.2862C64.4242 50.6527 64.4558 49.9441 64.2633 49.291L62.7543 44.1677C62.544 43.4533 62.0977 42.8668 61.5134 42.478V30.2598L65.1978 28.4849C65.7887 28.2002 66.1644 27.6024 66.1644 26.9464V25.5864C66.1644 24.9306 65.7887 24.3326 65.1978 24.0479L34.3096 9.16916C33.8411 8.94361 33.2956 8.94361 32.8273 9.16916L1.96653 24.035C1.37568 24.3195 1 24.9175 1 25.5735V26.9595C1 27.6154 1.37568 28.2132 1.96653 28.4979ZM59.7274 53.2577L58.6546 49.9514L59.7988 46.2226L60.954 50.1439L59.7274 53.2577ZM52.0299 39.9087L34.7419 48.2364H32.3951L15.1073 39.9087V34.8281L32.8275 43.364C33.0616 43.4768 33.315 43.5331 33.5686 43.5331C33.8221 43.5331 34.0754 43.4768 34.3097 43.364L52.03 34.8282L52.0299 39.9087ZM33.5685 12.603L61.9334 26.2665L53.2226 30.4625C53.1458 30.4868 53.0702 30.5154 52.9964 30.5508L33.5685 39.9095L14.1407 30.5508C14.067 30.5154 13.9913 30.4868 13.9147 30.4625L5.20381 26.2664L33.5685 12.603Z" />
    </symbol>

    <symbol viewBox="0 0 67 67" id="solution-icon-9">
        <path d="M49.9,39.42a5.48,5.48,0,0,0,5-3.31L59,26.71a5.49,5.49,0,0,0,.08-4.2,5.43,5.43,0,0,0-2.92-3L21.6,4.46a5.49,5.49,0,0,0-4.2-.08,5.43,5.43,0,0,0-3,2.92l-4.09,9.41a5.5,5.5,0,0,0,2.85,7.23L47.73,39A5.13,5.13,0,0,0,49.9,39.42ZM19.41,6.08a3.42,3.42,0,0,1,1.36.29l34.58,15a3.36,3.36,0,0,1,1.82,1.88,3.4,3.4,0,0,1,0,2.62L53,35.3a3.43,3.43,0,0,1-4.49,1.78L14,22.05a3.36,3.36,0,0,1-1.82-1.88,3.4,3.4,0,0,1,0-2.62l4.09-9.41A3.38,3.38,0,0,1,19.41,6.08Z" />
        <path d="M49.9,39.92a5.63,5.63,0,0,1-2.38-.51l-34.57-15a6,6,0,0,1-3.11-7.88L13.92,7.1a5.92,5.92,0,0,1,3.3-3.19A6,6,0,0,1,21.8,4L56.39,19a5.91,5.91,0,0,1,3.19,3.3,6,6,0,0,1-.08,4.58L55.4,36.32A6,6,0,0,1,49.9,39.92ZM19.41,4.5a5,5,0,0,0-1.83.35A4.92,4.92,0,0,0,14.84,7.5l-4.09,9.41a5,5,0,0,0,2.59,6.57l34.58,15a4.64,4.64,0,0,0,2,.43,5,5,0,0,0,4.59-3l4.09-9.41a5,5,0,0,0,.07-3.82A4.92,4.92,0,0,0,56,19.94L21.4,4.92A5,5,0,0,0,19.41,4.5ZM49.9,37.85a3.88,3.88,0,0,1-1.54-.32l-34.59-15a3.93,3.93,0,0,1-2-5.16l4.09-9.41a3.87,3.87,0,0,1,3.58-2.36A3.94,3.94,0,0,1,21,5.91l34.59,15a3.93,3.93,0,0,1,2,5.16L53.51,35.5A3.94,3.94,0,0,1,49.9,37.85ZM19.41,6.58a2.88,2.88,0,0,0-2.67,1.76l-4.09,9.41a2.89,2.89,0,0,0,0,2.24,2.84,2.84,0,0,0,1.55,1.61l34.59,15a2.93,2.93,0,0,0,3.83-1.52l4.08-9.41a2.9,2.9,0,0,0,0-2.24,2.85,2.85,0,0,0-1.55-1.61l-34.59-15A2.9,2.9,0,0,0,19.41,6.58Z" />
        <path d="M58.63,38.7a.93.93,0,0,0,.38-.08,1,1,0,0,0,.57-.56l4-9.32a1,1,0,0,0-.54-1.36l-4.61-2a1,1,0,0,0-.79,0,1,1,0,0,0-.57.56l-4,9.32a1,1,0,0,0,.54,1.36l4.61,2A.92.92,0,0,0,58.63,38.7Zm2.67-9.81L58.08,36.3l-2.7-1.18,3.22-7.41Z" />
        <path d="M58.63,39.2a1.41,1.41,0,0,1-.64-.14l-4.58-2a1.51,1.51,0,0,1-.82-.83,1.52,1.52,0,0,1,0-1.19l4-9.31a1.49,1.49,0,0,1,.84-.82,1.54,1.54,0,0,1,1.17,0l4.61,2a1.52,1.52,0,0,1,.8,2l-4,9.31a1.5,1.5,0,0,1-.84.82A1.42,1.42,0,0,1,58.63,39.2Zm-.57-13.4a.52.52,0,0,0-.19,0,.51.51,0,0,0-.29.28l-4.05,9.33a.52.52,0,0,0,.28.7l4.61,2a.46.46,0,0,0,.39,0,.53.53,0,0,0,.31-.29l4.05-9.33a.52.52,0,0,0-.28-.7l-4.61-2A.57.57,0,0,0,58.06,25.8ZM58.34,37l-3.61-1.58L58.34,27,62,28.63ZM56,34.86l1.78.78,2.82-6.49-1.78-.78Z" />
        <path d="M34.32,39.09a1,1,0,0,0,.95-.62l2.21-5.07a1,1,0,0,0,0-.79,1,1,0,0,0-.56-.57L23.06,26a1,1,0,0,0-.79,0,1,1,0,0,0-.57.56l-2.21,5.07a1,1,0,0,0,0,.79A1,1,0,0,0,20,33L33.9,39A1,1,0,0,0,34.32,39.09Zm.84-5.58-1.38,3.17-12-5.19,1.38-3.17Z" />
        <path d="M34.32,39.59a1.5,1.5,0,0,1-.62-.13l-13.86-6A1.5,1.5,0,0,1,19,32.6a1.56,1.56,0,0,1,0-1.17l2.21-5.08a1.49,1.49,0,0,1,.84-.82,1.53,1.53,0,0,1,1.17,0l13.87,6a1.49,1.49,0,0,1,.82.84,1.54,1.54,0,0,1,0,1.17l-2.21,5.08A1.53,1.53,0,0,1,34.32,39.59ZM22.64,26.42a.52.52,0,0,0-.19,0,.51.51,0,0,0-.29.28l-2.21,5.09a.54.54,0,0,0,0,.41.51.51,0,0,0,.28.29l13.88,6a.51.51,0,0,0,.7-.27L37,33.19a.54.54,0,0,0,0-.41.51.51,0,0,0-.28-.29l-13.88-6A.55.55,0,0,0,22.64,26.42ZM34,37.33,21.17,31.74l1.77-4.08,12.88,5.59ZM22.48,31.22l11,4.79,1-2.25L23.46,29Z" />
        <path d="M20.36,55.63a4.4,4.4,0,1,0-4.4-4.4A4.4,4.4,0,0,0,20.36,55.63Zm0-6.73A2.32,2.32,0,1,1,18,51.22,2.32,2.32,0,0,1,20.36,48.9Z" />
        <path d="M20.36,56.13a4.9,4.9,0,1,1,4.9-4.9A4.9,4.9,0,0,1,20.36,56.13Zm0-8.8a3.9,3.9,0,1,0,3.9,3.9A3.9,3.9,0,0,0,20.36,47.33Zm0,6.71a2.82,2.82,0,1,1,2.82-2.82A2.83,2.83,0,0,1,20.36,54Zm0-4.65a1.82,1.82,0,1,0,1.82,1.82A1.83,1.83,0,0,0,20.36,49.4Z" />
        <path d="M5,62.12H8.15a1,1,0,0,0,1-1V42.68a1,1,0,0,0-1-1H5v2.08H7.11V60H5Z" />
        <path d="M8.15,62.62H4.5V59.54H6.61V44.22H4.5V41.14H8.15a1.54,1.54,0,0,1,1.54,1.54v18.4A1.54,1.54,0,0,1,8.15,62.62Zm-2.65-1H8.15a.54.54,0,0,0,.54-.54V42.68a.54.54,0,0,0-.54-.54H5.5v1.08H7.61V60.54H5.5Z" />
        <path d="M8.15,50.19H17v2.08H8.15Z" />
        <path d="M17.5,52.77H7.65V49.69H17.5Zm-8.85-1H16.5V50.69H8.65Z" />
        <path d="M26.45,34.62l1.9.83-5.69,13.1-1.9-.83Z" />
        <path d="M22.93,49.21,20.1,48l6.09-14L29,35.19Zm-1.51-1.75,1,.43L27.7,35.71l-1-.43Z" />
    </symbol>

    <symbol viewBox="0 0 67 67" id="solution-icon-10">
        <path d="M33.4799 50.0563C31.7883 50.0563 30.4145 51.4329 30.4145 53.1217C30.4145 54.8132 31.7883 56.1898 33.4799 56.1898C35.1714 56.1898 36.5453 54.8132 36.5453 53.1217C36.5453 51.4329 35.1714 50.0563 33.4799 50.0563ZM33.4799 59.4453C29.9936 59.4453 27.1562 56.608 27.1562 53.1217C27.1562 49.6354 29.9936 46.8008 33.4799 46.8008C36.9689 46.8008 39.8062 49.6354 39.8062 53.1217C39.8062 56.608 36.9689 59.4453 33.4799 59.4453Z" />
        <path d="M21.9317 43.8544L19.4609 41.7339C23.0287 37.5797 28.1576 35.2012 33.5337 35.2012H33.5744C38.9559 35.212 43.8893 37.5335 47.4706 41.7393L44.9917 43.849C42.0376 40.3844 37.9811 38.4702 33.569 38.4594H33.5337C29.1079 38.4594 24.8804 40.4252 21.9317 43.8544Z" />
        <path d="M13.3692 34.3015L10.8984 32.1782C16.6546 25.4799 24.9277 21.6406 33.6 21.6406H33.6651C42.3347 21.6596 50.2901 25.4038 56.0653 32.1836L53.5863 34.296C48.4384 28.2521 41.3599 24.9151 33.657 24.9015H33.6C25.8753 24.9015 18.5063 28.3227 13.3692 34.3015Z" />
        <path d="M4.29893 24.3337L1.82812 22.2104C9.9139 12.7996 21.5701 7.43447 33.7205 7.44533C45.8655 7.46977 57.0139 12.7155 65.1079 22.2158L62.6262 24.3282C55.1595 15.5664 44.8907 10.7253 33.7124 10.7035H33.6336C22.4335 10.7035 11.7466 15.6669 4.29893 24.3337Z" />
    </symbol>

    <symbol viewBox="0 0 67 67" id="solution-icon-11">
        <path d="M36.793 53.8391C35.6284 54.8972 34.3341 56.0282 33.5022 56.2825C32.5194 55.9878 30.9161 54.4991 28.5709 52.3216C28.1726 51.9518 27.7497 51.5592 27.2995 51.1441C18.585 43.107 9.23524 31.3465 9.12888 22.4422C9.09244 19.3959 10.1118 16.912 12.2449 14.8481C15.0191 12.1643 18.6388 10.6862 22.4374 10.6862C26.169 10.6862 29.7178 12.0967 32.4304 14.6579C33.0331 15.227 33.9751 15.227 34.5779 14.6579C37.291 12.0967 40.8403 10.6862 44.5719 10.6862C48.3704 10.6862 51.9902 12.1643 54.7644 14.848C59.156 19.0969 58.912 25.5174 54.0395 33.9311C53.6065 34.6786 53.8616 35.6355 54.6093 36.0685C55.3566 36.5016 56.3137 36.2465 56.7466 35.4988C63.8284 23.2699 60.7604 16.2963 56.9396 12.5997C53.5784 9.34859 49.1862 7.558 44.5716 7.558C40.5156 7.558 36.6366 8.92987 33.504 11.4473C30.3719 8.92972 26.4933 7.558 22.4372 7.558C17.8228 7.558 13.4306 9.34858 10.0697 12.5999C7.32328 15.2571 5.95438 18.581 6.00083 22.4794C6.14973 34.9364 20.7173 49.329 25.1786 53.4436C25.6261 53.8564 26.0464 54.2465 26.4423 54.6139C29.7117 57.6497 31.3529 59.1733 33.3002 59.4293C33.3678 59.4382 33.436 59.4426 33.504 59.4426C33.5721 59.4426 33.6401 59.4382 33.7077 59.4293C35.2732 59.2238 36.6832 58.1651 38.8964 56.1544C39.5357 55.5735 39.5832 54.5844 39.0023 53.9449C38.4216 53.3057 37.4324 53.2583 36.793 53.8391Z" />
        <path d="M55.667 38.6249H50.6436V33.6019C50.6436 32.7382 49.9433 32.0378 49.0795 32.0378H42.7894C41.9256 32.0378 41.2253 32.7382 41.2253 33.6019V38.6249H36.2019C35.338 38.6249 34.6378 39.3253 34.6378 40.189V46.4797C34.6378 47.3434 35.338 48.0438 36.2019 48.0438H41.2253V53.0668C41.2253 53.9305 41.9256 54.6309 42.7894 54.6309H49.0795C49.9433 54.6309 50.6436 53.9305 50.6436 53.0668V48.0438H55.667C56.5308 48.0438 57.2311 47.3434 57.2311 46.4797V40.189C57.2311 39.3252 56.5308 38.6249 55.667 38.6249ZM54.1029 44.9156H49.0795C48.2156 44.9156 47.5154 45.616 47.5154 46.4797V51.5026H44.3535V46.4797C44.3535 45.616 43.6533 44.9156 42.7894 44.9156H37.766V41.7531H42.7894C43.6533 41.7531 44.3535 41.0527 44.3535 40.189V35.1661H47.5154V40.189C47.5154 41.0527 48.2156 41.7531 49.0795 41.7531H54.1029V44.9156Z" />
    </symbol>

    <symbol viewBox="0 0 67 67" id="solution-icon-12">
        <path d="M26.7586 41.6306H25.1911C24.1118 41.6306 23.2295 42.4937 23.2295 43.5496C23.2295 44.6055 24.1118 45.4686 25.1911 45.4686H26.7586C27.838 45.4686 28.7202 44.6055 28.7202 43.5496C28.7108 42.4937 27.8286 41.6306 26.7586 41.6306Z" />
        <path d="M42.8 41.6306H41.2326C40.1532 41.6306 39.2709 42.4937 39.2709 43.5496C39.2709 44.6055 40.1532 45.4686 41.2326 45.4686H42.8C43.8794 45.4686 44.7617 44.6055 44.7617 43.5496C44.7617 42.4937 43.8794 41.6306 42.8 41.6306Z" />
        <path d="M55.029 17.7027H51.8002V14.8288C51.8002 12.7262 50.0451 11 47.8864 11H20.1043C17.9455 11 16.1904 12.7262 16.1904 14.8288V17.7945H12.9616C11.8823 17.7945 11 18.6576 11 19.7135V24.2126C11 25.2685 11.8823 26.1316 12.9616 26.1316C13.9378 26.1316 14.82 25.2685 14.82 24.3136V21.6325H16.1904V47.9567C16.1904 50.0594 17.9549 51.7856 20.1043 51.7856H22.2536V54.081C22.2536 55.1369 23.1359 56 24.2153 56C25.2946 56 26.0737 55.1369 26.1769 54.081V51.7856H41.8325V54.081C41.8325 55.1369 42.7148 56 43.7941 56C44.8735 56 45.7558 55.1369 45.7558 54.081V51.7856H47.8864C50.0357 51.7856 51.8002 50.0594 51.8002 47.9567V21.5315H53.0767V24.2126C53.0767 25.2685 53.959 26.1316 55.0384 26.1316C56.1177 26.1316 57 25.2685 57 24.2126V19.6217C56.9906 18.5658 56.1083 17.7027 55.029 17.7027ZM47.9896 14.737V34.0739H20.0479L20.1043 14.737H47.9896ZM47.9896 48.0486H20.001L20.0292 37.9027H47.9896V48.0486V48.0486Z" />
    </symbol>

    <symbol viewBox="0 0 34 34" id="documentation-title">
        <circle cx="17" cy="17" r="16.5" transform="rotate(90 17 17)" fill="white" stroke="#EBEBEB" />
        <path d="M12 14.5L17 19.5L22 14.5" stroke="#005678" stroke-width="2" stroke-linecap="round" stroke-linejoin="round" />
    </symbol>

    <symbol viewBox="0 0 14 15" id="window-photo-close">
        <path d="M14 1.45102L12.59 0.0410156L7 5.63102L1.41 0.0410156L0 1.45102L5.59 7.04102L0 12.631L1.41 14.041L7 8.45102L12.59 14.041L14 12.631L8.41 7.04102L14 1.45102Z" />
    </symbol>

    <symbol viewBox="0 0 15 15" id="window-photo-download">
        <path d="M13.0273 9.66406V12.2891H2.52734V9.66406H0.777344V12.2891C0.777344 13.2516 1.56484 14.0391 2.52734 14.0391H13.0273C13.9898 14.0391 14.7773 13.2516 14.7773 12.2891V9.66406H13.0273ZM12.1523 6.16406L10.9186 4.93031L8.65234 7.18781V0.0390625H6.90234V7.18781L4.63609 4.93031L3.40234 6.16406L7.77734 10.5391L12.1523 6.16406Z" />
    </symbol>

    <symbol viewBox="0 0 13 15" id="window-photo-share">
        <path d="M10.6672 9.93464C10.133 9.93464 9.65512 10.1455 9.28966 10.4758L4.27861 7.55914C4.31376 7.3975 4.34187 7.23585 4.34187 7.06717C4.34187 6.8985 4.31376 6.73685 4.27861 6.57521L9.23343 3.68665C9.61295 4.03806 10.1119 4.25593 10.6672 4.25593C11.8338 4.25593 12.7756 3.31416 12.7756 2.1475C12.7756 0.98083 11.8338 0.0390625 10.6672 0.0390625C9.5005 0.0390625 8.55873 0.98083 8.55873 2.1475C8.55873 2.31617 8.58685 2.47782 8.62199 2.63946L3.66717 5.52802C3.28765 5.17661 2.78865 4.95874 2.23343 4.95874C1.06677 4.95874 0.125 5.90051 0.125 7.06717C0.125 8.23384 1.06677 9.17561 2.23343 9.17561C2.78865 9.17561 3.28765 8.95774 3.66717 8.60633L8.67118 11.53C8.63604 11.6776 8.61496 11.8322 8.61496 11.9869C8.61496 13.1184 9.53564 14.0391 10.6672 14.0391C11.7987 14.0391 12.7194 13.1184 12.7194 11.9869C12.7194 10.8553 11.7987 9.93464 10.6672 9.93464ZM10.6672 1.44468C11.0537 1.44468 11.37 1.76095 11.37 2.1475C11.37 2.53404 11.0537 2.85031 10.6672 2.85031C10.2806 2.85031 9.96436 2.53404 9.96436 2.1475C9.96436 1.76095 10.2806 1.44468 10.6672 1.44468ZM2.23343 7.76999C1.84689 7.76999 1.53062 7.45372 1.53062 7.06717C1.53062 6.68063 1.84689 6.36436 2.23343 6.36436C2.61998 6.36436 2.93624 6.68063 2.93624 7.06717C2.93624 7.45372 2.61998 7.76999 2.23343 7.76999ZM10.6672 12.7037C10.2806 12.7037 9.96436 12.3875 9.96436 12.0009C9.96436 11.6144 10.2806 11.2981 10.6672 11.2981C11.0537 11.2981 11.37 11.6144 11.37 12.0009C11.37 12.3875 11.0537 12.7037 10.6672 12.7037Z" />
    </symbol>

    <symbol viewBox="0 0 21 14" id="window-photo-prev">
        <path d="M7.77344 14L9.18344 12.59L4.60344 8L20.7734 8L20.7734 6L4.60344 6L9.19344 1.41L7.77344 -1.1365e-06L0.773438 7L7.77344 14Z" />
    </symbol>

    <symbol viewBox="0 0 21 14" id="window-photo-next">
        <path d="M13.7773 0L12.3673 1.41L16.9473 6H0.777344V8H16.9473L12.3573 12.59L13.7773 14L20.7773 7L13.7773 0Z" />
    </symbol>

    <symbol viewBox="0 0 29 29" id="window-photo-share-link">
        <path d="M12.667 14.6667C12.9533 15.0495 13.3186 15.3662 13.738 15.5954C14.1575 15.8245 14.6213 15.9608 15.0981 15.9949C15.5749 16.0291 16.0534 15.9603 16.5012 15.7932C16.9491 15.6262 17.3557 15.3648 17.6937 15.0267L19.6937 13.0267C20.3009 12.3981 20.6368 11.556 20.6292 10.6821C20.6216 9.80806 20.2711 8.97202 19.6531 8.354C19.035 7.73597 18.199 7.38541 17.325 7.37781C16.451 7.37022 15.609 7.7062 14.9803 8.31339L13.8337 9.45339" stroke-width="2" stroke-linecap="round" stroke-linejoin="round" />
        <path d="M15.3335 13.3333C15.0472 12.9506 14.6819 12.6339 14.2624 12.4047C13.843 12.1755 13.3791 12.0392 12.9024 12.0051C12.4256 11.971 11.9471 12.0397 11.4992 12.2068C11.0514 12.3739 10.6447 12.6353 10.3068 12.9733L8.3068 14.9733C7.69961 15.602 7.36363 16.444 7.37122 17.318C7.37881 18.192 7.72938 19.028 8.3474 19.646C8.96543 20.2641 9.80147 20.6146 10.6755 20.6222C11.5495 20.6298 12.3915 20.2938 13.0201 19.6867L14.1601 18.5467" stroke-width="2" stroke-linecap="round" stroke-linejoin="round" />
    </symbol>

    <symbol viewBox="0 0 29 29" id="window-photo-share-fb">
        <path d="M29 14.4998C29 6.49077 22.509 -0.000244141 14.5 -0.000244141C6.49102 -0.000244141 0 6.49077 0 14.4998C0 21.7384 5.30156 27.7367 12.2344 28.8242V18.6912H8.55273V14.4998H12.2344V11.3052C12.2344 7.67173 14.398 5.66382 17.7115 5.66382C19.2975 5.66382 20.957 5.94702 20.957 5.94702V9.51538H19.1275C17.3264 9.51538 16.7656 10.634 16.7656 11.781V14.4998H20.7871L20.1442 18.6912H16.7656V28.8242C23.6984 27.7367 29 21.7384 29 14.4998Z" />
    </symbol>

    <symbol viewBox="0 0 24 24" id="window-photo-share-tw">
        <path d="M23.643 4.937c-.835.37-1.732.62-2.675.733.962-.576 1.7-1.49 2.048-2.578-.9.534-1.897.922-2.958 1.13-.85-.904-2.06-1.47-3.4-1.47-2.572 0-4.658 2.086-4.658 4.66 0 .364.042.718.12 1.06-3.873-.195-7.304-2.05-9.602-4.868-.4.69-.63 1.49-.63 2.342 0 1.616.823 3.043 2.072 3.878-.764-.025-1.482-.234-2.11-.583v.06c0 2.257 1.605 4.14 3.737 4.568-.392.106-.803.162-1.227.162-.3 0-.593-.028-.877-.082.593 1.85 2.313 3.198 4.352 3.234-1.595 1.25-3.604 1.995-5.786 1.995-.376 0-.747-.022-1.112-.065 2.062 1.323 4.51 2.093 7.14 2.093 8.57 0 13.255-7.098 13.255-13.254 0-.2-.005-.402-.014-.602.91-.658 1.7-1.477 2.323-2.41z" />
    </symbol>

    <symbol viewBox="0 0 27 16" id="back-link">
        <path d="M0.292893 7.43547C-0.0976311 7.826 -0.0976311 8.45916 0.292893 8.84968L6.65685 15.2136C7.04738 15.6042 7.68054 15.6042 8.07107 15.2136C8.46159 14.8231 8.46159 14.19 8.07107 13.7994L2.41421 8.14258L8.07107 2.48572C8.46159 2.0952 8.46159 1.46203 8.07107 1.07151C7.68054 0.680986 7.04738 0.680986 6.65685 1.07151L0.292893 7.43547ZM1 9.14258H27V7.14258H1V9.14258Z" />
    </symbol>

    <symbol viewBox="0 0 39 39" id="contacts-social-fb">
        <path d="M33.8317 0.256836H4.83311C2.16765 0.256836 0 2.42448 0 5.08994V34.0886C0 36.754 2.16765 38.9217 4.83311 38.9217H19.3324V25.6306H14.4993V19.5893H19.3324V14.7562C19.3324 10.7519 22.5779 7.5065 26.5821 7.5065H31.4152V13.5479H28.9986C27.6647 13.5479 26.5821 13.4222 26.5821 14.7562V19.5893H32.6235L30.2069 25.6306H26.5821V38.9217H33.8317C36.4972 38.9217 38.6649 36.754 38.6649 34.0886V5.08994C38.6649 2.42448 36.4972 0.256836 33.8317 0.256836Z" />
    </symbol>

    <symbol viewBox="0 0 47 39" id="contacts-social-tw">
        <path d="M46.9027 4.83417C45.1606 5.61044 43.3044 6.12498 41.3692 6.37482C43.3601 5.16728 44.8796 3.26973 45.594 0.982547C43.7378 2.1068 41.6883 2.90092 39.5042 3.34408C37.7417 1.4376 35.2297 0.256836 32.4893 0.256836C27.1725 0.256836 22.8921 4.64084 22.8921 10.0153C22.8921 10.7886 22.9566 11.5321 23.1147 12.24C15.1307 11.8444 8.066 7.95711 3.32011 2.03542C2.49156 3.49577 2.00555 5.16728 2.00555 6.96669C2.00555 10.3454 3.71829 13.3405 6.27129 15.0744C4.72836 15.0447 3.21471 14.5896 1.93236 13.8728C1.93236 13.9026 1.93236 13.9412 1.93236 13.9799C1.93236 18.7208 5.26121 22.6587 9.62649 23.5658C8.84478 23.783 7.99281 23.8871 7.10863 23.8871C6.4938 23.8871 5.87311 23.8514 5.29049 23.7205C6.53479 27.584 10.0657 30.4244 14.2641 30.5166C10.9967 33.1131 6.84806 34.6776 2.35688 34.6776C1.56931 34.6776 0.813954 34.6419 0.0585938 34.5437C4.31262 37.3306 9.35421 38.9218 14.7911 38.9218C32.463 38.9218 42.1246 24.0506 42.1246 11.1603C42.1246 10.7291 42.1099 10.3127 42.0894 9.89928C43.9954 8.52518 45.5969 6.80906 46.9027 4.83417Z" />
    </symbol>

    <symbol viewBox="0 0 39 39" id="contacts-social-instagram">
        <path d="M28.5861 0.256836H11.1308C5.44981 0.256836 0.828125 4.95188 0.828125 10.723V28.4557C0.828125 34.2266 5.44981 38.9216 11.1308 38.9216H28.5864C34.2671 38.9216 38.8888 34.2266 38.8888 28.4557V10.723C38.8888 4.95188 34.2671 0.256836 28.5861 0.256836V0.256836ZM19.8584 30.1613C14.12 30.1613 9.45153 25.4188 9.45153 19.5892C9.45153 13.7597 14.12 9.01712 19.8584 9.01712C25.5969 9.01712 30.2654 13.7597 30.2654 19.5892C30.2654 25.4188 25.5969 30.1613 19.8584 30.1613ZM30.5142 11.5104C28.8184 11.5104 27.4391 10.1092 27.4391 8.38643C27.4391 6.6637 28.8184 5.26221 30.5142 5.26221C32.21 5.26221 33.5896 6.6637 33.5896 8.38643C33.5896 10.1092 32.21 11.5104 30.5142 11.5104Z" />
        <path d="M19.8631 11.2832C15.3553 11.2832 11.6875 15.0089 11.6875 19.5886C11.6875 24.168 15.3553 27.894 19.8631 27.894C24.3713 27.894 28.0388 24.168 28.0388 19.5886C28.0388 15.0089 24.3713 11.2832 19.8631 11.2832Z" />
        <path d="M30.5157 7.5293C30.0505 7.5293 29.6719 7.91396 29.6719 8.38653C29.6719 8.85911 30.0505 9.24377 30.5157 9.24377C30.9812 9.24377 31.3599 8.8594 31.3599 8.38653C31.3599 7.91367 30.9812 7.5293 30.5157 7.5293Z" />
    </symbol>

    <symbol viewBox="0 0 39 39" id="contacts-social-linkedin">
        <path d="M8.9276 12.3398H0.28125V38.9217H8.9276V12.3398Z" />
        <path d="M32.4863 12.6516C32.3945 12.6226 32.3075 12.5912 32.2108 12.5646C32.0948 12.538 31.9788 12.5163 31.8604 12.4969C31.4013 12.4051 30.8986 12.3398 30.309 12.3398C25.2681 12.3398 22.071 16.0057 21.0174 17.4218V12.3398H12.3711V38.9217H21.0174V24.4225C21.0174 24.4225 27.5517 15.3218 30.309 22.006C30.309 27.9724 30.309 38.9217 30.309 38.9217H38.9529V20.9838C38.9529 16.9675 36.2005 13.6206 32.4863 12.6516Z" />
        <path d="M4.51018 8.71469C6.84575 8.71469 8.73911 6.82134 8.73911 4.48576C8.73911 2.15019 6.84575 0.256836 4.51018 0.256836C2.17461 0.256836 0.28125 2.15019 0.28125 4.48576C0.28125 6.82134 2.17461 8.71469 4.51018 8.71469Z" />
    </symbol>

    <symbol viewBox="0 0 56 39" id="contacts-social-youtube">
        <path d="M53.3518 3.98271C51.8501 1.26915 50.2204 0.770023 46.9023 0.580214C43.5875 0.35174 35.2522 0.256836 28.0311 0.256836C20.7961 0.256836 12.4574 0.351741 9.14613 0.576699C5.83486 0.770023 4.20171 1.26563 2.68621 3.98271C1.13956 6.69276 0.34375 11.3606 0.34375 19.5787C0.34375 19.5857 0.34375 19.5892 0.34375 19.5892C0.34375 19.5962 0.34375 19.5998 0.34375 19.5998V19.6068C0.34375 27.7896 1.13956 32.4927 2.68621 35.1746C4.20171 37.8882 5.8314 38.3803 9.14267 38.6087C12.4574 38.8056 20.7961 38.9216 28.0311 38.9216C35.2522 38.9216 43.5875 38.8056 46.9057 38.6123C50.2239 38.3838 51.8536 37.8917 53.3553 35.1781C54.9157 32.4962 55.7046 27.7932 55.7046 19.6103C55.7046 19.6103 55.7046 19.5998 55.7046 19.5927C55.7046 19.5927 55.7046 19.5857 55.7046 19.5822C55.7046 11.3606 54.9157 6.69276 53.3518 3.98271ZM21.1041 30.1341V9.04428L38.4044 19.5892L21.1041 30.1341Z" />
    </symbol>

    <symbol viewBox="0 0 26 26" id="contacts-item-phone">
        <path d="M21.875 3.77496C19.763 1.66293 16.9548 0.499882 13.968 0.5C13.4786 0.5 13.082 0.8967 13.082 1.38602C13.082 1.87534 13.4787 2.27204 13.968 2.27204C16.4815 2.27192 18.8446 3.25067 20.6219 5.02802C22.3994 6.80538 23.3782 9.16856 23.378 11.6821C23.378 12.1715 23.7746 12.5682 24.2641 12.5682C24.7534 12.5682 25.1501 12.1715 25.1501 11.6823C25.1502 8.69519 23.9871 5.88699 21.875 3.77496Z" />
        <path d="M18.2303 11.6826C18.2303 12.1719 18.627 12.5686 19.1164 12.5685C19.6057 12.5685 20.0023 12.1718 20.0023 11.6825C20.0021 8.35575 17.2951 5.64891 13.9682 5.64844C13.968 5.64844 13.9682 5.64844 13.968 5.64844C13.4787 5.64844 13.0821 6.04502 13.082 6.53434C13.082 7.02366 13.4786 7.42035 13.9679 7.42047C16.318 7.42083 18.23 9.33274 18.2303 11.6826Z" />
        <path d="M16.2704 16.1996C14.9199 16.1296 14.2318 17.134 13.9019 17.6165C13.6256 18.0204 13.7291 18.5717 14.133 18.848C14.5369 19.1244 15.0882 19.0209 15.3645 18.617C15.7544 18.047 15.931 17.9573 16.1706 17.9686C16.9374 18.0588 19.9575 20.2719 20.26 20.964C20.3358 21.1678 20.333 21.3675 20.2516 21.6105C19.9345 22.5516 19.4096 23.2129 18.7334 23.5229C18.091 23.8174 17.3034 23.7907 16.4562 23.446C13.2929 22.1567 10.5292 20.3573 8.24213 18.0979C8.24118 18.0969 8.24024 18.0961 8.23941 18.0952C5.98467 15.8103 4.18865 13.0502 2.90145 9.8917C2.55661 9.04384 2.52991 8.25611 2.82442 7.61381C3.13441 6.9376 3.79573 6.41272 4.73598 6.096C4.97981 6.01425 5.17922 6.01165 5.38112 6.08678C6.07564 6.39027 8.28867 9.4103 8.37798 10.1685C8.39074 10.417 8.30037 10.5935 7.73083 10.9827C7.32681 11.2586 7.22297 11.81 7.49905 12.214C7.77502 12.618 8.32624 12.7218 8.73038 12.4458C9.21308 12.1162 10.2172 11.4301 10.1475 10.0749C10.0707 8.65942 7.31724 4.91086 6.00156 4.42709C5.41644 4.20901 4.80095 4.20523 4.17152 4.41646C2.75531 4.89337 1.73249 5.74372 1.21364 6.87546C0.710382 7.97341 0.726331 9.24727 1.2603 10.56C2.63789 13.9401 4.56527 16.8976 6.98882 19.3507C6.99473 19.3567 7.00076 19.3626 7.0069 19.3684C9.45821 21.7875 12.4123 23.7113 15.7879 25.0873C16.4639 25.3622 17.1296 25.4998 17.7662 25.4998C18.3657 25.4998 18.9396 25.3779 19.4719 25.1338C20.6037 24.6151 21.454 23.5924 21.9312 22.1752C22.142 21.547 22.1386 20.9317 21.9221 20.3493C21.4367 19.0301 17.6881 16.2766 16.2704 16.1996Z" />
    </symbol>

    <symbol viewBox="0 0 26 27" id="contacts-item-mail">
        <path d="M13 0.880859C6.10748 0.880859 0.5 6.59829 0.5 13.626C0.5 20.6539 6.10748 26.3714 13 26.3714C13.5158 26.3714 13.9337 25.9452 13.9337 25.4194C13.9337 24.8937 13.5158 24.4674 13 24.4674C7.13718 24.4674 2.36742 19.604 2.36742 13.626C2.36742 7.64818 7.13718 2.78489 13 2.78489C18.8628 2.78489 23.6326 7.64818 23.6326 13.626V16.5747C23.6326 17.6755 22.7541 18.571 21.6744 18.571C20.5948 18.571 19.7165 17.6755 19.7165 16.5747V13.626C19.7165 9.84962 16.7035 6.7774 12.9999 6.7774C9.29616 6.7774 6.28302 9.84962 6.28302 13.626C6.28302 17.4025 9.29616 20.475 12.9999 20.475C15.0554 20.475 16.8972 19.5277 18.1302 18.0398C18.6994 19.4663 20.0732 20.475 21.6744 20.475C23.7837 20.475 25.5 18.7253 25.5 16.5747V13.626C25.5 6.59829 19.8925 0.880859 13 0.880859ZM13 18.571C10.326 18.571 8.15056 16.3527 8.15056 13.626C8.15056 10.8995 10.3261 8.68143 13 8.68143C15.6739 8.68143 17.8492 10.8995 17.8492 13.626C17.8492 16.3527 15.6739 18.571 13 18.571Z" />
    </symbol>

    <symbol viewBox="0 0 22 27" id="contacts-item-address">
        <path d="M10.9995 0.650391C5.47489 0.650391 0.980469 5.14541 0.980469 10.6706C0.980469 14.6186 2.63333 18.612 5.76039 22.2194C8.09598 24.9138 10.4106 26.4403 10.5081 26.504C10.6573 26.6017 10.8284 26.6504 10.9996 26.6504C11.1706 26.6504 11.3417 26.6017 11.4911 26.504C11.5884 26.4403 13.9034 24.9138 16.239 22.2196C19.3663 18.612 21.0193 14.6186 21.0193 10.6706C21.0192 5.14541 16.5243 0.650391 10.9995 0.650391ZM10.9995 24.6494C9.15678 23.2763 2.7768 17.9917 2.7768 10.6706C2.7768 6.13591 6.46539 2.44672 10.9995 2.44672C15.5339 2.44672 19.2228 6.13591 19.2228 10.6706C19.2228 17.9917 12.8423 23.2763 10.9995 24.6494Z" />
        <path d="M11 6.69141C8.80732 6.69141 7.02344 8.4754 7.02344 10.6684C7.02344 12.8607 8.80732 14.6444 11 14.6444C13.1928 14.6444 14.9765 12.8607 14.9765 10.6684C14.9765 8.47552 13.1926 6.69141 11 6.69141ZM11 12.848C9.79781 12.848 8.81977 11.8702 8.81977 10.6684C8.81977 9.4659 9.79781 8.48774 11 8.48774C12.2021 8.48774 13.1802 9.4659 13.1802 10.6684C13.1802 11.8702 12.2021 12.848 11 12.848Z" />
    </symbol>

    <symbol viewBox="0 0 18 19" id="window-close">
        <path d="M18 1.85387L16.1871 0.0410156L9 7.22816L1.81286 0.0410156L0 1.85387L7.18714 9.04102L0 16.2282L1.81286 18.041L9 10.8539L16.1871 18.041L18 16.2282L10.8129 9.04102L18 1.85387Z" />
    </symbol>

    <symbol viewBox="0 0 40 18" id="mobile-menu-link">
        <rect width="40" height="3" />
        <rect y="15" width="40" height="3" />
    </symbol>

    <symbol viewBox="0 0 32 31" id="mobile-menu-close">
        <rect x="2.91797" y="0.297195" width="40" height="3" transform="rotate(45 2.91797 0.297195)" />
        <rect x="31.2021" y="2.41852" width="40" height="3" transform="rotate(135 31.2021 2.41852)" />
    </symbol>

    <symbol viewBox="0 0 7 13" id="back-mobile-link">
        <path d="M6 1.5L1 6.5L6 11.5" stroke-width="2" stroke-linecap="round" stroke-linejoin="round" />
    </symbol>

    <symbol viewBox="0 0 34 34" id="footer-menu-arrow">
        <circle cx="17" cy="17" r="17" transform="rotate(90 17 17)" fill="#025A7D" />
        <path d="M12 14.5L17 19.5L22 14.5" stroke="white" stroke-width="2" stroke-linecap="round" stroke-linejoin="round" />
    </symbol>

    <symbol viewBox="0 0 34 34" id="mobile-open-icon">
        <circle cx="17" cy="17" r="17" transform="rotate(90 17 17)" fill="white" />
        <circle cx="17" cy="17" r="16.5" transform="rotate(90 17 17)" stroke="#005677" stroke-opacity="0.5" />
        <path d="M12 14.5L17 19.5L22 14.5" stroke="#005678" stroke-width="2" stroke-linecap="round" stroke-linejoin="round" />
    </symbol>

</svg>