<svg width="43" height="49" viewBox="0 0 43 49" fill="none" xmlns="http://www.w3.org/2000/svg">
<path d="M25.9285 19.601L18.6315 26.8581L16.0795 24.2862C15.601 23.8077 14.8335 23.8077 14.355 24.2862C13.8765 24.7647 13.8765 25.5323 14.355 26.0108L17.7642 29.44C18.0035 29.6792 18.3125 29.7989 18.6315 29.7989C18.9405 29.7989 19.2495 29.6792 19.4888 29.44L27.6531 21.3256C28.1316 20.8471 28.1316 20.0795 27.6531 19.601C27.1845 19.1325 26.407 19.1225 25.9285 19.601Z" fill="#FF5406"/>
<path d="M42.0077 27.9148V9.61241C42.0077 9.12395 41.7086 8.67536 41.26 8.48596L21.4724 0.231959C21.1733 0.102368 20.8344 0.102368 20.5353 0.231959L0.747645 8.48596C0.289089 8.67536 0 9.12395 0 9.61241V27.9148C0 39.4983 9.42033 48.9186 21.0038 48.9186C32.5873 48.9186 42.0077 39.4883 42.0077 27.9148ZM21.0038 46.4763C10.7661 46.4763 2.44231 38.1525 2.44231 27.9148V10.4298L21.0038 2.68423L39.5654 10.4298V27.9148C39.5654 38.1425 31.2416 46.4763 21.0038 46.4763Z" fill="#FF5406"/>
</svg>
