<svg width="44" height="49" viewBox="0 0 44 49" fill="none" xmlns="http://www.w3.org/2000/svg">
<path d="M43.1044 21.687C43.1044 9.80307 33.4362 0.134766 21.5523 0.134766C9.6684 0.134766 0 9.80307 0 21.687C0 22.393 0.572356 22.9653 1.2783 22.9653C1.98424 22.9653 2.55659 22.3929 2.55659 21.687C2.55659 11.2128 11.078 2.69145 21.5522 2.69145C32.0264 2.69145 40.5478 11.2129 40.5478 21.687C40.5478 32.1611 32.0264 40.6825 21.5522 40.6825H19.3344L22.5056 37.1328C22.976 36.6064 22.9303 35.7982 22.4039 35.3278C21.8775 34.8574 21.0692 34.9031 20.5989 35.4296L16.0658 40.5038C15.3237 41.3345 15.3237 42.5872 16.0658 43.4179L20.5989 48.4921C20.8515 48.7749 21.2013 48.9188 21.5527 48.9188C21.8558 48.9188 22.1601 48.8115 22.4039 48.5939C22.9304 48.1234 22.976 47.3153 22.5056 46.7888L19.3344 43.2391H21.5522C33.4362 43.2391 43.1044 33.5708 43.1044 21.687Z" fill="#FF5406"/>
</svg>
