<svg width="49" height="49" viewBox="0 0 49 49" fill="none" xmlns="http://www.w3.org/2000/svg">
<path d="M47.3624 0.134766H40.6908C39.896 0.134766 39.2516 0.778971 39.2516 1.57401C39.2516 2.36905 39.896 3.01325 40.6908 3.01325H43.8879L29.0982 17.8027C27.792 16.9016 26.2105 16.3723 24.507 16.3723C22.7491 16.3723 21.1216 16.9365 19.7919 17.8912L4.91396 3.01325H8.111C8.90584 3.01325 9.55024 2.36905 9.55024 1.57401C9.55024 0.778971 8.90584 0.134766 8.111 0.134766H1.43924C0.644397 0.134766 0 0.778971 0 1.57401V8.24557C0 9.04061 0.644397 9.68481 1.43924 9.68481C2.23409 9.68481 2.87849 9.04061 2.87849 8.24557V5.04872L17.7841 19.9541C16.9111 21.2471 16.4008 22.8044 16.4008 24.4785C16.4008 26.1774 16.9272 27.7552 17.824 29.0593L2.87849 44.0046V40.808C2.87849 40.0129 2.23409 39.3687 1.43924 39.3687C0.644397 39.3687 0 40.0129 0 40.808V47.4795C0 48.2746 0.644397 48.9188 1.43924 48.9188H8.1108C8.90565 48.9188 9.55005 48.2746 9.55005 47.4795C9.55005 46.6845 8.90565 46.0403 8.1108 46.0403H4.91377L19.8481 31.1061C21.1672 32.0363 22.7738 32.5847 24.5068 32.5847C28.9766 32.5847 32.613 28.9484 32.613 24.4787C32.613 22.7501 32.0673 21.1473 31.1418 19.8301L45.923 5.04892V8.24557C45.923 9.04061 46.5674 9.68481 47.3622 9.68481C48.1571 9.68481 48.8015 9.04061 48.8015 8.24557V1.57401C48.8017 0.778971 48.1573 0.134766 47.3624 0.134766ZM24.507 29.7062C21.6245 29.7062 19.2793 27.361 19.2793 24.4787C19.2793 21.5962 21.6245 19.251 24.507 19.251C25.8104 19.251 27.0029 19.7315 27.9194 20.5235C27.9789 20.6225 28.0495 20.7165 28.1349 20.8017C28.2239 20.8908 28.3226 20.9641 28.4264 21.0249C29.2397 21.9468 29.7346 23.1557 29.7346 24.4787C29.7346 27.361 27.3896 29.7062 24.507 29.7062Z" fill="#FF671D"/>
<path d="M47.3604 39.3687C46.5655 39.3687 45.9211 40.0129 45.9211 40.808V44.0046L35.1287 33.2124C34.5666 32.6505 33.6553 32.6505 33.0934 33.2124C32.5314 33.7747 32.5314 34.6858 33.0934 35.2479L43.8858 46.0401H40.6888C39.8939 46.0401 39.2496 46.6843 39.2496 47.4794C39.2496 48.2744 39.8939 48.9186 40.6888 48.9186H47.3604C48.1552 48.9186 48.7996 48.2744 48.7996 47.4794V40.8078C48.7996 40.0129 48.1552 39.3687 47.3604 39.3687Z" fill="#FF671D"/>
</svg>
