<svg width="34" height="52" viewBox="0 0 34 52" fill="none" xmlns="http://www.w3.org/2000/svg">
<path d="M26.6763 38.9083C27.0882 36.2893 27.2994 33.6174 27.2994 30.8928C27.31 12.665 16.5169 0.615234 16.5169 0.615234C16.5169 0.615234 5.94567 11.5139 5.94567 30.8928C5.94567 33.5752 6.13577 36.2048 6.51595 38.7816C2.38672 41.9709 0 46.681 0 51.9191H2.20719C2.4712 45.6672 5.92455 42.0449 6.93838 41.1894C7.37137 43.3861 8.92379 48.3918 8.92379 48.3918H15.4186V51.9191H17.6258V48.3918H24.1206C24.1206 48.3918 25.8103 43.46 26.2539 41.3162C27.4156 42.3617 30.5943 45.9418 30.8372 51.9191H33.0444C33.0339 46.7444 30.7105 42.0977 26.6763 38.9083ZM16.6225 4.02634C18.3651 6.26521 19.8541 8.77866 21.0897 11.5139H12.1237C13.3698 8.76809 14.8695 6.24409 16.6225 4.02634ZM22.6844 46.1952H17.6152V39.5842H15.4081V46.1952H10.4551C8.80762 41.3479 8.03669 36.1731 8.1423 30.8928C8.1423 24.7887 9.21949 18.9064 11.2049 13.7211H22.0085C24.015 18.9486 25.1028 24.8204 25.1028 30.8928C25.1028 36.2893 24.3318 41.3479 22.6844 46.1952Z" fill="#FF5406"/>
</svg>
