<svg width="54" height="54" viewBox="0 0 54 54" fill="none" xmlns="http://www.w3.org/2000/svg">
<path d="M43.5837 16.7388L37.8833 11.0384C37.7659 10.92 37.6177 10.8367 37.4555 10.7979C37.2933 10.7591 37.1235 10.7663 36.9652 10.8187C36.8069 10.8712 36.6663 10.9667 36.5593 11.0947C36.4524 11.2226 36.3832 11.3779 36.3597 11.543C36.2654 12.2021 35.9895 12.8219 35.5629 13.3329C35.1362 13.844 34.5757 14.2262 33.9441 14.4367C33.3125 14.6472 32.6348 14.6776 31.9868 14.5247C31.3389 14.3717 30.7463 14.0413 30.2756 13.5705C29.8048 13.0998 29.4744 12.5072 29.3215 11.8593C29.1685 11.2114 29.1989 10.5336 29.4094 9.90201C29.6199 9.2704 30.0021 8.70988 30.5132 8.28324C31.0243 7.8566 31.644 7.5807 32.3031 7.48645C32.4682 7.4629 32.6235 7.39375 32.7514 7.28678C32.8794 7.1798 32.9749 7.03925 33.0274 6.88092C33.0798 6.7226 33.087 6.55278 33.0482 6.39058C33.0094 6.22837 32.9261 6.08021 32.8077 5.96277L27.1073 0.262419C26.9393 0.0943921 26.7113 0 26.4737 0C26.236 0 26.0081 0.0943921 25.84 0.262419L20.8898 5.21079C20.6461 4.29854 20.1665 3.46655 19.4992 2.79849C18.8319 2.13042 18.0004 1.64983 17.0885 1.40505C16.1765 1.16028 15.2161 1.15994 14.304 1.40407C13.3919 1.6482 12.5601 2.1282 11.8923 2.79579C11.2245 3.46338 10.7443 4.29503 10.4999 5.20711C10.2556 6.11918 10.2556 7.07953 10.5002 7.99156C10.7447 8.90359 11.2251 9.73517 11.8929 10.4026C12.5608 11.0701 13.3927 11.55 14.3049 11.794L9.36008 16.7388C9.19205 16.9068 9.09766 17.1348 9.09766 17.3724C9.09766 17.6101 9.19205 17.838 9.36008 18.0061L14.3067 22.959C13.2208 23.2507 12.2536 23.8754 11.5413 24.7453C10.8289 25.6152 10.407 26.6865 10.3351 27.8086C10.2632 28.9306 10.5448 30.047 11.1403 31.0007C11.7358 31.9545 12.6153 32.6975 13.6551 33.1255L11.5622 39.1619C11.2842 39.7883 11.1536 40.47 11.1803 41.1548C11.207 41.8396 11.3904 42.5091 11.7164 43.1118L14.8623 50.551C14.874 50.5796 14.8875 50.6074 14.9027 50.6343C15.123 51.0381 15.238 51.491 15.237 51.951V52.8114C15.237 53.0491 15.3314 53.2771 15.4995 53.4452C15.6676 53.6133 15.8956 53.7077 16.1333 53.7077C16.371 53.7077 16.599 53.6133 16.767 53.4452C16.9351 53.2771 17.0296 53.0491 17.0296 52.8114V51.951C17.0286 51.2054 16.8439 50.4715 16.4918 49.8142L13.3449 42.3751C13.3325 42.3444 13.3181 42.3144 13.3019 42.2855C13.0965 41.9105 12.9823 41.4925 12.9686 41.0652C12.9549 40.6379 13.0421 40.2134 13.223 39.8261L15.4154 33.5163C15.5095 33.5163 15.6018 33.5297 15.6968 33.5297C16.8797 33.5307 18.0299 33.141 18.9685 32.421C19.9071 31.7011 20.5816 30.6912 20.8872 29.5484L22.4072 31.0622V40.2635C22.4072 40.5012 22.5017 40.7291 22.6698 40.8972C22.8378 41.0653 23.0658 41.1597 23.3035 41.1597C23.5412 41.1597 23.7692 41.0653 23.9373 40.8972C24.1054 40.7291 24.1998 40.5012 24.1998 40.2635V27.7155C24.1998 27.0024 24.4831 26.3185 24.9874 25.8142C25.4916 25.31 26.1755 25.0267 26.8887 25.0267C27.6018 25.0267 28.2857 25.31 28.7899 25.8142C29.2942 26.3185 29.5775 27.0024 29.5775 27.7155V38.5704C29.5791 39.8225 29.8705 41.0572 30.429 42.1779L30.757 42.8358C31.1907 43.7074 31.4164 44.6676 31.4164 45.6411C31.4164 46.6147 31.1907 47.5749 30.757 48.4465L29.8607 50.2391C29.6747 50.6127 29.5777 51.0244 29.5775 51.4419V52.8114C29.5775 53.0491 29.6719 53.2771 29.84 53.4452C30.0081 53.6133 30.2361 53.7077 30.4738 53.7077C30.7115 53.7077 30.9395 53.6133 31.1075 53.4452C31.2756 53.2771 31.3701 53.0491 31.3701 52.8114V51.4419C31.3691 51.3033 31.3998 51.1663 31.4597 51.0412L32.356 49.2487C32.9135 48.128 33.2036 46.8933 33.2036 45.6416C33.2036 44.3899 32.9135 43.1552 32.356 42.0345L32.0279 41.3766C31.7066 40.7312 31.4983 40.0355 31.4122 39.3197C31.9943 39.9039 32.6862 40.3672 33.4481 40.683C34.2099 40.9988 35.0267 41.1608 35.8515 41.1597C36.5646 41.1597 37.2485 40.8764 37.7528 40.3722C38.257 39.8679 38.5403 39.184 38.5403 38.4709V33.3621C39.6971 33.0759 40.7259 32.4131 41.4648 31.4782C42.2037 30.5432 42.6108 29.3891 42.622 28.1975C42.6332 27.0059 42.2479 25.8443 41.5266 24.8957C40.8054 23.947 39.7892 23.2651 38.638 22.9572L43.5837 18.0043C43.7512 17.8363 43.8452 17.6088 43.8452 17.3715C43.8452 17.1343 43.7512 16.9068 43.5837 16.7388ZM35.8515 39.3672C34.6634 39.3658 33.5243 38.8932 32.6842 38.053C31.8441 37.2129 31.3715 36.0739 31.3701 34.8858V30.2251L32.0548 29.5403C32.3373 30.6018 32.9388 31.5508 33.7781 32.2593C34.6174 32.9678 35.654 33.4016 36.7477 33.5019V38.4709C36.7477 38.7086 36.6533 38.9366 36.4852 39.1047C36.3171 39.2728 36.0892 39.3672 35.8515 39.3672ZM35.9796 23.0844C35.8451 23.2174 35.7561 23.3895 35.7254 23.5761C35.6946 23.7628 35.7237 23.9543 35.8085 24.1234C35.8932 24.2925 36.0293 24.4305 36.1972 24.5175C36.3651 24.6046 36.5562 24.6363 36.7433 24.6081C37.4879 24.5027 38.2468 24.6342 38.9126 24.9839C39.5785 25.3335 40.1174 25.8838 40.4533 26.5566C40.7892 27.2295 40.905 27.991 40.7843 28.7333C40.6636 29.4756 40.3125 30.1611 39.7807 30.6929C39.2489 31.2247 38.5634 31.5758 37.8211 31.6965C37.0788 31.8172 36.3173 31.7014 35.6444 31.3655C34.9715 31.0296 34.4213 30.4907 34.0717 29.8248C33.722 29.159 33.5905 28.4001 33.6959 27.6555C33.7241 27.4684 33.6924 27.2773 33.6053 27.1094C33.5182 26.9415 33.3803 26.8054 33.2112 26.7207C33.0421 26.6359 32.8506 26.6068 32.6639 26.6376C32.4773 26.6683 32.3052 26.7573 32.1722 26.8918L31.3701 27.6958C31.3688 27.1073 31.2516 26.5248 31.0252 25.9816C30.7988 25.4384 30.4676 24.9451 30.0505 24.5299C29.6335 24.1146 29.1387 23.7856 28.5945 23.5616C28.0503 23.3376 27.4673 23.223 26.8788 23.2243C26.2903 23.2255 25.7078 23.3427 25.1646 23.5692C24.6214 23.7956 24.1281 24.1267 23.7128 24.5438C22.8743 25.3861 22.4046 26.527 22.4072 27.7155V28.5275L20.7644 26.8847C20.6314 26.7502 20.4593 26.6612 20.2727 26.6304C20.086 26.5997 19.8945 26.6288 19.7254 26.7135C19.5563 26.7982 19.4183 26.9343 19.3313 27.1022C19.2442 27.2701 19.2125 27.4613 19.2407 27.6483C19.3461 28.3929 19.2146 29.1519 18.8649 29.8177C18.5153 30.4835 17.965 31.0225 17.2922 31.3584C16.6193 31.6943 15.8578 31.81 15.1155 31.6893C14.3732 31.5686 13.6876 31.2175 13.1559 30.6858C12.6241 30.154 12.273 29.4684 12.1523 28.7261C12.0316 27.9838 12.1474 27.2223 12.4833 26.5495C12.8191 25.8766 13.3581 25.3264 14.024 24.9767C14.6898 24.627 15.4487 24.4956 16.1933 24.6009C16.3804 24.6294 16.5717 24.5978 16.7398 24.5108C16.9079 24.4239 17.0441 24.2859 17.129 24.1168C17.2139 23.9476 17.243 23.756 17.2123 23.5692C17.1815 23.3825 17.0925 23.2103 16.9579 23.0773L11.2602 17.3724L16.9641 11.6721C17.0986 11.5391 17.1876 11.367 17.2184 11.1804C17.2491 10.9938 17.22 10.8022 17.1353 10.6331C17.0505 10.464 16.9145 10.3261 16.7466 10.239C16.5787 10.1519 16.3875 10.1202 16.2005 10.1484C15.4568 10.2523 14.6993 10.1202 14.0348 9.77049C13.3703 9.42084 12.8324 8.87136 12.4969 8.19959C12.1614 7.52782 12.0453 6.76767 12.165 6.02638C12.2846 5.28509 12.6341 4.6001 13.1639 4.06803C13.8472 3.41706 14.7548 3.05395 15.6986 3.05395C16.6423 3.05395 17.5499 3.41706 18.2333 4.06803C18.6255 4.46128 18.921 4.94028 19.0964 5.46725C19.2719 5.99423 19.3225 6.55475 19.2443 7.10463C19.2161 7.29166 19.2478 7.48281 19.3349 7.65071C19.4219 7.81862 19.5599 7.95469 19.729 8.03943C19.8981 8.12417 20.0896 8.15325 20.2762 8.12251C20.4629 8.09176 20.635 8.00277 20.7679 7.86826L26.4764 2.16612L30.4926 6.18325C29.7163 6.55402 29.0402 7.10564 28.5212 7.79179C28.0022 8.47794 27.6554 9.2786 27.5099 10.1265C27.3645 10.9745 27.4245 11.8449 27.6851 12.6648C27.9457 13.4848 28.3993 14.2302 29.0076 14.8385C29.6159 15.4469 30.3614 15.9004 31.1813 16.161C32.0012 16.4216 32.8716 16.4816 33.7196 16.3362C34.5675 16.1907 35.3682 15.8439 36.0543 15.3249C36.7405 14.8059 37.2921 14.1298 37.6628 13.3535L41.68 17.3697L35.9796 23.0844Z" fill="#FF5406"/>
<path d="M52.8794 18.7525H47.5018C47.264 18.7525 47.0361 18.6581 46.868 18.49C46.6999 18.3219 46.6055 18.094 46.6055 17.8562C46.6055 17.6185 46.6999 17.3906 46.868 17.2225C47.0361 17.0544 47.264 16.96 47.5018 16.96H52.8794C53.1171 16.96 53.3451 17.0544 53.5132 17.2225C53.6813 17.3906 53.7757 17.6185 53.7757 17.8562C53.7757 18.094 53.6813 18.3219 53.5132 18.49C53.3451 18.6581 53.1171 18.7525 52.8794 18.7525Z" fill="#FF5406"/>
<path d="M46.533 8.44523C46.3357 8.44522 46.1439 8.38012 45.9874 8.26001C45.8308 8.1399 45.7183 7.9715 45.6673 7.78093C45.6162 7.59036 45.6294 7.38826 45.7049 7.20598C45.7804 7.0237 45.914 6.87143 46.0848 6.77277L50.7455 4.08393C50.9512 3.96695 51.1949 3.9361 51.4233 3.99811C51.6517 4.06012 51.8463 4.20996 51.9647 4.41493C52.083 4.6199 52.1155 4.86335 52.055 5.09217C51.9945 5.32099 51.8459 5.51659 51.6418 5.63629L46.9811 8.32513C46.845 8.40412 46.6903 8.44557 46.533 8.44523Z" fill="#FF5406"/>
<path d="M51.191 31.749C51.0336 31.7494 50.879 31.7079 50.7429 31.6289L46.0822 28.9401C45.9794 28.8817 45.8893 28.8035 45.8168 28.7101C45.7444 28.6167 45.6912 28.5098 45.6602 28.3958C45.6292 28.2817 45.6211 28.1626 45.6364 28.0454C45.6516 27.9282 45.6899 27.8151 45.749 27.7128C45.8081 27.6104 45.8869 27.5208 45.9808 27.449C46.0747 27.3772 46.1818 27.3246 46.2961 27.2944C46.4104 27.2642 46.5295 27.2569 46.6466 27.2729C46.7637 27.2889 46.8765 27.3279 46.9785 27.3877L51.6391 30.0766C51.81 30.1752 51.9435 30.3275 52.019 30.5098C52.0945 30.6921 52.1078 30.8942 52.0567 31.0847C52.0056 31.2753 51.8931 31.4437 51.7366 31.5638C51.5801 31.6839 51.3883 31.749 51.191 31.749Z" fill="#FF5406"/>
<path d="M6.27397 18.7525H0.896281C0.658573 18.7525 0.4306 18.6581 0.262515 18.49C0.0944293 18.3219 0 18.094 0 17.8562C0 17.6185 0.0944293 17.3906 0.262515 17.2225C0.4306 17.0544 0.658573 16.96 0.896281 16.96H6.27397C6.51168 16.96 6.73965 17.0544 6.90774 17.2225C7.07582 17.3906 7.17025 17.6185 7.17025 17.8562C7.17025 18.094 7.07582 18.3219 6.90774 18.49C6.73965 18.6581 6.51168 18.7525 6.27397 18.7525Z" fill="#FF5406"/>
<path d="M7.2432 8.44523C7.08583 8.44557 6.93118 8.40412 6.79506 8.32513L2.1344 5.63629C1.93022 5.51659 1.78168 5.32099 1.72118 5.09217C1.66069 4.86335 1.69315 4.6199 1.81149 4.41493C1.92983 4.20996 2.12445 4.06012 2.35286 3.99811C2.58127 3.9361 2.82493 3.96695 3.03068 4.08393L7.69135 6.77277C7.8622 6.87143 7.99573 7.0237 8.07123 7.20598C8.14673 7.38826 8.15997 7.59036 8.10891 7.78093C8.05784 7.9715 7.94532 8.1399 7.7888 8.26001C7.63228 8.38012 7.4405 8.44522 7.2432 8.44523Z" fill="#FF5406"/>
<path d="M2.58765 31.749C2.39035 31.749 2.19857 31.6839 2.04205 31.5638C1.88553 31.4437 1.77301 31.2753 1.72195 31.0847C1.67088 30.8942 1.68413 30.6921 1.75962 30.5098C1.83512 30.3275 1.96865 30.1752 2.13951 30.0766L6.80017 27.3877C6.90214 27.3279 7.01493 27.2889 7.13204 27.2729C7.24915 27.2569 7.36828 27.2642 7.48255 27.2944C7.59683 27.3246 7.704 27.3772 7.79789 27.449C7.89179 27.5208 7.97056 27.6104 8.02966 27.7128C8.08876 27.8151 8.12703 27.9282 8.14227 28.0454C8.1575 28.1626 8.1494 28.2817 8.11843 28.3958C8.08746 28.5098 8.03423 28.6167 7.96181 28.7101C7.88939 28.8035 7.79921 28.8817 7.69645 28.9401L3.03579 31.6289C2.89967 31.7079 2.74503 31.7494 2.58765 31.749Z" fill="#FF5406"/>
</svg>
