<svg width="54" height="54" viewBox="0 0 54 54" fill="none" xmlns="http://www.w3.org/2000/svg">
<path d="M31.8892 31.8887H10.9096C10.687 31.8887 10.4736 31.9772 10.3163 32.1346L0.246094 42.2047L1.4327 43.3913L11.257 33.567H30.9661C30.7915 34.5631 30.2435 36.0846 28.5324 36.0846H19.3014V37.7629H28.5324C31.8514 37.7629 32.7283 34.4692 32.7283 32.7279C32.7283 32.2644 32.3526 31.8887 31.8892 31.8887Z" fill="#FF5406"/>
<path d="M42.5547 26.2594C42.227 25.9318 41.6958 25.9318 41.3681 26.2594L33.8154 33.812L35.002 34.9986L41.8951 28.1064C43.0313 29.6137 42.8006 31.7445 41.3681 32.9737L31.5438 42.798H14.2684C14.0458 42.798 13.8324 42.8865 13.6751 43.0439L7.80078 48.9181L8.98739 50.1047L14.6158 44.4763H31.8912C32.1139 44.476 32.3273 44.3873 32.4845 44.2296L42.5547 34.1594C45.6798 31.0352 43.9209 27.6256 42.5547 26.2594Z" fill="#FF5406"/>
<path d="M26.8538 0C12.0229 0 0 12.0229 0 26.8538H1.67837C1.67837 12.9498 12.9498 1.67837 26.8538 1.67837C40.7578 1.67837 52.0293 12.9498 52.0293 26.8538C52.0293 40.7578 40.7578 52.0293 26.8538 52.0293V53.7077C41.6848 53.7077 53.7077 41.6848 53.7077 26.8538C53.7077 12.0229 41.6848 0 26.8538 0Z" fill="#FF5406"/>
<path d="M35.2427 15.9443H29.3684V17.6227H33.2169L24.8251 26.0145H20.9766V27.6929H25.1725C25.3951 27.6929 25.6084 27.6044 25.7658 27.447L34.4035 18.8093V21.8186H36.0819V16.7835C36.0819 16.3201 35.7061 15.9443 35.2427 15.9443Z" fill="#FF5406"/>
<path d="M9.23194 26.0146C9.00935 26.0146 8.79599 26.1032 8.63864 26.2605L6.12109 28.7781L7.3077 29.9647L9.57936 27.693H15.9454V26.0146H9.23194Z" fill="#FF5406"/>
<path d="M19.3034 26.0146H17.625V27.693H19.3034V26.0146Z" fill="#FF5406"/>
<path d="M6.79688 19.1394L8.39804 19.6429C10.7939 11.9314 17.9415 6.68615 26.0167 6.71363V5.03527C17.208 5.0059 9.41103 10.7274 6.79688 19.1394Z" fill="#FF5406"/>
</svg>
