<svg width="43" height="43" viewBox="0 0 43 43" fill="none" xmlns="http://www.w3.org/2000/svg">
<path d="M42.1448 4.66111C41.7951 4.66111 41.5117 4.22489 41.5117 4.5745V37.7111C41.5117 39.4529 40.0946 40.8701 38.3528 40.8701H5.27268C3.53086 40.8701 2.11375 39.453 2.11375 37.7111V4.63108C2.11375 2.88926 3.53086 1.47215 5.27268 1.47215H38.3527C40.0945 1.47215 41.5117 2.88918 41.5117 4.63108C41.5117 4.98069 41.7951 5.26413 42.1447 5.26413C42.4944 5.26413 42.7777 4.98069 42.7777 4.63108C42.7778 2.1911 40.7928 0.206055 38.3528 0.206055H5.27268C2.83271 0.206055 0.847656 2.1911 0.847656 4.63108V37.7111C0.847656 40.1512 2.83271 42.1362 5.27268 42.1362H38.3527C40.7928 42.1362 42.7778 40.1512 42.7778 37.7112L42.7777 4.63108C42.7777 4.28147 42.4944 4.66111 42.1448 4.66111Z" fill="#FF5406"/>
<path d="M11.004 8.88574H9.59638C8.63002 8.88574 7.84375 9.67193 7.84375 10.6384V12.0461C7.84375 13.0124 8.63002 13.7986 9.59638 13.7986H11.004C11.9704 13.7986 12.7566 13.0124 12.7566 12.0461V10.6384C12.7566 9.67201 11.9704 8.88574 11.004 8.88574ZM11.4904 12.0461C11.4904 12.3143 11.2723 12.5324 11.004 12.5324H9.59638C9.32818 12.5324 9.10993 12.3143 9.10993 12.0461V10.6384C9.10993 10.3702 9.32809 10.1519 9.59638 10.1519H11.004C11.2722 10.1519 11.4904 10.3701 11.4904 10.6384V12.0461Z" fill="#FF5406"/>
<path d="M35.1441 10.709H15.7717C15.422 10.709 15.1387 10.9924 15.1387 11.342C15.1387 11.6916 15.4221 11.9751 15.7717 11.9751H35.1441C35.4938 11.9751 35.7772 11.6916 35.7772 11.342C35.7772 10.9924 35.4938 10.709 35.1441 10.709Z" fill="#FF5406"/>
<path d="M11.004 18.373H9.59638C8.63002 18.373 7.84375 19.1592 7.84375 20.1256V21.5333C7.84375 22.4996 8.63002 23.2859 9.59638 23.2859H11.004C11.9704 23.2859 12.7566 22.4997 12.7566 21.5333V20.1256C12.7566 19.1592 11.9704 18.373 11.004 18.373ZM11.4904 21.5333C11.4904 21.8015 11.2723 22.0197 11.004 22.0197H9.59638C9.32818 22.0197 9.10993 21.8016 9.10993 21.5333V20.1256C9.10993 19.8574 9.32809 19.6392 9.59638 19.6392H11.004C11.2722 19.6392 11.4904 19.8574 11.4904 20.1256V21.5333Z" fill="#FF5406"/>
<path d="M35.1441 20.1963H15.7717C15.422 20.1963 15.1387 20.4797 15.1387 20.8293C15.1387 21.1789 15.4221 21.4624 15.7717 21.4624H35.1441C35.4938 21.4624 35.7772 21.1789 35.7772 20.8293C35.7772 20.4797 35.4938 20.1963 35.1441 20.1963Z" fill="#FF5406"/>
<path d="M11.004 28.543H9.59638C8.63002 28.543 7.84375 29.3292 7.84375 30.2956V31.7033C7.84375 32.6697 8.63002 33.4559 9.59638 33.4559H11.004C11.9704 33.4559 12.7566 32.6697 12.7566 31.7033V30.2955C12.7566 29.3292 11.9704 28.543 11.004 28.543ZM11.4904 31.7032C11.4904 31.9714 11.2723 32.1897 11.004 32.1897H9.59638C9.32818 32.1897 9.10993 31.9715 9.10993 31.7032V30.2955C9.10993 30.0273 9.32809 29.8091 9.59638 29.8091H11.004C11.2722 29.8091 11.4904 30.0272 11.4904 30.2955V31.7032Z" fill="#FF5406"/>
<path d="M35.1441 30.3662H15.7717C15.422 30.3662 15.1387 30.6497 15.1387 30.9993C15.1387 31.3489 15.4221 31.6323 15.7717 31.6323H35.1441C35.4938 31.6323 35.7772 31.3489 35.7772 30.9993C35.7772 30.6497 35.4938 30.3662 35.1441 30.3662Z" fill="#FF5406"/>
</svg>
