<svg width="43" height="42" viewBox="0 0 43 42" fill="none" xmlns="http://www.w3.org/2000/svg">
<rect x="1.76562" y="1.26855" width="40.0308" height="39.5331" rx="11" stroke="#00A4CE" stroke-width="2"/>
<path d="M21.7812 11.1279V13.8379" stroke="#005B7A" stroke-width="1.5" stroke-miterlimit="10"/>
<path d="M31.6308 15.208L29.5508 17.288" stroke="#005B7A" stroke-width="1.5" stroke-miterlimit="10"/>
<path d="M11.9297 15.208L13.8497 17.138" stroke="#005B7A" stroke-width="1.5" stroke-miterlimit="10"/>
<path d="M32.7695 25.0684H35.0295" stroke="#005B7A" stroke-width="1.5" stroke-miterlimit="10"/>
<path d="M8.55078 25.0684H10.7908" stroke="#005B7A" stroke-width="1.5" stroke-miterlimit="10"/>
<path d="M35.0312 24.378C35.0333 22.3691 34.5786 20.3861 33.7015 18.5789C32.8244 16.7717 31.5478 15.1876 29.9684 13.9463C28.3889 12.7051 26.5479 11.8392 24.5846 11.4142C22.6212 10.9892 20.5869 11.0162 18.6355 11.4931C16.6841 11.97 14.8667 12.8844 13.3208 14.1671C11.7748 15.4498 10.5407 17.0672 9.71179 18.897C8.8829 20.7269 8.48094 22.7212 8.53628 24.7293C8.59162 26.7374 9.10283 28.7066 10.0312 30.488H33.5312C34.5149 28.6014 35.0294 26.5056 35.0312 24.378V24.378Z" stroke="#005B7A" stroke-width="1.5" stroke-miterlimit="10"/>
<path d="M21.7827 26.8778C22.7823 26.8778 23.5927 26.0674 23.5927 25.0678C23.5927 24.0682 22.7823 23.2578 21.7827 23.2578C20.783 23.2578 19.9727 24.0682 19.9727 25.0678C19.9727 26.0674 20.783 26.8778 21.7827 26.8778Z" stroke="#00A6CE" stroke-width="1.5" stroke-miterlimit="10"/>
<path d="M22.7617 23.7781L28.9217 18.0381" stroke="#00A6CE" stroke-width="1.5" stroke-miterlimit="10"/>
</svg>
