<svg width="43" height="43" viewBox="0 0 43 43" fill="none" xmlns="http://www.w3.org/2000/svg">
<path d="M31.2597 10.6787H12.3038C10.7039 10.6787 9.40234 11.9803 9.40234 13.5801V25.1858C9.40234 26.7857 10.7039 28.0873 12.3038 28.0873H20.8146V30.0842L15.4424 33.6657C14.998 33.962 14.8779 34.5624 15.1742 35.0069C15.4704 35.4513 16.0709 35.5714 16.5154 35.2751L20.8146 32.4089V34.4704C20.8146 35.0046 21.2476 35.4375 21.7818 35.4375C22.3159 35.4375 22.7489 35.0046 22.7489 34.4704V32.4089L27.0481 35.2751C27.491 35.5703 28.0919 35.4529 28.3893 35.0069C28.6856 34.5624 28.5655 33.962 28.1211 33.6657L22.7489 30.0842V28.0873H31.2597C32.8596 28.0873 34.1612 26.7857 34.1612 25.1858V13.5801C34.1612 11.9803 32.8596 10.6787 31.2597 10.6787ZM32.2269 25.1858C32.2269 25.7191 31.793 26.153 31.2597 26.153H12.3038C11.7705 26.153 11.3366 25.7191 11.3366 25.1858V13.5801C11.3366 13.0469 11.7705 12.613 12.3038 12.613H31.2597C31.793 12.613 32.2269 13.0469 32.2269 13.5801V25.1858Z" fill="#00A5CF"/>
<path d="M29.6348 15.3967C29.6226 15.3845 29.6096 15.3739 29.597 15.3625C29.0747 14.8581 28.3648 14.5469 27.5832 14.5469H25.6489C25.1147 14.5469 24.6817 14.9799 24.6817 15.514C24.6817 16.0482 25.1147 16.4812 25.6489 16.4812H27.1826L22.4642 21.1996C22.2816 21.3822 22.0387 21.4828 21.7804 21.4828C21.522 21.4828 21.2791 21.3822 21.0965 21.1996L19.9634 20.0665C19.4154 19.5185 18.6868 19.2167 17.9118 19.2167C17.1368 19.2167 16.4082 19.5185 15.8602 20.0665C15.8511 20.0756 15.8421 20.085 15.8333 20.0945L13.5259 22.5953C13.1637 22.9879 13.1883 23.5998 13.5808 23.962C13.9742 24.3249 14.586 24.2987 14.9475 23.907L17.2395 21.4228C17.4208 21.2473 17.6589 21.1509 17.9118 21.1509C18.1701 21.1509 18.413 21.2515 18.5957 21.4342L19.7288 22.5673C20.2768 23.1153 21.0054 23.4171 21.7804 23.4171C22.5554 23.4171 23.284 23.1153 23.832 22.5673L28.5504 17.8489V19.3826C28.5504 19.9167 28.9833 20.3497 29.5175 20.3497C30.0517 20.3497 30.4846 19.9167 30.4846 19.3826V17.4483C30.4846 16.6667 30.1734 15.9567 29.669 15.4345C29.6576 15.4218 29.647 15.4088 29.6348 15.3967Z" fill="#274353"/>
<rect x="1.76562" y="1.93262" width="40.0308" height="39.5331" rx="11" stroke="#00A4CE" stroke-width="2"/>
</svg>
