<svg width="41" height="41" viewBox="0 0 41 41" fill="none" xmlns="http://www.w3.org/2000/svg" xmlns:xlink="http://www.w3.org/1999/xlink">
<path d="M20.9376 26.272C27.9162 26.272 33.5736 20.6147 33.5736 13.636C33.5736 6.65733 27.9162 1 20.9376 1C13.9589 1 8.30156 6.65733 8.30156 13.636C8.30156 20.6147 13.9589 26.272 20.9376 26.272Z" stroke="#FFFFFF" stroke-width="1.5" stroke-miterlimit="10"/>
<path d="M8.30155 14.1046L5.96155 33.9166" stroke="#FFFFFF" stroke-width="1.5" stroke-miterlimit="10"/>
<path d="M33.42 14.1046L34.356 30.1726" stroke="#FFFFFF" stroke-width="1.5" stroke-miterlimit="10"/>
<path d="M8.46 33.6046H3V36.7246H8.46V33.6046Z" stroke="#FFFFFF" stroke-width="1.5" stroke-miterlimit="10"/>
<path d="M7.36312 36.88H4.24312V40H7.36312V36.88Z" stroke="#FFFFFF" stroke-width="1.5" stroke-miterlimit="10"/>
<path d="M37.4723 30.3277H32.0123V33.4477H37.4723V30.3277Z" stroke="#FFFFFF" stroke-width="1.5" stroke-miterlimit="10"/>
<path d="M36.2231 33.6046H33.1031V36.7246H36.2231V33.6046Z" stroke="#FFFFFF" stroke-width="1.5" stroke-miterlimit="10"/>
</svg>
