<svg width="43" height="43" viewBox="0 0 43 43" fill="none" xmlns="http://www.w3.org/2000/svg">
<path d="M12.1591 15.3551C12.1591 11.5714 15.2374 8.49316 19.0211 8.49316C28.1119 8.83814 28.1094 21.8735 19.021 22.2171C15.2374 22.2171 12.1591 19.1388 12.1591 15.3551ZM14.1923 15.3551C14.1923 18.0177 16.3585 20.1839 19.0211 20.1839C25.4183 19.9412 25.4166 10.7681 19.021 10.5263C16.3585 10.5263 14.1923 12.6925 14.1923 15.3551ZM23.9973 25.187C22.7127 24.5485 21.3291 24.2248 19.8852 24.2248H18.3603C13.2593 24.2248 9.10938 28.3748 9.10938 33.4758C9.10938 34.0372 9.5645 34.4924 10.126 34.4924C10.6874 34.4924 11.1425 34.0372 11.1425 33.4758C11.1425 29.4959 14.3804 26.258 18.3603 26.258C20.0374 26.2322 21.5624 26.2089 23.0925 27.0078C24.3168 27.5631 25.1835 25.8326 23.9973 25.187ZM24.104 29.4603C24.1162 28.6685 23.1954 28.1685 22.5409 28.6031C20.722 29.714 17.6659 29.7341 15.8085 28.6045C15.1459 28.1602 14.231 28.6632 14.2432 29.4603V33.4758C14.2432 34.0373 14.6983 34.4924 15.2598 34.4924C15.8212 34.4924 16.2764 34.0373 16.2764 33.4758V31.0221C19.1091 32.0551 22.3766 31.1632 23.6386 30.3145C23.9186 30.1334 24.104 29.8185 24.104 29.4603Z" fill="#00A5CF"/>
<path d="M34.9982 27.4527C35.0469 30.9137 31.1026 33.1633 28.16 31.3827L25.3479 34.1948C25.1494 34.3933 24.8892 34.4926 24.629 34.4926C23.7401 34.5022 23.2683 33.3892 23.9102 32.7572L26.6758 29.9915C24.6388 27.0461 26.8416 22.8687 30.4491 22.9035C31.0105 22.9035 31.4656 23.3586 31.4656 23.9201C31.4656 24.4815 31.0105 24.9367 30.449 24.9367C27.1159 25.0629 27.1165 29.8428 30.4491 29.9688C31.8364 29.9688 32.9651 28.84 32.9651 27.4527C33.0142 26.106 34.9489 26.106 34.9982 27.4527Z" fill="#005678"/>
<rect x="1.76562" y="1.72559" width="40.0308" height="39.5331" rx="11" stroke="#00A4CE" stroke-width="2"/>
</svg>
