<svg width="43" height="42" viewBox="0 0 43 42" fill="none" xmlns="http://www.w3.org/2000/svg">
<path d="M21.7816 15.98C20.8807 15.98 19.9801 15.6371 19.2945 14.9515L17.5784 13.2274C17.1567 12.8037 17.1582 12.1183 17.582 11.6964C18.0058 11.2747 18.6912 11.2763 19.113 11.7L20.8272 13.4223C21.3528 13.948 22.2112 13.9481 22.7388 13.4208L24.4527 11.6999C25.5028 10.7208 26.961 12.1745 25.9868 13.2276L24.2711 14.9504C23.5843 15.6368 22.6827 15.98 21.7816 15.98ZM22.8923 10.894V8.35009C22.8391 6.91531 20.7799 6.9164 20.7272 8.35009V10.894C20.7272 11.4919 21.2119 11.9766 21.8097 11.9766C22.4076 11.9766 22.8923 11.4919 22.8923 10.894ZM25.9834 30.5514C26.4072 30.1296 26.4087 29.4442 25.987 29.0204L24.2709 27.2963C22.8996 25.925 20.6678 25.9246 19.2943 27.2975L17.5786 29.0202C16.6039 30.0744 18.0637 31.5266 19.1127 30.548L20.8266 28.827C21.3542 28.2997 22.2126 28.2999 22.7382 28.8255L24.4525 30.5478C24.664 30.7604 24.9418 30.8667 25.2197 30.8667C25.4959 30.8666 25.7722 30.7616 25.9834 30.5514ZM22.8381 33.8977V31.3538C22.7849 29.919 20.7258 29.9201 20.6731 31.3538V33.8977C20.6731 34.4956 21.1577 34.9802 21.7556 34.9802C22.3535 34.9802 22.8381 34.4956 22.8381 33.8977Z" fill="#005678"/>
<path d="M34.553 20.042H9.00537C7.57059 19.9888 7.57167 17.9297 9.00537 17.877H34.553C35.9877 17.9302 35.9867 19.9893 34.553 20.042ZM35.6355 23.2896C35.6355 22.6917 35.1508 22.2071 34.553 22.2071H9.00537C7.57059 22.2603 7.57167 24.3194 9.00537 24.3721H34.553C35.1508 24.3721 35.6355 23.8875 35.6355 23.2896Z" fill="#00A5CF"/>
<rect x="1.76562" y="1.12793" width="40.0308" height="39.5331" rx="11" stroke="#00A4CE" stroke-width="2"/>
</svg>
