<svg width="43" height="43" viewBox="0 0 43 43" fill="none" xmlns="http://www.w3.org/2000/svg">
<path d="M21.7394 34.6646C19.9614 34.6646 18.515 33.2084 18.515 31.4185V31.3914C18.515 31.0062 18.2828 30.6654 17.9236 30.5234C16.9397 30.1345 16.0226 29.5969 15.1974 28.9254C14.8935 28.678 14.482 28.641 14.1492 28.8312L14.1429 28.8348C12.5945 29.7132 10.6215 29.1636 9.74502 27.6096C9.32004 26.8562 9.21261 25.9816 9.44257 25.147C9.67301 24.3109 10.2142 23.6154 10.9664 23.1886L10.9798 23.181C11.3065 22.9942 11.4918 22.6234 11.441 22.2582C11.3043 21.2759 11.3072 20.2626 11.4501 19.2812C11.5041 18.9099 11.3154 18.5319 10.9806 18.3405L10.963 18.3304C10.2142 17.9057 9.67301 17.2102 9.44257 16.374C9.21261 15.5395 9.32004 14.6649 9.74502 13.9114C10.6215 12.3574 12.5945 11.808 14.1429 12.6863L14.2075 12.7232C14.5379 12.9121 14.9489 12.8757 15.2548 12.6304C16.064 11.9814 16.9606 11.4599 17.9196 11.0804C18.2812 10.9372 18.5149 10.5959 18.5149 10.2107C18.6921 5.90401 24.7875 5.90601 24.9638 10.2107V10.2325C24.9638 10.6155 25.1956 10.9562 25.5545 11.1003C26.5031 11.4814 27.3897 12.0016 28.1898 12.6464C28.4963 12.8934 28.9079 12.9309 29.2384 12.742L29.3326 12.6881C30.8843 11.808 32.8572 12.3575 33.7337 13.9115C34.1587 14.6649 34.2661 15.5395 34.0362 16.374C33.8057 17.2102 33.2646 17.9057 32.5122 18.3324L32.4386 18.3745C32.1103 18.5622 31.9249 18.933 31.9773 19.2971C32.1164 20.2639 32.1199 21.2618 31.9881 22.2296C31.9382 22.5955 32.1235 22.9663 32.449 23.1524L32.5139 23.1895C33.2653 23.6164 33.8059 24.3114 34.0362 25.147C34.8083 27.9093 31.8122 30.2478 29.3358 28.8348L29.2984 28.8134C28.9646 28.6226 28.5508 28.6614 28.2439 28.9121C27.4286 29.5782 26.5225 30.1135 25.5507 30.5035C25.1942 30.6465 24.9638 30.9865 24.9638 31.3697V31.4185C24.9638 33.2084 23.5173 34.6646 21.7394 34.6646ZM14.6042 26.5439C15.2943 26.5439 15.9805 26.7799 16.5488 27.2424C17.2031 27.7749 17.9299 28.201 18.7093 28.5091C19.8971 28.9787 20.6646 30.11 20.6646 31.3914V31.4185C20.7238 32.8543 22.7555 32.8532 22.8142 31.4185V31.3697C22.8142 30.0953 23.576 28.9662 24.7549 28.4932C25.5247 28.1843 26.2429 27.7599 26.8894 27.2317C27.8885 26.4153 29.2506 26.2975 30.3596 26.9315L30.3939 26.9511C30.9105 27.244 31.5714 27.0609 31.8645 26.5411C32.0053 26.2914 32.0409 26.0018 31.9647 25.7255C31.8882 25.4477 31.7079 25.2163 31.457 25.0741L31.4538 25.0722L31.3874 25.0342C30.2879 24.4056 29.6877 23.1895 29.8583 21.936C29.9629 21.1682 29.9603 20.3741 29.8498 19.6071C29.6717 18.3685 30.2854 17.117 31.377 16.4929L31.4539 16.449C31.708 16.3048 31.8883 16.0735 31.9648 15.7956C32.0409 15.5194 32.0053 15.2298 31.8645 14.9802C31.5714 14.4604 30.9103 14.2773 30.3911 14.5717L30.3001 14.6238C29.1996 15.2529 27.8441 15.1399 26.8465 14.3359C26.2121 13.8246 25.5094 13.4122 24.758 13.1104C23.5772 12.6361 22.8143 11.5065 22.8143 10.2326V10.2108C22.7552 8.77549 20.7236 8.77555 20.6646 10.2108C20.6646 11.4917 19.8959 12.6236 18.7062 13.0944C17.9465 13.395 17.236 13.8084 16.5944 14.323C15.5979 15.1222 14.2445 15.233 13.1463 14.6051L13.0848 14.57C12.5684 14.2772 11.9076 14.4603 11.6144 14.98C11.4736 15.2297 11.438 15.5193 11.5141 15.7956C11.5906 16.0734 11.7709 16.3048 12.0218 16.4471L12.0426 16.4589C13.1416 17.0873 13.7585 18.3475 13.5772 19.5945C13.4639 20.373 13.4615 21.1791 13.5701 21.9583C13.7445 23.2135 13.1446 24.4321 12.0416 25.0627L12.0251 25.0721C11.771 25.2163 11.5907 25.4476 11.5141 25.7255C11.438 26.0017 11.4736 26.2913 11.6144 26.541C11.9075 27.0607 12.5684 27.2438 13.0878 26.9494C13.563 26.6777 14.0847 26.5439 14.6042 26.5439ZM21.7394 26.4953C18.628 26.4953 16.0966 23.947 16.0966 20.8147C16.4066 13.2785 27.0734 13.2807 27.3822 20.8147C27.3822 23.947 24.8508 26.4953 21.7394 26.4953ZM21.7394 17.2981C19.8133 17.2981 18.2463 18.8756 18.2463 20.8147C18.4382 25.4799 25.0414 25.4785 25.2325 20.8147C25.2325 18.8756 23.6655 17.2981 21.7394 17.2981Z" fill="#00A5CF"/>
<rect x="1.76562" y="1.53027" width="40.0308" height="39.5331" rx="11" stroke="#00A4CE" stroke-width="2"/>
</svg>
