<svg width="43" height="42" viewBox="0 0 43 42" fill="none" xmlns="http://www.w3.org/2000/svg">
<rect x="1.76562" y="1.10059" width="40.0308" height="39.5331" rx="11" stroke="#00A4CE" stroke-width="2"/>
<path d="M25.4492 27.2275L27.8992 33.5775" stroke="#00A6CE" stroke-width="1.5" stroke-miterlimit="10"/>
<path d="M28.8516 23.4668L35.4516 26.3868" stroke="#00A6CE" stroke-width="1.5" stroke-miterlimit="10"/>
<path d="M28.9609 18.5668L35.7109 15.9668" stroke="#00A6CE" stroke-width="1.5" stroke-miterlimit="10"/>
<path d="M25.6914 14.787L28.5214 8.41699" stroke="#00A6CE" stroke-width="1.5" stroke-miterlimit="10"/>
<path d="M22.2109 28.0373V13.6973C24.1125 13.6973 25.9363 14.4527 27.2809 15.7973C28.6255 17.1419 29.3809 18.9657 29.3809 20.8673C29.3809 22.7689 28.6255 24.5926 27.2809 25.9372C25.9363 27.2819 24.1125 28.0373 22.2109 28.0373Z" stroke="#00A6CE" stroke-width="1.5" stroke-miterlimit="10"/>
<path d="M10.0312 17.2871L13.6312 20.8771" stroke="#005B7A" stroke-width="1.5" stroke-miterlimit="10"/>
<path d="M10.0391 24.4467L13.6291 20.8467" stroke="#005B7A" stroke-width="1.5" stroke-miterlimit="10"/>
<path d="M16.1623 9.72754L16.1523 14.8075" stroke="#005B7A" stroke-width="1.5" stroke-miterlimit="10"/>
<path d="M11.0898 14.7773L16.1598 14.7873" stroke="#005B7A" stroke-width="1.5" stroke-miterlimit="10"/>
<path d="M11.082 26.9675L16.162 26.9375" stroke="#005B7A" stroke-width="1.5" stroke-miterlimit="10"/>
<path d="M16.1723 32.0068L16.1523 26.9268" stroke="#005B7A" stroke-width="1.5" stroke-miterlimit="10"/>
<path d="M18.6914 33.037L22.2414 29.417" stroke="#005B7A" stroke-width="1.5" stroke-miterlimit="10"/>
<path d="M18.6602 8.7168L22.2402 12.3168" stroke="#005B7A" stroke-width="1.5" stroke-miterlimit="10"/>
<path d="M22.1719 20.8672V34.4872" stroke="#005B7A" stroke-width="1.5" stroke-miterlimit="10"/>
<path d="M22.1719 20.8671V7.24707" stroke="#005B7A" stroke-width="1.5" stroke-miterlimit="10"/>
<path d="M22.1691 20.8673L12.5391 11.2373" stroke="#005B7A" stroke-width="1.5" stroke-miterlimit="10"/>
<path d="M22.1708 20.8672H8.55078" stroke="#005B7A" stroke-width="1.5" stroke-miterlimit="10"/>
<path d="M22.1691 20.8672L12.5391 30.4972" stroke="#005B7A" stroke-width="1.5" stroke-miterlimit="10"/>
</svg>
