<svg width="43" height="42" viewBox="0 0 43 42" fill="none" xmlns="http://www.w3.org/2000/svg">
<rect x="1.76562" y="1.46777" width="40.0308" height="39.5331" rx="11" stroke="#00A4CE" stroke-width="2"/>
<path d="M12.3548 34.8076C12.1499 34.8076 11.945 34.7393 11.74 34.671L10.4422 33.9196C9.82751 33.5781 9.62259 32.8267 9.96412 32.212L10.4422 31.3924C10.5106 31.324 10.5106 31.1874 10.4422 31.1191C10.1007 30.7776 9.82751 30.3678 9.62259 29.8896C9.34937 29.4798 9.21276 29.0017 9.00785 28.5919C9.00785 28.5236 8.87124 28.4552 8.80293 28.4552H7.84667C7.50514 28.4552 7.16362 28.3186 6.95871 28.1137C6.7538 27.9088 6.61719 27.5673 6.61719 27.2258V25.7231C6.61719 25.3815 6.7538 25.04 6.95871 24.8351C7.16362 24.6302 7.50514 24.4936 7.84667 24.4936H8.80293C8.87124 24.4936 8.93955 24.4253 9.00785 24.357C9.28107 23.4007 9.7592 22.5811 10.4422 21.898C10.5106 21.8297 10.5106 21.7614 10.5106 21.6248L10.0324 20.8051C9.6909 20.1904 9.89581 19.439 10.5106 19.0975L11.8083 18.3462C12.0816 18.2096 12.4231 18.1412 12.7646 18.2096C13.1061 18.2779 13.3793 18.4828 13.516 18.8243L13.9941 19.6439C14.0624 19.7123 14.1307 19.7123 14.199 19.7123C15.1553 19.5073 16.1115 19.5073 17.0678 19.7123C17.1361 19.7123 17.2727 19.7123 17.2727 19.6439L17.7508 18.8243C18.0924 18.2096 18.8437 18.0046 19.4585 18.3462L20.7562 19.0975C21.0295 19.2341 21.2344 19.5073 21.371 19.8489C21.4393 20.1904 21.4393 20.5319 21.2344 20.8051L20.6879 21.5565C20.6196 21.6248 20.6196 21.7614 20.6879 21.8297C21.0295 22.1712 21.3027 22.581 21.5759 22.9909C21.8491 23.4007 21.9857 23.8788 22.1906 24.357C22.1906 24.4253 22.3273 24.4936 22.3956 24.4936H23.3518C23.6933 24.4936 23.9666 24.6302 24.2398 24.8351C24.4447 25.04 24.5813 25.3815 24.5813 25.7231V27.2258C24.5813 27.9088 24.0349 28.4552 23.3518 28.4552H22.3956C22.259 28.4552 22.1906 28.5236 22.1906 28.5919C21.9174 29.4798 21.4393 30.3678 20.7562 31.0508C20.6879 31.1191 20.6879 31.1874 20.6879 31.324L21.1661 32.1437C21.5076 32.7584 21.3027 33.5098 20.6879 33.8513L19.3902 34.6027C18.7754 34.9442 18.0241 34.7393 17.6825 34.1245L17.2044 33.3049C17.1361 33.2366 17.0678 33.2366 16.9995 33.2366C16.0432 33.4415 15.087 33.4415 14.1307 33.2366C14.0624 33.2366 13.9258 33.2366 13.9258 33.3049L13.4477 34.1245C13.311 34.3978 13.0378 34.6027 12.6963 34.7393C12.5597 34.8076 12.4914 34.8076 12.3548 34.8076ZM8.80293 27.499C9.34937 27.499 9.82751 27.8405 9.96412 28.3186C10.1007 28.7285 10.2373 29.07 10.4422 29.4798C10.6472 29.8213 10.9204 30.2312 11.1936 30.5044C11.5351 30.9142 11.6034 31.4607 11.3302 31.9388L10.8521 32.7584C10.7838 32.8951 10.8521 33.0317 10.9204 33.0317L12.2182 33.783C12.2865 33.8513 12.3548 33.783 12.4231 33.783C12.4231 33.783 12.4914 33.7147 12.5597 33.6464L13.0378 32.8267C13.311 32.3486 13.8575 32.1437 14.4039 32.2803C15.2236 32.4169 16.0432 32.4169 16.8629 32.2803C17.4093 32.1437 17.9558 32.4169 18.229 32.8267L18.7071 33.6464C18.7754 33.783 18.912 33.783 19.0486 33.7147L20.3464 32.9634C20.483 32.8951 20.483 32.7584 20.4147 32.6901L19.9366 31.8705C19.6634 31.3924 19.7317 30.8459 20.1415 30.4361C20.6879 29.8213 21.0978 29.1383 21.371 28.3186C21.5076 27.7722 21.9857 27.4307 22.5322 27.4307H23.4884C23.625 27.4307 23.6933 27.2941 23.6933 27.2258V25.7231C23.6933 25.6548 23.625 25.5865 23.625 25.5865C23.625 25.5865 23.5567 25.5182 23.4884 25.5182H22.5322C21.9857 25.5182 21.5076 25.1766 21.371 24.6302C21.2344 24.2204 21.0978 23.8788 20.8929 23.469C20.6879 23.1275 20.4147 22.786 20.1415 22.4444C19.8 22.0346 19.7317 21.4882 20.0049 21.01L20.483 20.1904C20.5513 20.1221 20.483 20.0538 20.483 19.9855C20.483 19.9855 20.4147 19.9172 20.3464 19.8489L19.0486 19.0975C18.912 19.0292 18.7754 19.0975 18.7754 19.1658L18.2973 19.9855C18.0241 20.4636 17.4776 20.6685 16.9312 20.5319C16.1115 20.3953 15.2919 20.3953 14.4722 20.5319C13.9258 20.6685 13.3793 20.3953 13.1061 19.9172L12.628 19.0975C12.5597 19.0292 12.4914 19.0292 12.4914 18.9609C12.4914 18.9609 12.4231 18.9609 12.2865 18.9609L10.9887 19.7123C10.8521 19.7806 10.8521 19.9172 10.9204 20.0538L11.3985 20.8734C11.6717 21.3516 11.6034 21.898 11.2619 22.3078C10.7155 22.9226 10.3056 23.6739 10.0324 24.4253C9.89581 24.9717 9.41768 25.3132 8.87124 25.3132H7.91498C7.84667 25.3132 7.77836 25.3815 7.77836 25.3815C7.77836 25.3815 7.71006 25.4498 7.71006 25.5182V27.0209C7.71006 27.0892 7.77836 27.1575 7.77836 27.1575C7.77836 27.1575 7.84667 27.2258 7.91498 27.2258L8.80293 27.499Z" fill="#055B7A"/>
<path d="M24.6477 24.2881C24.4428 24.2881 24.2379 24.2198 24.033 24.1514L22.7352 23.4001C22.1205 23.0586 21.9156 22.3072 22.2571 21.6925L22.7352 20.8728C22.8035 20.8045 22.8035 20.6679 22.7352 20.5996C22.3937 20.2581 22.1205 19.8483 21.9156 19.3701C21.6423 18.9603 21.5057 18.4822 21.3008 18.0723C21.3008 18.004 21.1642 17.9357 21.0959 17.9357H20.1396C19.7981 17.9357 19.4566 17.7991 19.2517 17.5942C19.0468 17.3893 18.9102 17.0478 18.9102 16.7062V15.2035C18.9102 14.862 19.0468 14.5205 19.2517 14.3156C19.4566 14.1107 19.7981 13.9741 20.1396 13.9741H21.0959C21.1642 13.9741 21.2325 13.9057 21.3008 13.8374C21.574 12.8812 22.0522 12.0615 22.7352 11.3785C22.8035 11.3102 22.8035 11.2419 22.8035 11.1053L22.3254 10.2856C21.9839 9.67086 22.1888 8.91951 22.8035 8.57798L24.1013 7.82663C24.3745 7.69002 24.7161 7.62172 25.0576 7.69002C25.3991 7.75833 25.6723 7.96324 25.8089 8.30476L26.2871 9.12442C26.3554 9.19273 26.4237 9.19273 26.492 9.19273C27.4482 8.98781 28.4045 8.98781 29.3608 9.19273C29.4291 9.19273 29.5657 9.19273 29.5657 9.12442L30.0438 8.30476C30.3853 7.69002 31.1367 7.48511 31.7514 7.82663L33.0492 8.57798C33.3224 8.71459 33.5274 8.98781 33.664 9.32933C33.7323 9.67086 33.7323 10.0124 33.5274 10.2856L33.0492 11.1053C32.9809 11.1736 32.9809 11.3102 33.0492 11.3785C33.3907 11.72 33.664 12.1298 33.9372 12.5397C34.2104 12.9495 34.347 13.4276 34.5519 13.9057C34.5519 13.9741 34.6885 14.0424 34.7568 14.0424H35.7131C36.0546 14.0424 36.3278 14.179 36.6011 14.3839C36.806 14.5888 36.9426 14.9303 36.9426 15.2718V16.7745C36.9426 17.4576 36.3961 18.004 35.7131 18.004H34.7568C34.6202 18.004 34.5519 18.0723 34.5519 18.1406C34.2787 19.0286 33.8006 19.9166 33.1175 20.5996C33.0492 20.6679 33.0492 20.7362 33.0492 20.8728L33.5274 21.6925C33.8689 22.3072 33.664 23.0586 33.0492 23.4001L31.7514 24.1514C31.4782 24.2881 31.1367 24.3564 30.7952 24.2881C30.4536 24.2197 30.1804 24.0148 30.0438 23.6733L29.5657 22.8537C29.4974 22.7854 29.4291 22.7854 29.3608 22.7854C28.4045 22.9903 27.4482 22.9903 26.492 22.7854C26.4237 22.7854 26.2871 22.7854 26.2871 22.8537L25.8089 23.6733C25.6723 23.9465 25.3991 24.1514 25.0576 24.2881C24.8527 24.2881 24.7844 24.2881 24.6477 24.2881ZM21.0959 16.9111C21.6423 16.9111 22.1205 17.2527 22.2571 17.7308C22.3937 18.1406 22.5303 18.4822 22.7352 18.892C22.9401 19.2335 23.2133 19.6433 23.4866 19.9166C23.8281 20.3264 23.8964 20.8728 23.6232 21.351L23.145 22.1706C23.0767 22.3072 23.145 22.4438 23.2133 22.4438L24.5111 23.1952C24.5794 23.2635 24.6477 23.1952 24.7161 23.1952C24.7161 23.1952 24.7844 23.1269 24.8527 23.0586L25.3308 22.2389C25.604 21.7608 26.1505 21.5559 26.6969 21.6925C27.5165 21.8291 28.3362 21.8291 29.1559 21.6925C29.7023 21.5559 30.2487 21.8291 30.5219 22.2389L31.0001 23.0586C31.0684 23.1269 31.1367 23.1269 31.1367 23.1952C31.1367 23.1952 31.205 23.1952 31.3416 23.1952L32.6394 22.4438C32.776 22.3755 32.776 22.2389 32.7077 22.1023L32.2296 21.2826C31.9563 20.8045 32.0246 20.2581 32.4345 19.8483C32.9809 19.2335 33.3907 18.5505 33.664 17.7308C33.8006 17.1844 34.2787 16.8428 34.8251 16.8428H35.7814C35.918 16.8428 35.9863 16.7062 35.9863 16.6379V15.1352C35.9863 15.0669 35.918 14.9986 35.918 14.9986C35.918 14.9986 35.8497 14.9303 35.7814 14.9303H34.8251C34.2787 14.9303 33.8006 14.5888 33.664 14.0424C33.5274 13.6325 33.3907 13.291 33.1858 12.8812C32.9809 12.5397 32.7077 12.1981 32.4345 11.8566C32.093 11.4468 32.0246 10.9003 32.2979 10.4222L32.776 9.60255C32.8443 9.53425 32.776 9.46594 32.776 9.39764C32.776 9.39764 32.7077 9.32933 32.6394 9.26103L31.3416 8.50968C31.205 8.44138 31.0684 8.50968 31.0684 8.57798L30.5903 9.39764C30.317 9.87577 29.7706 10.0807 29.2242 9.94408C28.4045 9.80747 27.5848 9.80747 26.7652 9.94408C26.2188 10.0807 25.6723 9.80747 25.3991 9.39764L24.921 8.57798C24.8527 8.50968 24.7844 8.50968 24.7844 8.44138C24.7844 8.44138 24.716 8.44138 24.5794 8.44138L23.2817 9.19273C23.145 9.26103 23.145 9.39764 23.2133 9.53425L23.6915 10.3539C23.9647 10.832 23.8964 11.3785 23.5549 11.7883C23.0084 12.403 22.5986 13.1544 22.3254 13.9057C22.1888 14.4522 21.7106 14.7937 21.1642 14.7937H20.2079C20.1396 14.7937 20.0713 14.862 20.0713 14.862C20.0713 14.862 20.003 14.9303 20.003 14.9986V16.5013C20.003 16.5696 20.0713 16.6379 20.0713 16.6379C20.0713 16.6379 20.1396 16.7062 20.2079 16.7062L21.0959 16.9111Z" fill="#055B7A"/>
<path d="M28.0564 15.2358L14.6484 26.7773L15.3169 27.5539L28.7248 16.0123L28.0564 15.2358Z" fill="#00A7CF" stroke="white" stroke-width="2" stroke-miterlimit="10"/>
<path d="M28.7507 18.9605L27.7262 18.8239L28.0677 15.8868L24.7891 15.7502L24.8574 14.7256L29.2289 14.8622L28.7507 18.9605Z" fill="#00A7CF" stroke="white" stroke-width="2" stroke-miterlimit="10"/>
<path d="M26.3567 13.1542C26.8348 12.881 27.313 12.8127 27.7911 12.8127C28.0643 12.8127 28.3375 12.881 28.6108 12.9493C29.4304 13.1542 30.1135 13.7006 30.5233 14.452C30.9331 15.2033 31.0697 16.023 30.7965 16.8426C30.7282 17.0475 30.6599 17.2525 30.5233 17.4574L31.2746 18.2087C31.4796 17.8672 31.6845 17.5257 31.7528 17.1158C32.026 16.023 31.8894 14.9301 31.3429 13.9055C30.7965 12.881 29.9086 12.1979 28.8157 11.9247C27.7228 11.6515 26.6299 11.7881 25.6054 12.3345C25.5371 12.3345 25.5371 12.4028 25.4688 12.4028L26.3567 13.1542Z" fill="#055B7A"/>
<path d="M17.2746 29.1375C17.2063 29.1375 17.2063 29.2058 17.138 29.2058C16.3867 29.6156 15.567 29.7522 14.7474 29.479C13.9277 29.2741 13.2447 28.7277 12.8348 27.9763C12.425 27.225 12.2884 26.4053 12.5616 25.5857C12.6299 25.3124 12.7665 25.0392 12.9715 24.766L12.2201 24.0146C11.9469 24.4245 11.742 24.8343 11.6054 25.3124C11.3321 26.4053 11.4688 27.4982 12.0152 28.5228C12.5616 29.5473 13.4496 30.2304 14.5425 30.5036C14.884 30.6402 15.2938 30.6402 15.7036 30.6402C16.3867 30.6402 17.138 30.4353 17.7528 30.0938C17.8894 30.0255 17.9577 29.9572 18.0943 29.8205L17.2746 29.1375Z" fill="#055B7A"/>
<path d="M28.0564 15.2358L14.6484 26.7773L15.3169 27.5539L28.7248 16.0123L28.0564 15.2358Z" fill="#00A7CF"/>
<path d="M28.7507 18.9605L27.7262 18.8239L28.0677 15.8868L24.7891 15.7502L24.8574 14.7256L29.2289 14.8622L28.7507 18.9605Z" fill="#00A7CF"/>
</svg>
