<svg width="43" height="42" viewBox="0 0 43 42" fill="none" xmlns="http://www.w3.org/2000/svg">
<path d="M32.4955 9.84662L22.0705 6.79963L22.0491 6.79366C21.873 6.74717 21.6868 6.74717 21.5106 6.79361L21.4998 6.79648L11.0642 9.84657C10.2944 10.0557 9.75781 10.7565 9.75781 11.5552V26.4187C9.75781 28.3702 10.835 30.1297 12.5708 31.0175L19.3971 35.0298L19.4445 35.0557C20.1756 35.4247 20.9776 35.6092 21.7798 35.6092C22.5818 35.6092 23.3839 35.4247 24.115 35.0557L24.1391 35.0435L30.9887 31.0175C32.7246 30.1298 33.8018 28.3703 33.8018 26.4187V11.5552C33.8017 10.7565 33.2653 10.0558 32.4955 9.84662ZM32.1112 26.4187C32.1112 27.738 31.3796 28.9267 30.2018 29.5211L30.1777 29.5333L23.3304 33.5579C22.3573 34.0401 21.202 34.04 20.2289 33.5579L13.405 29.547L13.3575 29.5211C12.1798 28.9267 11.4483 27.7379 11.4483 26.4187V11.5552C11.4483 11.5189 11.4728 11.4871 11.5079 11.4778L21.7797 8.47583L32.03 11.4718L32.0515 11.4778C32.0866 11.4871 32.1112 11.5189 32.1112 11.5552V26.4187Z" fill="#00A5CF"/>
<path d="M21.7764 13.3564C17.7836 13.3564 14.5352 16.6049 14.5352 20.5977C14.5352 24.5906 17.7836 27.839 21.7764 27.839C25.7693 27.839 29.0177 24.5906 29.0177 20.5977C29.0177 16.6049 25.7693 13.3564 21.7764 13.3564ZM21.7764 26.1485C18.7157 26.1485 16.2257 23.6585 16.2257 20.5977C16.2257 17.537 18.7157 15.047 21.7764 15.047C24.8372 15.047 27.3272 17.537 27.3272 20.5977C27.3272 23.6585 24.8372 26.1485 21.7764 26.1485Z" fill="#274353"/>
<path d="M24.8823 18.4274C24.5653 18.0848 24.0305 18.0641 23.6879 18.3811L20.8331 21.0228L19.8999 20.0896C19.5699 19.7596 19.0347 19.7595 18.7046 20.0896C18.3745 20.4197 18.3745 20.9549 18.7046 21.285L20.2127 22.7931C20.2199 22.8003 20.2277 22.8065 20.2351 22.8134C20.2455 22.823 20.2557 22.8327 20.2664 22.8417C20.2781 22.8516 20.2901 22.8607 20.3023 22.8698C20.3133 22.8781 20.3242 22.8865 20.3356 22.8943C20.3484 22.9029 20.3614 22.9108 20.3746 22.9187C20.3858 22.9255 20.3969 22.9325 20.4084 22.9387C20.4225 22.9463 20.4369 22.953 20.4513 22.9597C20.4624 22.9649 20.4733 22.9705 20.4845 22.9752C20.5001 22.9817 20.5159 22.9871 20.5317 22.9925C20.5423 22.9963 20.5527 23.0004 20.5635 23.0036C20.5806 23.0088 20.5979 23.0128 20.6153 23.0169C20.6251 23.0192 20.6347 23.0221 20.6446 23.0241C20.664 23.028 20.6836 23.0305 20.7033 23.033C20.7112 23.034 20.7191 23.0356 20.7271 23.0364C20.7548 23.0391 20.7825 23.0406 20.8103 23.0406C20.8104 23.0406 20.8104 23.0406 20.8104 23.0406C20.8104 23.0406 20.8105 23.0406 20.8105 23.0406C20.8368 23.0406 20.8633 23.0393 20.8896 23.0368C20.8972 23.0361 20.9049 23.0346 20.9125 23.0337C20.9311 23.0314 20.9496 23.0292 20.9681 23.0257C20.9778 23.0238 20.9873 23.0212 20.9969 23.019C21.0132 23.0154 21.0294 23.0118 21.0454 23.0072C21.0561 23.0041 21.0665 23.0002 21.0771 22.9967C21.0918 22.9918 21.1065 22.9871 21.1209 22.9813C21.1321 22.9769 21.143 22.9717 21.154 22.9668C21.1675 22.9608 21.181 22.955 21.1942 22.9482C21.2056 22.9424 21.2166 22.9358 21.2278 22.9295C21.2402 22.9225 21.2526 22.9155 21.2647 22.9077C21.2759 22.9006 21.2868 22.8927 21.2977 22.885C21.3093 22.8768 21.3209 22.8686 21.3321 22.8597C21.3427 22.8514 21.3529 22.8426 21.3631 22.8337C21.3701 22.8277 21.3775 22.8222 21.3844 22.8158L24.836 19.6219C25.1786 19.3048 25.1993 18.77 24.8823 18.4274Z" fill="#00A5CF"/>
<rect x="1.76562" y="1.32324" width="40.0308" height="39.5331" rx="11" stroke="#00A4CE" stroke-width="2"/>
</svg>
