<svg width="54" height="54" viewBox="0 0 54 54" fill="none" xmlns="http://www.w3.org/2000/svg">
<path d="M41.0346 53.7643H21.0336C14.1408 53.7643 8.53304 48.1566 8.53304 41.2638V25.6379C8.53304 18.7451 14.1408 13.1373 21.0336 13.1373H41.0346C47.9274 13.1373 53.5351 18.7451 53.5351 25.6379V41.2637C53.5351 48.1566 47.9274 53.7643 41.0346 53.7643ZM21.0336 17.3042C16.4384 17.3042 12.6999 21.0426 12.6999 25.6379V41.2637C12.6999 45.8589 16.4384 49.5974 21.0336 49.5974H41.0346C45.6298 49.5974 49.3683 45.8589 49.3683 41.2637V25.6379C49.3683 21.0426 45.6298 17.3042 41.0346 17.3042H21.0336ZM36.7716 28.5548C38.2099 28.5548 39.3759 27.3888 39.3759 25.9505C39.3759 24.5122 38.2099 23.3462 36.7716 23.3462C35.3333 23.3462 34.1673 24.5122 34.1673 25.9505C34.1672 27.3888 35.3333 28.5548 36.7716 28.5548ZM4.36608 33.758V12.8248C4.36608 8.22956 8.10456 4.49108 12.6998 4.49108H32.7007C35.4289 4.49108 37.9892 5.83128 39.5494 8.07601C40.2061 9.02089 41.5045 9.25437 42.4492 8.5978C43.3941 7.94114 43.6276 6.6427 42.9709 5.69801C40.6324 2.33307 36.7931 0.324219 32.7008 0.324219H12.6999C5.80698 0.324219 0.199219 5.93198 0.199219 12.8248V33.758C0.199219 34.9087 1.13201 35.8415 2.2827 35.8415C3.43339 35.8415 4.36608 34.9087 4.36608 33.758ZM20.4667 41.034L25.5938 35.652C26.7252 34.6787 28.3785 34.638 29.5577 35.5617L32.7253 38.1525C32.7341 38.1597 32.743 38.1669 32.752 38.1739C34.2555 39.363 35.8973 39.9631 37.4955 39.9115C38.7313 39.8709 40.5807 39.4107 42.3729 37.4478C42.3887 37.4306 42.4042 37.413 42.4194 37.395L45.4404 33.8531C46.1871 32.9778 46.0827 31.6628 45.2072 30.916C44.3318 30.1692 43.0167 30.2737 42.27 31.1492L39.2735 34.6623C38.0222 36.0188 36.8462 36.0943 35.3489 34.9155L32.1806 32.3242C32.1717 32.317 32.1629 32.3098 32.154 32.3027C29.358 30.0915 25.4048 30.2168 22.7544 32.6005C22.7146 32.6364 22.6761 32.6737 22.6392 32.7125L17.4495 38.1601C16.6558 38.9932 16.6878 40.312 17.5209 41.1055C17.9242 41.4897 18.4414 41.6805 18.9576 41.6805C19.508 41.6803 20.0572 41.4639 20.4667 41.034Z" fill="#005677"/>
</svg>
