<svg width="53" height="53" viewBox="0 0 53 53" fill="none" xmlns="http://www.w3.org/2000/svg">
<path d="M42.7147 26.8708C41.5933 26.8708 40.6842 25.9617 40.6842 24.8403V12.4544C40.6842 7.97592 37.0407 4.33245 32.5622 4.33245H23.019C21.8975 4.33245 20.9884 3.42336 20.9884 2.30192C20.9884 1.18048 21.8975 0.271484 23.019 0.271484H32.5622C39.2799 0.271484 44.7451 5.73674 44.7451 12.4544V24.8404C44.7451 25.9618 43.8361 26.8708 42.7147 26.8708ZM33.5774 50.2214C33.5774 49.1 32.6684 48.1909 31.5469 48.1909H23.019C21.8975 48.1909 20.9884 49.1 20.9884 50.2214C20.9884 51.3429 21.8975 52.2519 23.019 52.2519H31.547C32.6685 52.2519 33.5774 51.3429 33.5774 50.2214ZM16.9275 50.2214V2.30202C16.9275 1.18057 16.0185 0.271484 14.897 0.271484H12.8665C6.14885 0.271484 0.683594 5.73674 0.683594 12.4544V40.069C0.683594 46.7867 6.14885 52.2519 12.8665 52.2519H14.897C16.0185 52.2519 16.9275 51.3429 16.9275 50.2214ZM12.8665 48.191C8.38803 48.191 4.74456 44.5475 4.74456 40.069V12.4544C4.74456 7.97592 8.38803 4.33245 12.8665 4.33245V48.191ZM45.2528 52.2519C43.2732 52.2519 41.4121 51.481 40.0123 50.0811L32.8945 42.9635C30.8374 40.9062 29.4487 38.311 28.8784 35.4582L27.7286 29.7054C27.5956 29.0397 27.8039 28.3516 28.2839 27.8715C28.7639 27.3915 29.4521 27.183 30.1177 27.3162L35.8705 28.466C38.7233 29.0362 41.3186 30.4249 43.3758 32.4822L50.4935 39.5998C51.8933 40.9997 52.6642 42.8609 52.6642 44.8406C52.6642 46.8201 51.8933 48.6812 50.4934 50.081C49.0935 51.4809 47.2324 52.2519 45.2528 52.2519ZM32.3075 31.8954L32.8605 34.6622C33.2731 36.726 34.2777 38.6035 35.766 40.0918L42.8838 47.2094C43.5166 47.8423 44.358 48.1909 45.2529 48.1909C46.1478 48.1909 46.9892 47.8423 47.6219 47.2096C48.2546 46.5769 48.6032 45.7355 48.6032 44.8406C48.6032 43.9457 48.2546 43.1043 47.6219 42.4716L40.504 35.3538C39.0158 33.8655 37.1383 32.8608 35.0744 32.4483L32.3075 31.8954ZM34.5928 16.0078H23.019C21.8975 16.0078 20.9884 15.0987 20.9884 13.9773C20.9884 12.8558 21.8975 11.9467 23.019 11.9467H34.5928C35.7142 11.9467 36.6233 12.8558 36.6233 13.9773C36.6233 15.0987 35.7142 16.0078 34.5928 16.0078ZM36.6232 21.084C36.6232 19.9625 35.7141 19.0534 34.5927 19.0534H23.019C21.8975 19.0534 20.9884 19.9625 20.9884 21.084C20.9884 22.2054 21.8975 23.1145 23.019 23.1145H34.5928C35.7142 23.1144 36.6232 22.2054 36.6232 21.084Z" fill="#005677"/>
</svg>
