<svg width="50" height="50" viewBox="0 0 50 50" fill="none" xmlns="http://www.w3.org/2000/svg">
<g clip-path="url(#clip0)">
<path d="M18.457 26.3145V33.3008C18.457 33.7494 18.3158 34.1641 18.0284 34.5081C17.908 34.6636 15.0525 38.4414 15.0099 45.446C14.9954 47.8257 13.0418 49.7617 10.6547 49.7617H8.07573C5.6888 49.7617 3.73502 47.8257 3.72057 45.446C3.67798 38.4414 0.822486 34.6636 0.702092 34.5081C0.414695 34.1641 0.273438 33.7494 0.273438 33.3008V25.2276C0.273438 20.5499 4.07917 16.7441 8.75694 16.7441H25.1562C26.2134 16.7441 27.0703 17.6011 27.0703 18.6582C27.0703 19.7153 26.2134 20.5723 25.1562 20.5723H8.75694C6.19 20.5723 4.10156 22.6607 4.10156 25.2276V32.6881C5.10893 34.1992 7.50658 38.5164 7.5486 45.4227C7.55032 45.6949 7.79656 45.9336 8.07573 45.9336H10.6547C10.9339 45.9336 11.1802 45.6948 11.1819 45.4226C11.2238 38.5164 13.6215 34.1992 14.6289 32.6881V26.3145C14.6289 25.2573 15.4858 24.4004 16.543 24.4004C17.6001 24.4004 18.457 25.2573 18.457 26.3145ZM2.76172 7.26953C2.76172 3.68114 5.68114 0.761719 9.26953 0.761719C12.8579 0.761719 15.7773 3.68114 15.7773 7.26953C15.7773 10.8579 12.8579 13.7773 9.26953 13.7773C5.68114 13.7773 2.76172 10.8579 2.76172 7.26953ZM6.58984 7.26953C6.58984 8.74709 7.79197 9.94922 9.26953 9.94922C10.7471 9.94922 11.9492 8.74709 11.9492 7.26953C11.9492 5.79197 10.7471 4.58984 9.26953 4.58984C7.79197 4.58984 6.58984 5.79197 6.58984 7.26953ZM37.7891 0.761719H34.7266C31.8593 0.761719 29.1137 1.82431 26.9953 3.75378C24.8917 5.66976 23.579 8.27872 23.2987 11.1C23.1943 12.1519 23.9624 13.0893 25.0143 13.1937C26.0664 13.2979 27.0037 12.53 27.1081 11.4782C27.4981 7.55119 30.7733 4.58984 34.7266 4.58984H37.7891C42.0107 4.58984 45.4453 8.02444 45.4453 12.2461V27.75C45.4453 31.9717 42.0107 35.4062 37.7891 35.4062H34.7266C30.5049 35.4062 27.0703 31.9717 27.0703 27.75V26.3145C27.0703 25.2573 26.2134 24.4004 25.1562 24.4004C24.0991 24.4004 23.2422 25.2573 23.2422 26.3145V27.75C23.2422 34.0825 28.3941 39.2344 34.7266 39.2344H37.7891C44.1215 39.2344 49.2734 34.0825 49.2734 27.75V12.2461C49.2734 5.91361 44.1215 0.761719 37.7891 0.761719ZM44.8711 45.9336H38.0762V44.0195C38.0762 42.9624 37.2192 42.1055 36.1621 42.1055C35.105 42.1055 34.248 42.9624 34.248 44.0195V45.9336H27.7402C26.6831 45.9336 25.8262 46.7905 25.8262 47.8477C25.8262 48.9048 26.6831 49.7617 27.7402 49.7617H44.8711C45.9282 49.7617 46.7852 48.9048 46.7852 47.8477C46.7852 46.7905 45.9282 45.9336 44.8711 45.9336ZM32.334 24.4004H36.3535C37.4107 24.4004 38.2676 23.5435 38.2676 22.4863C38.2676 21.4292 37.4107 20.5723 36.3535 20.5723H32.334C31.2768 20.5723 30.4199 21.4292 30.4199 22.4863C30.4199 23.5435 31.2768 24.4004 32.334 24.4004ZM32.334 16.7441H40.1816C41.2388 16.7441 42.0957 15.8872 42.0957 14.8301C42.0957 13.7729 41.2388 12.916 40.1816 12.916H32.334C31.2768 12.916 30.4199 13.7729 30.4199 14.8301C30.4199 15.8872 31.2768 16.7441 32.334 16.7441Z" fill="#005678"/>
</g>
<defs>
<clipPath id="clip0">
<rect width="49" height="49" fill="white" transform="translate(0.273438 0.761719)"/>
</clipPath>
</defs>
</svg>
