<svg width="50" height="50" viewBox="0 0 50 50" fill="none" xmlns="http://www.w3.org/2000/svg">
<path d="M1.99373 49.4998C0.927131 49.4998 0.0625 48.6352 0.0625 47.5686C0.0625 37.8784 7.94604 29.9949 17.6363 29.9949H19.5675C20.6341 29.9949 21.4987 30.8595 21.4987 31.9261C21.4987 32.9927 20.6341 33.8573 19.5675 33.8573H17.6363C10.0758 33.8573 3.92486 40.0082 3.92486 47.5687C3.92486 48.6352 3.06032 49.4998 1.99373 49.4998ZM31.9271 13.097C31.9271 5.90929 26.0795 0.0615234 18.8916 0.0615234C11.7037 0.0615234 5.85609 5.90929 5.85609 13.097C5.85609 20.2847 11.7039 26.1325 18.8916 26.1325C26.0793 26.1325 31.9271 20.2848 31.9271 13.097ZM28.0647 13.097C28.0647 18.1551 23.9496 22.2701 18.8916 22.2701C13.8335 22.2701 9.71845 18.1551 9.71845 13.097C9.71845 8.03896 13.8335 3.92389 18.8916 3.92389C23.9496 3.92389 28.0647 8.03896 28.0647 13.097ZM32.0236 38.3955C32.0236 39.7287 33.1044 40.8094 34.4376 40.8094C35.7708 40.8094 36.8516 39.7287 36.8516 38.3955C36.8516 37.0623 35.7708 35.9815 34.4376 35.9815C33.1044 35.9815 32.0236 37.0623 32.0236 38.3955ZM48.9993 32.1728C48.2823 31.3832 47.0609 31.3245 46.2714 32.0415L42.132 35.8006C41.7612 36.1372 41.5357 36.6048 41.5031 37.1046C41.3287 39.7794 40.5144 42.0341 39.0789 43.8225C35.6624 43.255 31.9369 43.4834 28.0987 44.4873C29.3965 40.3747 29.6722 36.7652 28.9373 33.5588C30.9124 32.2688 32.6333 31.8182 34.8734 31.4226L37.1272 33.6776C37.5042 34.0548 37.9986 34.2435 38.493 34.2435C38.987 34.2435 39.4811 34.0551 39.8582 33.6782C40.6126 32.9241 40.6128 31.7014 39.8588 30.9472L38.3169 29.4044L41.2547 26.6793C42.0367 25.954 42.0825 24.7321 41.3572 23.95C40.6318 23.1683 39.41 23.1223 38.628 23.8475L34.6443 27.5427C31.2881 28.1159 28.7462 28.7753 25.5361 31.2418C24.8828 31.7437 24.62 32.6049 24.8814 33.3863C26.0637 36.9178 25.4828 41.3062 23.1055 46.8019C22.796 47.5178 22.9472 48.3494 23.4891 48.9103C23.8601 49.2945 24.3643 49.4999 24.8785 49.4999C25.1153 49.4999 25.354 49.4564 25.583 49.3666C30.5064 47.4366 35.274 46.8992 39.37 47.812C40.0222 47.9574 40.703 47.7554 41.1703 47.2781C43.4838 44.9147 44.8989 41.7722 45.2887 38.151L48.8679 34.9007C49.6576 34.1836 49.7164 32.9622 48.9993 32.1728Z" fill="#005677"/>
</svg>
