<svg width="56" height="56" viewBox="0 0 56 56" fill="none" xmlns="http://www.w3.org/2000/svg">
<path d="M47.9881 55.6357C45.8984 55.6357 43.9339 54.8146 42.4562 53.3236L34.9429 45.7426C32.7713 43.5514 31.3055 40.7872 30.7035 37.7487L29.4898 31.6215C29.3493 30.9125 29.5693 30.1796 30.076 29.6682C30.5828 29.157 31.3093 28.935 32.0118 29.0767L38.0843 30.3014C41.0957 30.9087 43.8352 32.3878 46.0069 34.579L53.5204 42.1601C56.5706 45.2379 56.5706 50.2458 53.5204 53.3236C52.0423 54.8146 50.0777 55.6357 47.9881 55.6357ZM34.3232 33.954L34.907 36.901C35.3425 39.0991 36.4028 41.0988 37.974 42.6839L45.4874 50.265C46.1554 50.9391 47.0436 51.3103 47.9882 51.3103C48.9328 51.3103 49.821 50.9391 50.4889 50.2651C51.8678 48.8738 51.8678 46.61 50.4889 45.2187L42.9754 37.6376C41.4044 36.0524 39.4226 34.9823 37.244 34.543L34.3232 33.954ZM35.2351 53.473C35.2351 52.2786 34.2754 51.3103 33.0917 51.3103H25.3756C20.6482 51.3103 16.8022 47.4297 16.8022 42.6597V13.2475C16.8022 8.47746 20.6482 4.59681 25.3756 4.59681H42.9511C47.6785 4.59681 51.5245 8.47746 51.5245 13.2475V32.9277C51.5245 34.1222 52.4842 35.0904 53.6679 35.0904C54.8517 35.0904 55.8112 34.1222 55.8112 32.9277V13.2475C55.8113 6.09251 50.0423 0.271484 42.9512 0.271484H25.3757C18.2846 0.271484 12.5156 6.09251 12.5156 13.2475V42.6598C12.5156 49.8147 18.2846 55.6357 25.3757 55.6357H33.0918C34.2755 55.6357 35.2351 54.6675 35.2351 53.473ZM7.37152 46.7688C3.82593 46.7688 0.941406 43.8583 0.941406 40.2808C0.941406 36.7034 3.82593 33.7928 7.37152 33.7928C8.5553 33.7928 9.51492 34.7611 9.51492 35.9555C9.51492 37.15 8.5553 38.1182 7.37152 38.1182C6.18969 38.1182 5.22811 39.0884 5.22811 40.2809C5.22811 41.4735 6.18959 42.4436 7.37152 42.4436C8.5553 42.4436 9.51492 43.4119 9.51492 44.6064C9.51492 45.8008 8.5553 46.7688 7.37152 46.7688ZM9.51482 19.7355C9.51482 18.5411 8.5552 17.5728 7.37142 17.5728C6.18959 17.5728 5.22801 16.6027 5.22801 15.4101C5.22801 14.2176 6.18949 13.2474 7.37142 13.2474C8.5552 13.2474 9.51482 12.2791 9.51482 11.0846C9.51482 9.8902 8.5552 8.92193 7.37142 8.92193C3.82593 8.92214 0.941406 11.8327 0.941406 15.4102C0.941406 18.9877 3.82593 21.8982 7.37152 21.8982C8.5553 21.8981 9.51482 20.9299 9.51482 19.7355Z" fill="#005677"/>
</svg>
