<svg width="50" height="50" viewBox="0 0 50 50" fill="none" xmlns="http://www.w3.org/2000/svg">
<g clip-path="url(#clip0)">
<path d="M7.83984 49.7295C3.93477 49.7295 0.757812 46.5525 0.757812 42.6475V24.4639C0.757812 20.5588 3.93477 17.3818 7.83984 17.3818C11.7449 17.3818 14.9219 20.5588 14.9219 24.4639V42.6475C14.9219 46.5525 11.7449 49.7295 7.83984 49.7295ZM7.83984 21.21C6.0456 21.21 4.58594 22.6696 4.58594 24.4639V42.6475C4.58594 44.4417 6.0456 45.9014 7.83984 45.9014C9.63409 45.9014 11.0938 44.4417 11.0938 42.6475V24.4639C11.0938 22.6697 9.63409 21.21 7.83984 21.21ZM25.2578 49.7295C21.3527 49.7295 18.1758 46.5525 18.1758 42.6475V34.7998C18.1758 30.8947 21.3527 27.7178 25.2578 27.7178C29.1629 27.7178 32.3398 30.8947 32.3398 34.7998V42.6475C32.3398 46.5525 29.1629 49.7295 25.2578 49.7295ZM25.2578 31.5459C23.4636 31.5459 22.0039 33.0056 22.0039 34.7998V42.6475C22.0039 44.4417 23.4636 45.9014 25.2578 45.9014C27.0521 45.9014 28.5117 44.4417 28.5117 42.6475V34.7998C28.5117 33.0057 27.0521 31.5459 25.2578 31.5459ZM42.6758 49.7295C38.7707 49.7295 35.5938 46.5525 35.5938 42.6475V25.8994C35.5938 21.9943 38.7707 18.8174 42.6758 18.8174C46.5809 18.8174 49.7578 21.9943 49.7578 25.8994V42.6475C49.7578 46.5525 46.5809 49.7295 42.6758 49.7295ZM42.6758 22.6455C40.8815 22.6455 39.4219 24.1052 39.4219 25.8994V42.6475C39.4219 44.4417 40.8815 45.9014 42.6758 45.9014C44.47 45.9014 45.9297 44.4417 45.9297 42.6475V25.8994C45.9297 24.1053 44.47 22.6455 42.6758 22.6455ZM32.0341 21.8847L42.6266 10.7582C43.3555 9.9926 43.3257 8.781 42.5601 8.05212C41.7944 7.32315 40.5829 7.35301 39.8541 8.11863L29.2443 19.2631C29.232 19.276 29.2198 19.2891 29.2079 19.3024C28.2102 20.4111 26.5211 20.5669 25.3379 19.6687L13.1856 8.62921C13.1533 8.59993 13.1201 8.57169 13.0859 8.54461C10.5171 6.51322 6.88549 6.62825 4.45052 8.81813C4.42803 8.83842 4.40592 8.85919 4.38448 8.88043L1.32591 11.9058C0.574254 12.6492 0.56765 13.8611 1.31117 14.6127C2.0544 15.3641 3.26629 15.3708 4.01794 14.6274L7.04005 11.6381C8.06905 10.7376 9.57858 10.6862 10.6661 11.5123L22.8185 22.5518C22.8508 22.5811 22.8841 22.6093 22.9183 22.6363C24.1411 23.6034 25.6079 24.0764 27.0678 24.0763C28.8996 24.0762 30.7205 23.3316 32.0341 21.8847ZM49.7578 11.6396V6.47168C49.7578 3.30544 47.1819 0.729492 44.0156 0.729492H38.8477C37.7905 0.729492 36.9336 1.58642 36.9336 2.64355C36.9336 3.70069 37.7905 4.55762 38.8477 4.55762H44.0156C45.071 4.55762 45.9297 5.41627 45.9297 6.47168V11.6396C45.9297 12.6968 46.7866 13.5537 47.8438 13.5537C48.9009 13.5537 49.7578 12.6968 49.7578 11.6396Z" fill="#005677"/>
</g>
<defs>
<clipPath id="clip0">
<rect width="49" height="49" fill="white" transform="translate(0.757812 0.729492)"/>
</clipPath>
</defs>
</svg>
