<svg width="53" height="53" viewBox="0 0 53 53" fill="none" xmlns="http://www.w3.org/2000/svg">
<path d="M29.4984 31.492C29.4984 32.6204 28.5918 33.5352 27.4735 33.5352H14.5142C13.3958 33.5352 12.4892 32.6204 12.4892 31.492C12.4892 30.3636 13.3958 29.4488 14.5142 29.4488H27.4736C28.5919 29.4488 29.4984 30.3636 29.4984 31.492ZM14.5142 25.8733H19.2727C20.3911 25.8733 21.2977 24.9586 21.2977 23.8302C21.2977 22.7017 20.3911 21.787 19.2727 21.787H14.5142C13.3958 21.787 12.4892 22.7017 12.4892 23.8302C12.4892 24.9586 13.3958 25.8733 14.5142 25.8733ZM43.8278 12.2226C43.2896 11.2334 42.0587 10.8717 41.0784 11.4147L38.5694 12.8045L36.0356 11.4115C35.0536 10.8714 33.8239 11.2371 33.2888 12.2282C32.7537 13.219 33.1161 14.46 34.0982 14.9998L36.6869 16.4228V19.0287C36.6869 20.1571 37.5935 21.0719 38.7118 21.0719C39.8302 21.0719 40.7368 20.1571 40.7368 19.0287V16.2655L43.0275 14.9967C44.0076 14.4538 44.366 13.2118 43.8278 12.2226ZM52.1774 31.2876V44.9767C52.1774 45.0113 52.174 45.0451 52.1722 45.0792C52.1742 45.147 52.1774 45.2147 52.1774 45.2831C52.1774 49.3388 48.9073 52.6384 44.8877 52.6384C43.0331 52.6384 41.2659 51.935 39.9114 50.6578C39.0943 49.8874 39.0509 48.5945 39.8145 47.77C40.578 46.9456 41.8594 46.9019 42.6765 47.6723C43.2782 48.2396 44.0634 48.5521 44.8877 48.5521C46.6742 48.5521 48.1276 47.0857 48.1276 45.2831C48.1276 43.4806 46.6742 42.0141 44.8877 42.0141H7.62947C3.60996 42.0141 0.339844 38.7145 0.339844 34.6588V2.37718C0.339844 1.24874 1.24643 0.333984 2.36479 0.333984C3.48315 0.333984 4.38974 1.24874 4.38974 2.37718C4.38974 4.17975 5.84308 5.64618 7.62956 5.64618H19.779C20.8973 5.64618 21.8039 6.56094 21.8039 7.68938C21.8039 8.81781 20.8973 9.73257 19.779 9.73257H7.62947C6.46635 9.73257 5.36624 9.45648 4.38964 8.96535V34.6589C4.38964 36.4615 5.84299 37.9279 7.62947 37.9279H44.8877C46.0512 37.9279 47.1509 38.2058 48.1276 38.697V31.2877C48.1276 30.1593 49.0342 29.2445 50.1525 29.2445C51.2709 29.2445 52.1774 30.1592 52.1774 31.2876ZM52.1774 10.1934V20.1622C52.1774 22.364 50.9717 24.3551 49.031 25.3581L41.2163 29.4185C40.3892 29.8463 39.4831 30.0599 38.5776 30.0599C37.6681 30.0599 36.7594 29.8444 35.9312 29.4134L28.1727 25.356C26.244 24.3525 25.0435 22.3643 25.0435 20.169V10.1866C25.0435 7.98643 26.2478 5.99594 28.1865 4.99213L35.9414 0.976872C37.5874 0.124718 39.554 0.12217 41.2022 0.969818L49.0207 4.99203C50.9678 5.99369 52.1774 7.98672 52.1774 10.1934ZM48.1276 10.1934C48.1276 9.53094 47.765 8.93283 47.1814 8.63255L39.363 4.61033C39.1174 4.48405 38.8481 4.42096 38.5788 4.42096C38.308 4.42096 38.0371 4.48483 37.7905 4.61259L30.0356 8.62784C29.4544 8.92871 29.0933 9.52604 29.0933 10.1867V20.1691C29.0933 20.8282 29.4532 21.4249 30.0323 21.7261L37.7909 25.7837C38.2811 26.0387 38.8713 26.0396 39.3657 25.7838L47.1805 21.7234C47.766 21.4207 48.1274 20.8233 48.1274 20.1623V10.1934H48.1276Z" fill="#005677"/>
</svg>
