<svg width="53" height="53" viewBox="0 0 53 53" fill="none" xmlns="http://www.w3.org/2000/svg">
<path d="M52.1782 25.4694V26.7903C52.1782 27.9126 51.2765 28.8224 50.1642 28.8224C49.0519 28.8224 48.1503 27.9126 48.1503 26.7903V25.4694C48.1503 20.9874 44.5364 17.3411 40.0945 17.3411H12.7048C8.26282 17.3411 4.64899 20.9874 4.64899 25.4694V40.1005C4.64899 44.5825 8.26282 48.2288 12.7048 48.2288H26.0975C27.2098 48.2288 28.1115 49.1386 28.1115 50.2609C28.1115 51.3833 27.2098 52.293 26.0975 52.293H12.7048C6.04184 52.293 0.621094 46.8234 0.621094 40.1005V25.4694C0.621094 18.7464 6.04184 13.2769 12.7048 13.2769H40.0945C46.7574 13.2769 52.1782 18.7463 52.1782 25.4694ZM21.4655 34.5122C17.6342 34.5122 14.5173 31.3673 14.5173 27.5015C14.5173 26.3792 13.6157 25.4694 12.5034 25.4694C11.3911 25.4694 10.4894 26.3792 10.4894 27.5015C10.4894 33.6082 15.4132 38.5764 21.4655 38.5764H25.292C26.4043 38.5764 27.3059 37.6666 27.3059 36.5443C27.3059 35.422 26.4043 34.5122 25.292 34.5122H21.4655ZM18.8473 9.31429C19.9596 9.31429 20.8613 8.40452 20.8613 7.2822C20.8613 5.65744 22.1713 4.33567 23.7815 4.33567H29.0178C30.6279 4.33567 31.938 5.65744 31.938 7.2822C31.938 8.40452 32.8396 9.31429 33.9519 9.31429C35.0642 9.31429 35.9659 8.40452 35.9659 7.2822C35.9659 3.41645 32.849 0.271484 29.0178 0.271484H23.7815C19.9503 0.271484 16.8334 3.41645 16.8334 7.2822C16.8334 8.40452 17.735 9.31429 18.8473 9.31429ZM26.3996 24.047C25.0093 24.047 23.8822 25.1842 23.8822 26.5871C23.8822 27.9899 25.0093 29.1272 26.3996 29.1272C27.79 29.1272 28.9171 27.9899 28.9171 26.5871C28.9171 25.1842 27.79 24.047 26.3996 24.047ZM51.8912 46.3277C51.5136 46.9627 50.8464 47.3146 50.1623 47.3146C49.8096 47.3146 49.4524 47.2211 49.128 47.0247L47.7616 46.1975C46.6663 47.3051 45.2749 48.1129 43.7196 48.493V50.2608C43.7196 51.3832 42.8179 52.2929 41.7056 52.2929C40.5933 52.2929 39.6917 51.3832 39.6917 50.2608V48.493C38.1009 48.1043 36.6827 47.2665 35.5764 46.1199L34.0818 47.0247C33.7574 47.2211 33.4001 47.3146 33.0476 47.3146C32.3634 47.3146 31.6964 46.9627 31.3187 46.3277C30.7464 45.3654 31.0558 44.1171 32.0095 43.5398L33.5203 42.6251C33.2778 41.8261 33.1464 40.9785 33.1464 40.1005C33.1464 39.2224 33.2778 38.3748 33.5203 37.5758L32.0095 36.6612C31.0557 36.0837 30.7464 34.8355 31.3188 33.8731C31.8912 32.9107 33.1284 32.5989 34.0818 33.1761L35.5764 34.0809C36.6828 32.9343 38.1009 32.0966 39.6917 31.7078V29.94C39.6917 28.8177 40.5933 27.9079 41.7056 27.9079C42.8179 27.9079 43.7196 28.8177 43.7196 29.94V31.7078C45.275 32.0878 46.6664 32.8958 47.7617 34.0034L49.128 33.1761C50.0814 32.5987 51.3188 32.9106 51.8911 33.8731C52.4634 34.8355 52.1541 36.0837 51.2004 36.6612L49.8587 37.4734C50.1216 38.3023 50.2649 39.1847 50.2649 40.1005C50.2649 41.0162 50.1217 41.8987 49.8587 42.7276L51.2004 43.5398C52.1542 44.1171 52.4634 45.3654 51.8912 46.3277ZM46.237 40.1005C46.237 37.5794 44.2042 35.5283 41.7056 35.5283C39.207 35.5283 37.1742 37.5794 37.1742 40.1005C37.1742 42.6216 39.207 44.6727 41.7056 44.6727C44.2042 44.6727 46.237 42.6216 46.237 40.1005Z" fill="#005677"/>
</svg>
