<svg width="41" height="41" viewBox="0 0 41 41" fill="none" xmlns="http://www.w3.org/2000/svg" xmlns:xlink="http://www.w3.org/1999/xlink">
<path d="M20.5782 7.24C22.3013 7.24 23.6982 5.84313 23.6982 4.12C23.6982 2.39687 22.3013 1 20.5782 1C18.855 1 17.4582 2.39687 17.4582 4.12C17.4582 5.84313 18.855 7.24 20.5782 7.24Z" stroke="#005B7A" stroke-width="1.5" stroke-miterlimit="10"/>
<path d="M24.1237 9.50909C23.1309 10.5018 21.8546 11.0691 20.5782 11.0691C19.16 11.0691 17.8837 10.5018 17.0327 9.65092" stroke="#005B7A" stroke-width="1.5" stroke-miterlimit="10"/>
<path d="M26.3927 12.4873C23.1309 15.4655 18.0255 15.4655 14.7636 12.4873" stroke="#005B7A" stroke-width="1.5" stroke-miterlimit="10"/>
<path d="M5.12001 40C6.84313 40 8.24 38.6031 8.24 36.88C8.24 35.1569 6.84313 33.76 5.12001 33.76C3.39688 33.76 2 35.1569 2 36.88C2 38.6031 3.39688 40 5.12001 40Z" stroke="#00A6CE" stroke-width="1.5" stroke-miterlimit="10"/>
<path d="M4.55275 30.4982C5.82911 30.0727 7.24729 30.3564 8.38184 30.9236C9.51638 31.6327 10.3673 32.7673 10.7928 34.0436" stroke="#00A6CE" stroke-width="1.5" stroke-miterlimit="10"/>
<path d="M4.12727 26.8109C8.52364 25.96 12.7782 28.3709 14.1964 32.6255" stroke="#00A6CE" stroke-width="1.5" stroke-miterlimit="10"/>
<path d="M36.0364 40C37.7595 40 39.1564 38.6031 39.1564 36.88C39.1564 35.1569 37.7595 33.76 36.0364 33.76C34.3132 33.76 32.9164 35.1569 32.9164 36.88C32.9164 38.6031 34.3132 40 36.0364 40Z" stroke="#00A6CE" stroke-width="1.5" stroke-miterlimit="10"/>
<path d="M30.2218 34.0436C30.6473 32.7673 31.4982 31.6327 32.6327 30.9236C33.7673 30.2145 35.1855 30.0727 36.4618 30.4982" stroke="#00A6CE" stroke-width="1.5" stroke-miterlimit="10"/>
<path d="M26.8182 32.6255C28.2364 28.3709 32.4909 25.96 36.8873 26.8109" stroke="#00A6CE" stroke-width="1.5" stroke-miterlimit="10"/>
<path d="M12.3527 24.8255L17.8836 17.7345" stroke="#005B7A" stroke-width="1.5" stroke-miterlimit="10" stroke-dasharray="2 2"/>
<path d="M23.2727 17.7345L28.6618 24.8255" stroke="#005B7A" stroke-width="1.5" stroke-miterlimit="10" stroke-dasharray="2 2"/>
</svg>
