<svg width="41" height="41" viewBox="0 0 41 41" fill="none" xmlns="http://www.w3.org/2000/svg" xmlns:xlink="http://www.w3.org/1999/xlink">
<path d="M31.3569 7.37918C33.1184 7.37918 34.5464 5.95115 34.5464 4.18959C34.5464 2.42802 33.1184 1 31.3569 1C29.5953 1 28.1673 2.42802 28.1673 4.18959C28.1673 5.95115 29.5953 7.37918 31.3569 7.37918Z" stroke="#005B7A" stroke-width="1.5" stroke-miterlimit="10"/>
<path d="M31.7918 10.8587C30.487 11.2937 29.0372 11.0037 27.8773 10.4238C26.7175 9.69889 25.8476 8.53904 25.4127 7.23421" stroke="#005B7A" stroke-width="1.5" stroke-miterlimit="10"/>
<path d="M32.2268 14.4833C27.7323 15.3532 23.3829 12.8885 21.9331 8.53903" stroke="#005B7A" stroke-width="1.5" stroke-miterlimit="10"/>
<path d="M10.1896 40C11.9511 40 13.3792 38.572 13.3792 36.8104C13.3792 35.0488 11.9511 33.6208 10.1896 33.6208C8.42802 33.6208 7 35.0488 7 36.8104C7 38.572 8.42802 40 10.1896 40Z" stroke="#00A6CE" stroke-width="1.5" stroke-miterlimit="10"/>
<path d="M9.75464 30.2862C11.0595 29.8513 12.5093 30.1413 13.6691 30.7212C14.829 31.4461 15.6989 32.6059 16.1338 33.9108" stroke="#00A6CE" stroke-width="1.5" stroke-miterlimit="10"/>
<path d="M9.3197 26.5167C13.8141 25.6468 18.1636 28.1115 19.6134 32.461" stroke="#00A6CE" stroke-width="1.5" stroke-miterlimit="10"/>
<path d="M18.5985 24.342L24.2528 17.0929" stroke="#005B7A" stroke-width="1.5" stroke-miterlimit="10" stroke-dasharray="2 2"/>
</svg>
