<svg width="47" height="48" viewBox="0 0 47 48" fill="none" xmlns="http://www.w3.org/2000/svg">
<path d="M44.6786 22.0717H1.80518C-0.602635 21.9824 -0.600819 18.5269 1.80518 18.4384H44.6786C47.0865 18.5278 47.0846 21.9833 44.6786 22.0717ZM46.4953 27.5217C46.4953 26.5184 45.682 25.7051 44.6786 25.7051H1.80518C-0.602635 25.7944 -0.600819 29.2499 1.80518 29.3384H44.6786C45.682 29.3384 46.4953 28.5251 46.4953 27.5217ZM23.2855 15.256C21.7736 15.256 20.2623 14.6806 19.1117 13.53L16.2318 10.6367C15.5241 9.92555 15.5267 8.77532 16.2378 8.06745C16.9491 7.35968 18.0993 7.3624 18.8071 8.07345L21.6839 10.9638C22.5659 11.846 24.0065 11.8461 24.8919 10.9612L27.7681 8.07318C29.5304 6.43018 31.9776 8.86979 30.3426 10.637L27.4634 13.5281C26.3107 14.6801 24.7978 15.256 23.2855 15.256ZM25.1494 6.72085V2.45167C25.0601 0.0438489 21.6045 0.0456654 21.5161 2.45167V6.72085C21.5161 7.72419 22.3294 8.53752 23.3327 8.53752C24.3361 8.53752 25.1494 7.72419 25.1494 6.72085ZM30.3369 39.7094C31.0481 39.0017 31.0507 37.8513 30.3429 37.1402L27.463 34.2469C25.1617 31.9455 21.4164 31.9449 19.1113 34.2488L16.2322 37.1398C14.5965 38.909 17.0462 41.3461 18.8067 39.7037L21.6828 36.8157C22.5683 35.9307 24.0088 35.931 24.8908 36.8131L27.7677 39.7034C28.1228 40.0601 28.5889 40.2385 29.0554 40.2385C29.5188 40.2384 29.9824 40.0621 30.3369 39.7094ZM25.0586 45.3251V41.056C24.9693 38.6481 21.5137 38.6499 21.4252 41.056V45.3251C21.4252 46.3285 22.2386 47.1418 23.2419 47.1418C24.2453 47.1418 25.0586 46.3285 25.0586 45.3251Z" fill="#FF5406"/>
</svg>
