<svg width="47" height="48" viewBox="0 0 47 48" fill="none" xmlns="http://www.w3.org/2000/svg">
<path d="M46.4945 34.5419C46.5814 40.7252 39.5346 44.7442 34.2775 41.5631L29.2536 46.587C28.8989 46.9416 28.4342 47.119 27.9693 47.119C26.3812 47.1361 25.5383 45.1477 26.6851 44.0186L31.626 39.0776C27.9867 33.8154 31.9222 26.3523 38.3671 26.4145C39.3701 26.4144 40.1832 27.2275 40.1832 28.2306C40.1832 29.2337 39.3701 30.0468 38.367 30.0468C32.4122 30.2724 32.4133 38.8119 38.3671 39.0369C40.8457 39.0369 42.8621 37.0204 42.8621 34.5419C42.9499 32.1359 46.4064 32.1359 46.4945 34.5419ZM5.44857 12.9292C5.44857 6.16944 10.9481 0.669922 17.7079 0.669922C33.9491 1.28625 33.9447 24.5747 17.7077 25.1885C10.9481 25.1885 5.44857 19.689 5.44857 12.9292ZM9.08095 12.9292C9.08095 17.6861 12.951 21.5561 17.7079 21.5561C29.1369 21.1224 29.1338 4.73428 17.7078 4.3023C12.951 4.3023 9.08095 8.17224 9.08095 12.9292ZM26.5982 30.4944C24.3031 29.3537 21.8312 28.7755 19.2516 28.7755H16.5273C7.41414 28.7755 0 36.1896 0 45.3028C0 46.3059 0.813108 47.119 1.81619 47.119C2.81927 47.119 3.63238 46.3059 3.63238 45.3028C3.63238 38.1925 9.41704 32.4078 16.5273 32.4078C19.5235 32.3617 22.2481 32.3201 24.9816 33.7473C27.1688 34.7395 28.7174 31.6478 26.5982 30.4944ZM26.7888 38.1288C26.8105 36.7144 25.1655 35.8211 23.9962 36.5975C20.7467 38.5821 15.2868 38.6181 11.9683 36.6C10.7845 35.8061 9.15005 36.7048 9.17185 38.1289V45.3029C9.17185 46.306 9.98496 47.1191 10.988 47.1191C11.9911 47.1191 12.8042 46.306 12.8042 45.3029V40.919C17.865 42.7646 23.7027 41.1712 25.9573 39.655L25.9567 39.654C26.4569 39.3305 26.7888 38.7689 26.7888 38.1288Z" fill="#FF5406"/>
</svg>
