<svg width="47" height="48" viewBox="0 0 47 48" fill="none" xmlns="http://www.w3.org/2000/svg">
<path d="M41.0465 0.646484H5.44864C2.44426 0.646484 0 3.09075 0 6.09513V27.8897C0 30.8941 2.44426 33.3383 5.44864 33.3383H21.4313V37.0885L11.3428 43.8142C10.5083 44.3706 10.2827 45.4982 10.8391 46.3328C11.3954 47.1674 12.523 47.3929 13.3577 46.8365L21.4313 41.4541V45.3254C21.4313 46.3285 22.2445 47.1416 23.2475 47.1416C24.2506 47.1416 25.0638 46.3285 25.0638 45.3254V41.4541L33.1374 46.8365C33.969 47.3909 35.0975 47.1705 35.656 46.3328C36.2124 45.4982 35.9869 44.3706 35.1523 43.8142L25.0638 37.0885V33.3383H41.0465C44.0508 33.3383 46.4951 30.8941 46.4951 27.8897V6.09513C46.4951 3.09075 44.0508 0.646484 41.0465 0.646484ZM42.8627 27.8897C42.8627 28.8912 42.0479 29.7059 41.0465 29.7059H5.44864C4.44718 29.7059 3.63243 28.8912 3.63243 27.8897V6.09513C3.63243 5.09367 4.44718 4.27891 5.44864 4.27891H41.0465C42.0479 4.27891 42.8627 5.09367 42.8627 6.09513V27.8897Z" fill="#FF5406"/>
<path d="M37.9943 9.50793C37.9715 9.48513 37.947 9.46515 37.9234 9.44381C36.9426 8.49666 35.6094 7.91211 34.1416 7.91211H30.5092C29.5061 7.91211 28.6929 8.72523 28.6929 9.72832C28.6929 10.7314 29.5061 11.5445 30.5092 11.5445H33.3893L24.5286 20.4053C24.1856 20.7483 23.7295 20.9373 23.2444 20.9373C22.7593 20.9373 22.3031 20.7484 21.9601 20.4053L19.8323 18.2774C18.8032 17.2484 17.435 16.6816 15.9795 16.6816C14.5242 16.6816 13.1559 17.2484 12.1268 18.2774C12.1096 18.2947 12.0927 18.3122 12.0762 18.3301L7.74309 23.0265C7.06291 23.7637 7.10914 24.9127 7.84634 25.5929C8.58508 26.2745 9.73402 26.2253 10.4128 25.4896L14.717 20.8246C15.0574 20.495 15.5046 20.3139 15.9795 20.3139C16.4646 20.3139 16.9208 20.5028 17.2638 20.8459L19.3916 22.9738C20.4208 24.0029 21.7891 24.5696 23.2444 24.5696C24.6998 24.5696 26.0681 24.0029 27.0971 22.9738L35.9579 14.113V16.9932C35.9579 17.9963 36.771 18.8094 37.7741 18.8094C38.7772 18.8094 39.5903 17.9963 39.5903 16.9932V13.3608C39.5903 11.8929 39.0058 10.5597 38.0586 9.57894C38.0372 9.55524 38.0172 9.53081 37.9943 9.50793Z" fill="#FF5406"/>
</svg>
