<svg width="42" height="48" viewBox="0 0 42 48" fill="none" xmlns="http://www.w3.org/2000/svg">
<path d="M20.852 47.1418C17.8658 47.1418 15.4363 44.6961 15.4363 41.6899V41.6444C15.4363 40.9973 15.0465 40.425 14.4431 40.1865C12.7906 39.5333 11.2502 38.6303 9.86439 37.5025C9.35388 37.0871 8.66275 37.0248 8.10377 37.3444C8.10197 37.3454 8.09502 37.3494 8.09321 37.3504C5.49254 38.8258 2.17881 37.9026 0.706757 35.2926C-0.00702133 34.0272 -0.187452 32.5583 0.198772 31.1566C0.585808 29.7522 1.49473 28.5841 2.75819 27.8673L2.78067 27.8545C3.32927 27.5408 3.64049 26.918 3.55528 26.3046C3.32557 24.6548 3.33053 22.9529 3.57054 21.3046C3.66116 20.681 3.34425 20.0461 2.78193 19.7246L2.75242 19.7077C1.49473 18.9943 0.585808 17.8263 0.198772 16.4218C-0.187452 15.0201 -0.00702133 13.5513 0.706757 12.2858C2.1789 9.67575 5.49263 8.75291 8.09321 10.228L8.20179 10.2901C8.75671 10.6074 9.44703 10.5462 9.9607 10.1342C11.3198 9.04414 12.8256 8.16828 14.4364 7.53085C15.0438 7.29042 15.4362 6.71715 15.4362 6.07027C15.7339 -1.16313 25.9714 -1.15976 26.2675 6.07027V6.1068C26.2675 6.75013 26.6569 7.32222 27.2596 7.56438C28.8528 8.20435 30.342 9.07803 31.6858 10.1611C32.2006 10.576 32.8919 10.6389 33.447 10.3216L33.6052 10.2311C36.2114 8.75291 39.5249 9.67593 40.9971 12.2859C41.7108 13.5513 41.8913 15.0201 41.5051 16.4218C41.118 17.8263 40.2091 18.9943 38.9455 19.711L38.8218 19.7818C38.2705 20.097 37.959 20.7197 38.047 21.3313C38.2808 22.9551 38.2866 24.6311 38.0651 26.2566C37.9815 26.8712 38.2927 27.494 38.8393 27.8065L38.9483 27.8689C40.2104 28.5857 41.1183 29.7532 41.5051 31.1565C42.8018 35.796 37.7697 39.7235 33.6106 37.3504L33.5477 37.3145C32.987 36.9939 32.2921 37.0591 31.7767 37.4801C30.4074 38.5989 28.8855 39.4981 27.2533 40.153C26.6545 40.3932 26.2676 40.9643 26.2676 41.6078V41.6899C26.2676 44.6961 23.8381 47.1418 20.852 47.1418ZM8.86801 33.5027C10.0271 33.5027 11.1796 33.8991 12.1341 34.6758C13.233 35.5701 14.4538 36.2859 15.7627 36.8034C17.7577 37.592 19.0468 39.4922 19.0468 41.6444V41.6899C19.1462 44.1014 22.5586 44.0996 22.6572 41.6899V41.6078C22.6572 39.4674 23.9366 37.571 25.9166 36.7766C27.2096 36.2578 28.4158 35.545 29.5016 34.6579C31.1797 33.2868 33.4675 33.0888 35.3301 34.1536L35.3877 34.1865C36.2553 34.6786 37.3653 34.371 37.8575 33.4979C38.094 33.0786 38.1539 32.5922 38.026 32.1282C37.8974 31.6616 37.5946 31.273 37.1733 31.034C37.1714 31.033 37.1697 31.032 37.1678 31.0309L37.0563 30.9671C35.2097 29.9114 34.2015 27.8688 34.4881 25.7635C34.6638 24.4739 34.6594 23.1402 34.4738 21.852C34.1747 19.7717 35.2054 17.6697 37.0388 16.6215L37.168 16.5477C37.5947 16.3056 37.8975 15.9171 38.0261 15.4504C38.154 14.9864 38.0941 14.5 37.8576 14.0808C37.3653 13.2077 36.2551 12.9003 35.383 13.3948L35.2301 13.4823C33.3817 14.5389 31.1052 14.349 29.4296 12.9986C28.3641 12.1399 27.1839 11.4474 25.9218 10.9403C23.9387 10.1437 22.6573 8.24651 22.6573 6.10698V6.07036C22.5581 3.65968 19.1459 3.65978 19.0468 6.07036C19.0468 8.22171 17.7557 10.1228 15.7576 10.9135C14.4816 11.4185 13.2883 12.1128 12.2106 12.977C10.537 14.3194 8.2638 14.5054 6.41933 13.4509L6.31608 13.3919C5.44885 12.9 4.33892 13.2076 3.84646 14.0806C3.60998 14.4999 3.55014 14.9863 3.67795 15.4503C3.80657 15.9169 4.10939 16.3055 4.53073 16.5445L4.56566 16.5644C6.41157 17.6198 7.44767 19.7364 7.14313 21.8308C6.95277 23.1384 6.9488 24.4922 7.13113 25.8009C7.42411 27.9091 6.41653 29.9558 4.56403 31.0149L4.53623 31.0307C4.10948 31.2729 3.80666 31.6614 3.67804 32.1281C3.55014 32.5921 3.60998 33.0785 3.84646 33.4977C4.33874 34.3706 5.44876 34.6783 6.32113 34.1837C7.11921 33.7275 7.99546 33.5027 8.86801 33.5027ZM20.852 33.4211C15.6262 33.4211 11.3746 29.141 11.3746 23.8801C11.8952 11.2227 29.8107 11.2265 30.3293 23.8802C30.3293 29.141 26.0778 33.4211 20.852 33.4211ZM20.852 17.9738C17.6169 17.9738 14.985 20.6234 14.985 23.8801C15.3074 31.7156 26.3978 31.7133 26.7189 23.8801C26.7189 20.6233 24.087 17.9738 20.852 17.9738Z" fill="#FF5406"/>
</svg>
