<svg width="47" height="48" viewBox="0 0 47 48" fill="none" xmlns="http://www.w3.org/2000/svg">
<path d="M41.0465 0.541016H5.44864C2.44426 0.541016 0 2.98528 0 5.98966V27.7842C0 30.7886 2.44426 33.2329 5.44864 33.2329H21.4313V36.983L11.3428 43.7087C10.5083 44.2651 10.2827 45.3927 10.8391 46.2274C11.3954 47.0619 12.523 47.2875 13.3577 46.7311L21.4313 41.3486V45.2199C21.4313 46.223 22.2445 47.0361 23.2475 47.0361C24.2506 47.0361 25.0638 46.223 25.0638 45.2199V41.3486L33.1374 46.7311C33.969 47.2854 35.0975 47.065 35.656 46.2274C36.2124 45.3927 35.9869 44.2651 35.1523 43.7087L25.0638 36.983V33.2329H41.0465C44.0508 33.2329 46.4951 30.7886 46.4951 27.7842V5.98966C46.4951 2.98528 44.0508 0.541016 41.0465 0.541016ZM42.8627 27.7842C42.8627 28.7857 42.0479 29.6005 41.0465 29.6005H5.44864C4.44718 29.6005 3.63243 28.7857 3.63243 27.7842V5.98966C3.63243 4.9882 4.44718 4.17345 5.44864 4.17345H41.0465C42.0479 4.17345 42.8627 4.9882 42.8627 5.98966V27.7842Z" fill="#FF5406"/>
<path d="M37.9943 9.40246C37.9715 9.37966 37.947 9.35969 37.9234 9.33835C36.9426 8.39119 35.6094 7.80664 34.1416 7.80664H30.5092C29.5061 7.80664 28.6929 8.61976 28.6929 9.62286C28.6929 10.626 29.5061 11.4391 30.5092 11.4391H33.3893L24.5286 20.2998C24.1856 20.6428 23.7295 20.8318 23.2444 20.8318C22.7593 20.8318 22.3031 20.6429 21.9601 20.2998L19.8323 18.172C18.8032 17.1429 17.435 16.5761 15.9795 16.5761C14.5242 16.5761 13.1559 17.1429 12.1268 18.172C12.1096 18.1892 12.0927 18.2067 12.0762 18.2246L7.74309 22.921C7.06291 23.6582 7.10914 24.8072 7.84634 25.4874C8.58508 26.169 9.73402 26.1198 10.4128 25.3841L14.717 20.7191C15.0574 20.3896 15.5046 20.2085 15.9795 20.2085C16.4646 20.2085 16.9208 20.3974 17.2638 20.7405L19.3916 22.8683C20.4208 23.8974 21.7891 24.4641 23.2444 24.4641C24.6998 24.4641 26.0681 23.8974 27.0971 22.8683L35.9579 14.0076V16.8877C35.9579 17.8908 36.771 18.7039 37.7741 18.7039C38.7772 18.7039 39.5903 17.8908 39.5903 16.8877V13.2553C39.5903 11.7874 39.0058 10.4542 38.0586 9.47347C38.0372 9.44977 38.0172 9.42534 37.9943 9.40246Z" fill="#FF5406"/>
</svg>
