<svg width="58" height="54" viewBox="0 0 58 54" fill="none" xmlns="http://www.w3.org/2000/svg">
<path d="M24.1133 44.6381C24.1133 46.6634 25.6323 48.1824 27.6576 48.1824C29.6829 48.1824 31.202 46.6634 31.202 44.6381C31.202 42.6127 29.6829 41.0938 27.6576 41.0938C25.801 41.0938 24.1133 42.6127 24.1133 44.6381Z" stroke="#FF5406" stroke-width="3" stroke-miterlimit="10" stroke-linecap="round"/>
<path d="M27.6523 41.0937V36.8743L30.5216 34.1738" stroke="#FF5406" stroke-width="3" stroke-miterlimit="10" stroke-linecap="round" stroke-linejoin="round"/>
<path d="M3.01172 42.6117C3.01172 44.6371 4.53071 46.1561 6.55605 46.1561C8.58138 46.1561 10.1004 44.6371 10.1004 42.6117C10.1004 40.5864 8.58138 39.0674 6.55605 39.0674C4.53071 39.0674 3.01172 40.5864 3.01172 42.6117Z" stroke="#FF5406" stroke-width="3" stroke-miterlimit="10" stroke-linecap="round"/>
<path d="M36.7695 48.351C36.7695 50.3763 38.2885 51.8953 40.3139 51.8953C42.3392 51.8953 43.8582 50.3763 43.8582 48.351C43.8582 46.3256 42.3392 44.8066 40.3139 44.8066C38.4573 44.8066 36.7695 46.3256 36.7695 48.351Z" stroke="#FF5406" stroke-width="3" stroke-miterlimit="10" stroke-linecap="round"/>
<path d="M36.5977 34.1738V37.0431L40.3108 40.7562V44.8069" stroke="#FF5406" stroke-width="3" stroke-miterlimit="10" stroke-linecap="round" stroke-linejoin="round"/>
<path d="M20.3973 48.013C20.3973 50.0384 18.8783 51.5574 16.8529 51.5574C14.8276 51.5574 13.3086 50.0384 13.3086 48.013C13.3086 45.9877 14.8276 44.4687 16.8529 44.4687C18.7095 44.2999 20.3973 45.9877 20.3973 48.013Z" stroke="#FF5406" stroke-width="3" stroke-miterlimit="10" stroke-linecap="round"/>
<path d="M20.5647 34.1738V36.5367L16.8516 40.2499V44.3005" stroke="#FF5406" stroke-width="3" stroke-miterlimit="10" stroke-linecap="round" stroke-linejoin="round"/>
<path d="M8.92188 40.0811L12.635 36.368V34.1738" stroke="#FF5406" stroke-width="3" stroke-miterlimit="10" stroke-linecap="round" stroke-linejoin="round"/>
<path d="M47.2305 43.2875C47.2305 45.3128 48.7495 46.8318 50.7748 46.8318C52.8002 46.8318 54.3192 45.3128 54.3192 43.2875C54.3192 41.2622 52.8002 39.7432 50.7748 39.7432C48.9183 39.7432 47.2305 41.4309 47.2305 43.2875Z" stroke="#FF5406" stroke-width="3" stroke-miterlimit="10" stroke-linecap="round"/>
<path d="M44.6992 34.1738V37.0431L48.4124 40.7562" stroke="#FF5406" stroke-width="3" stroke-miterlimit="10" stroke-linecap="round" stroke-linejoin="round"/>
<path d="M48.2452 17.9712C48.0764 17.9712 47.7389 17.9712 47.5701 17.9712C47.7389 16.9586 47.9077 15.9459 47.9077 14.7645C47.9077 7.50701 42.0004 1.76855 34.9117 1.76855C31.3674 1.76855 28.3294 3.11877 25.9665 5.31288C24.6163 4.80655 23.2661 4.46899 21.5783 4.46899C15.5023 4.46899 10.6077 9.36356 10.6077 15.4396C5.88191 15.7771 2 19.8278 2 24.7224C2 29.9545 6.21946 34.0052 11.2828 34.0052H48.0764C52.6334 34.0052 56.1778 30.2921 56.1778 25.9038C56.3466 21.5156 52.6335 17.9712 48.2452 17.9712Z" stroke="#FF5406" stroke-width="3" stroke-miterlimit="10" stroke-linecap="round" stroke-linejoin="round"/>
<path d="M20.058 19.9961C17.8639 16.6205 13.6444 14.7639 9.59375 15.6078" stroke="#FF5406" stroke-width="3" stroke-miterlimit="10" stroke-linecap="round" stroke-linejoin="round"/>
<path d="M47.7428 12.5703C48.5866 16.2834 47.0676 19.9966 44.3672 22.3595" stroke="#FF5406" stroke-width="3" stroke-miterlimit="10" stroke-linecap="round" stroke-linejoin="round"/>
</svg>
