<svg width="42" height="48" viewBox="0 0 42 48" fill="none" xmlns="http://www.w3.org/2000/svg">
<path d="M20.852 47.0364C17.8658 47.0364 15.4363 44.5906 15.4363 41.5844V41.5389C15.4363 40.8918 15.0465 40.3195 14.4431 40.081C12.7906 39.4279 11.2502 38.5249 9.86439 37.397C9.35388 36.9816 8.66275 36.9193 8.10377 37.2389C8.10197 37.2399 8.09502 37.2439 8.09321 37.2449C5.49254 38.7203 2.17881 37.7971 0.706757 35.1872C-0.00702133 33.9218 -0.187452 32.4528 0.198772 31.0511C0.585808 29.6467 1.49473 28.4786 2.75819 27.7619L2.78067 27.749C3.32927 27.4354 3.64049 26.8126 3.55528 26.1991C3.32557 24.5493 3.33053 22.8475 3.57054 21.1991C3.66116 20.5755 3.34425 19.9406 2.78193 19.6192L2.75242 19.6023C1.49473 18.8889 0.585808 17.7208 0.198772 16.3164C-0.187452 14.9147 -0.00702133 13.4458 0.706757 12.1803C2.1789 9.57028 5.49263 8.64744 8.09321 10.1226L8.20179 10.1846C8.75671 10.5019 9.44703 10.4407 9.9607 10.0287C11.3198 8.93867 12.8256 8.06281 14.4364 7.42538C15.0438 7.18495 15.4362 6.61168 15.4362 5.9648C15.7339 -1.26859 25.9714 -1.26523 26.2675 5.9648V6.00133C26.2675 6.64466 26.6569 7.21676 27.2596 7.45891C28.8528 8.09888 30.342 8.97256 31.6858 10.0556C32.2006 10.4705 32.8919 10.5335 33.447 10.2162L33.6052 10.1257C36.2114 8.64744 39.5249 9.57046 40.9971 12.1804C41.7108 13.4458 41.8913 14.9147 41.5051 16.3164C41.118 17.7208 40.2091 18.8889 38.9455 19.6055L38.8218 19.6763C38.2705 19.9915 37.959 20.6142 38.047 21.2259C38.2808 22.8496 38.2866 24.5257 38.0651 26.1512C37.9815 26.7657 38.2927 27.3885 38.8393 27.7011L38.9483 27.7634C40.2104 28.4802 41.1183 29.6477 41.5051 31.051C42.8018 35.6906 37.7697 39.6181 33.6106 37.2449L33.5477 37.209C32.987 36.8884 32.2921 36.9536 31.7767 37.3747C30.4074 38.4934 28.8855 39.3926 27.2533 40.0475C26.6545 40.2877 26.2676 40.8588 26.2676 41.5024V41.5844C26.2676 44.5906 23.8381 47.0364 20.852 47.0364ZM8.86801 33.3973C10.0271 33.3973 11.1796 33.7936 12.1341 34.5704C13.233 35.4647 14.4538 36.1804 15.7627 36.6979C17.7577 37.4865 19.0468 39.3867 19.0468 41.5389V41.5844C19.1462 43.9959 22.5586 43.9941 22.6572 41.5844V41.5024C22.6572 39.3619 23.9366 37.4655 25.9166 36.6711C27.2096 36.1523 28.4158 35.4395 29.5016 34.5525C31.1797 33.1813 33.4675 32.9833 35.3301 34.0482L35.3877 34.081C36.2553 34.5731 37.3653 34.2655 37.8575 33.3925C38.094 32.9731 38.1539 32.4867 38.026 32.0227C37.8974 31.5562 37.5946 31.1675 37.1733 30.9285C37.1714 30.9275 37.1697 30.9265 37.1678 30.9254L37.0563 30.8617C35.2097 29.8059 34.2015 27.7633 34.4881 25.658C34.6638 24.3685 34.6594 23.0347 34.4738 21.7465C34.1747 19.6662 35.2054 17.5642 37.0388 16.516L37.168 16.4422C37.5947 16.2001 37.8975 15.8116 38.0261 15.3449C38.154 14.8809 38.0941 14.3945 37.8576 13.9753C37.3653 13.1022 36.2551 12.7948 35.383 13.2893L35.2301 13.3768C33.3817 14.4334 31.1052 14.2435 29.4296 12.8932C28.3641 12.0344 27.1839 11.3419 25.9218 10.8349C23.9387 10.0382 22.6573 8.14105 22.6573 6.00151V5.96489C22.5581 3.55422 19.1459 3.55431 19.0468 5.96489C19.0468 8.11624 17.7557 10.0173 15.7576 10.8081C14.4816 11.313 13.2883 12.0073 12.2106 12.8715C10.537 14.2139 8.2638 14.3999 6.41933 13.3454L6.31608 13.2864C5.44885 12.7946 4.33892 13.1022 3.84646 13.9751C3.60998 14.3945 3.55014 14.8809 3.67795 15.3448C3.80657 15.8114 4.10939 16.2001 4.53073 16.439L4.56566 16.4589C6.41157 17.5143 7.44767 19.6309 7.14313 21.7253C6.95277 23.0329 6.9488 24.3867 7.13113 25.6955C7.42411 27.8037 6.41653 29.8503 4.56403 30.9095L4.53623 30.9253C4.10948 31.1674 3.80666 31.556 3.67804 32.0227C3.55014 32.4866 3.60998 32.973 3.84646 33.3923C4.33874 34.2651 5.44876 34.5728 6.32113 34.0782C7.11921 33.622 7.99546 33.3973 8.86801 33.3973ZM20.852 33.3156C15.6262 33.3156 11.3746 29.0355 11.3746 23.7747C11.8952 11.1173 29.8107 11.121 30.3293 23.7747C30.3293 29.0355 26.0778 33.3156 20.852 33.3156ZM20.852 17.8684C17.6169 17.8684 14.985 20.5179 14.985 23.7747C15.3074 31.6101 26.3978 31.6079 26.7189 23.7747C26.7189 20.5178 24.087 17.8684 20.852 17.8684Z" fill="#FF5406"/>
</svg>
