<svg width="52" height="54" viewBox="0 0 52 54" fill="none" xmlns="http://www.w3.org/2000/svg">
<path d="M25.9375 35.6741V28.9922" stroke="#FF5406" stroke-width="2" stroke-miterlimit="10" stroke-linecap="round" stroke-linejoin="round"/>
<path d="M1 26.0586H7.51898" stroke="#FF5406" stroke-width="2" stroke-miterlimit="10" stroke-linecap="round" stroke-linejoin="round"/>
<path d="M12.7344 26.2207H23.1648" stroke="#FF5406" stroke-width="2" stroke-miterlimit="10" stroke-linecap="round" stroke-linejoin="round"/>
<path d="M28.707 26.2207H38.9744" stroke="#FF5406" stroke-width="2" stroke-miterlimit="10" stroke-linecap="round" stroke-linejoin="round"/>
<path d="M44.5117 26.0586H50.0528" stroke="#FF5406" stroke-width="2" stroke-miterlimit="10" stroke-linecap="round" stroke-linejoin="round"/>
<path d="M28.7091 26.2237C28.7091 24.7569 27.4053 23.4531 25.9385 23.4531C24.4718 23.4531 23.168 24.7569 23.168 26.2237C23.168 27.6905 24.4718 28.9943 25.9385 28.9943C27.4053 28.9943 28.7091 27.6905 28.7091 26.2237Z" stroke="#FF5406" stroke-width="2" stroke-miterlimit="10" stroke-linecap="round" stroke-linejoin="round"/>
<path d="M34.0889 48.8748H17.6285C17.3025 48.8748 16.9766 48.5488 16.9766 48.2229V36.3257C16.9766 35.9998 17.3025 35.6738 17.6285 35.6738H34.0889C34.4148 35.6738 34.7408 35.9998 34.7408 36.3257V48.2229C34.9038 48.5488 34.5778 48.8748 34.0889 48.8748Z" stroke="#FF5406" stroke-width="2" stroke-miterlimit="10" stroke-linecap="round" stroke-linejoin="round"/>
<path d="M20.7227 52.2832H30.99" stroke="#FF5406" stroke-width="2" stroke-miterlimit="10" stroke-linecap="round" stroke-linejoin="round"/>
<path d="M9.96484 23.2877L9.96484 14.8125" stroke="#FF5406" stroke-width="2" stroke-miterlimit="10" stroke-linecap="round" stroke-linejoin="round"/>
<path d="M41.9102 23.2881L41.9102 14.8125" stroke="#FF5406" stroke-width="2" stroke-miterlimit="10" stroke-linecap="round" stroke-linejoin="round"/>
<path d="M12.7325 26.0577C12.7325 24.5909 11.4287 23.2871 9.96197 23.2871C8.4952 23.2871 7.19141 24.5909 7.19141 26.0577C7.19141 27.5244 8.4952 28.8282 9.96197 28.8282C11.5917 28.8282 12.7325 27.6874 12.7325 26.0577Z" stroke="#FF5406" stroke-width="2" stroke-miterlimit="10" stroke-linecap="round" stroke-linejoin="round"/>
<path d="M18.2803 14.8142H1.81986C1.49391 14.8142 1.16797 14.4883 1.16797 14.1623V2.26517C1.16797 1.93922 1.49391 1.61328 1.81986 1.61328H18.2803C18.6062 1.61328 18.9322 1.93922 18.9322 2.26517V14.1623C19.0952 14.6512 18.7692 14.8142 18.2803 14.8142Z" stroke="#FF5406" stroke-width="2" stroke-miterlimit="10" stroke-linecap="round" stroke-linejoin="round"/>
<path d="M5.07812 18.3828H15.1825" stroke="#FF5406" stroke-width="2" stroke-miterlimit="10" stroke-linecap="round" stroke-linejoin="round"/>
<path d="M44.5177 26.0577C44.5177 24.5909 43.2139 23.2871 41.7471 23.2871C40.2804 23.2871 38.9766 24.5909 38.9766 26.0577C38.9766 27.5244 40.2804 28.8282 41.7471 28.8282C43.3769 28.8282 44.5177 27.6874 44.5177 26.0577Z" stroke="#FF5406" stroke-width="2" stroke-miterlimit="10" stroke-linecap="round" stroke-linejoin="round"/>
<path d="M50.0576 14.8142H33.5972C33.2713 14.8142 32.9453 14.4883 32.9453 14.1623V2.26517C32.9453 1.93922 33.2713 1.61328 33.5972 1.61328H50.0576C50.3836 1.61328 50.7095 1.93922 50.7095 2.26517V14.1623C50.7095 14.6512 50.3836 14.8142 50.0576 14.8142Z" stroke="#FF5406" stroke-width="2" stroke-miterlimit="10" stroke-linecap="round" stroke-linejoin="round"/>
<path d="M36.6875 18.3828H46.9549" stroke="#FF5406" stroke-width="2" stroke-miterlimit="10" stroke-linecap="round" stroke-linejoin="round"/>
</svg>
