<svg width="44" height="45" viewBox="0 0 44 45" fill="none" xmlns="http://www.w3.org/2000/svg">
<path d="M16.8744 35.1646C15.9233 35.1646 15.1523 35.9355 15.1523 36.8866V42.559C15.1523 43.5101 15.9233 44.2811 16.8744 44.2811C17.8255 44.2811 18.5965 43.5101 18.5965 42.559V36.8866C18.5965 35.9355 17.8255 35.1646 16.8744 35.1646Z" fill="#FF5406"/>
<path d="M20.3213 28.2659H18.5993V1.91812C18.5993 0.967019 17.8283 0.196045 16.8772 0.196045C15.9261 0.196045 15.1551 0.967019 15.1551 1.91812V28.2659H13.433C12.4819 28.2659 11.7109 29.0369 11.7109 29.988C11.7109 30.9391 12.4819 31.7101 13.433 31.7101H20.3213C21.2724 31.7101 22.0434 30.9391 22.0434 29.988C22.0434 29.0369 21.2724 28.2659 20.3213 28.2659Z" fill="#FF5406"/>
<path d="M5.16348 12.6055C4.21238 12.6055 3.44141 13.3764 3.44141 14.3275V42.5591C3.44141 43.5102 4.21238 44.2812 5.16348 44.2812C6.11459 44.2812 6.88556 43.5102 6.88556 42.5591V14.3275C6.88556 13.3764 6.11459 12.6055 5.16348 12.6055Z" fill="#FF5406"/>
<path d="M8.61039 5.72771H6.88831V1.91812C6.88831 0.967019 6.11734 0.196045 5.16623 0.196045C4.21513 0.196045 3.44416 0.967019 3.44416 1.91812V5.72771H1.72208C0.770975 5.72771 0 6.49868 0 7.44978C0 8.40089 0.770975 9.17186 1.72208 9.17186H8.61039C9.5615 9.17186 10.3325 8.40089 10.3325 7.44978C10.3325 6.49868 9.5615 5.72771 8.61039 5.72771Z" fill="#FF5406"/>
<path d="M38.8315 14.9341C37.8803 14.9341 37.1094 15.7051 37.1094 16.6562V42.559C37.1094 43.5101 37.8803 44.2811 38.8315 44.2811C39.7826 44.2811 40.5535 43.5101 40.5535 42.559V16.6562C40.5535 15.7051 39.7826 14.9341 38.8315 14.9341Z" fill="#FF5406"/>
<path d="M42.2784 8.04201H40.5563V1.91812C40.5563 0.967019 39.7853 0.196045 38.8342 0.196045C37.8831 0.196045 37.1121 0.967019 37.1121 1.91812V8.04201H35.39C34.4389 8.04201 33.668 8.81298 33.668 9.76408C33.668 10.7152 34.4389 11.4862 35.39 11.4862H42.2784C43.2295 11.4862 44.0004 10.7152 44.0004 9.76408C44.0004 8.81298 43.2295 8.04201 42.2784 8.04201Z" fill="#FF5406"/>
<path d="M27.64 27.5876C26.6889 27.5876 25.918 28.3586 25.918 29.3097V42.5592C25.918 43.5103 26.6889 44.2813 27.64 44.2813C28.5912 44.2813 29.3621 43.5103 29.3621 42.5592V29.3097C29.3621 28.3586 28.5912 27.5876 27.64 27.5876Z" fill="#FF5406"/>
<path d="M31.083 20.7098H29.361V1.91812C29.361 0.967019 28.59 0.196045 27.6389 0.196045C26.6878 0.196045 25.9168 0.967019 25.9168 1.91812V20.7098H24.1947C23.2436 20.7098 22.4727 21.4808 22.4727 22.4319C22.4727 23.383 23.2436 24.1539 24.1947 24.1539H31.083C32.0342 24.1539 32.8051 23.383 32.8051 22.4319C32.8051 21.4808 32.0342 20.7098 31.083 20.7098Z" fill="#FF5406"/>
</svg>
