<svg width="53" height="44" viewBox="0 0 53 44" fill="none" xmlns="http://www.w3.org/2000/svg">
<path d="M26.5751 13.0276C23.473 13.0276 20.9492 15.5514 20.9492 18.6535C20.9492 21.2237 22.6823 23.3952 25.0408 24.065V41.5663C25.0408 42.4137 25.7278 43.1007 26.5751 43.1007C27.4225 43.1007 28.1095 42.4137 28.1095 41.5663V24.065C30.468 23.3953 32.2011 21.2237 32.2011 18.6535C32.2011 15.5514 29.6773 13.0276 26.5751 13.0276ZM26.5751 21.2107C25.1651 21.2107 24.0179 20.0636 24.0179 18.6535C24.0179 17.2434 25.1651 16.0963 26.5751 16.0963C27.9852 16.0963 29.1324 17.2434 29.1324 18.6535C29.1324 20.0636 27.9852 21.2107 26.5751 21.2107Z" fill="#FF5406"/>
<path d="M19.4761 10.4506C18.877 9.85142 17.9056 9.85142 17.3063 10.4506C12.5493 15.2074 12.5486 22.9075 17.3063 27.665C17.9056 28.2642 18.8769 28.2642 19.4761 27.665C20.0754 27.0659 20.0754 26.0944 19.4761 25.4952C15.9185 21.9376 15.9179 16.1786 19.4761 12.6205C20.0754 12.0213 20.0754 11.0497 19.4761 10.4506Z" fill="#FF5406"/>
<path d="M35.8419 10.4506C35.2428 9.85144 34.2713 9.85144 33.6721 10.4506C33.0729 11.0497 33.0729 12.0212 33.6721 12.6204C37.2216 16.17 37.2216 21.9455 33.6721 25.4951C33.0729 26.0942 33.0729 27.0657 33.6721 27.6649C34.2714 28.2642 35.2427 28.2642 35.8419 27.6649C40.5881 22.919 40.5881 15.1965 35.8419 10.4506Z" fill="#FF5406"/>
<path d="M14.8469 7.99127C15.4461 7.39216 15.4461 6.42061 14.8469 5.8214C14.2478 5.22229 13.2763 5.22229 12.677 5.8214C5.37849 13.12 5.37849 24.9955 12.677 32.294C13.2761 32.8931 14.2476 32.8934 14.8469 32.294C15.4461 31.6949 15.4461 30.7234 14.8469 30.1241C8.74493 24.0221 8.74493 14.0933 14.8469 7.99127Z" fill="#FF5406"/>
<path d="M40.4747 5.8214C39.8756 5.22229 38.9041 5.22229 38.3049 5.8214C37.7057 6.42051 37.7057 7.39206 38.3049 7.99127C44.4069 14.0933 44.4069 24.0221 38.3049 30.1241C37.7057 30.7233 37.7057 31.6948 38.3049 32.294C38.9042 32.8932 39.8755 32.8932 40.4747 32.294C47.7733 24.9955 47.7733 13.12 40.4747 5.8214Z" fill="#FF5406"/>
<path d="M10.2194 3.36212C10.8186 2.76301 10.8186 1.79146 10.2194 1.19225C9.62024 0.593143 8.6487 0.593143 8.04949 1.19225C-2.17342 11.4151 -2.15123 26.7224 8.04949 36.9231C8.64849 37.5222 9.62004 37.5225 10.2194 36.9231C10.8186 36.324 10.8186 35.3524 10.2194 34.7532C1.27158 25.8052 1.27158 12.3101 10.2194 3.36212Z" fill="#FF5406"/>
<path d="M45.0997 1.19225C44.5006 0.593143 43.5291 0.593143 42.9299 1.19225C42.3307 1.79136 42.3307 2.76291 42.9299 3.36212C51.8779 12.3101 51.8779 25.8052 42.9299 34.7532C42.3307 35.3523 42.3307 36.3239 42.9299 36.9231C43.5292 37.5223 44.5005 37.5223 45.0997 36.9231C55.3226 26.7004 55.3006 11.393 45.0997 1.19225Z" fill="#FF5406"/>
</svg>
