<svg width="52" height="52" viewBox="0 0 52 52" fill="none" xmlns="http://www.w3.org/2000/svg">
<path d="M51.7483 31.7404C51.7483 30.2006 50.9192 28.8188 49.6558 28.1082C50.5244 27.3186 51.1166 26.2131 51.1166 24.9497C51.1166 22.5809 49.2215 20.6859 46.8527 20.6859H32.5608C34.5348 17.7643 37.6932 12.1976 37.6932 6.67029C37.6932 2.99861 35.4429 0.827179 33.1925 0.629777C31.4553 0.471855 30.0735 1.45887 29.7182 3.11705C29.0865 6.19652 25.9675 9.59185 19.927 13.7768C16.0974 16.4614 13.4522 19.6594 12.6232 20.7253L10.6491 20.6859V19.0277C10.6491 18.5539 10.2543 18.1591 9.78056 18.1591H1.48966C1.0159 18.1591 0.621094 18.5539 0.621094 19.0277V50.4146C0.621094 50.8884 1.0159 51.2832 1.48966 51.2832H9.78056C10.2543 51.2832 10.6491 50.8884 10.6491 50.4146V45.3611H12.8206C13.4917 46.6245 15.5842 49.6645 19.5322 49.6645H32.3634H41.6413C44.0101 49.6645 45.9052 47.7694 45.9052 45.4006C45.9052 44.4531 45.5893 43.545 45.0366 42.8344H45.6288C47.9976 42.8344 49.8927 40.9393 49.8927 38.5705C49.8927 37.5045 49.4584 36.5175 48.8267 35.7674C50.5244 35.1752 51.7483 33.596 51.7483 31.7404ZM49.3795 24.9103C49.3795 26.3316 48.2345 27.4765 46.8132 27.4765H32.3634C30.9421 27.4765 29.7971 26.3316 29.7971 24.9103C29.7971 23.489 30.9421 22.344 32.3634 22.344H46.8132C48.2345 22.344 49.3795 23.489 49.3795 24.9103ZM8.95147 49.5461H2.31875V19.8173H8.91199V21.4755V44.4926V49.5461H8.95147ZM14.1234 44.1767C14.005 43.8609 13.6891 43.6635 13.3338 43.6635H10.6096V22.3835L12.9785 22.423C13.2548 22.423 13.5312 22.3046 13.6891 22.0677C13.7286 22.0282 16.4922 18.1591 20.8351 15.1586C27.3494 10.6183 30.5868 7.02561 31.3369 3.43289C31.5738 2.24848 32.6397 2.28796 32.9556 2.32744C34.14 2.44588 35.9166 3.70926 35.9166 6.67029C35.9166 13.6583 30.0735 21.1596 29.6787 21.6334C28.6917 22.423 28.06 23.6074 28.06 24.9497C28.06 26.2131 28.6127 27.358 29.5208 28.1082C28.2574 28.8583 27.4283 30.2006 27.4283 31.7404C27.4283 33.2801 28.2574 34.6619 29.5208 35.3726C28.6522 36.1622 28.06 37.2676 28.06 38.531C28.06 39.9128 28.7312 41.1762 29.7971 41.9263C28.7707 42.7159 28.06 43.9398 28.06 45.3217C28.06 46.2692 28.3759 47.1772 28.9286 47.8879H19.4533C15.7816 47.9668 14.2024 44.3346 14.1234 44.1767ZM44.247 45.4006C44.247 46.8219 43.1021 47.9668 41.6808 47.9668H32.4029C30.9816 47.9668 29.8366 46.8219 29.8366 45.4006C29.8366 43.9793 30.9816 42.8344 32.4029 42.8344H41.6808C43.1021 42.8344 44.247 43.9793 44.247 45.4006ZM45.6683 41.1367H41.6808H32.4029C30.9816 41.1367 29.8366 39.9918 29.8366 38.5705C29.8366 37.1492 30.9816 36.0043 32.4029 36.0043H45.6683C47.0896 36.0043 48.2345 37.1492 48.2345 38.5705C48.2345 39.9918 47.0501 41.1367 45.6683 41.1367ZM47.4844 34.3066H45.6683H32.4029H31.7712C30.3499 34.3066 29.2049 33.1617 29.2049 31.7404C29.2049 30.3191 30.3499 29.1742 31.7712 29.1742H32.4029H46.8527H47.4844C48.9057 29.1742 50.0506 30.3191 50.0506 31.7404C50.0506 33.1617 48.9057 34.3066 47.4844 34.3066Z" fill="#FF5406" stroke="#FF5406" stroke-width="0.5"/>
</svg>
