<svg width="44" height="54" viewBox="0 0 44 54" fill="none" xmlns="http://www.w3.org/2000/svg">
<path d="M41.2742 6.5866L22.3505 1.05559L22.3115 1.04475C21.9919 0.960362 21.6539 0.960362 21.3342 1.04465L21.3145 1.04986L2.3714 6.58649C0.973966 6.96618 0 8.23821 0 9.68811V36.6688C0 40.2112 1.9554 43.4052 5.10621 45.0167L17.4975 52.3L17.5837 52.3469C18.9108 53.0168 20.3666 53.3518 21.8227 53.3518C23.2785 53.3518 24.7346 53.0169 26.0616 52.347L26.1055 52.3249L38.5392 45.0168C41.6901 43.4054 43.6455 40.2114 43.6455 36.6689V9.68811C43.6454 8.23821 42.6716 6.96638 41.2742 6.5866ZM40.5767 36.6688C40.5767 39.0636 39.2487 41.2214 37.1107 42.3004L37.0669 42.3225L24.6374 49.6282C22.8711 50.5034 20.7738 50.5033 19.0076 49.6282L6.62045 42.3474L6.53422 42.3004C4.39655 41.2214 3.06858 39.0635 3.06858 36.6688V9.68811C3.06858 9.62213 3.11317 9.56444 3.1769 9.54757L21.8226 4.09829L40.4292 9.53672L40.4683 9.54757C40.5321 9.56444 40.5767 9.62213 40.5767 9.68811V36.6688Z" fill="#FF5406"/>
<path d="M21.8204 12.959C14.5725 12.959 8.67578 18.8557 8.67578 26.1036C8.67578 33.3516 14.5725 39.2483 21.8204 39.2483C29.0684 39.2483 34.9651 33.3516 34.9651 26.1036C34.9651 18.8557 29.0684 12.959 21.8204 12.959ZM21.8204 36.1796C16.2645 36.1796 11.7445 31.6596 11.7445 26.1036C11.7445 20.5477 16.2645 16.0277 21.8204 16.0277C27.3764 16.0277 31.8964 20.5477 31.8964 26.1036C31.8964 31.6596 27.3764 36.1796 21.8204 36.1796Z" fill="#FF5406"/>
<path d="M27.4524 22.1621C26.877 21.5402 25.9062 21.5026 25.2842 22.0781L20.1021 26.8733L18.4083 25.1795C17.8092 24.5804 16.8377 24.5803 16.2384 25.1795C15.6393 25.7787 15.6393 26.7501 16.2384 27.3494L18.976 30.0869C18.989 30.1 19.0033 30.1113 19.0167 30.1238C19.0355 30.1412 19.0541 30.1588 19.0735 30.1752C19.0947 30.1931 19.1166 30.2097 19.1386 30.2261C19.1586 30.2413 19.1785 30.2565 19.199 30.2705C19.2223 30.2863 19.246 30.3005 19.2698 30.3149C19.2903 30.3272 19.3104 30.34 19.3313 30.3512C19.3569 30.365 19.383 30.3771 19.4091 30.3894C19.4293 30.3988 19.449 30.4089 19.4695 30.4174C19.4977 30.4292 19.5264 30.439 19.5551 30.4489C19.5743 30.4557 19.5933 30.4631 19.6128 30.4691C19.6439 30.4785 19.6753 30.4857 19.7068 30.4932C19.7246 30.4974 19.7421 30.5026 19.76 30.5062C19.7953 30.5133 19.8309 30.5179 19.8666 30.5224C19.881 30.5242 19.8953 30.5272 19.9098 30.5286C19.96 30.5335 20.0104 30.5362 20.0608 30.5362C20.0609 30.5362 20.0609 30.5362 20.0609 30.5362C20.061 30.5362 20.0611 30.5362 20.0611 30.5362C20.109 30.5362 20.1569 30.5338 20.2047 30.5293C20.2186 30.528 20.2324 30.5253 20.2463 30.5236C20.2801 30.5195 20.3138 30.5154 20.3473 30.5091C20.3649 30.5057 20.3822 30.5009 20.3996 30.497C20.429 30.4903 20.4585 30.4839 20.4876 30.4755C20.507 30.4699 20.5259 30.4628 20.545 30.4565C20.5717 30.4476 20.5984 30.439 20.6247 30.4286C20.645 30.4206 20.6647 30.4112 20.6847 30.4023C20.7092 30.3913 20.7336 30.3807 20.7577 30.3684C20.7783 30.3579 20.7984 30.346 20.8186 30.3346C20.8411 30.3218 20.8636 30.3091 20.8856 30.295C20.906 30.282 20.9257 30.2678 20.9456 30.2538C20.9666 30.2388 20.9876 30.2239 21.0081 30.2078C21.0272 30.1928 21.0457 30.1767 21.0642 30.1607C21.077 30.1496 21.0904 30.1397 21.103 30.1282L27.3683 24.3304C27.9903 23.7548 28.0278 22.784 27.4524 22.1621Z" fill="#FF5406"/>
</svg>
