<svg width="47" height="54" viewBox="0 0 47 54" fill="none" xmlns="http://www.w3.org/2000/svg">
<path d="M23.1661 42.6454C14.623 42.6454 7.68359 35.6998 7.68359 27.1718C7.68359 18.6336 14.6332 11.6982 23.1661 11.6982C31.699 11.6982 38.6486 18.6439 38.6486 27.1718C38.6589 35.6998 31.7093 42.6454 23.1661 42.6454ZM23.1661 13.3319C15.5379 13.3319 9.32848 19.5378 9.32848 27.1615C9.32848 34.7853 15.5379 40.9912 23.1661 40.9912C30.7943 40.9912 37.0037 34.7853 37.0037 27.1615C37.014 19.5378 30.8046 13.3319 23.1661 13.3319Z" fill="#FF5406" stroke="#FF5406" stroke-width="0.5"/>
<path d="M26.3924 6.71468L23.1643 3.35488L19.9362 6.71468L18.7539 5.5742L23.1643 0.981445L27.5849 5.5742L26.3924 6.71468Z" fill="#FF5406" stroke="#FF5406" stroke-width="0.5"/>
<path d="M23.9886 2.16309H22.3438V10.1465H23.9886V2.16309Z" fill="#FF5406" stroke="#FF5406" stroke-width="0.5"/>
<path d="M2.24481 20.1951L0.476562 14.0714L6.66545 12.5508L7.05611 14.1433L2.53267 15.2633L3.82802 19.7327L2.24481 20.1951Z" fill="#FF5406" stroke="#FF5406" stroke-width="0.5"/>
<path d="M1.91229 13.965L1.08984 15.3887L8.00745 19.3804L8.82989 17.9567L1.91229 13.965Z" fill="#FF5406" stroke="#FF5406" stroke-width="0.5"/>
<path d="M6.66545 41.782L0.476562 40.2614L2.24481 34.1377L3.82802 34.6001L2.53267 39.0798L7.05611 40.1894L6.66545 41.782Z" fill="#FF5406" stroke="#FF5406" stroke-width="0.5"/>
<path d="M8.0035 34.9614L1.08594 38.9531L1.90838 40.3768L8.82595 36.3851L8.0035 34.9614Z" fill="#FF5406" stroke="#FF5406" stroke-width="0.5"/>
<path d="M23.1682 53.3524L18.7578 48.7596L19.9401 47.6191L23.1682 50.9789L26.3963 47.6191L27.5888 48.7596L23.1682 53.3524Z" fill="#FF5406" stroke="#FF5406" stroke-width="0.5"/>
<path d="M23.9925 44.1875H22.3477V52.1709H23.9925V44.1875Z" fill="#FF5406" stroke="#FF5406" stroke-width="0.5"/>
<path d="M39.6641 41.783L39.2734 40.1904L43.7969 39.0808L42.5016 34.601L44.0848 34.1387L45.8531 40.2623L39.6641 41.783Z" fill="#FF5406" stroke="#FF5406" stroke-width="0.5"/>
<path d="M38.3264 34.9758L37.5039 36.3994L44.4215 40.3911L45.244 38.9675L38.3264 34.9758Z" fill="#FF5406" stroke="#FF5406" stroke-width="0.5"/>
<path d="M44.0848 20.1951L42.5016 19.7327L43.7969 15.2633L39.2734 14.1433L39.6641 12.5508L45.8531 14.0714L44.0848 20.1951Z" fill="#FF5406" stroke="#FF5406" stroke-width="0.5"/>
<path d="M44.4176 13.9497L37.5 17.9414L38.3224 19.3651L45.2401 15.3734L44.4176 13.9497Z" fill="#FF5406" stroke="#FF5406" stroke-width="0.5"/>
</svg>
