<svg width="44" height="54" viewBox="0 0 44 54" fill="none" xmlns="http://www.w3.org/2000/svg">
<path d="M41.2742 6.33806L22.3505 0.807055L22.3115 0.796212C21.9919 0.711826 21.6539 0.711826 21.3342 0.79611L21.3145 0.801327L2.3714 6.33796C0.973966 6.71764 0 7.98967 0 9.43957V36.4202C0 39.9627 1.9554 43.1567 5.10621 44.7682L17.4975 52.0515L17.5837 52.0984C18.9108 52.7683 20.3666 53.1033 21.8227 53.1033C23.2785 53.1033 24.7346 52.7684 26.0616 52.0985L26.1055 52.0764L38.5392 44.7683C41.6901 43.1569 43.6455 39.9629 43.6455 36.4203V9.43957C43.6454 7.98967 42.6716 6.71785 41.2742 6.33806ZM40.5767 36.4202C40.5767 38.815 39.2487 40.9729 37.1107 42.0519L37.0669 42.074L24.6374 49.3796C22.8711 50.2549 20.7738 50.2548 19.0076 49.3796L6.62045 42.0988L6.53422 42.0519C4.39655 40.9729 3.06858 38.8149 3.06858 36.4202V9.43957C3.06858 9.3736 3.11317 9.31591 3.1769 9.29903L21.8226 3.84975L40.4292 9.28819L40.4683 9.29903C40.5321 9.31591 40.5767 9.3736 40.5767 9.43957V36.4202Z" fill="#FF5406"/>
<path d="M21.8204 12.7104C14.5725 12.7104 8.67578 18.6071 8.67578 25.8551C8.67578 33.1031 14.5725 38.9998 21.8204 38.9998C29.0684 38.9998 34.9651 33.1031 34.9651 25.8551C34.9651 18.6071 29.0684 12.7104 21.8204 12.7104ZM21.8204 35.9311C16.2645 35.9311 11.7445 31.4111 11.7445 25.8551C11.7445 20.2991 16.2645 15.7791 21.8204 15.7791C27.3764 15.7791 31.8964 20.2991 31.8964 25.8551C31.8964 31.4111 27.3764 35.9311 21.8204 35.9311Z" fill="#FF5406"/>
<path d="M27.4524 21.9138C26.877 21.2919 25.9062 21.2543 25.2842 21.8298L20.1021 26.625L18.4083 24.9312C17.8092 24.3321 16.8377 24.332 16.2384 24.9312C15.6393 25.5304 15.6393 26.5018 16.2384 27.1011L18.976 29.8386C18.989 29.8517 19.0033 29.863 19.0167 29.8755C19.0355 29.893 19.0541 29.9105 19.0735 29.9269C19.0947 29.9448 19.1166 29.9614 19.1386 29.9779C19.1586 29.993 19.1785 30.0082 19.199 30.0222C19.2223 30.038 19.246 30.0522 19.2698 30.0666C19.2903 30.0789 19.3104 30.0917 19.3313 30.1029C19.3569 30.1168 19.383 30.1288 19.4091 30.1411C19.4293 30.1505 19.449 30.1606 19.4695 30.1691C19.4977 30.1809 19.5264 30.1907 19.5551 30.2006C19.5743 30.2074 19.5933 30.2148 19.6128 30.2208C19.6439 30.2302 19.6753 30.2375 19.7068 30.2449C19.7246 30.2491 19.7421 30.2543 19.76 30.2579C19.7953 30.265 19.8309 30.2696 19.8666 30.2741C19.881 30.2759 19.8953 30.2789 19.9098 30.2803C19.96 30.2852 20.0104 30.2879 20.0608 30.2879C20.0609 30.2879 20.0609 30.2879 20.0609 30.2879C20.061 30.2879 20.0611 30.2879 20.0611 30.2879C20.109 30.2879 20.1569 30.2855 20.2047 30.281C20.2186 30.2797 20.2324 30.277 20.2463 30.2753C20.2801 30.2712 20.3138 30.2671 20.3473 30.2608C20.3649 30.2574 20.3822 30.2526 20.3996 30.2487C20.429 30.2421 20.4585 30.2356 20.4876 30.2272C20.507 30.2216 20.5259 30.2145 20.545 30.2082C20.5717 30.1993 20.5984 30.1907 20.6247 30.1803C20.645 30.1723 20.6647 30.1629 20.6847 30.154C20.7092 30.143 20.7336 30.1324 20.7577 30.1201C20.7783 30.1096 20.7984 30.0977 20.8186 30.0863C20.8411 30.0735 20.8636 30.0608 20.8856 30.0467C20.906 30.0337 20.9257 30.0195 20.9456 30.0055C20.9666 29.9905 20.9876 29.9756 21.0081 29.9595C21.0272 29.9445 21.0457 29.9284 21.0642 29.9124C21.077 29.9013 21.0904 29.8914 21.103 29.8799L27.3683 24.0821C27.9903 23.5065 28.0278 22.5357 27.4524 21.9138Z" fill="#FF5406"/>
</svg>
