<svg width="47" height="48" viewBox="0 0 47 48" fill="none" xmlns="http://www.w3.org/2000/svg">
<path d="M46.4945 34.5946C46.5814 40.7779 39.5346 44.7969 34.2775 41.6158L29.2536 46.6397C28.8989 46.9944 28.4342 47.1717 27.9693 47.1717C26.3812 47.1889 25.5383 45.2004 26.6851 44.0713L31.626 39.1303C27.9867 33.8681 31.9222 26.405 38.3671 26.4672C39.3701 26.4671 40.1832 27.2803 40.1832 28.2833C40.1832 29.2864 39.3701 30.0995 38.367 30.0995C32.4122 30.3251 32.4133 38.8646 38.3671 39.0897C40.8457 39.0897 42.8621 37.0732 42.8621 34.5946C42.9499 32.1886 46.4064 32.1886 46.4945 34.5946ZM5.44857 12.9819C5.44857 6.22217 10.9481 0.722656 17.7079 0.722656C33.9491 1.33898 33.9447 24.6274 17.7077 25.2412C10.9481 25.2412 5.44857 19.7417 5.44857 12.9819ZM9.08095 12.9819C9.08095 17.7388 12.951 21.6088 17.7079 21.6088C29.1369 21.1751 29.1338 4.78702 17.7078 4.35504C12.951 4.35504 9.08095 8.22497 9.08095 12.9819ZM26.5982 30.5471C24.3031 29.4065 21.8312 28.8282 19.2516 28.8282H16.5273C7.41414 28.8282 0 36.2423 0 45.3555C0 46.3586 0.813108 47.1717 1.81619 47.1717C2.81927 47.1717 3.63238 46.3586 3.63238 45.3555C3.63238 38.2452 9.41704 32.4606 16.5273 32.4606C19.5235 32.4144 22.2481 32.3729 24.9816 33.8C27.1688 34.7922 28.7174 31.7005 26.5982 30.5471ZM26.7888 38.1816C26.8105 36.7671 25.1655 35.8738 23.9962 36.6502C20.7467 38.6348 15.2868 38.6708 11.9683 36.6527C10.7845 35.8588 9.15005 36.7575 9.17185 38.1817V45.3556C9.17185 46.3587 9.98496 47.1718 10.988 47.1718C11.9911 47.1718 12.8042 46.3587 12.8042 45.3556V40.9718C17.865 42.8173 23.7027 41.224 25.9573 39.7077L25.9567 39.7067C26.4569 39.3833 26.7888 38.8216 26.7888 38.1816Z" fill="#FF5406"/>
</svg>
