<svg width="49" height="53" viewBox="0 0 49 53" fill="none" xmlns="http://www.w3.org/2000/svg">
<mask id="path-1-inside-1" fill="white">
<path d="M20.7299 52.6723C20.557 52.6723 20.3966 52.6229 20.2361 52.5365C15.0263 49.5489 10.7177 45.4873 7.44622 40.475C4.82899 36.4751 2.86607 31.8579 1.60684 26.7716C-0.541262 18.1175 0.076014 11.1547 0.100705 10.8584C0.137741 10.4016 0.495758 10.0313 0.964883 9.96954C1.08834 9.9572 13.0881 8.40169 20.162 3.52525C20.4953 3.29069 20.9397 3.29069 21.2854 3.52525C28.3717 8.40169 40.3714 9.9572 40.4825 9.96954C40.9393 10.0313 41.2973 10.4016 41.3467 10.8584C41.3714 11.1547 41.9886 18.1175 39.8405 26.7716C38.5813 31.8703 36.6184 36.4751 34.0012 40.475C30.7297 45.4873 26.4211 49.5489 21.2113 52.5365C21.0755 52.6352 20.9027 52.6723 20.7299 52.6723ZM2.0266 11.8214C1.92784 13.846 1.86608 19.6483 3.54506 26.3642C6.26105 37.2529 12.0387 45.3885 20.7299 50.5489C29.4334 45.3761 35.2234 37.2282 37.9394 26.3025C39.606 19.599 39.5319 13.846 39.4332 11.8214C36.6061 11.3893 27.1865 9.71029 20.7299 5.53754C14.2732 9.71029 4.8537 11.3893 2.0266 11.8214Z"/>
</mask>
<path d="M20.7299 52.6723C20.557 52.6723 20.3966 52.6229 20.2361 52.5365C15.0263 49.5489 10.7177 45.4873 7.44622 40.475C4.82899 36.4751 2.86607 31.8579 1.60684 26.7716C-0.541262 18.1175 0.076014 11.1547 0.100705 10.8584C0.137741 10.4016 0.495758 10.0313 0.964883 9.96954C1.08834 9.9572 13.0881 8.40169 20.162 3.52525C20.4953 3.29069 20.9397 3.29069 21.2854 3.52525C28.3717 8.40169 40.3714 9.9572 40.4825 9.96954C40.9393 10.0313 41.2973 10.4016 41.3467 10.8584C41.3714 11.1547 41.9886 18.1175 39.8405 26.7716C38.5813 31.8703 36.6184 36.4751 34.0012 40.475C30.7297 45.4873 26.4211 49.5489 21.2113 52.5365C21.0755 52.6352 20.9027 52.6723 20.7299 52.6723ZM2.0266 11.8214C1.92784 13.846 1.86608 19.6483 3.54506 26.3642C6.26105 37.2529 12.0387 45.3885 20.7299 50.5489C29.4334 45.3761 35.2234 37.2282 37.9394 26.3025C39.606 19.599 39.5319 13.846 39.4332 11.8214C36.6061 11.3893 27.1865 9.71029 20.7299 5.53754C14.2732 9.71029 4.8537 11.3893 2.0266 11.8214Z" fill="#FF5406"/>
<path d="M20.2361 52.5365L18.7437 55.1389L18.7785 55.1589L18.8138 55.1779L20.2361 52.5365ZM7.44622 40.475L9.95843 38.8353L9.95658 38.8325L7.44622 40.475ZM1.60684 26.7716L4.51892 26.0507L4.51848 26.0489L1.60684 26.7716ZM0.100705 10.8584L3.09035 11.1075L3.09089 11.1009L0.100705 10.8584ZM0.964883 9.96954L0.666371 6.98443L0.619862 6.98908L0.573519 6.99518L0.964883 9.96954ZM20.162 3.52525L21.8647 5.99524L21.8766 5.98701L21.8885 5.97867L20.162 3.52525ZM21.2854 3.52525L22.9861 1.05388L22.978 1.04833L22.9699 1.04283L21.2854 3.52525ZM40.4825 9.96954L40.8843 6.99657L40.8491 6.99181L40.8138 6.98789L40.4825 9.96954ZM41.3467 10.8584L44.3363 10.6093L44.3333 10.5726L44.3293 10.536L41.3467 10.8584ZM39.8405 26.7716L36.9289 26.0489L36.928 26.0523L39.8405 26.7716ZM34.0012 40.475L31.4908 38.8325L31.489 38.8353L34.0012 40.475ZM21.2113 52.5365L19.7189 49.934L19.5781 50.0148L19.4468 50.1103L21.2113 52.5365ZM2.0266 11.8214L1.57335 8.85579L-0.850377 9.22623L-0.969838 11.6752L2.0266 11.8214ZM3.54506 26.3642L6.45587 25.6382L6.45549 25.6366L3.54506 26.3642ZM20.7299 50.5489L19.1983 53.1284L20.7306 54.0383L22.2626 53.1278L20.7299 50.5489ZM37.9394 26.3025L35.028 25.5787L35.028 25.5788L37.9394 26.3025ZM39.4332 11.8214L42.4296 11.6752L42.3101 9.22623L39.8864 8.85579L39.4332 11.8214ZM20.7299 5.53754L22.3582 3.01793L20.7299 1.96557L19.1015 3.01793L20.7299 5.53754ZM20.7299 49.6723C21.1655 49.6723 21.4922 49.8056 21.6584 49.8951L18.8138 55.1779C19.3009 55.4402 19.9486 55.6723 20.7299 55.6723V49.6723ZM21.7285 49.934C16.928 47.1811 12.9696 43.4487 9.95843 38.8353L4.934 42.1148C8.46587 47.5259 13.1246 51.9167 18.7437 55.1389L21.7285 49.934ZM9.95658 38.8325C7.54243 35.1429 5.70547 30.8434 4.51892 26.0507L-1.30525 27.4926C0.0266637 32.8725 2.11555 37.8073 4.93585 42.1176L9.95658 38.8325ZM4.51848 26.0489C2.48442 17.8542 3.0772 11.2652 3.09034 11.1075L-2.88893 10.6093C-2.92517 11.0442 -3.56695 18.3808 -1.30481 27.4943L4.51848 26.0489ZM3.09089 11.1009C3.00952 12.1045 2.23742 12.828 1.35625 12.9439L0.573519 6.99518C-1.2459 7.23458 -2.73403 8.69876 -2.88948 10.616L3.09089 11.1009ZM1.26339 12.9547C1.48129 12.9329 4.66136 12.5136 8.70219 11.4774C12.7013 10.4519 17.8843 8.7391 21.8647 5.99524L18.4593 1.05527C15.3657 3.18784 11.012 4.69098 7.21183 5.66545C3.45345 6.62921 0.571927 6.99388 0.666371 6.98443L1.26339 12.9547ZM21.8885 5.97867C21.1678 6.48578 20.2532 6.45032 19.6009 6.00768L22.9699 1.04283C21.6263 0.131061 19.8228 0.0956022 18.4355 1.07183L21.8885 5.97867ZM19.5847 5.99662C23.5704 8.73935 28.7554 10.4519 32.7545 11.4774C36.8048 12.516 39.972 12.9313 40.1512 12.9512L40.8138 6.98789C40.8819 6.99546 37.9937 6.62678 34.2448 5.66545C30.4447 4.69098 26.0867 3.18759 22.9861 1.05388L19.5847 5.99662ZM40.0808 12.9425C39.162 12.8184 38.4621 12.0879 38.3641 11.1809L44.3293 10.536C44.1325 8.71536 42.7166 7.24418 40.8843 6.99657L40.0808 12.9425ZM38.3571 11.1075C38.3702 11.2652 38.9629 17.8542 36.9289 26.0489L42.7522 27.4943C45.0143 18.3808 44.3726 11.0442 44.3363 10.6093L38.3571 11.1075ZM36.928 26.0523C35.742 30.8547 33.9058 35.1417 31.4908 38.8325L36.5115 42.1176C39.3311 37.8086 41.4206 32.8859 42.753 27.4909L36.928 26.0523ZM31.489 38.8353C28.4778 43.4487 24.5194 47.1811 19.7189 49.934L22.7037 55.1389C28.3228 51.9167 32.9815 47.5259 36.5134 42.1148L31.489 38.8353ZM19.4468 50.1103C19.9983 49.7092 20.5253 49.6723 20.7299 49.6723V55.6723C21.2801 55.6723 22.1528 55.5613 22.9759 54.9627L19.4468 50.1103ZM-0.969838 11.6752C-1.07722 13.8765 -1.13948 19.9954 0.634631 27.0918L6.45549 25.6366C4.87165 19.3013 4.93289 13.8155 5.02304 11.9675L-0.969838 11.6752ZM0.634243 27.0903C3.52041 38.6612 9.73855 47.5117 19.1983 53.1284L22.2615 47.9693C14.3389 43.2653 9.00169 35.8446 6.45587 25.6382L0.634243 27.0903ZM22.2626 53.1278C31.7338 47.4988 37.9647 38.636 40.8507 27.0263L35.028 25.5788C32.482 35.8204 27.133 43.2535 19.1972 47.97L22.2626 53.1278ZM40.8507 27.0263C42.6123 19.9409 42.5367 13.8714 42.4296 11.6752L36.4367 11.9675C36.5271 13.8206 36.5997 19.257 35.028 25.5787L40.8507 27.0263ZM39.8864 8.85579C37.0566 8.42328 28.2216 6.80727 22.3582 3.01793L19.1015 8.05716C26.1514 12.6133 36.1556 14.3552 38.9799 14.7869L39.8864 8.85579ZM19.1015 3.01793C13.2381 6.80727 4.40319 8.42328 1.57335 8.85579L2.47985 14.7869C5.3042 14.3552 15.3083 12.6133 22.3582 8.05716L19.1015 3.01793Z" fill="#FF5406" mask="url(#path-1-inside-1)"/>
<mask id="path-3-inside-2" fill="white">
<path d="M22.3494 44.4015L21.1272 42.846C24.8925 39.8708 27.8554 36.019 29.9418 31.3772L31.7442 32.192C29.5221 37.1178 26.3616 41.2288 22.3494 44.4015Z"/>
</mask>
<path d="M22.3494 44.4015L21.1272 42.846C24.8925 39.8708 27.8554 36.019 29.9418 31.3772L31.7442 32.192C29.5221 37.1178 26.3616 41.2288 22.3494 44.4015Z" fill="#FF5406"/>
<path d="M22.3494 44.4015L19.9904 46.255L21.8497 48.6213L24.2102 46.7547L22.3494 44.4015ZM21.1272 42.846L19.2673 40.4922L16.9199 42.347L18.7682 44.6995L21.1272 42.846ZM29.9418 31.3772L31.1776 28.6435L28.438 27.4051L27.2055 30.1473L29.9418 31.3772ZM31.7442 32.192L34.4788 33.4256L35.7116 30.6931L32.98 29.4583L31.7442 32.192ZM24.7083 42.5481L23.4862 40.9926L18.7682 44.6995L19.9904 46.255L24.7083 42.5481ZM22.9871 45.1999C27.1525 41.9086 30.4059 37.6624 32.6781 32.6071L27.2055 30.1473C25.305 34.3757 22.6326 37.833 19.2673 40.4922L22.9871 45.1999ZM28.706 34.1108L30.5085 34.9256L32.98 29.4583L31.1776 28.6435L28.706 34.1108ZM29.0096 30.9583C26.9729 35.4731 24.1018 39.1911 20.4886 42.0484L24.2102 46.7547C28.6214 43.2664 32.0713 38.7624 34.4788 33.4256L29.0096 30.9583Z" fill="#FF5406" mask="url(#path-3-inside-2)"/>
<mask id="path-5-inside-3" fill="white">
<path d="M5.68177 21.1306C5.4719 17.9825 5.6571 15.9455 5.66945 15.8591C5.70648 15.4023 6.0645 15.0319 6.53362 14.9702C6.58301 14.9579 11.9532 14.2789 17.126 12.3159L17.8297 14.1678C13.5952 15.7727 9.34836 16.5381 7.59531 16.8097C7.55827 17.6492 7.53358 19.1183 7.65704 20.9948L5.68177 21.1306Z"/>
</mask>
<path d="M5.68177 21.1306C5.4719 17.9825 5.6571 15.9455 5.66945 15.8591C5.70648 15.4023 6.0645 15.0319 6.53362 14.9702C6.58301 14.9579 11.9532 14.2789 17.126 12.3159L17.8297 14.1678C13.5952 15.7727 9.34836 16.5381 7.59531 16.8097C7.55827 17.6492 7.53358 19.1183 7.65704 20.9948L5.68177 21.1306Z" fill="#FF5406"/>
<path d="M5.68177 21.1306L2.68842 21.3301L2.88839 24.3297L5.88753 24.1235L5.68177 21.1306ZM5.66945 15.8591L8.63929 16.2833L8.65224 16.1927L8.65963 16.1015L5.66945 15.8591ZM6.53362 14.9702L6.92499 17.9446L7.09494 17.9222L7.26123 17.8806L6.53362 14.9702ZM17.126 12.3159L19.9303 11.2503L18.8651 8.44724L16.0616 9.51111L17.126 12.3159ZM17.8297 14.1678L18.8929 16.973L21.7006 15.9089L20.634 13.1021L17.8297 14.1678ZM7.59531 16.8097L7.136 13.845L4.70658 14.2214L4.59823 16.6774L7.59531 16.8097ZM7.65704 20.9948L7.8628 23.9877L10.8469 23.7825L10.6506 20.7978L7.65704 20.9948ZM8.67513 20.931C8.47514 17.9311 8.66389 16.1111 8.63929 16.2833L2.6996 15.4348C2.65031 15.7798 2.46867 18.0339 2.68842 21.3301L8.67513 20.931ZM8.65963 16.1015C8.57826 17.1052 7.80616 17.8286 6.92499 17.9446L6.14226 11.9958C4.32284 12.2352 2.83471 13.6994 2.67926 15.6166L8.65963 16.1015ZM7.26123 17.8806C6.72821 18.0139 12.846 17.1488 18.1903 15.1208L16.0616 9.51111C11.0605 11.4089 6.4378 11.9018 5.80602 12.0598L7.26123 17.8806ZM14.3216 13.3816L15.0253 15.2334L20.634 13.1021L19.9303 11.2503L14.3216 13.3816ZM16.7664 11.3625C12.8153 12.86 8.8034 13.5867 7.136 13.845L8.05462 19.7743C9.89331 19.4894 14.375 18.6853 18.8929 16.973L16.7664 11.3625ZM4.59823 16.6774C4.55713 17.609 4.53177 19.1893 4.66351 21.1917L10.6506 20.7978C10.5354 19.0472 10.5594 17.6894 10.5924 16.9419L4.59823 16.6774ZM7.45128 18.0018L5.47601 18.1376L5.88753 24.1235L7.8628 23.9877L7.45128 18.0018Z" fill="#FF5406" mask="url(#path-5-inside-3)"/>
<mask id="path-7-inside-4" fill="white">
<path d="M35.3813 43.9942L34.011 42.5621C41.3071 35.5869 44.233 26.5624 45.4058 20.2293C46.4058 14.8467 46.344 10.4394 46.2576 8.72335C43.4305 8.29126 34.011 6.61229 27.5543 2.43954C26.6778 3.00743 25.7025 3.55062 24.6532 4.06913L23.789 2.2914C24.9865 1.71117 26.0606 1.08155 26.9988 0.439594C27.3321 0.205031 27.7766 0.205031 28.1222 0.439594C35.1962 5.31603 47.2082 6.87154 47.3193 6.88389C47.7761 6.94561 48.1341 7.31597 48.1835 7.77275C48.2082 7.99497 48.6773 13.3652 47.3564 20.5379C46.5786 24.7477 45.3317 28.7106 43.6651 32.3031C41.5664 36.8091 38.7763 40.735 35.3813 43.9942Z"/>
</mask>
<path d="M35.3813 43.9942L34.011 42.5621C41.3071 35.5869 44.233 26.5624 45.4058 20.2293C46.4058 14.8467 46.344 10.4394 46.2576 8.72335C43.4305 8.29126 34.011 6.61229 27.5543 2.43954C26.6778 3.00743 25.7025 3.55062 24.6532 4.06913L23.789 2.2914C24.9865 1.71117 26.0606 1.08155 26.9988 0.439594C27.3321 0.205031 27.7766 0.205031 28.1222 0.439594C35.1962 5.31603 47.2082 6.87154 47.3193 6.88389C47.7761 6.94561 48.1341 7.31597 48.1835 7.77275C48.2082 7.99497 48.6773 13.3652 47.3564 20.5379C46.5786 24.7477 45.3317 28.7106 43.6651 32.3031C41.5664 36.8091 38.7763 40.735 35.3813 43.9942Z" fill="#FF5406"/>
<path d="M35.3813 43.9942L33.2138 46.0683L35.2913 48.2393L37.4589 46.1583L35.3813 43.9942ZM34.011 42.5621L31.9379 40.3936L29.7684 42.4677L31.8435 44.6362L34.011 42.5621ZM45.4058 20.2293L42.4563 19.6813L42.456 19.683L45.4058 20.2293ZM46.2576 8.72335L49.2538 8.57247L49.1307 6.12763L46.7109 5.75779L46.2576 8.72335ZM27.5543 2.43954L29.1827 -0.0800727L27.5523 -1.13375L25.9231 -0.0782165L27.5543 2.43954ZM24.6532 4.06913L21.9551 5.38071L23.2752 8.09628L25.9821 6.75871L24.6532 4.06913ZM23.789 2.2914L22.4809 -0.40837L19.7776 0.90144L21.0909 3.60299L23.789 2.2914ZM26.9988 0.439594L28.6929 2.91552L28.7091 2.90437L28.7253 2.89301L26.9988 0.439594ZM28.1222 0.439594L29.8249 -2.03039L29.8159 -2.03665L29.8068 -2.04283L28.1222 0.439594ZM47.3193 6.88389L47.7211 3.91091L47.6859 3.90615L47.6506 3.90223L47.3193 6.88389ZM48.1835 7.77275L45.2009 8.0952L45.2019 8.10404L48.1835 7.77275ZM47.3564 20.5379L50.3065 21.0829L50.3068 21.0813L47.3564 20.5379ZM43.6651 32.3031L46.3846 33.5697L46.3865 33.5656L43.6651 32.3031ZM37.5489 41.9201L36.1785 40.488L31.8435 44.6362L33.2138 46.0683L37.5489 41.9201ZM36.0841 44.7306C44.0181 37.1456 47.1248 27.4222 48.3557 20.7755L42.456 19.683C41.3412 25.7027 38.5962 34.0282 31.9379 40.3936L36.0841 44.7306ZM48.3553 20.7772C49.4098 15.1016 49.3483 10.4488 49.2538 8.57247L43.2614 8.87424C43.3398 10.4299 43.4018 14.5917 42.4563 19.6813L48.3553 20.7772ZM46.7109 5.75779C43.881 5.32528 35.0461 3.70927 29.1827 -0.0800727L25.926 4.95916C32.9759 9.51531 42.98 11.2572 45.8044 11.6889L46.7109 5.75779ZM25.9231 -0.0782165C25.1632 0.414137 24.2924 0.901154 23.3242 1.37955L25.9821 6.75871C27.1127 6.20009 28.1925 5.60072 29.1856 4.9573L25.9231 -0.0782165ZM27.3513 2.75754L26.4871 0.979818L21.0909 3.60299L21.9551 5.38071L27.3513 2.75754ZM25.0971 4.99118C26.4265 4.34707 27.6297 3.64293 28.6929 2.91552L25.3048 -2.03633C24.4914 -1.47982 23.5465 -0.924726 22.4809 -0.40837L25.0971 4.99118ZM28.7253 2.89301C28.0047 3.40012 27.0901 3.36466 26.4377 2.92202L29.8068 -2.04283C28.4631 -2.9546 26.6596 -2.99006 25.2723 -2.01383L28.7253 2.89301ZM26.4196 2.90958C30.4002 5.65368 35.5868 7.36646 39.5869 8.39182C43.639 9.43049 46.8093 9.84568 46.988 9.86554L47.6506 3.90223C47.7183 3.90975 44.827 3.54101 41.0768 2.57972C37.2746 1.60513 32.9182 0.101944 29.8249 -2.03039L26.4196 2.90958ZM46.9176 9.85686C45.9988 9.7327 45.299 9.00223 45.2009 8.09519L51.1661 7.4503C50.9693 5.6297 49.5534 4.15852 47.7211 3.91091L46.9176 9.85686ZM45.2019 8.10404C45.2017 8.10251 45.6628 13.1705 44.406 19.9945L50.3068 21.0813C51.6919 13.56 51.2147 7.88742 51.1652 7.44145L45.2019 8.10404ZM44.4063 19.9929C43.6711 23.9722 42.4971 27.6921 40.9437 31.0406L46.3865 33.5656C48.1664 29.729 49.4861 25.5232 50.3065 21.0829L44.4063 19.9929ZM40.9456 31.0364C38.9965 35.2213 36.4194 38.839 33.3038 41.83L37.4589 46.1583C41.1333 42.631 44.1363 38.397 46.3846 33.5697L40.9456 31.0364Z" fill="#FF5406" mask="url(#path-7-inside-4)"/>
</svg>
