<svg width="47" height="48" viewBox="0 0 47 48" fill="none" xmlns="http://www.w3.org/2000/svg">
<path d="M44.6786 22.1245H1.80518C-0.602635 22.0352 -0.600819 18.5796 1.80518 18.4911H44.6786C47.0865 18.5805 47.0846 22.036 44.6786 22.1245ZM46.4953 27.5745C46.4953 26.5711 45.682 25.7578 44.6786 25.7578H1.80518C-0.602635 25.8471 -0.600819 29.3027 1.80518 29.3911H44.6786C45.682 29.3911 46.4953 28.5778 46.4953 27.5745ZM23.2855 15.3088C21.7736 15.3088 20.2623 14.7333 19.1117 13.5827L16.2318 10.6894C15.5241 9.97828 15.5267 8.82806 16.2378 8.12019C16.9491 7.41241 18.0993 7.41514 18.8071 8.12618L21.6839 11.0165C22.5659 11.8987 24.0065 11.8989 24.8919 11.014L27.7681 8.12591C29.5304 6.48291 31.9776 8.92252 30.3426 10.6898L27.4634 13.5808C26.3107 14.7329 24.7978 15.3088 23.2855 15.3088ZM25.1494 6.77358V2.5044C25.0601 0.0965833 21.6045 0.0983998 21.5161 2.5044V6.77358C21.5161 7.77693 22.3294 8.59025 23.3327 8.59025C24.3361 8.59025 25.1494 7.77693 25.1494 6.77358ZM30.3369 39.7622C31.0481 39.0544 31.0507 37.9041 30.3429 37.1929L27.463 34.2996C25.1617 31.9983 21.4164 31.9976 19.1113 34.3015L16.2322 37.1926C14.5965 38.9617 17.0462 41.3988 18.8067 39.7564L21.6828 36.8684C22.5683 35.9834 24.0088 35.9838 24.8908 36.8658L27.7677 39.7562C28.1228 40.1129 28.5889 40.2913 29.0554 40.2913C29.5188 40.2912 29.9824 40.1149 30.3369 39.7622ZM25.0586 45.3779V41.1087C24.9693 38.7009 21.5137 38.7027 21.4252 41.1087V45.3779C21.4252 46.3812 22.2386 47.1945 23.2419 47.1945C24.2453 47.1945 25.0586 46.3812 25.0586 45.3779Z" fill="#FF5406"/>
</svg>
