<svg width="61" height="62" viewBox="0 0 61 62" fill="none" xmlns="http://www.w3.org/2000/svg">
<path d="M25.546 29.7356C24.8931 29.7356 24.3633 30.2654 24.3633 30.9183C24.3633 31.5711 24.8931 32.101 25.546 32.101C26.1988 32.101 26.7286 31.5711 26.7286 30.9183C26.7286 30.2654 26.1988 29.7356 25.546 29.7356Z" fill="#FF5406"/>
<path d="M54.8537 25.4484L45.3922 13.6216C45.1678 13.3411 44.828 13.1777 44.4687 13.1777H16.0844C15.7251 13.1777 15.3853 13.3411 15.1608 13.6216L5.69936 25.4484C5.34586 25.8897 5.361 26.519 5.71214 26.9416C5.71285 26.9426 5.71344 26.9435 5.71427 26.9444L29.3679 55.3287C29.3691 55.3301 29.3705 55.3313 29.3717 55.3327C29.3954 55.3609 29.4206 55.3876 29.4468 55.4133C29.4535 55.4199 29.4602 55.4265 29.4671 55.433C29.4949 55.4591 29.5235 55.4842 29.5535 55.5074C29.5565 55.5096 29.5596 55.5117 29.5625 55.5139C29.5903 55.535 29.6192 55.5546 29.6489 55.573C29.6569 55.578 29.6648 55.583 29.6729 55.5878C29.7054 55.6072 29.7388 55.6254 29.7731 55.6415C29.7759 55.6428 29.7789 55.6439 29.7817 55.6452C29.8139 55.6601 29.8469 55.6731 29.8804 55.685C29.889 55.6881 29.8974 55.6911 29.906 55.6939C29.9424 55.706 29.9794 55.7167 30.0172 55.7252C30.0188 55.7256 30.0205 55.7258 30.022 55.7262C30.0578 55.7341 30.0944 55.7399 30.1312 55.7444C30.1408 55.7456 30.1503 55.7467 30.1599 55.7476C30.1985 55.7516 30.2373 55.7542 30.2765 55.7542C30.3158 55.7542 30.3546 55.7516 30.3931 55.7477C30.4027 55.7468 30.4123 55.7457 30.4219 55.7445C30.4587 55.74 30.4951 55.7342 30.531 55.7263C30.5326 55.726 30.5342 55.7257 30.5359 55.7254C30.5736 55.7169 30.6106 55.7061 30.6471 55.694C30.6557 55.6912 30.6641 55.6882 30.6726 55.6852C30.7062 55.6732 30.7392 55.6601 30.7714 55.6453C30.7742 55.644 30.7771 55.6429 30.78 55.6416C30.8144 55.6254 30.8476 55.6072 30.8802 55.5879C30.8883 55.5831 30.8962 55.5781 30.9042 55.5732C30.9337 55.5546 30.9626 55.5351 30.9905 55.514C30.9935 55.5118 30.9965 55.5098 30.9995 55.5075C31.0295 55.4843 31.0582 55.4593 31.0859 55.4331C31.0928 55.4266 31.0995 55.4201 31.1063 55.4134C31.1324 55.3876 31.1576 55.361 31.1814 55.3328C31.1826 55.3314 31.184 55.3302 31.1852 55.3288L54.8388 26.9445C54.8395 26.9435 54.8401 26.9426 54.8409 26.9418C55.1972 26.5127 55.2017 25.8829 54.8537 25.4484ZM34.3376 15.5431L40.0145 25.0045H20.5386L26.2154 15.5431H34.3376ZM16.6529 15.5431H23.457L17.7801 25.0045H9.0836L16.6529 15.5431ZM9.14794 27.3699H17.6612L26.1745 47.8019L9.14794 27.3699ZM30.2765 51.4966L20.2237 27.3699H40.3293L30.2765 51.4966ZM34.3784 47.8019L42.8918 27.3699H51.4051L34.3784 47.8019ZM42.773 25.0045L37.0961 15.5431H43.9002L51.4694 25.0045H42.773Z" fill="#FF5406"/>
<path d="M35.0072 29.7354H30.2764C29.6234 29.7354 29.0938 30.2648 29.0938 30.918C29.0938 31.5712 29.6234 32.1007 30.2764 32.1007H35.0072C35.6602 32.1007 36.1898 31.5712 36.1898 30.918C36.1898 30.2648 35.6602 29.7354 35.0072 29.7354Z" fill="#FF5406"/>
<path d="M59.3668 5.37232H55.8187V1.82428C55.8187 1.17109 55.2891 0.641602 54.6361 0.641602C53.983 0.641602 53.4534 1.17109 53.4534 1.82428V5.37232H49.9053C49.2523 5.37232 48.7227 5.90181 48.7227 6.555C48.7227 7.2082 49.2523 7.73768 49.9053 7.73768H53.4534V11.2857C53.4534 11.9389 53.983 12.4684 54.6361 12.4684C55.2891 12.4684 55.8187 11.9389 55.8187 11.2857V7.73768H59.3668C60.0199 7.73768 60.5495 7.2082 60.5495 6.555C60.5495 5.90181 60.0199 5.37232 59.3668 5.37232Z" fill="#FF5406"/>
<path d="M10.6441 54.0986H7.09608V50.5506C7.09608 49.8974 6.56648 49.3679 5.9134 49.3679C5.26032 49.3679 4.73072 49.8974 4.73072 50.5506V54.0986H1.18268C0.529604 54.0986 0 54.6281 0 55.2813C0 55.9345 0.529604 56.464 1.18268 56.464H4.73072V60.012C4.73072 60.6652 5.26032 61.1947 5.9134 61.1947C6.56648 61.1947 7.09608 60.6652 7.09608 60.012V56.464H10.6441C11.2972 56.464 11.8268 55.9345 11.8268 55.2813C11.8268 54.6281 11.2972 54.0986 10.6441 54.0986Z" fill="#FF5406"/>
</svg>
