<svg width="53" height="44" viewBox="0 0 53 44" fill="none" xmlns="http://www.w3.org/2000/svg">
<path d="M26.1845 13.1641C23.0824 13.1641 20.5586 15.6879 20.5586 18.79C20.5586 21.3602 22.2917 23.5317 24.6502 24.2015V41.7028C24.6502 42.5502 25.3371 43.2372 26.1845 43.2372C27.0319 43.2372 27.7189 42.5502 27.7189 41.7028V24.2015C30.0773 23.5318 31.8104 21.3602 31.8104 18.79C31.8104 15.6879 29.2866 13.1641 26.1845 13.1641ZM26.1845 21.3472C24.7745 21.3472 23.6273 20.2 23.6273 18.79C23.6273 17.3799 24.7745 16.2327 26.1845 16.2327C27.5946 16.2327 28.7417 17.3799 28.7417 18.79C28.7417 20.2 27.5946 21.3472 26.1845 21.3472Z" fill="#FF5406"/>
<path d="M19.0855 10.5881C18.4864 9.98887 17.515 9.98887 16.9157 10.5881C12.1587 15.3448 12.158 23.045 16.9157 27.8025C17.515 28.4017 18.4863 28.4017 19.0855 27.8025C19.6847 27.2034 19.6847 26.2318 19.0855 25.6326C15.5279 22.0751 15.5273 16.3161 19.0855 12.7579C19.6847 12.1587 19.6847 11.1872 19.0855 10.5881Z" fill="#FF5406"/>
<path d="M35.4513 10.588C34.8522 9.98889 33.8807 9.98889 33.2814 10.588C32.6822 11.1871 32.6822 12.1587 33.2814 12.7579C36.831 16.3074 36.831 22.083 33.2814 25.6325C32.6822 26.2316 32.6822 27.2032 33.2814 27.8024C33.8808 28.4016 34.8521 28.4016 35.4513 27.8024C40.1974 23.0565 40.1974 15.3339 35.4513 10.588Z" fill="#FF5406"/>
<path d="M14.4563 8.12799C15.0555 7.52888 15.0555 6.55733 14.4563 5.95812C13.8572 5.35901 12.8856 5.35901 12.2864 5.95812C4.98786 13.2567 4.98786 25.1322 12.2864 32.4307C12.8854 33.0298 13.857 33.0302 14.4563 32.4307C15.0555 31.8316 15.0555 30.8601 14.4563 30.2609C8.35431 24.1588 8.35431 14.2301 14.4563 8.12799Z" fill="#FF5406"/>
<path d="M40.0841 5.95812C39.485 5.35901 38.5135 5.35901 37.9143 5.95812C37.315 6.55723 37.315 7.52878 37.9143 8.12799C44.0162 14.2301 44.0162 24.1588 37.9143 30.2609C37.315 30.86 37.315 31.8315 37.9143 32.4307C38.5136 33.0299 39.4849 33.0299 40.0841 32.4307C47.3827 25.1322 47.3827 13.2567 40.0841 5.95812Z" fill="#FF5406"/>
<path d="M9.82873 3.49908C10.4279 2.89997 10.4279 1.92843 9.82873 1.32921C9.22962 0.730105 8.25807 0.730105 7.65886 1.32921C-2.56405 11.552 -2.54185 26.8593 7.65886 37.06C8.25787 37.6592 9.22941 37.6595 9.82873 37.06C10.4279 36.4609 10.4279 35.4894 9.82873 34.8902C0.880957 25.9422 0.880957 12.4471 9.82873 3.49908Z" fill="#FF5406"/>
<path d="M44.7091 1.32921C44.11 0.730105 43.1385 0.730105 42.5393 1.32921C41.94 1.92832 41.94 2.89987 42.5393 3.49908C51.4872 12.4471 51.4872 25.9422 42.5393 34.8902C41.94 35.4893 41.94 36.4608 42.5393 37.06C43.1386 37.6593 44.1099 37.6593 44.7091 37.06C54.9319 26.8373 54.9099 11.5299 44.7091 1.32921Z" fill="#FF5406"/>
</svg>
